<?xml version="1.0" encoding="utf-8"?>
<!-- Generator: Adobe Illustrator 26.5.0, SVG Export Plug-In . SVG Version: 6.00 Build 0)  -->
<svg version="1.1" id="Layer_1" xmlns="http://www.w3.org/2000/svg" xmlns:xlink="http://www.w3.org/1999/xlink" x="0px" y="0px"
	 viewBox="0 0 224.5 72.9" enable-background="new 0 0 224.5 72.9" xml:space="preserve">
<g>
	<path fill="#FFFFFF" d="M0,59.7h2c0.1,0.6,0.3,1,0.6,1.3s0.8,0.4,1.4,0.4c1.2,0,1.8-0.5,1.8-1.5c0-0.4-0.1-0.8-0.4-1
		c-0.2-0.2-0.6-0.4-1.1-0.5l-1-0.2c-2-0.3-3-1.4-3-3.1c0-1,0.3-1.8,1-2.4s1.6-0.9,2.7-0.9s1.9,0.3,2.6,0.9c0.6,0.6,1,1.4,1.1,2.4h-2
		c0-0.5-0.2-0.9-0.5-1.2c-0.3-0.2-0.7-0.4-1.2-0.4s-1,0.1-1.2,0.4c-0.3,0.3-0.4,0.6-0.4,1s0.1,0.7,0.4,0.9C3,56,3.4,56.2,4,56.3
		l1,0.3C6.9,57,7.8,58,7.8,59.7c0,1.1-0.4,2-1.1,2.5C6,62.8,5,63.1,3.8,63.1S1.7,62.8,1,62.2S0.1,60.8,0,59.7z"/>
	<path fill="#FFFFFF" d="M17.1,55.5c0,1-0.3,1.8-1,2.5c-0.6,0.6-1.5,0.9-2.6,0.9h-2v4.2H9.3V52h4.1c1.1,0,2,0.3,2.6,0.9
		S17.1,54.4,17.1,55.5z M15,55.5c0-0.5-0.1-0.9-0.4-1.2c-0.3-0.3-0.7-0.4-1.2-0.4h-1.9V57h1.9c0.5,0,0.9-0.1,1.2-0.4
		C14.8,56.4,15,56,15,55.5z"/>
	<path fill="#FFFFFF" d="M19.6,60.9L18.9,63h-2.2l3.9-11h1.7l3.9,11H24l-0.7-2.1H19.6z M21.5,54.9l-1.3,4.2h2.7L21.5,54.9z"/>
	<path fill="#FFFFFF" d="M26.8,56.3c0-2.9,1.4-4.4,4-4.4c1.2,0,2.2,0.3,2.9,1c0.7,0.6,1.1,1.5,1.1,2.7v0.1h-2.1v-0.1
		c0-0.6-0.2-1-0.5-1.3s-0.8-0.5-1.4-0.5c-0.7,0-1.2,0.2-1.5,0.6c-0.3,0.4-0.5,1.1-0.5,2v2.4c0,0.9,0.2,1.5,0.5,2
		c0.3,0.4,0.8,0.6,1.5,0.6c0.6,0,1.1-0.2,1.4-0.5s0.5-0.8,0.5-1.3v-0.1h2.1v0.1c0,1.2-0.4,2.1-1.1,2.7c-0.7,0.6-1.7,1-2.9,1
		c-2.7,0-4-1.5-4-4.4C26.8,58.9,26.8,56.3,26.8,56.3z"/>
	<path fill="#FFFFFF" d="M38.4,56.6h4.2v1.8h-4.2v2.8h4.9V63h-7V52h7v1.8h-4.9V56.6z"/>
	<path fill="#FFFFFF" d="M48,59.7h2c0.1,0.6,0.3,1,0.6,1.3s0.8,0.4,1.4,0.4c1.2,0,1.8-0.5,1.8-1.5c0-0.4-0.1-0.8-0.4-1
		c-0.2-0.2-0.6-0.4-1.1-0.5l-1-0.2c-2-0.3-3-1.4-3-3.1c0-1,0.3-1.8,1-2.4s1.6-0.9,2.7-0.9c1.1,0,1.9,0.3,2.6,0.9
		c0.6,0.6,1,1.4,1.1,2.4h-2c0-0.5-0.2-0.9-0.5-1.2c-0.3-0.2-0.7-0.4-1.2-0.4s-1,0.1-1.2,0.4c-0.3,0.3-0.4,0.6-0.4,1s0.1,0.7,0.4,0.9
		c0.2,0.2,0.6,0.4,1.2,0.5l1.2,0.2c1.9,0.3,2.8,1.4,2.8,3.1c0,1.1-0.4,2-1.1,2.5C54.2,62.7,53.2,63,52,63s-2.1-0.3-2.8-0.9
		S48.1,60.8,48,59.7z"/>
	<path fill="#FFFFFF" d="M61.4,53.8V63h-2.1v-9.2h-2.8V52h7.7v1.8H61.4z"/>
	<path fill="#FFFFFF" d="M66.2,60.9L65.5,63h-2.2l3.9-11H69l3.9,11h-2.2L70,60.9H66.2z M68.1,54.9l-1.3,4.2h2.7L68.1,54.9z"/>
	<path fill="#FFFFFF" d="M77,53.8V63h-2.1v-9.2h-2.8V52h7.7v1.8H77z"/>
	<path fill="#FFFFFF" d="M83.1,52v11H81V52H83.1z"/>
	<path fill="#FFFFFF" d="M84.9,56.3c0-2.9,1.3-4.4,4-4.4c1.2,0,2.2,0.3,2.9,1c0.7,0.7,1.1,1.8,1.1,3.4v2.5c0,1.6-0.4,2.7-1.1,3.4
		s-1.7,1-3,1c-2.6,0-4-1.5-4-4.4L84.9,56.3L84.9,56.3z M90.8,58.8v-2.4c0-0.9-0.2-1.6-0.5-2s-0.8-0.6-1.4-0.6
		c-0.7,0-1.2,0.2-1.5,0.6s-0.4,1-0.4,2v2.4c0,0.9,0.1,1.6,0.4,2s0.8,0.6,1.5,0.6c0.6,0,1.1-0.2,1.4-0.6
		C90.7,60.3,90.8,59.6,90.8,58.8z"/>
	<path fill="#FFFFFF" d="M102.8,63.1h-2.1l-4.1-6.9v6.9h-2.1V52h2.1l4.1,6.9V52h2.1V63.1z"/>
</g>
<path id="Path_1042" fill="none" stroke="#FFFFFF" stroke-miterlimit="10" d="M0.4,72.4h127.2L147.8,56"/>
<g>
	
		<rect id="Rectangle_21" x="190.1" y="8.7" transform="matrix(0.3853 -0.9228 0.9228 0.3853 86.8076 197.0867)" stroke="#FFFFFF" stroke-width="1.01" stroke-miterlimit="10.0002" width="2.4" height="49.4"/>
	<path id="Path_1040" stroke="#FFFFFF" stroke-width="1.01" stroke-miterlimit="10" d="M192.9,35.3l-5.6,13.4l-3.9-1.6l5.6-13.4"/>
	<path id="Path_1041" stroke="#FFFFFF" stroke-width="1.01" stroke-miterlimit="10" d="M189.9,31.4l5.1-12.2l3.9,1.6L193.8,33"/>
	
		<rect id="Rectangle_22" x="190.7" y="41.7" transform="matrix(0.3853 -0.9228 0.9228 0.3853 76.6774 205.356)" stroke="#FFFFFF" stroke-width="1.01" stroke-miterlimit="10.0002" width="3.6" height="6.9"/>
	
		<rect id="Rectangle_23" x="182.1" y="39.8" transform="matrix(0.3853 -0.9228 0.9228 0.3853 74.7244 195.1925)" stroke="#FFFFFF" stroke-width="1.01" stroke-miterlimit="10.0002" width="3.6" height="3.4"/>
	
		<rect id="Rectangle_24" x="198.3" y="27.3" transform="matrix(0.3853 -0.9228 0.9228 0.3853 95.9133 203.6621)" stroke="#FFFFFF" stroke-width="1.01" stroke-miterlimit="10.0002" width="5" height="5"/>
	
		<rect id="Rectangle_25" x="184.8" y="21.6" transform="matrix(0.3853 -0.9228 0.9228 0.3853 92.9215 187.6316)" stroke="#FFFFFF" stroke-width="1.01" stroke-miterlimit="10.0002" width="5" height="5"/>
	
		<rect id="Rectangle_26" x="193.4" y="49.5" transform="matrix(0.3853 -0.9228 0.9228 0.3853 74.8904 221.5766)" stroke="#FFFFFF" stroke-width="1.01" stroke-miterlimit="10.0002" width="20.7" height="10.2"/>
	
		<rect id="Rectangle_27" x="157.2" y="34.4" transform="matrix(0.3853 -0.9228 0.9228 0.3853 66.5128 178.8905)" stroke="#FFFFFF" stroke-width="1.01" stroke-miterlimit="10.0002" width="20.7" height="10.2"/>
	
		<rect id="Rectangle_28" x="204.9" y="22.2" transform="matrix(0.3853 -0.9228 0.9228 0.3853 107.0766 215.3771)" stroke="#FFFFFF" stroke-width="1.01" stroke-miterlimit="10.0002" width="20.7" height="10.2"/>
	
		<rect id="Rectangle_29" x="168.6" y="7" transform="matrix(0.3853 -0.9228 0.9228 0.3853 98.8547 172.5978)" stroke="#FFFFFF" stroke-width="1.01" stroke-miterlimit="10.0002" width="20.7" height="10.2"/>
	
		<line id="Line_350" fill="none" stroke="#FFFFFF" stroke-width="1.01" stroke-miterlimit="10" x1="171.6" y1="30" x2="172.8" y2="27"/>
	
		<line id="Line_351" fill="none" stroke="#FFFFFF" stroke-width="1.01" stroke-miterlimit="10" x1="173.8" y1="24.7" x2="175" y2="21.7"/>
	
		<line id="Line_352" fill="none" stroke="#FFFFFF" stroke-width="1.01" stroke-miterlimit="10" x1="185.1" y1="29.4" x2="186.3" y2="26.4"/>
	
		<line id="Line_353" fill="none" stroke="#FFFFFF" stroke-width="1.01" stroke-miterlimit="10" x1="198.6" y1="35.1" x2="199.9" y2="32.1"/>
	
		<line id="Line_354" fill="none" stroke="#FFFFFF" stroke-width="1.01" stroke-miterlimit="10" x1="209.9" y1="39.8" x2="211.2" y2="36.8"/>
	
		<line id="Line_355" fill="none" stroke="#FFFFFF" stroke-width="1.01" stroke-miterlimit="10" x1="207.7" y1="45.1" x2="209" y2="42.1"/>
	
		<rect id="Rectangle_30" x="171.6" y="11.5" transform="matrix(0.3853 -0.9228 0.9228 0.3853 99.4739 176.1606)" stroke="#FFFFFF" stroke-width="1.01" stroke-miterlimit="10.0002" width="20.7" height="3.8"/>
	
		<rect id="Rectangle_31" x="165.7" y="9" transform="matrix(0.3853 -0.9228 0.9228 0.3853 98.1794 169.1298)" stroke="#FFFFFF" stroke-width="1.01" stroke-miterlimit="10.0002" width="20.7" height="3.8"/>
	
		<rect id="Rectangle_32" x="207.8" y="26.6" transform="matrix(0.3853 -0.9228 0.9228 0.3853 107.8587 218.8342)" stroke="#FFFFFF" stroke-width="1.01" stroke-miterlimit="10.0002" width="20.7" height="3.8"/>
	
		<rect id="Rectangle_33" x="201.9" y="24.1" transform="matrix(0.3853 -0.9228 0.9228 0.3853 106.4343 211.8232)" stroke="#FFFFFF" stroke-width="1.01" stroke-miterlimit="10.0002" width="20.7" height="3.8"/>
	
		<rect id="Rectangle_34" x="196.3" y="53.9" transform="matrix(0.3853 -0.9228 0.9228 0.3853 75.5651 225.0407)" stroke="#FFFFFF" stroke-width="1.01" stroke-miterlimit="10.0002" width="20.7" height="3.8"/>
	
		<rect id="Rectangle_35" x="190.4" y="51.5" transform="matrix(0.3853 -0.9228 0.9228 0.3853 74.1063 218.1076)" stroke="#FFFFFF" stroke-width="1.01" stroke-miterlimit="10.0002" width="20.7" height="3.8"/>
	
		<rect id="Rectangle_36" x="160.1" y="38.8" transform="matrix(0.3853 -0.9228 0.9228 0.3853 67.1884 182.3585)" stroke="#FFFFFF" stroke-width="1.01" stroke-miterlimit="10.0002" width="20.7" height="3.8"/>
	
		<rect id="Rectangle_37" x="154.3" y="36.4" transform="matrix(0.3853 -0.9228 0.9228 0.3853 65.9156 175.5019)" stroke="#FFFFFF" stroke-width="1.01" stroke-miterlimit="10.0002" width="20.7" height="3.8"/>
	
		<rect id="Rectangle_38" x="186.1" y="22" transform="matrix(0.36 -0.933 0.933 0.36 97.7344 189.9463)" stroke="#FFFFFF" stroke-width="1.01" stroke-miterlimit="10.0012" width="2.4" height="3.5"/>
	
		<line id="Line_356" fill="none" stroke="#FFFFFF" stroke-width="1.01" stroke-miterlimit="10" x1="200.3" y1="25.6" x2="202" y2="26.3"/>
	<circle id="Ellipse_5" stroke="#FFFFFF" stroke-width="1.01" stroke-miterlimit="10" cx="196.1" cy="21.2" r="0.9"/>
	<circle id="Ellipse_6" stroke="#FFFFFF" stroke-width="1.01" stroke-miterlimit="10" cx="188" cy="42.2" r="0.9"/>
	
		<line id="Line_357" fill="none" stroke="#FFFFFF" stroke-width="1.01" stroke-miterlimit="10" x1="190.6" y1="29.5" x2="195.4" y2="28.9"/>
	
		<line id="Line_358" fill="none" stroke="#FFFFFF" stroke-width="1.01" stroke-miterlimit="10" x1="194.6" y1="31" x2="191.5" y2="27.3"/>
</g>
</svg>
