<?xml version="1.0" encoding="utf-8"?>
<!-- Generator: Adobe Illustrator 26.5.0, SVG Export Plug-In . SVG Version: 6.00 Build 0)  -->
<svg version="1.1" id="Layer_1" xmlns="http://www.w3.org/2000/svg" xmlns:xlink="http://www.w3.org/1999/xlink" x="0px" y="0px"
	 viewBox="0 0 211.1 59.3" enable-background="new 0 0 211.1 59.3" xml:space="preserve">
<path fill="#FFFFFF" d="M189.2,29.6c0,0,2.1-1.1,2.6-1.3c0.8-0.5,1.2-0.7,1.2-1.2c0.1-0.4-0.1-0.8-0.4-0.9c-0.2-0.1-0.5-0.1-0.5-0.1
	l0,0C192.2,26.1,191.3,27.2,189.2,29.6z"/>
<path stroke="#FFFFFF" stroke-width="0.5831" stroke-linejoin="round" stroke-miterlimit="10" d="M201.3,21.1
	c-2.7,2.7-5.3,5.6-6.9,6.8c-2.6,2.1-4.2,2.2-6.5,3.5c-2.3,1.3-4.1,3.1-5.1,0.9c-1-2.2-5.5-13-5.5-13s-4.6-10.8-5.5-13
	s1.7-2.4,4.1-3.1c2.5-0.7,3.7-1.8,7-2.3c2.1-0.2,5.8-0.1,9.7-0.3"/>
<path stroke="#FFFFFF" stroke-width="0.5831" stroke-linejoin="round" stroke-miterlimit="10" d="M206.3,16.4
	c-1.7,1.7-3.3,3.1-5,4.7c-2.7,2.7-5.3,5.6-6.9,6.8c-1.5,1.2-2.6,1.7-3.8,2.2c0,0,4.6-1.9,3.8-3.7c-0.4-0.9-0.8-1.4-1.5-1.3
	c-2.3,0.3-5.5,1.1-8.3,1.7c-1,0.2-2-0.3-2.4-1.2l-3-7l-3-7c-0.4-0.9-0.1-2,0.7-2.6c2.3-1.7,5.1-3.5,6.9-4.9c0.6-0.5,0.5-1,0-2
	c-0.8-1.8-5.4,0.2-5.4,0.2c1.1-0.5,2.3-1,4.2-1.2c2.1-0.2,5.8-0.1,9.7-0.3c2.3,0,4.4-0.3,6.8-0.4c0,0,2.9,4,4.4,7.6
	S206.3,16.4,206.3,16.4z"/>
<path stroke="#FFFFFF" stroke-width="0.5831" stroke-linejoin="round" stroke-miterlimit="10" d="M203.8,8c1.8,4.1,2.5,8.4,2.5,8.4
	c4.4-4.5,5.1-8.9,4.1-11.3c-1-2.4-4.8-4.9-10.9-4.8C199.4,0.3,202,3.9,203.8,8z"/>
<path fill="#FFFFFF" d="M177.9,3.6c0,0,2.3-0.8,2.7-1c0.9-0.3,1.4-0.4,1.7-0.1c0.3,0.2,0.5,0.7,0.4,0.9c0,0.2-0.2,0.4-0.2,0.4l0,0
	C182.5,3.9,181,3.7,177.9,3.6z"/>
<ellipse transform="matrix(0.9846 -0.1746 0.1746 0.9846 1.7948 33.3839)" fill="none" stroke="#FFFFFF" stroke-width="0.5831" stroke-linejoin="bevel" stroke-miterlimit="9.9998" cx="190.6" cy="6.5" rx="2.2" ry="1.1"/>
<ellipse transform="matrix(0.8066 -0.5911 0.5911 0.8066 26.8786 119.3302)" fill="none" stroke="#FFFFFF" stroke-width="0.5831" stroke-linejoin="bevel" stroke-miterlimit="10.0002" cx="195.8" cy="18.6" rx="2.2" ry="1.1"/>
<path fill="none" stroke="#FFFFFF" stroke-width="0.5831" stroke-linejoin="bevel" stroke-miterlimit="10" d="M189.1,14.3l1,2.3
	c0.3,0.7,1.2,1.1,1.9,0.7l5.4-2.8c0.7-0.4,1.1-1.2,0.7-2.1l-0.8-1.7l-0.8-1.7c-0.3-0.7-1.1-1.1-2-0.9l-5.8,2
	c-0.8,0.2-1.1,1.1-0.8,1.9L189.1,14.3z"/>
<path id="WING_00000077300894388223635750000013021609561153593772_" stroke="#FFFFFF" stroke-width="0.5831" stroke-linejoin="round" stroke-miterlimit="10" d="
	M167.8,7.1c-4.1,0.1-8.1,0.2-12.2,0.3c-1.1,0-2.2,0.3-3.3,0.8l-7.8,3.3c-0.1,0-0.3,0.1-0.3,0.3c-0.1,0.1-0.1,0.1-0.1,0.4
	c0,0.3,0.6,2.1,1.3,4.8"/>
<path id="WING_00000008113505462437608770000015277040694920271290_" stroke="#FFFFFF" stroke-width="0.5831" stroke-linejoin="round" stroke-miterlimit="10" d="
	M179.6,34.7c-2.9,2.9-5.8,5.7-8.6,8.5c-0.8,0.8-1.7,1.4-2.8,1.9l-7.8,3.3c-0.3,0.1-0.5,0-0.7-0.3c-0.8-1.4-1.6-2.7-2.4-4.1"/>
<path id="TRUNK_00000168116317664282599950000007400736955837487005_" stroke="#FFFFFF" stroke-width="0.5831" stroke-linejoin="round" stroke-miterlimit="10" d="
	M151.3,30.4l5.7,13.3c0.1,0.3,0.4,0.4,0.7,0.3l25.2-10.8l0.2-0.6l-5.7-13.4l-5.7-13.4L171,5.5l-25.1,10.9c-0.3,0.1-0.4,0.4-0.3,0.7
	L151.3,30.4z"/>
<line fill="none" stroke="#FFFFFF" stroke-width="0.5831" stroke-linejoin="round" stroke-miterlimit="10" x1="151.3" y1="30.4" x2="171.9" y2="21.6"/>
<polyline stroke="#FFFFFF" stroke-width="0.5831" stroke-linejoin="round" stroke-miterlimit="10" points="145.4,17.2 144.5,17.6 
	156.3,44.5 157.2,44.1 "/>
<line fill="none" stroke="#FFFFFF" stroke-width="0.5831" stroke-linejoin="round" stroke-miterlimit="10" x1="170.1" y1="6.2" x2="182" y2="33.6"/>
<path id="Path_1042" fill="none" stroke="#3390FF" stroke-miterlimit="10" d="M0,58.8h127.2l20.2-16.4"/>
<g>
	<path fill="#3390FF" d="M3,43.6h4.2v1.8H3v2.8H8V50h-7V39h7v1.8H3V43.6z"/>
	<path fill="#3390FF" d="M11.5,47.9L10.8,50H8.6l3.9-11h1.7l3.9,11h-2.2l-0.7-2.1H11.5z M13.3,41.9L12,46.2h2.7L13.3,41.9z"/>
	<path fill="#3390FF" d="M21.2,45.6V50h-2.1V39h4.2c1.1,0,1.9,0.3,2.6,0.9c0.6,0.6,1,1.4,1,2.4c0,0.7-0.2,1.3-0.5,1.8
		c-0.3,0.5-0.8,0.9-1.4,1.1l2.4,4.8h-2.4l-2.1-4.5H21.2z M23.2,43.8c0.5,0,0.9-0.1,1.1-0.4c0.3-0.3,0.4-0.6,0.4-1.1
		c0-0.4-0.1-0.8-0.4-1.1s-0.7-0.4-1.1-0.4h-2v3H23.2z"/>
	<path fill="#3390FF" d="M32.8,40.8V50h-2.1v-9.2h-2.8V39h7.7v1.8H32.8z"/>
	<path fill="#3390FF" d="M44.5,50h-2.1v-4.7h-3.7V50h-2.1V39h2.1v4.5h3.7V39h2.1V50z"/>
	<path fill="#3390FF" d="M50,43.2c0-2.9,1.3-4.4,4-4.4c1.2,0,2.2,0.3,2.9,1c0.7,0.7,1.1,1.8,1.1,3.4v2.5c0,1.6-0.4,2.7-1.1,3.4
		s-1.7,1-3,1c-2.6,0-4-1.5-4-4.4V43.2z M55.9,45.7v-2.4c0-0.9-0.2-1.6-0.5-2c-0.3-0.4-0.8-0.6-1.4-0.6c-0.7,0-1.2,0.2-1.5,0.6
		c-0.3,0.4-0.4,1.1-0.4,2.1v2.4c0,0.9,0.1,1.6,0.4,2s0.8,0.6,1.5,0.6c0.6,0,1.1-0.2,1.4-0.6C55.7,47.3,55.9,46.6,55.9,45.7z"/>
	<path fill="#3390FF" d="M61.6,45.6V50h-2.1V39h4.2c1.1,0,1.9,0.3,2.6,0.9c0.6,0.6,1,1.4,1,2.4c0,0.7-0.2,1.3-0.5,1.8
		c-0.3,0.5-0.8,0.9-1.4,1.1l2.4,4.8h-2.4l-2.1-4.5H61.6z M63.6,43.8c0.5,0,0.9-0.1,1.1-0.4c0.3-0.3,0.4-0.6,0.4-1.1
		c0-0.4-0.1-0.8-0.4-1.1s-0.7-0.4-1.1-0.4h-2v3H63.6z"/>
	<path fill="#3390FF" d="M76.8,46.9c0,1-0.3,1.8-0.9,2.3c-0.6,0.6-1.4,0.8-2.5,0.8H69V39h4.3c1.1,0,1.9,0.3,2.5,0.8
		c0.6,0.5,0.9,1.3,0.9,2.3c0,0.5-0.1,0.9-0.4,1.4c-0.2,0.4-0.6,0.7-1,0.9c0.5,0.2,0.9,0.5,1.1,1C76.7,45.8,76.8,46.3,76.8,46.9z
		 M71.1,43.5h2c0.5,0,0.8-0.1,1.1-0.3c0.3-0.2,0.4-0.6,0.4-1c0-0.4-0.1-0.8-0.4-1c-0.3-0.2-0.6-0.4-1.1-0.4h-2V43.5z M74.7,46.7
		c0-0.4-0.1-0.8-0.4-1c-0.3-0.2-0.6-0.4-1.1-0.4h-2.1v2.9h2.1c0.5,0,0.9-0.1,1.1-0.4C74.6,47.6,74.7,47.2,74.7,46.7z"/>
	<path fill="#3390FF" d="M80.6,39v11h-2.1V39H80.6z"/>
	<path fill="#3390FF" d="M86.6,40.8V50h-2.1v-9.2h-2.8V39h7.7v1.8H86.6z"/>
</g>
</svg>
