<svg enable-background="new 0 0 224.5 72.9" viewBox="0 0 224.5 72.9" xmlns="http://www.w3.org/2000/svg"><path d="m0 59.7h2c.1.6.3 1 .6 1.3s.8.4 1.4.4c1.2 0 1.8-.5 1.8-1.5 0-.4-.1-.8-.4-1-.2-.2-.6-.4-1.1-.5l-1-.2c-2-.3-3-1.4-3-3.1 0-1 .3-1.8 1-2.4s1.6-.9 2.7-.9 1.9.3 2.6.9c.6.6 1 1.4 1.1 2.4h-2c0-.5-.2-.9-.5-1.2-.3-.2-.7-.4-1.2-.4s-1 .1-1.2.4c-.3.3-.4.6-.4 1s.1.7.4.9c.2.2.6.4 1.2.5l1 .3c1.9.4 2.8 1.4 2.8 3.1 0 1.1-.4 2-1.1 2.5-.7.6-1.7.9-2.9.9s-2.1-.3-2.8-.9-.9-1.4-1-2.5z" fill="#3390ff"/><path d="m17.1 55.5c0 1-.3 1.8-1 2.5-.6.6-1.5.9-2.6.9h-2v4.2h-2.2v-11.1h4.1c1.1 0 2 .3 2.6.9s1.1 1.5 1.1 2.6zm-2.1 0c0-.5-.1-.9-.4-1.2s-.7-.4-1.2-.4h-1.9v3.1h1.9c.5 0 .9-.1 1.2-.4.2-.2.4-.6.4-1.1z" fill="#3390ff"/><path d="m19.6 60.9-.7 2.1h-2.2l3.9-11h1.7l3.9 11h-2.2l-.7-2.1zm1.9-6-1.3 4.2h2.7z" fill="#3390ff"/><path d="m26.8 56.3c0-2.9 1.4-4.4 4-4.4 1.2 0 2.2.3 2.9 1 .7.6 1.1 1.5 1.1 2.7v.1h-2.1v-.1c0-.6-.2-1-.5-1.3s-.8-.5-1.4-.5c-.7 0-1.2.2-1.5.6s-.5 1.1-.5 2v2.4c0 .9.2 1.5.5 2 .3.4.8.6 1.5.6.6 0 1.1-.2 1.4-.5s.5-.8.5-1.3v-.1h2.1v.1c0 1.2-.4 2.1-1.1 2.7s-1.7 1-2.9 1c-2.7 0-4-1.5-4-4.4z" fill="#3390ff"/><path d="m38.4 56.6h4.2v1.8h-4.2v2.8h4.9v1.8h-7v-11h7v1.8h-4.9z" fill="#3390ff"/><path d="m48 59.7h2c.1.6.3 1 .6 1.3s.8.4 1.4.4c1.2 0 1.8-.5 1.8-1.5 0-.4-.1-.8-.4-1-.2-.2-.6-.4-1.1-.5l-1-.2c-2-.3-3-1.4-3-3.1 0-1 .3-1.8 1-2.4s1.6-.9 2.7-.9 1.9.3 2.6.9c.6.6 1 1.4 1.1 2.4h-2c0-.5-.2-.9-.5-1.2-.3-.2-.7-.4-1.2-.4s-1 .1-1.2.4c-.3.3-.4.6-.4 1s.1.7.4.9c.2.2.6.4 1.2.5l1.2.2c1.9.3 2.8 1.4 2.8 3.1 0 1.1-.4 2-1.1 2.5-.7.6-1.7.9-2.9.9s-2.1-.3-2.8-.9-1.1-1.3-1.2-2.4z" fill="#3390ff"/><path d="m61.4 53.8v9.2h-2.1v-9.2h-2.8v-1.8h7.7v1.8z" fill="#3390ff"/><path d="m66.2 60.9-.7 2.1h-2.2l3.9-11h1.8l3.9 11h-2.2l-.7-2.1zm1.9-6-1.3 4.2h2.7z" fill="#3390ff"/><path d="m77 53.8v9.2h-2.1v-9.2h-2.8v-1.8h7.7v1.8z" fill="#3390ff"/><path d="m83.1 52v11h-2.1v-11z" fill="#3390ff"/><path d="m84.9 56.3c0-2.9 1.3-4.4 4-4.4 1.2 0 2.2.3 2.9 1s1.1 1.8 1.1 3.4v2.5c0 1.6-.4 2.7-1.1 3.4s-1.7 1-3 1c-2.6 0-4-1.5-4-4.4zm5.9 2.5v-2.4c0-.9-.2-1.6-.5-2s-.8-.6-1.4-.6c-.7 0-1.2.2-1.5.6s-.4 1-.4 2v2.4c0 .9.1 1.6.4 2s.8.6 1.5.6c.6 0 1.1-.2 1.4-.6.4-.5.5-1.2.5-2z" fill="#3390ff"/><path d="m102.8 63.1h-2.1l-4.1-6.9v6.9h-2.1v-11.1h2.1l4.1 6.9v-6.9h2.1z" fill="#3390ff"/><path d="m.4 72.4h127.2l20.2-16.4" fill="none" stroke="#3390ff" stroke-miterlimit="10"/><g stroke="#fff" stroke-width="1.01"><path d="m190.1 8.7h2.4v49.4h-2.4z" stroke-miterlimit="10.0002" transform="matrix(.3853 -.9228 .9228 .3853 86.8076 197.0867)"/><path d="m192.9 35.3-5.6 13.4-3.9-1.6 5.6-13.4" stroke-miterlimit="10"/><path d="m189.9 31.4 5.1-12.2 3.9 1.6-5.1 12.2" stroke-miterlimit="10"/><path d="m190.7 41.7h3.6v6.9h-3.6z" stroke-miterlimit="10.0002" transform="matrix(.3853 -.9228 .9228 .3853 76.6774 205.356)"/><path d="m182.1 39.8h3.6v3.4h-3.6z" stroke-miterlimit="10.0002" transform="matrix(.3853 -.9228 .9228 .3853 74.7244 195.1925)"/><path d="m198.3 27.3h5v5h-5z" stroke-miterlimit="10.0002" transform="matrix(.3853 -.9228 .9228 .3853 95.9133 203.6621)"/><path d="m184.8 21.6h5v5h-5z" stroke-miterlimit="10.0002" transform="matrix(.3853 -.9228 .9228 .3853 92.9215 187.6316)"/><path d="m193.4 49.5h20.7v10.2h-20.7z" stroke-miterlimit="10.0002" transform="matrix(.3853 -.9228 .9228 .3853 74.8904 221.5766)"/><path d="m157.2 34.4h20.7v10.2h-20.7z" stroke-miterlimit="10.0002" transform="matrix(.3853 -.9228 .9228 .3853 66.5128 178.8905)"/><path d="m204.9 22.2h20.7v10.2h-20.7z" stroke-miterlimit="10.0002" transform="matrix(.3853 -.9228 .9228 .3853 107.0766 215.3771)"/><path d="m168.6 7h20.7v10.2h-20.7z" stroke-miterlimit="10.0002" transform="matrix(.3853 -.9228 .9228 .3853 98.8547 172.5978)"/><path d="m171.6 30 1.2-3" fill="none" stroke-miterlimit="10"/><path d="m173.8 24.7 1.2-3" fill="none" stroke-miterlimit="10"/><path d="m185.1 29.4 1.2-3" fill="none" stroke-miterlimit="10"/><path d="m198.6 35.1 1.3-3" fill="none" stroke-miterlimit="10"/><path d="m209.9 39.8 1.3-3" fill="none" stroke-miterlimit="10"/><path d="m207.7 45.1 1.3-3" fill="none" stroke-miterlimit="10"/><path d="m171.6 11.5h20.7v3.8h-20.7z" stroke-miterlimit="10.0002" transform="matrix(.3853 -.9228 .9228 .3853 99.4739 176.1606)"/><path d="m165.7 9h20.7v3.8h-20.7z" stroke-miterlimit="10.0002" transform="matrix(.3853 -.9228 .9228 .3853 98.1794 169.1298)"/><path d="m207.8 26.6h20.7v3.8h-20.7z" stroke-miterlimit="10.0002" transform="matrix(.3853 -.9228 .9228 .3853 107.8587 218.8342)"/><path d="m201.9 24.1h20.7v3.8h-20.7z" stroke-miterlimit="10.0002" transform="matrix(.3853 -.9228 .9228 .3853 106.4343 211.8232)"/><path d="m196.3 53.9h20.7v3.8h-20.7z" stroke-miterlimit="10.0002" transform="matrix(.3853 -.9228 .9228 .3853 75.5651 225.0407)"/><path d="m190.4 51.5h20.7v3.8h-20.7z" stroke-miterlimit="10.0002" transform="matrix(.3853 -.9228 .9228 .3853 74.1063 218.1076)"/><path d="m160.1 38.8h20.7v3.8h-20.7z" stroke-miterlimit="10.0002" transform="matrix(.3853 -.9228 .9228 .3853 67.1884 182.3585)"/><path d="m154.3 36.4h20.7v3.8h-20.7z" stroke-miterlimit="10.0002" transform="matrix(.3853 -.9228 .9228 .3853 65.9156 175.5019)"/><path d="m186.1 22h2.4v3.5h-2.4z" stroke-miterlimit="10.0012" transform="matrix(.36 -.933 .933 .36 97.7344 189.9463)"/><path d="m200.3 25.6 1.7.7" fill="none" stroke-miterlimit="10"/><circle cx="196.1" cy="21.2" r=".9" stroke-miterlimit="10"/><circle cx="188" cy="42.2" r=".9" stroke-miterlimit="10"/><path d="m190.6 29.5 4.8-.6" fill="none" stroke-miterlimit="10"/><path d="m194.6 31-3.1-3.7" fill="none" stroke-miterlimit="10"/></g></svg>