<svg xmlns="http://www.w3.org/2000/svg" width="378.031" height="171.278" viewBox="0 0 378.031 171.278">
  <g id="Earth" transform="translate(-770.087 -4262.322)">
    <path id="Path_1045" data-name="Path 1045" d="M1151,821.38c.241.473.473.946.706,1.42C1151.5,822.326,1151.264,821.861,1151,821.38Z" transform="translate(-20.154 3546.206)"/>
    <path id="Path_1046" data-name="Path 1046" d="M1148,815.52l.884,1.676Z" transform="translate(-19.481 3547.52)"/>
    <path id="Path_1047" data-name="Path 1047" d="M1145.35,810.72c.357.628.714,1.257,1.063,1.893C1146.064,811.977,1145.707,811.348,1145.35,810.72Z" transform="translate(-18.887 3548.596)"/>
    <path id="Path_1048" data-name="Path 1048" d="M1142.3,805.48l.97,1.637Z" transform="translate(-18.203 3549.771)"/>
    <path id="Path_1049" data-name="Path 1049" d="M1071.16,729.38Z" transform="translate(-2.254 3566.832)"/>
    <path id="Path_1050" data-name="Path 1050" d="M1156,831.87c.171.372.334.776.5,1.133C1156.326,832.623,1156.163,832.242,1156,831.87Z" transform="translate(-21.275 3543.854)"/>
    <path id="Path_1051" data-name="Path 1051" d="M1162.81,848.94l.233.644Z" transform="translate(-22.801 3540.028)"/>
    <path id="Path_1052" data-name="Path 1052" d="M1158.68,838.17l.411.993Z" transform="translate(-21.876 3542.442)"/>
    <path id="Path_1053" data-name="Path 1053" d="M964.161,687.83h0Z" transform="translate(21.757 3576.147)"/>
    <path id="Path_1054" data-name="Path 1054" d="M970.74,688.8Z" transform="translate(20.259 3575.93)"/>
    <path id="Path_1055" data-name="Path 1055" d="M1004.1,696.62Z" transform="translate(12.78 3574.177)"/>
    <path id="Path_1056" data-name="Path 1056" d="M967.35,688.27Z" transform="translate(21.019 3576.049)"/>
    <path id="Path_1057" data-name="Path 1057" d="M959.8,687.28Z" transform="translate(22.712 3576.271)"/>
    <path id="Path_1058" data-name="Path 1058" d="M967.2,688.346c1.117.241.776.085.947.1l-1.505-.256h0l-2.452-.341h0C964.562,687.9,965.881,688.114,967.2,688.346Z" transform="translate(21.728 3576.143)" fill="#fff"/>
    <path id="Path_1059" data-name="Path 1059" d="M1143.55,807.59c.473.776.939,1.614,1.4,2.428C1144.489,809.2,1144.023,808.4,1143.55,807.59Z" transform="translate(-18.484 3549.298)" fill="#fff"/>
    <path id="Path_1062" data-name="Path 1062" d="M959.93,687.3c1.071.124,2.141.256,3.2.4C962.071,687.556,961,687.424,959.93,687.3Z" transform="translate(22.683 3576.266)" fill="#fff"/>
    <path id="Path_1063" data-name="Path 1063" d="M811,854.708c-1.358-3.282-4.833-8.417-4.973-11.474s2.568-6.664,2.886-11.117-1.133-6.664-2.389-10.194-6.067-3.476-4.957-6.3.241-4.321.241-4.321-2.816-3.879-3.437-6.323-3.1-1.109-4.562-2.11-5.764-5.369-7.068-6.206-1.125-2.514-1.024-5.477-2.545-1.552-3.879-2.6a33.718,33.718,0,0,0-5.082-2.917c-2.832-1.482-2.746.458-3.879,0a12.007,12.007,0,0,1-2.327-.947,4.266,4.266,0,0,1-2.2-1.73c-.83-1.5-1.986,1.133-1.458,1.552s-.946,3.1-1.614,2.2-1.637,1.078-2,1.156c-.45.2-1.164,1.1-3.631,2.87s-1.707,3.77-1.707,3.77-.411,3.2-.853,3.763a12.519,12.519,0,0,1-2.234,1.629s-1.552,1.777-2,1.815-.194-1.14.652-2.157-.853-.892-.838-1.924,1.381-1.024,2.746-2.219,1.808-3.739,2.281-4.12a4.568,4.568,0,0,0,1.218-2.754c-.147-.659.923-1.893,1.629-3.22.621-1.21.931-.776,1.458-.915s.683-.582.683-1.73-4.3,3.6-4.3,3.6-2.677,5.586-3.2,6.307c-.427.6-2.863,3.6-3.313,4.9s-4.7,5.136-5.136,6.09c-.357.822-2.265.962-2.832,1.164-.636.349.822,1.311,1.645,2.6s-1.7.954-2.948-.551c-1.288-1.373-1.939,1.381-1.939,1.381s-1.086,1.334-2.056,1.024-1.3.4-2.4,1.924c-1.032,1.4-1.241.962-2.451.923-1.257.124-.853,1.513-1.746,2.49a3.77,3.77,0,0,1-2.328,1.428c-.4-.171-1.055,1.117-1.373,1.676s-.7.574-.721-.985c-.07-1.42,1.683-.69,2.025-1.412a4.112,4.112,0,0,1,1.5-1.777,3.522,3.522,0,0,0,1.4-1.28c.264-.582,1.234-.822,1.909-1.032s.481-.465.605-1.094,1.125-.675,1.552-.985,2.219-2.327,3.057-3.1,6.982-6.075,7.378-6.7c.489-.776,1.831-2.6,1.831-2.6s-.2-.124-.287-1.078.551-.908,1.14-1.971-2.164,1.676-3.041,1.846c-.776.047-.861-1.094-1.373-.5s-2.1,1.808-2.995.9c-.776-1.04.822-4.135.52-4.709s-1.8,1.877-2.863.83c-.954-1.172-.915-1.722-1.42-2.04s-.815-1.691-.365-3.964c.388-2.133,1-1.722,1.3-2.11.4-.528.776-.683.683-1.35-.178-.527.884-1.4,1.552-2.327.582-.815,1.071-.248,1.435,0,.465.14,1.4-2.242,1.4-2.242a14.118,14.118,0,0,0,2.1-1.086c.535-.419.714-.9.473-1.094a3.009,3.009,0,0,1-.45-1.614c.147-.946-.574.178-.954.729a3.74,3.74,0,0,1-1.885,1.063c-.318,0-2.824.388-3.367,0-.636-.256-.411-1.156-.272-1.691,0-.4-1.171-.667-1.3-1.21s1.272-.535,2.552-1.715,3.7-3.716,3.7-3.716.178.155,1.482,1.024,1.761-1.164,1.808-1.552-.31-.489-.132-1.234c.295-.869-1.505.054-1.505.054a3.444,3.444,0,0,1-.613-1.9c0-.675-2.327-1.552-2.591-1.792s.605-1.334,1.024-1.909a22.85,22.85,0,0,1,3.32-2.211,18.213,18.213,0,0,0,2.452-3.235,8.208,8.208,0,0,1,2.614-2.615,16.063,16.063,0,0,0,2.948-2.5,6.511,6.511,0,0,1,.946-.776c.256-.241.427-.326.512,0s2.9-2.009,4.034-2.832c1.009-.706,2.04,0,2.328,0,.372-.085.411.481.334.652s-.248,1.3,0,1.288.132-.1.279-.465.411-1.1,1.947-1.94,1.319,1.04,1.4,1.668,1.156-.729,1.722-1.1,3.6.722,3.6.722a4.547,4.547,0,0,0,1.916-.776c.574-.605,1.365.155,1.916.605s.551-.093,2.785-1.2,2.374.776,2.374.776,3.344,0,4.833-.078,4.345,2.521,4.345,2.521,1.7.628,2.141.186c.318-.357.365-1.133.132-2.327s1.047-1.257,1.978-1.552c.776-.171,1.342,1.6.877,2.327s1.722,1.071,1.722,1.071,1.645-1.97,2.723-3.445,1.552-1.234,2.281-2.5,2.4.605,3.708-.178,1.373-1.342.923-1.885c-.3-.605-.225-1.148.838-1.777.931-.551,2.537,4.166,2.855,4.476s2.141-2.475,2.886-3.4.985,2.9,1.6,3.181,1.35-.59,2.327-1.668,8.13,1.909,9.1,2.451c.822.605,1.862-.271,3.949-.3,1.939,0,2.808,2.273,2.808,2.273a3.8,3.8,0,0,1-1.955,1.7c-1.288.481-.512,1.04-.047,1.156s7.3-.233,7.3-.233l1.978-.923a5.347,5.347,0,0,1,2.025.846c1.428.776,2.4,3.1,3.227,4.344s1.878-1.606,2.327-2.087c.559-.5-.846-2.009-1.42-2.777-.706-.722,1.552-1.761,2.327-3.243s4.406.9,5.632,1.792,8.984.706,9.938,1.078c.776.38-.093-1.086-.147-1.707s2.048-1.032,3.1-1.552c.9-.543-.962-.295-.985-.675s-.915.4-3.227-1.389,2.514-3.026,2.514-3.026.124-.14,1.552-1.482,3.421,1.722,3.468,3.057c-.093,1.35-.977,2.8-1.916,2.808s-1.311.628.2,1.373c1.35.776-.147,2.413-.116,3.033-.1.636,1.49,1.552,2.514,1.645,1.156.07-.3-1.5-.582-2.126s1.924-1.334,2.964-2.265.776-4.7,1.032-5.431c.411-.776-5.221-3.049-5.113-3.7,0-.644.124-.574.776-1.715.535-1.133-.776-.908-.954-2.327s1.265-1.334,1.4-1.715,1.443-1.459,1.87-2.521-.776-2.289-.776-2.77a13.109,13.109,0,0,1,.4-2.995c.45-1.016-.644-1.024-.659-1.769.14-.776,3.3-1.427,3.933-1.621a4.244,4.244,0,0,1,2.537-.07c1.109.31,3.53-.605,4.655.116s-1.5,1.652-1.978,1.955a9.013,9.013,0,0,0-1.5,3.15c-.016.38-.357,2.118-1.552,1.459-1.365-.644,0-1.342-3.507-.838s.31.9,1.373,1.808,0,.721-1.94,2.583,3.5,5.834,3.879,6.338.124,1.21-.776,2.622,3.033,1.4,4.112,2.188c.923.776.442,2.428.248,3.755-.326,1.327.357.954,1.265,1.42,1.032.481.908-4.1,1.055-4.329s3.639.776,3.833,1.707a4.352,4.352,0,0,1-.939,3.15c-1.016,1.133,1.846,4.088,2.521,3.794s.535-1.327,1.42-2.211c1.032-.861.372-2.079.776-2.979.24-.908,2.428-.946,2.638-1.466s-.776-.613-1.241-1.009,0-3.328,0-3.328-8.161-4.135-9-4.5c-.993-.365,3.227-.644,4.422-1.04s-3.584-.838-4.717-1.4-1.2-2.731-1.265-4.655,2.537-4.562,3.057-5.477,6.9-1.373,7.518-1.109-3.367,3.879-4.182,4.345.954,1.4.931,1.629-.962.527-.714,1.164c.093.621,1.939,3.181,2.133,4.182.047.985,2.327,1.753,2.583,1.839s.388-1.924.318-2.576c.085-.636-.566-1.435-.822-1.839s.683-.667,1.039-1.086-1.466-1.815-2.149-2.63c-.838-.83,6.051-4.445,6.509-4.329s1.932,3.941,2.591,4.655c.5.721-.659,3-.458,3.646s1.49-.652,1.815-1.614c.171-.97.574.217,1.916,1.3,1.466,1.125,1.715-.83,1.746-1.746.178-.877,1.505-1.21,1.924-1.691s-2.1-.605-2.1-.605-4.376-2.087-4.764-2.653c-.543-.582,3.879-.2,5.431,0,1.427.14,2.9,2.327,2.475,2.739-.566.419-.683.954-.093,1.187s1.6,1.327,2.684,2.056.279,1.458.636,2.537,1.552,1.373,2.157,1.877c.776.551,1.947,1.365,2.327-1.094s2.731.923,3.243,1.831-.465.5-1.909,1.133c-1.552.613,1.9,1.916,2.436,1.691a6.8,6.8,0,0,1,4.438,1.234c1.505,1.109-.9.334-1.746,1.427-.714,1.172,1.815.59,1.815.59a3.227,3.227,0,0,1,3.483-.093c1.916,1.195-1.606.923-2.164,2s.326,2.413,1.226,3.251c.776.776,7.867,5.725,8.6,6.455.861.776,4.655,2.56,5.625,3.739s-.6,1.691-1.435,2.382-.132,4.166-.535,5.431-2.4-1.373-3.1-1.978c-.853-.659-.908-.846-1.071-2.273-.31-1.482-3.39-2.521-5.1-3.623s1.358,5.865,2.389,6.982,5.555,4.6,6.206,5.562-1.955,1.629-2.444,1.738,1.637,2.327,1.459,3.631-8.332-6.5-9.752-6.757c-1.257-.217,6.206,6.866,6.7,7.168s-6.144-.892-7.052-1.722-2.211-.3-3.313-.722-2.591-3.235-3.1-3.964-2.327-.628-2.413-1.746-1.342-1.234-2.653-2.995-6.982,2.7-8.092,1.963,1.272-2.219,1.552-4.95,3.576-1.063,6.315-.931c2.886.2.085-.636.124-2.746s.869-2.2,2.583-1.932,3.452,2.017,4.321,3.018,1.761-.512,2.614-1.552-6.486-1.94-6.486-1.94a2.017,2.017,0,0,1-1.094-2.11c.186-1.4-8.9-11.4-10.768-13.46s-3.266.178-3.1,1.427c0,1.234-2.77.147-2.909-1.435s-7.417.644-7.867.776c-.574.116,4.585,2.428,5.981,3.289,1.552.892-.4,4.608-.4,4.608s1.466,5.609.248,5.8c-1.078.209-1.381,1.877-1.42,3.46s-2.118,1.358-2.878,2.172,3.8,2.133,6.043,4.236c2.056,2.087,2.964,3.243,2.8,3.879s-4.8-.776-6.276-2.234-1.482,2.258-2.894,3.693-1.14.721-1.846-.512-3.289-.892-3.8-1.327,1.784-3.964,1.319-4.95-2.095,1.715-2.4,2.327-2.77,1.156-3.483,1.443-.621.675-1.808,1.42a1.272,1.272,0,0,0-.442,1.738s-5.6,5.431-7.58,7.424c-2.048,2.032-2.149,5.609-2.514,7.936s2.04,9.6,3.569,10.264,2.382-5.64,3.421-4.694.884-3.181,2.537-4.29,6.5.287,7.758,1.234,7.324,12.413,9.054,12.413,2.227,1.552,3.32,3.173-.559,1.148-.846,2.219.287,1.334.946,2.025-.621.574-.838,1.412,1.218,1.063,2.227,2.374,1.552,2.855,3.445,3.313c1.753.4,1.552-3.064,1.552-3.964s-.962-2.576-.884-3.1a12.411,12.411,0,0,0-.295-3.879c-.357-.877.776-1.265,1.6-1.862s3.507-3.421,4.158-5.78.675-4.12-3.351-7.929c-3.879-3.708.217-3.22.551-4.135s0-1.637-.6-2.661-.776-1.109,0-2.064-.419-4.282,0-5.516,2.715-.667,3.336-.737,1.815.659,2.762,1.055.442-.528.528-1.071,2.421.124,3.018.5,2.839,2.987,3.057,4.143,4.422,2.25,5.431,2.995,1.009,4.872.869,5.787,1.8,2.855,3.592,4,5.151-5.8,5.648-7.424,3.445,3.941,3.445,3.941,3.1,6.563,3.817,7.44-.357,2.164-.357,2.164,2.909,3.879,3.724,5.244,2.886,1.195,4.476,2.971-2.731,2.956-3.879,4.065,3.607-1.552,4.577-2.2,3.01,1.35,4.4,2.591-.3,3.631-.279,3.879,1.552,3.1,1.373,3.623a15.477,15.477,0,0,1-1.66,2.808c-.512.628.326,1.769,1.777,2.49s5.725,3.3,6.276,5.175a4.451,4.451,0,0,1-.209,3.809,1.808,1.808,0,0,1-1.645.908,6.144,6.144,0,0,1-1.66-1.257c-.535-.729-.939.543-1.645,1.955s-1.684.5-3.538-1.055,1.691-1.358,2-1.885-6.261-1.3-6.982-2.157,3.2-9.2,2.793-10.683-4.74,3.3-5.71,4.1-3.561-.435-5.051-.846,2.258,2.281,2.824,3.576-2.071.171-2.894-.659a7.847,7.847,0,0,1-1.916-2.227c-.209-.675-6.206.124-6.54,1.257s7.021.908,6.858,1.552a28.343,28.343,0,0,0-.093,3.553c0,1.629-1.389.14-1.389.14a3.956,3.956,0,0,0-.869,2.816c0,1.8,1.4.163,1.4.163l4.779,2.451s2-2.327,2.824-3.2,1.753,2.591,2.482,3.926-1.877,1.466-2.94,2.118-2.607,1.311-5.431,2.77-2.832,2.568-4.2,2.964-1.241-.877-1.482-2.413,1.645-2.591,2.118-3.4-7.137,3.3-8.224,4.6a29.772,29.772,0,0,0-3.483,4.476c-.714,1.311,2.545.853,2.56,1.986s-2.63.388-3.235,1.21-4.5,1.916-5.338,2.4-1.59,3.1-2.149,4.034a9.959,9.959,0,0,0-1.552,2.933c-.248.939-1.094,1.986-1.288,2.9h120.948c-.349-1.257-1.133-4.057-.939-5.012a23.529,23.529,0,0,0,.628-4.1,13.021,13.021,0,0,0-.589-2.234s-.582-1.389-.055-1.839c.551-.279.83-1.187,1.272-.939a1.908,1.908,0,0,0,1.28.411c.466.078,1.288-.264,1.552,0s.9.853,1.552.729a11.46,11.46,0,0,0,2.576.194,12.428,12.428,0,0,0,.14-4.453c-.4-1.35-.644-3.1-1.094-3.491-.489-.59-3.677-5.431-3.677-5.431a2.8,2.8,0,0,1,.737-.566c.271-.078,2.708,2.126,2.327,1.327-.349-.621-.7-2.327-.5-2.389s1.172.209,1.35.163c.217.124,1.466-.233,1.552-.776a21.918,21.918,0,0,1,.652-2.413c.186-.241.124-1.164.6-1.683s.512-4.709.512-4.709.264-2.591.419-2.258.3,2.785.543,2.514c.295-.1.388-.706.427-1.109a10.725,10.725,0,0,0-.373-3.561,13.566,13.566,0,0,1-.682-4.065c.194-.078.589-2.017.845-1.319.318.869,1.552,4.166,1.792,3.879a1.226,1.226,0,0,0-.078-.962c-.124-.357-.714-1.722-.954-2.428-.186-.528-1.21-3.739-1.3-3.879,0,0-.365-.45-.465-.217a7.489,7.489,0,0,1-.4,1.978c-.318.318-.985-.2-1.071-.171a53.07,53.07,0,0,1-3.274-6.4c-.109-.753.171-.69-.116-1.164a8.023,8.023,0,0,1-.776-1.683,10.919,10.919,0,0,1-.442-1.831c.109-.054-.233-2.157-.2-2.583a28.367,28.367,0,0,1,.256-2.839c.109-.481.318-1.652.5-1.552.271.279.318.264.093-.683s.481.171.054-.884-1.179-2.808-1.109-2.847-.458-1.474-.442-1.707c.109-.062-.163-1-.225-1.179a10.029,10.029,0,0,0-.419-1.078,6.822,6.822,0,0,0-.6-.978c.054.186-.1.062,0,.241,0,0-.349-.458-.116.062s.559,1,.45.846a1.7,1.7,0,0,1-.372-.442,5.245,5.245,0,0,1-.667-1.373.955.955,0,0,1,0-.644c-.07-.186-.5-1.032-.551-1.226s-.186-.559-.085-.4.209.318.225.3,0,0-.085-.163h0c.326.535.652,1.078.97,1.621A191.765,191.765,0,0,0,985,720.757c.155.116,1.815,1.358,1.955,1.474.3.233-.892-.388-.939-.326a12.423,12.423,0,0,0,1.73,1.552c1.156.993.5.605.132.473-.225,0,.186.38.551.846a2.956,2.956,0,0,0,1.249.853c.349.178,1.086.458,1.233.582s-.07.4,0,.621a7.537,7.537,0,0,0,1.738,1.156c.178.085.853.45.853.45s1.924,2.444,2.017,2.63-1.606-1.311-2.63-2.157-1.365-.4-1.474.054,1.5,1.435,1.808,1.645,4.314,4.213,4.655,4.725-2.933-2.033-3.522-2.49,1.722,2.017,2.7,2.87a17.065,17.065,0,0,1,2.327,2.413,7.2,7.2,0,0,0-2.568-.442c-.566.093,2.242,2.2,2.529,2.428.155.109,1.311,1.846,1.311,1.846a4.794,4.794,0,0,1-2.56-1.265c-.892-.939-.093.923-.093.923s.279,1.327-.318.628-2.777-.954-2.777-.954,3,2.6,4.011,3.631c1.14,1.164,3.514,3.879,4.523,5.19a1.552,1.552,0,0,1-.776,2.56c-.683.178-2.126-1.885-2.126-1.885s-1.885-2.925-2.8-3.507c-1.047-.706-.435.729.365,1.427s-1,.543-1.482.776.551,1.963,1.885,1.839,4.841,2.638,4.841,2.638-7.471,3.972-8.883,3.964-3.538-2.87-3.538-2.87a9.042,9.042,0,0,0,1.311,2.506c1.032,1.334-2.723,5.143-3.406,5.609-.776.372-.334,2.149-1.505.621s-2.9,2.087-3.879,1.986c-.869,0-1.435,3.033-.776,4.732.535,1.59-1.5,3.181-2.529,4.655s-1.552,11-1.552,11c.07.124-.776.341-.776.341a15.278,15.278,0,0,1-1.947-3.041c-.644-1.474-1.3-.264-1.94-1.358s-3,.5-3.538-.675.877-.116,1.109-1.715c.109-1.7-7.37-9.069-8.417-10.652s-.846-2.079,2.164-2.475-1.7-1.753-2.583-2.708-3.584-3.592-3.654-4.484c-.2-.977-2.816-4.942-2.607-5.8s.4-2.847,1.552-3.561c1.3-.613,2.227-1.482,1.947-3.049s.776-1.792.543-2.9-.5-1-2.389-1.831c-2.04-.908.4,2.056.4,2.056a20.962,20.962,0,0,0-1.784,2.615s-3.631-3.879-4.1-4.911c-.341-.985,3.538.427,3.282-.38-.4-.892-3.809-1.552-3.328-2.11.334-.613,1.427-1.6,3.8.357,2.2,1.885,2.925,1.614,2.793.6-.271-1.094-1.66-2.242-2.211-4.2s-1.994-1.094-3.15-1.016c-1.3,0-2.7,1.288-3.383.178s-.411-1.311-.1-1.9c.442-.5,1.738-.186.683-1.334s.1-.559.5-1.342-.124-.116-1.637-1.893-2.964-1.086-2.227-1.885-1.319-2.327-1.505-2.723a19.545,19.545,0,0,0-1.8-2.188,9.309,9.309,0,0,1-1.42-3.188c-.225-1.249-1.831-1.427-3.879-2.909a30.421,30.421,0,0,0-5.966-2.9c-1.272-.574-2.8.729-6.1.295a12.576,12.576,0,0,1-6.346-2.18c-1.35-.97-.357-.667-1.482-1.87s-2.327-1.311-2.529-2.087,2.281.24,2.4-.24c.287-.419.993.38,1.59-.52s2.63.411,3.639.1-1.3-.652-1.614-.838c-.489-.233-2.5.435-3.445.574-1.109.1-2.42-.481-1.482-.613s.776-.116-.217-1.365-3.3-1.552-4.344-2.708c-.892-1.047,3.8-1.327,4.756-1.428s0-.776,1.621-.5,3.685.388,4.143.085a8.352,8.352,0,0,1,1.877-.582c.621-.163-.776-.636-1.59-1.218-.993-.613.97,0,1.42-.264s.582,0-1.218-.512-3.057-.078-4.438-.675c-1.552-.628-1.04-.481-1.35-.776-.132-.248-.473-.458.388-.838s.721.2,1.109.194c.2-.054,1.831-.365,2.669-.636s1.753,0,1.792-.116c-.155-.171,1.808.566,2.917.776.939.178-1.179-.706-1.164-.776.186,0,.6,0,.062-.233a17.58,17.58,0,0,1-1.971-.776c-.706-.3,1.125.217.954.109s0-.07,1.14.171,4.849,1.722,5.563,1.978-4.81-1.862-4.616-1.854c0,0,2.421.559,3.158.776.559.147.776.178,1.854.489l.729.217h.078a190.855,190.855,0,0,0-25.881-6.067h0l.776.132h0c1.893.318,3.778.652,5.648,1.024h0l-.566-.109c-.776-.116-.939-.163-.566-.07s1.5.287,2.25.411l.939.186h0q2.048.427,4.073.892h0c.372.1,1.668.411,2.405.605.559.14.776.194,1.846.5,1.28.38-.776.078-1.016.109a26.76,26.76,0,0,1-2.847-.349c-.372-.078-.4.054-.776.07a20.765,20.765,0,0,1-2.421-.465c-1.505-.225-1.505-.225-2.824-.4,1.474.365,1.474.365,2.94.776,0,0-3.437-.2-3.3.054s6.517.334,7.975.776-3.615.5-4.236.683-2.149.147-2.219.5-.287.458-1.435.5c-1.334,0-1.877-.093-2.521.272s1.505.985,1.606,1.443c-.093.442-3.375-1.055-4.1-1.164-.915-.14.83.59,1.14.939.5.38-.427.3-1.621.737s-1.668-.047-3.049-.652-.776.2-1.164.349c-.217.178-.054.341.264.69s-2.777.124-.675.776.923-.078,1.327-.287c.582-.163,1.947.465,3.158.884,1.4.465.621.652.776.884,0,.2-1.14.272-2.071.326-1.094,0,1.257.155,1.645,1.047.2.892-1.474.124-2.568.14-1.265,0,1.459.985.543,1.055a30.781,30.781,0,0,1-3.39-.155c-.892,0,.489.357,1.14.729.83.4.69,1.272-1.288,1.412s-1.443.194-2.467-.047a2.537,2.537,0,0,1-1.5-.659c-.481-.365-1.133.582-2.056.962-.776.4,1.164.473,1.715.279s1.381.178,2.552.605c1.334.465,3.1.644,4.034,1.117,1.148.512-.3.776-.714,1.14-.24.419-.427.5-1.241,1.249s-2.056-.085-3.685-.776a4.422,4.422,0,0,0-3.041-.419c-.535.178-.543.217-.884.2a3.2,3.2,0,0,1-1.637-.776c-.776-.466-.706.209-.916.636s-2.087.4-3.2-.659c-.954-1.032-1.249.776-2.615.776s-2.545-.163-3.352-1.195c-.985-1.016-1.552.776-1.552.776a17.888,17.888,0,0,0-2.227.908c-.853.388,2.506.683,1.831.776s-.69.652,1.117,1.552c1.622.923,2.428,1.474,2.428,1.474s.5-.256,1.552-.815,1.28.721,1.28.721,1.839-.047,3.685-.248,1.117-1.148,1.823-1.474c.543-.341.512-.039,1.28.675.59.7,2.079-.466,2.933-.528s3.313,1.738,4.383,2.444.047.776-.884,1.342c-1.086.582.869.869,1.614,1.358s-1.42,1.652-2.382,1.5c-1.117-.186-3.724-.194-4.461-.861s-2.211.822-3.1.21c-.776-.59-.574.846-3.763.45-3.041-.365-2.878-.481-3.964-1.133-.939-.636-2.327.822-3.1.287-.628-.52-1.451,0-2.894-.706s-1.265-2.886-1.257-3.258,1.009-1.164,1.342-1.474c.178-.31-1.994-.636-2.149-2.452,0-1.753-1.016.093-1.854.248a.776.776,0,0,0-.675.7,1.761,1.761,0,0,1-.14,2.071c-.815,1.172,2.327,1.877,2.638,2.863s-.171,1.684-1.3,1.629c-.97-.054-2.4.869-3.553.078s-1.808-.776-1.846-2.056c-.217-1.249.776-.884,1.109-1.319s1.947-1.66,2.1-2.49c.326-.822-.349-.776-.528-1.234s-1.032-.83-1.21-1.249-1.218-.939-1.552-1.365c-.535-.411-1.063-.721-.9-1.047s.869.147,1.381-.116l.683-.241a4.587,4.587,0,0,1,.861,0s1.032.085,1.722.1a5.059,5.059,0,0,1,2.591,1.2c.83.636.644.721.551.729a26.3,26.3,0,0,1,4.05.062c.473.209,1.552-.427,1.908-.776.535-.365,2.281-.776,2.995-1.195a20.571,20.571,0,0,1,2.327-.489c.535-.279-.326-.434-.993-.892-.846-.465-1.552-.434-2.172-1.769-.465-1.272.714-.147,2.327-.326s.667.628.636,1c-.2.372,1.846,1.117,3.546,1.738a1.947,1.947,0,0,0,2.506-.543c.551-.264,1.862-.908,1.552-1.365-.132-.442-2.537.574-3.429.636-.706.07-1.156-.838-1.637-1.42s.776-.908,1.024-1.6-1.427,0-1.792.054a8.977,8.977,0,0,1-3.375-.225c-.69-.357,2.242-1.311,3.344-1.66a4.3,4.3,0,0,1,3.026.465c.683.38,1.808,0,2.894,0,.908,0,1.668-.334,1.365-.838s-1.629-.085-3.367-.869-1.024-.776-1.552-1.458c-.31-.636-.931.147-2.172-.334-1.071-.458-1.016-1.156-1.715-1.761-.52-.566.388-.318.427-.822.217-.465.372-.039,2.033.093a6.382,6.382,0,0,1,3.507,2.2c.5.5,2.149.628,3.227.915s.365,0,1.334-.4c.776-.388-1.451-.233-1.971-.543s-.675-.566-1.032-.729a25.865,25.865,0,0,1-2.467-1.334c-.706-.45,2.25-.078,2.451-.256a16.643,16.643,0,0,1,3.181.054c1.5.093-1.07-.427-.659-.776.605-.287,3.739.287,4.709.109s-2.421-.318-3.716-.465c-1.125-.116.225-.318,1.2-.543s.621-.349-.1-.652a1.978,1.978,0,0,0-2.009.83c-.062.527-2.537.776-3.3.915-.946.1-1.117-.093-.892-.5.039-.4-2.483.535-3.964.388a5,5,0,0,1-2.39-.613c-.729-.295-.566.132-2.242.109s-2.033-.512-2.025-.776,2.987.155,3.538.349a1.14,1.14,0,0,0,1.342-.388c0-.357,1.5,0,2.63,0s1.327-.116.776-.279c-.365-.14-3.964.116-3.577,0,.2-.147,1.552-.194,1.916-.473.209-.264-1.552.264-1.9.241a16.124,16.124,0,0,1-3.018.14c-.737-.186-2.258.124-3.189,0-.776-.132,0-.272-.171-.6,0-.31.574-.225.954-.287a2.134,2.134,0,0,0,.962-.442c.194-.155-1.893.155-2.079.054-.372-.1-.372-.054-.939-.194-.38-.124-1.513.116-1.893,0-.559-.078-.776-.225-.372-.4a11.456,11.456,0,0,1,2.467-.225,8.39,8.39,0,0,1,1.552-.085c.566.039.388-.186,1.342-.225s.559.116.939.209a14.926,14.926,0,0,0,2.273.124c.574,0-1.552-.233-1.885-.341s.388-.1,1.148-.14c.574,0,.388-.062-.178-.186s.776-.1,1.148-.078a8.642,8.642,0,0,1,1.691.357c.372.147,1.7.225,2.265.334.776.14,1.319.209,2.25.458s.954,0,.582-.14a12.3,12.3,0,0,0-1.684-.357c-.372-.07-1.319-.24-.939-.233a7.272,7.272,0,0,0,.962-.078s1.14.085,1.715.093,0-.062,0-.062l1.715.093a12.418,12.418,0,0,0-1.552-.186c-.776-.093,1.715.132,1.715.132l1.893.241c.372.054.776.14,1.5.279.566.132.939.186,2.258.4,1.125.186.388,0,.388,0s-2.444-.427-3.01-.5c-.38-.054-1.552-.209-.946-.147h0a193.176,193.176,0,0,0-22.235-1.3c-98.465,0-179.529,74.648-189.692,170.421H811.975C811.626,856.259,811.3,855.452,811,854.708Zm99.474-107.752s.07-.264.1-.365.295-.07.4.047.085.729.248.109c.3-.59,1.288-.6,2.211-.846s1.87,1.854,1.684,2.925-1.637,1.746-3.607.97S910.215,747.933,910.471,746.956Zm-11.04,23.639c-.683.6-2.219,1.637-3.2-.7,0,0,1.552-.582,1.87-1.552s1.552-.776,3.158-.349S900.13,769.966,899.432,770.595Zm6.781,2.506c-.551.365-.776-.458-.776-1.241a3.685,3.685,0,0,1,1.009-1.552c.776-.7.5.248.939,1.14s-.613,1.3-1.172,1.622Zm4.655-6.206c-.5.434-.776.171-1.3-.5,0,0-.147-.31,0-.427a1.745,1.745,0,0,1,.52-.52,6.319,6.319,0,0,1,1.164-.194c.683-.109.132,1.2-.365,1.606Zm123.788,35.415c.5.341.776.225,1.016-.085a2.816,2.816,0,0,1,1.125-.535l1.125,1.047a6.43,6.43,0,0,0-.349,1.552c0,.59,1.443,1.109,2.537,2.568,1.016,1.319-.66,2.211-.908,2.327s3.794,6.881,4.771,8.037c.9,1.009,1.722,4.12,1.885,4.818a3.1,3.1,0,0,1-.163,1.924c-.31.466.543,1.877.372,2.669s-2.816.116-2.816.116-3.173.605-4.12-.178,1.164-1.986,1.645-2.684c.419-.869-.582-.9-.776-1.389-.241-.644-.574-.892-.271-1.179.24-.45.209-.442.047-2.4a5.552,5.552,0,0,1,0-.931,4.143,4.143,0,0,0,.69-2.327c-.155-.69-1.474-.38-1.777-.636-.38-.411-.2-1.04-.2-2.164-.07-1.288-.613-.318-.776-1.179-.132-.706-1.412-.551-1.334-.962s-.442-.566-.652-1.412.4,0,.574-.776-1.109-.465-1.109-.465a3.747,3.747,0,0,1,.054-.776l-1.125-1.016a6.438,6.438,0,0,0,.846-1.552c.116-.248-1.5-2.188-1.5-2.188s.776-.4,1.2-.217Zm-1.924,11.924c.116-.776,2.157-1.614,2.157-1.614s1.3-1.28,1.482-.6.776.776.954,1.66a19.39,19.39,0,0,1,.078,2.746,15.792,15.792,0,0,0,.264,2.327,2.326,2.326,0,0,1,0,1.466c-.085.582-2.242,2.94-2.839,2.079s-2.467-2.661-1.753-2.925c.776-.1,1.839-.326,1.288-1.746-.512-1.3-1.8-2.777-1.614-3.4ZM1007.6,767.313c1.1-.931,1.552,1.621,1.552,1.621a11.2,11.2,0,0,0,3.157,1.885,5.865,5.865,0,0,0,3.32-.59c.877-.233,2.529,2.056,4.2,4.119s.652,2.56.341,3.2c-.225.776-3.041,2.529-3.041,2.529s-4.3-.923-4.655-1.707-1.831-.528-2.328-1.218-.124-.776.093-1.753c.31-.877-1.311-.69-2.327-1.552a1.109,1.109,0,0,1-1.195-.551c-.419-.729,2.4-.83,2.4-.83s-2.327-.978-2.684-1.552a4.125,4.125,0,0,1,1.172-3.607ZM856.677,739.019c-1.047.551,1.381,1.878,2.2,2.816a4.781,4.781,0,0,1-1.831.729,14.782,14.782,0,0,1-5.547-1.6c-1.893-1.2-2.389.109-3.98,1.3s-4.314,1.552-5.594,2.095c-1.148.52-5.578.543-5.578.543s-.279-1.909-.318-3.018c-.171-1.063-4.7.209-5.9-.217a3.545,3.545,0,0,1-2.157-2.684c-.225-1.109,4.073-.776,6.757-1.474,2.545-.659,4.151.287,5.151-.473,1.148-.776,0-1.133-2.615-1.3s-6.54,1.265-7.541,1.552-2.832-.931-2.8-2.676c.194-1.777,3.352-.442,3.352-.442s2.622-1.722,2.374-2.552c-.1-.861-2.079,1.5-2.964,1.707-1.032.256-3.778-1.164-4.244-2.04-.613-.776,3.018-1.753,3.018-1.753a3.522,3.522,0,0,0,.241-1.792c0-1.009,6.02-3,6.9-3.382s-.171,1.808.233,2.708c.256.946,3.77-2.327,4.492-1.986.566.349-.186,2.56.776,3.46s3.22-2.545,4.655-2.63.186,3.243.4,4.283,3.1-.372,3.825-.776-.458-1.691-1.373-2.483c-.776-.776-.209-1.963-.07-2.971.295-1.024,4.469.38,4.469.38s-.124,2.18.24,2.545,1.241,4.2,1.552,5.151c.147.962,6.207,5,6.408,5.873S857.623,738.484,856.677,739.019Zm-5.741-17.843s.776-.225,2-.535,1.854-.5,2.653.659,0,1.04-.69,1.94-4.034-1.552-3.964-2.095Zm19.62,4.655c.946,1.164-.9,3.584-1.327,4.065a6.516,6.516,0,0,1-3.1,1.963c-.729,0-.683-1.3-1.21-2.327-.38-1.063-5.811-3.879-6.1-5l.256-.45a22.8,22.8,0,0,1,2.909,1.179c.659.5,1.614-.776,1.552-1.179.124-.4-1.7-1.715-1.769-2.4-.217-.659,1.047-.636,1.753-1.622.877-.985,1.125.147,2.281.97s1.3-1.9,2.389-2.39c1.257-.5.861,1.3.877,1.66.178.365-.822,2.328-1.552,3.1s1.924,1.226,3.041,2.343Zm-.776-16.424c.372.908-.861,3.2-1.668,3.693a14.856,14.856,0,0,1-1.878,1.637,3.281,3.281,0,0,1-3.1-.256c-.838-.535.543-1.552.993-2.087.295-.535-.419-1.148-1.1-1.334s-2.591.985-2.94.776-.062-.574.334-1.668-2.04-.163-2.6-.59c-.388-.434-1.319-1.125-.054-2.056,1.109-.9,1.125.869,1.862,1.474.574.628,3.274.574,3.592.318.489-.272-1.334-1.823-.714-2.607s1.715,0,2.459.877c.908.846,1.342-.38,2.529-.551,1.311-.225,1.722,1.428,2.265,2.32Zm5.687-6.044a6.665,6.665,0,0,1-3.15-.628,1.379,1.379,0,0,1,.69-.621,3.421,3.421,0,0,1,1.552-.078c.178,0,1.932-.047,2.281.776s-1.047.279-1.373.5Zm7.634.853a3.787,3.787,0,0,1-1.552.605c-.52.147-1.024-.489-.846-.551.349-.062.543-.9.721-1.117v-.535c0-.217,1.04.318,1.21.45s.8.815.442,1.094Zm-10.644-11.4a.652.652,0,0,1,.931.4c0,.295.923.1,1.66-.132.923-.24.915-.473.915-.473a19.1,19.1,0,0,1-2.421-1.109c-.186-.14.372-.171.372-.279.186-.1,1.862.178,2.421.147.776,0-.931-.59-1.311-.776-.559-.155.559-.419,1.311-.613s.566-.326.566-.411-.939-.07-1.505-.209c-.38-.14,1.125,0,1.691-.14a6.441,6.441,0,0,1,1.877.372c.38,0,.737,1.016.729,1.226s2.227.621,3.15.776c.737.186.528.776.512,1.133s2.374.706,3.46,1.063-.4.613-.24.939.9.287,1.994.38c.908.085,2.141.776,1.947.9a21.238,21.238,0,0,1-2.234.714,7.821,7.821,0,0,1-2.731.225c-.9-.14-.427,1.249-.435,1.482-.194.233-.248,1.35-.776,1.412-.714.062-.147-.706-1.195-1.365-.877-.636-.776.892-.939,1.272,0,.4-2.149.776-4.081-.318-1.784-1.024,0,0,1.435-.776,1.629-.776-1.427-.419-3.576-1.637,0,0-1.086,0-.908-.124a17.254,17.254,0,0,1,3.1-.644,13.092,13.092,0,0,0,2.537-.186c.372-.225-1.078-.326-.884-.776s-1.28-.372-1.637-.372c-.186,0-1.466.559-2.009.628s-2.188-.295-2.009-.628,3.646-.155,2.374-.318a15.437,15.437,0,0,1-2.754-.512,3.988,3.988,0,0,1-1.66-.6.683.683,0,0,1,.295-.722Zm-3.483,5.144s.528-.256,3.057.163c2.7.458,1.994,1.063,2.894,1.87,1.063.838-1.4,1.047-1.932,1.257s-1.04.846-3.01-.116c-1.808-.931.147-.884.318-1.327-.039-.442-1.684-1.218-1.35-1.9Zm-2.816-4.647a6.269,6.269,0,0,1,1.265-.45c.551-.093.559,0,1.311.287.566.326-.512.892-.861,1.435S865.653,693.759,866.157,693.317Zm-10.947,3.212s.178-.039,1.063-.326a5.3,5.3,0,0,1,2.18-.209c.559.07.613.683,2.289,1.094s4.422,1.078,5,1.831c.4.776.978,1.552.667,2.366s-.675.473-2.1.186c-1.614-.264-.923-.566-.954-.923s-1.458-.489-1.846-.776c-.551-.24-1.745.465-2.459.465a4.6,4.6,0,0,1-2.583-.691c-.411-.466.884-.171,2.265-.776,1.552-.628-.59-.442-1.171-.776-.38-.365-3.142-.652-2.327-1.466Zm-.776,5.756s.776.652.993.853a20.947,20.947,0,0,1,2.327,1.963c.6.776-1.808.962-2.6.186s-1.187-2.816-.636-3Zm-9.829-2.141c1.381-.465.946-.869,1.87-.822s1.3,1.218,1.195,1.715c-.271.528-3.2.326-3.2.326s-2.847.388-3.289,0C841.184,701.393,843.411,700.609,844.605,700.144Zm-2.894,2.987c.947.225.341-.124,2.909-.892s3.181-.4,3.747-.217-2,.908-2,.908-2.257,2.327-3.173,2.25c-.776-.147-2.971-.5-2.746-1.148s-2.033-.186-2.622-.365c-.178.047,3.111-.76,3.887-.512Zm-.978,7.316c1.451.3,1.389,1.668,1.777,1.877.217.248,2.234.915,2.987,1.327s1.35-.985,1.753-1.59-.884-.186-1.288-.52.59-.535.683-.954-1.109-1.381-1.109-1.381-.155-.853,1.311-1.443c1.3-.559,1.435-.776,2.2-.388.931.388.186,1.164-.093,1.552-.45.427,1.071,1.3,1.482,1.784s.264.605,1.963-.574c1.552-1.14,1.435.473,1.909,1.552.644,1.063-.776,1.877-.776,1.877s-.846,1.086-1.4,1.831-.985.054-.985.054a5.113,5.113,0,0,0-2.327.21c-.776.372-.566-.419-1.474-.776s-2.327,1.1-4.36,2.537-2.638.939-3.778,1.078a5.786,5.786,0,0,1-3.15-.489c-.241-.3,2.925-1.21,3.445-1.9.69-.721,3.227-.721,3.662-1.063.605-.372-1.218-.178-1.746-.248-.683,0-2.545.07-2.8-.318-.1-.419-2.281,1.257-2.878,1.552s-4.042-.264-4.337-.7c.194.07.776-.884,1.319-.931a24.716,24.716,0,0,0,2.715-.946c.97-.31-1.109-.241-2.056-1.195s1.552-.706,1.66-1.109.892-.675,2.25-1.676,2.141.675,3.437.993Zm-17.657,1.334c.5-.171,7.463-4.4,8.262-4.826a28.24,28.24,0,0,1,3.739-1.784c1.187-.365,1.552-1.249,1.552-.512a1.986,1.986,0,0,1-.5,1.738c-.3.248-1.552,1.032-1.629,1.49s.3,1.218-.776,1.947-1.676,1.769-2.133,1.373c-.628-.341-.078-2.289-.954-1.513a16.141,16.141,0,0,0-2.545,2.428c-.962,1.009-1.505,2.149-2.374,2.234-.706,0,.318-1.3.318-1.3s-.97.349-.978.334c-.714,0-1.862.947-2.5.644S822.417,712.014,823.077,711.781Zm8.146,1.427c-.093.931-1.21,1.342-1.831,1.621a6.109,6.109,0,0,0-.838.163s-.458-.954-.186-1.233,2.1-1.35,2.692-1.808.1.411.186,1.28ZM813.5,730.874c-.233-.551,1.49-2.258,2.382-3.041s.5-1.792.628-2.366c0-.5,1.024-.985,2.234-2.436,1.078-1.373-1.637-.59-1.474-1.552s2.824-1,3.483-1.156a13.479,13.479,0,0,1,2.576-.7c2.141-.4,2.576,2.025,2.576,2.025a6.906,6.906,0,0,0,2.63-.931c1.466-.83,0-.559,2.677.419,2.8,1,2.847,1.753,2.583,2.614-.4.908-6.641,3.778-7.5,4.655a13.969,13.969,0,0,0-2.258,1.614,7.455,7.455,0,0,0-1.257,2.925c-.109.59-1.8.458-1.8.458s-2.281,2.576-2.878,2.731c-.458.093-.822-.776-.621-1.5.07-.652-1.226-.946-2.909-1.7-1.536-.729-.97-1.412-1.071-2.04Z" transform="translate(83.926 3576.378)" fill="#fff"/>
    <path id="Path_1065" data-name="Path 1065" d="M967.37,688.28l2.56.4Z" transform="translate(21.015 3576.047)" fill="#fff"/>
    <path id="Path_1071" data-name="Path 1071" d="M902.344,731.911c.667-.9,1.474-.776.69-1.94s-1.412-.962-2.653-.659-2,.535-2,.535C898.31,730.391,901.692,732.827,902.344,731.911Z" transform="translate(36.482 3566.9)"/>
    <path id="Path_1072" data-name="Path 1072" d="M901.661,729.08a6.017,6.017,0,0,0-1.28.233c-1.234.31-2,.535-2,.535-.054.458,2.327,2.265,3.491,2.265a.528.528,0,0,0,.473-.2c.667-.9,1.474-.776.69-1.94-.465-.683-.869-.892-1.373-.892Z" transform="translate(36.482 3566.9)"/>
    <path id="Path_1073" data-name="Path 1073" d="M918.251,738.7a4.9,4.9,0,0,0-.264-.644,6.243,6.243,0,0,0-2.327-2.327,2.458,2.458,0,0,0,.2-.2,3.678,3.678,0,0,0,.954-1.885V733.4c.24,1.249,1.358,1.823,2.327,2.327.3.155.683.349.97.535a6.391,6.391,0,0,1-1.047,1.7l-.132.147v.054A5.219,5.219,0,0,1,918.251,738.7Zm-1.474-5.772a2.483,2.483,0,0,0-.295-.729,2.327,2.327,0,0,0,.388.14,1.949,1.949,0,0,0-.085.59Z" transform="translate(32.608 3566.2)"/>
    <path id="Path_1074" data-name="Path 1074" d="M918.311,726.6a1.039,1.039,0,0,0-.388.085c-.939.427-1.179,2.545-1.978,2.545a.722.722,0,0,1-.411-.155c-.838-.6-1.195-1.35-1.66-1.35-.178,0-.372.109-.621.38-.706.985-1.971.962-1.753,1.621.07.683,1.893,2,1.769,2.4,0,.318-.644,1.3-1.257,1.3a.527.527,0,0,1-.326-.116,22.806,22.806,0,0,0-2.909-1.179l-.256.45c.287,1.148,5.718,3.941,6.1,5,.528,1.063.481,2.327,1.195,2.327h0a6.209,6.209,0,0,0,3.1-1.963c.427-.481,2.273-2.9,1.327-4.065-1.117-1.148-3.755-1.683-3.026-2.459s1.73-2.746,1.552-3.1c0-.318.287-1.746-.489-1.746Z" transform="translate(34.209 3567.462)"/>
    <path id="Path_1075" data-name="Path 1075" d="M879.19,753.11c-.047-.4-.078-.776-.093-1.1v-.233c-.093-.628-.6-2.071-3.1-2.071h-.155l.543-.132a5.963,5.963,0,0,1,1.552-.178,6.928,6.928,0,0,1,1.008.047,6.577,6.577,0,0,0,.947.039,3.8,3.8,0,0,0,2.327-.675,2.413,2.413,0,0,0,1.164-2.692c-.5-1.839-2.785-1.986-4.794-2.118h-.528a16.943,16.943,0,0,0-3.576.466c1.552-1.552,1.389-2.607,1.257-3.1a2.1,2.1,0,0,0-2.056-1.676,3.914,3.914,0,0,0-2.452,1.241l.178-.38a5.335,5.335,0,0,0,.45-1.87,27.564,27.564,0,0,1,3.181-1.389,2.917,2.917,0,0,0,.178.652,2.165,2.165,0,0,0,2.064,1.427h0a5.136,5.136,0,0,0,2.63-1.094,3.483,3.483,0,0,0,1.078,1.924,2.475,2.475,0,0,0,1.684.644,4.282,4.282,0,0,0,2.692-1.265,4.208,4.208,0,0,0,0,1.218,2.444,2.444,0,0,0,2.529,1.94,10.461,10.461,0,0,0,4.236-1.5,2.327,2.327,0,0,0,1.071-1.552c.163.6.326,1.226.435,1.645.147.582.279,1.078.365,1.389.256,1.078,1.288,1.978,4.112,4.228l.21.163a4.552,4.552,0,0,0-1.552.489,2.327,2.327,0,0,0-1.086,2.816,7.6,7.6,0,0,1-2.079-.83,4.546,4.546,0,0,0-2.374-.776,4.376,4.376,0,0,0-3,1.459c-.256.225-.512.458-.776.675a10.706,10.706,0,0,1-3.266,1.264,15.9,15.9,0,0,0-1.932.605,15.2,15.2,0,0,1-3.064.3Zm-8.93-11.567.194-.054-.1.078Zm22.048-4.655a9.352,9.352,0,0,0-1-1.04v-.109c.279.047.582.116.877.186a7.38,7.38,0,0,0,.124.985Z" transform="translate(42.786 3565.406)"/>
    <path id="Path_1076" data-name="Path 1076" d="M877.983,740.333a5.059,5.059,0,0,0,.628.667,4.029,4.029,0,0,0,.931.652c-.7-.1-1.389-.147-1.994-.186h-.923a5.163,5.163,0,0,0-.054-.776,4.842,4.842,0,0,0,1.412-.357m5,1.622a4.461,4.461,0,0,0,3.879,2.095,10.489,10.489,0,0,0,4.3-1.249,7.339,7.339,0,0,0,2.591,3.3,4.057,4.057,0,0,0-.644.9,6.075,6.075,0,0,0-2.878-.776,6.276,6.276,0,0,0-4.306,1.955,8.331,8.331,0,0,1-.659.566h0a10.569,10.569,0,0,1-2.583.923l-.512.14.078-.062a4.314,4.314,0,0,0,1.9-4.779,4.158,4.158,0,0,0-2.615-2.847h.1a4.654,4.654,0,0,0,1.373-.2m6.548-8.805c-.473,0-.83.1-.908.372-.14,1.008-.706,2.172.07,2.971.915.776,2.064,2.048,1.373,2.483a8.433,8.433,0,0,1-3.2,1.195c-.333,0-.574-.109-.628-.388-.209-1.032.97-4.282-.357-4.282h-.047c-1.241.078-3.1,2.777-4.228,2.777a.582.582,0,0,1-.4-.147c-1-.9-.248-3.1-.776-3.46a.256.256,0,0,0-.116,0c-.776,0-3.3,2.188-4.127,2.188a.225.225,0,0,1-.248-.178c-.372-.83.5-2.746-.062-2.746a.379.379,0,0,0-.171.039c-.884.38-6.9,2.374-6.9,3.383a3.522,3.522,0,0,1-.24,1.792s-3.631.946-3.018,1.753a6.637,6.637,0,0,0,3.964,2.071,1.062,1.062,0,0,0,.279,0c.776-.178,2.281-1.893,2.8-1.893.093,0,.147.054.163.186.248.83-2.374,2.552-2.374,2.552a6.5,6.5,0,0,0-2.095-.481c-.628,0-1.179.217-1.257.923a2.8,2.8,0,0,0,2.49,2.723,1,1,0,0,0,.31-.047c.946-.272,4.507-1.552,7.137-1.552h.4c2.622.171,3.763.512,2.615,1.3a1.846,1.846,0,0,1-1.179.31c-.543,0-1.187-.085-1.963-.085a7.867,7.867,0,0,0-2.009.248c-2.684.714-6.982.365-6.757,1.474a3.546,3.546,0,0,0,2.157,2.684,2.527,2.527,0,0,0,.776.093c1.094,0,2.8-.31,3.949-.31.659,0,1.141.1,1.195.434.039,1.109.318,3.018.318,3.018s4.43,0,5.578-.543c1.28-.543,4.019-.9,5.594-2.095,1.148-.853,1.707-1.753,2.645-1.753a2.623,2.623,0,0,1,1.334.458,14.486,14.486,0,0,0,5.547,1.6h.07a5.245,5.245,0,0,0,1.761-.729c-.815-.939-3.243-2.265-2.2-2.816.915-.535,4.748-.287,4.515-1.156s-6.261-4.911-6.408-5.873c-.287-.946-1.172-4.779-1.552-5.151s-.241-2.545-.241-2.545a15.1,15.1,0,0,0-3.561-.776Z" transform="translate(43.853 3565.996)"/>
    <path id="Path_1077" data-name="Path 1077" d="M928.182,705.354a3.422,3.422,0,0,0-1.552.078,1.38,1.38,0,0,0-.691.621,6.645,6.645,0,0,0,3.15.628c.349-.217,1.738.349,1.4-.52S928.36,705.354,928.182,705.354Z" transform="translate(30.303 3572.231)"/>
    <path id="Path_1078" data-name="Path 1078" d="M928.525,709.244h0m-1.179-3.957a1.715,1.715,0,0,0-.776.14,1.382,1.382,0,0,0-.691.621,7.1,7.1,0,0,0,2.808.675.949.949,0,0,0,.342-.047.543.543,0,0,1,.295-.054h.7c.225,0,.566-.085.4-.5-.318-.776-1.784-.776-2.188-.776h-.093c-.109,0-.45-.062-.822-.062Z" transform="translate(30.317 3572.235)"/>
    <path id="Path_1079" data-name="Path 1079" d="M1136.124,851.484l-.341-.574-.163-.279c.155-.085.326-.171.489-.241C1136.124,850.708,1136.132,851.111,1136.124,851.484Z" transform="translate(-16.706 3539.703)"/>
    <path id="Path_1080" data-name="Path 1080" d="M1136.13,846.982c-.427,0-1.249.776-1.249.776s-2.04.838-2.157,1.614c-.186.621,1.1,2.1,1.6,3.359.551,1.42-.535,1.645-1.288,1.746-.714.264,1.156,2.071,1.753,2.925a.418.418,0,0,0,.365.186c.838,0,2.405-1.777,2.475-2.265a2.326,2.326,0,0,0,0-1.466,15.793,15.793,0,0,1-.264-2.327,19.408,19.408,0,0,0-.078-2.746c-.147-.869-.776-.993-.954-1.66a.233.233,0,0,0-.233-.2Z" transform="translate(-16.053 3540.48)"/>
    <path id="Path_1081" data-name="Path 1081" d="M917.59,717.737a2.453,2.453,0,0,0-.194-1.218,3.042,3.042,0,0,0-.846-1.133,1.78,1.78,0,0,0,.07-.217,2.246,2.246,0,0,0,.434,0,3.251,3.251,0,0,0,1.846-.659h.054c.085.163.171.341.233.473l.186.365a4.3,4.3,0,0,1-.838,1.552l-.155.093-.163.171C918.063,717.3,917.838,717.512,917.59,717.737Z" transform="translate(32.408 3570.166)"/>
    <path id="Path_1082" data-name="Path 1082" d="M912.263,711a.775.775,0,0,0-.628.318c-.621.776,1.2,2.327.714,2.607a3.207,3.207,0,0,1-1.327.178,3.79,3.79,0,0,1-2.265-.5c-.6-.489-.721-1.73-1.319-1.73a.907.907,0,0,0-.543.256c-1.265.931-.334,1.621.054,2.056a1.017,1.017,0,0,0,.582.124c.427,0,.978-.085,1.4-.085s.776.1.621.551c-.4,1.094-.69,1.466-.334,1.668a.2.2,0,0,0,.109,0c.5,0,1.939-.83,2.661-.83a.608.608,0,0,1,.171,0c.683.186,1.4.776,1.1,1.334-.45.551-1.854,1.552-.993,2.087a3.988,3.988,0,0,0,1.978.543,2.088,2.088,0,0,0,1.148-.287,14.86,14.86,0,0,0,1.878-1.637c.776-.5,2.04-2.785,1.668-3.693-.512-.853-.908-2.382-2.11-2.382h-.2c-.884.132-1.358.846-1.908.846a.93.93,0,0,1-.621-.295A3.041,3.041,0,0,0,912.263,711Z" transform="translate(34.717 3570.953)"/>
    <path id="Path_1083" data-name="Path 1083" d="M961.787,790.391c-1.637-.4-2.964-.621-3.158.349s-1.87,1.552-1.87,1.552c.985,2.327,2.521,1.3,3.2.7S963.416,790.787,961.787,790.391Z" transform="translate(23.394 3553.23)"/>
    <path id="Path_1084" data-name="Path 1084" d="M959.755,790.05c-.613,0-1.024.178-1.125.69-.3.947-1.87,1.552-1.87,1.552.465,1.1,1.055,1.451,1.614,1.451a2.607,2.607,0,0,0,1.552-.776c.7-.6,3.452-2.172,1.823-2.576a9.142,9.142,0,0,0-2.033-.341Z" transform="translate(23.394 3553.23)"/>
    <path id="Path_1085" data-name="Path 1085" d="M978.434,764.857a2.77,2.77,0,0,1-.435-.047l.07-.109.287-.062A.816.816,0,0,0,978.434,764.857Z" transform="translate(18.632 3558.927)"/>
    <path id="Path_1086" data-name="Path 1086" d="M978.135,761.993a.487.487,0,0,0-.147,0c-.923.248-1.908.256-2.211.846-.054.2-.085.271-.109.271s-.07-.295-.14-.38a.4.4,0,0,0-.279-.109c-.062,0-.116,0-.124.062s-.1.365-.1.365c-.256.978-.962,2.1,1.04,2.839a4.656,4.656,0,0,0,1.629.326c1.109,0,1.846-.535,1.978-1.3.171-1.009-.659-2.948-1.552-2.948Z" transform="translate(19.373 3559.526)"/>
    <path id="Path_1087" data-name="Path 1087" d="M969.628,793.369a3.685,3.685,0,0,0-1.009,1.552c0,.776.233,1.606.776,1.241s1.691-.729,1.164-1.652S970.4,792.671,969.628,793.369Z" transform="translate(20.735 3552.542)"/>
    <path id="Path_1088" data-name="Path 1088" d="M970.032,793.13a.777.777,0,0,0-.4.24,3.685,3.685,0,0,0-1.009,1.552c0,.652.163,1.334.535,1.334a.45.45,0,0,0,.248-.093c.559-.349,1.691-.729,1.164-1.653-.326-.675-.256-1.381-.535-1.381Z" transform="translate(20.735 3552.54)"/>
    <path id="Path_1089" data-name="Path 1089" d="M1144.015,858.694l.07-.132a2.545,2.545,0,0,0-.776-3.251,6.671,6.671,0,0,0,0-2.234V852.4c.1-.2.217-.434.326-.683a7.06,7.06,0,0,0,.45.59,14.077,14.077,0,0,1,1.474,4,1.131,1.131,0,0,1,0,.683,2.747,2.747,0,0,0-.186,1.722l-.434-.116-.427.085-.458.078Zm-4.344-17.324Z" transform="translate(-17.614 3541.725)"/>
    <path id="Path_1090" data-name="Path 1090" d="M1137.041,833.881a2.814,2.814,0,0,0-1.125.535.644.644,0,0,1-.489.295.962.962,0,0,1-.528-.209.714.714,0,0,0-.295-.054,2.4,2.4,0,0,0-.884.233s1.614,1.94,1.5,2.188a6.441,6.441,0,0,1-.846,1.552l1.117.978a3.649,3.649,0,0,1-.054.776,2.211,2.211,0,0,1,.566-.085c.318,0,.636.109.543.551s-.233.4-.38.4h-.109c-.116,0-.186.047-.085.419.209.846.729,1.009.652,1.412s1.2.256,1.334.962c.186.861.729-.109.776,1.179,0,1.125-.178,1.753.2,2.164.3.256,1.621-.054,1.777.636.217.853-.691,2.327-.691,2.327a5.541,5.541,0,0,0,0,.931c.163,1.963.194,1.955-.047,2.4-.3.287,0,.535.271,1.179.194.489,1.195.52.776,1.389-.481.7-2.6,1.916-1.645,2.684a3.057,3.057,0,0,0,1.808.4,14.251,14.251,0,0,0,2.327-.225,9.4,9.4,0,0,0,1.87.264c.481,0,.884-.093.946-.38.171-.776-.683-2.2-.372-2.669a3.1,3.1,0,0,0,.163-1.924c-.163-.7-.985-3.809-1.885-4.818-.978-1.156-5.027-7.936-4.771-8.037s1.924-1,.908-2.327c-1.094-1.458-2.552-1.978-2.537-2.568a6.43,6.43,0,0,1,.349-1.552l-1.125-1.047Z" transform="translate(-16.28 3543.411)"/>
    <path id="Path_1091" data-name="Path 1091" d="M975.643,786.928a6.319,6.319,0,0,0-1.164.194,1.747,1.747,0,0,0-.52.52c-.155.116,0,.427,0,.427.528.667.776.931,1.3.5S976.3,786.819,975.643,786.928Z" transform="translate(19.553 3553.932)"/>
    <path id="Path_1092" data-name="Path 1092" d="M975.713,786.93h-.07a6.32,6.32,0,0,0-1.164.194,1.746,1.746,0,0,0-.52.52c-.155.116,0,.427,0,.427.349.442.59.706.861.706a.691.691,0,0,0,.442-.209c.481-.411.993-1.637.458-1.637Z" transform="translate(19.553 3553.93)"/>
    <path id="Path_1093" data-name="Path 1093" d="M892.475,719.682a2.134,2.134,0,0,0-.287-.217l.132-.225a2.326,2.326,0,0,0,.365-.853,2.2,2.2,0,0,0,2.4.582l-.465.613h-.776A6.445,6.445,0,0,0,892.475,719.682Zm-8.534-.776h-.776a2.071,2.071,0,0,0-1.148-.349,2.575,2.575,0,0,0-.985.217,1.833,1.833,0,0,0-.442-.7c.295-.178.659-.411,1.078-.706l.14.093a5.362,5.362,0,0,0,1.9.993h.054a2.12,2.12,0,0,1,.1.233Z" transform="translate(40.47 3569.525)"/>
    <path id="Path_1094" data-name="Path 1094" d="M890.233,712.09a5.242,5.242,0,0,0-1.552.59c-1.466.59-1.311,1.443-1.311,1.443s1.21.97,1.109,1.381-1.086.628-.683.954,1.7-.078,1.288.52-.846,1.668-1.474,1.668a.591.591,0,0,1-.279-.078c-.776-.411-2.77-1.078-2.987-1.327-.388-.209-.326-1.552-1.777-1.877-1.009-.248-1.66-1.28-2.537-1.28a1.429,1.429,0,0,0-.846.31c-1.358,1-2.172,1.28-2.25,1.676s-2.607.194-1.66,1.109,3.026.884,2.056,1.195a24.7,24.7,0,0,1-2.715.946c-.5.047-1.086.939-1.3.939h0c.233.349,2.451.776,3.662.776a1.552,1.552,0,0,0,.675-.1,16.948,16.948,0,0,1,2.77-1.66.1.1,0,0,1,.109.07c.256.388,2.118.287,2.8.318a3.2,3.2,0,0,0,.419,0h.776c.52,0,.915,0,.582.24-.434.341-2.971.341-3.662,1.063-.52.69-3.693,1.6-3.445,1.9a5.057,5.057,0,0,0,2.521.527,4.051,4.051,0,0,0,.628-.039,3.778,3.778,0,0,1,.5,0h.59a4.174,4.174,0,0,0,2.684-1.063c1.831-1.288,3.15-2.591,4.057-2.591a.778.778,0,0,1,.3.054c.737.31.776.892,1.14.892a.878.878,0,0,0,.334-.093,3.883,3.883,0,0,1,1.552-.256,6.22,6.22,0,0,1,.776.047.644.644,0,0,0,.465.3c.147,0,.326-.085.52-.357.551-.776,1.4-1.831,1.4-1.831s1.4-.776.776-1.877c-.365-.776-.38-1.916-1.04-1.916a1.591,1.591,0,0,0-.869.388c-.97.667-1.334.923-1.552.923s-.233-.14-.411-.349c-.411-.481-1.932-1.358-1.482-1.784.279-.4,1.024-1.172.093-1.552a1.352,1.352,0,0,0-.644-.2Z" transform="translate(42.1 3570.708)"/>
    <path id="Path_1095" data-name="Path 1095" d="M944.2,715.063a3.881,3.881,0,0,1-.776-.054c-2.242-.272-2.327-.334-2.816-.628l-.349-.217a2.567,2.567,0,0,0-.318-.179l.535-.264.078.31h1.552c.078,0,1.924-.054,3.832-.256a3.708,3.708,0,0,0,2.2-.853,2.685,2.685,0,0,0,1.218.287,5.432,5.432,0,0,0,2.056-.543l.372-.155a12.733,12.733,0,0,1,1.552.923,2.148,2.148,0,0,0-.372,1.334c0,.1,0,.194,0,.287a9.369,9.369,0,0,1-1.815-.287,2.629,2.629,0,0,0-1.683-.582,4.716,4.716,0,0,0-1.668.38l-.272.093a2.328,2.328,0,0,0-1.024-.24,2.591,2.591,0,0,0-1.389.442A1.652,1.652,0,0,1,944.2,715.063Zm-7.518-.884a4.012,4.012,0,0,0-1.552-.31,2.576,2.576,0,0,1-1.094-.233,1.891,1.891,0,0,1-.171-.915c.155-.147.341-.31.442-.4a3.387,3.387,0,0,0,.279-.248l.233-.21v-.047a10.673,10.673,0,0,0,1.024.582c1.3.776,2.048,1.226,2.211,1.334a5.836,5.836,0,0,0-1.3.4Zm-9.845-.334a2.32,2.32,0,0,0,.217-.248l.132-.132a4.932,4.932,0,0,0,.729.613,2.9,2.9,0,0,1-.551.085Zm1.086-7.145h.085a1.182,1.182,0,0,1,.225.062l-.147.078Zm17.541-.706a1.331,1.331,0,0,1-.3-.132l.318.109Zm9.093-3.724c-.241-.054-.4-.093-.489-.124l-.194-.147a2.328,2.328,0,0,0-1.443-.5,2.544,2.544,0,0,0-.706.1,1.962,1.962,0,0,0-.194-.434,2.087,2.087,0,0,0-.923-.884,3.1,3.1,0,0,0,2.327-1.389,2.327,2.327,0,0,0,.248-1.552,2.139,2.139,0,0,0,.582-.442h.07a2.064,2.064,0,0,0,1.218-2.25,1.885,1.885,0,0,0-.295-.776,1.593,1.593,0,0,0,.334-.31c.558.047,1.109.085,1.552.085a4.338,4.338,0,0,0,.892-.07,1.963,1.963,0,0,0,1.746-2.048,2.414,2.414,0,0,0-.14-.776,2.871,2.871,0,0,0,.411,0h.31l.659.116,1.443.241h0c1.117.186,2.18.372,3.2.566a1.63,1.63,0,0,0,.233.085l-.279.473.318.605a3.877,3.877,0,0,0-1.49.489,2.812,2.812,0,0,0-.38.279,4.746,4.746,0,0,0-.869-.233,3.086,3.086,0,0,0-.466,0,1.971,1.971,0,0,0-1.955,1.474h0l-.621-.287a3.881,3.881,0,0,0-1.552-.372,2.133,2.133,0,0,0-2.04,1.4,2.187,2.187,0,0,0-.225.388,1.893,1.893,0,0,0-1.234,1.637c-.163,1.684,1.552,2.234,2.064,2.413l.372.124h-.45a2.017,2.017,0,0,0-2.11,1.6,2.64,2.64,0,0,0,.07.512Zm-4.608-12.553c.047-.047.085-.1.124-.147h.683Z" transform="translate(30.102 3575.758)"/>
    <path id="Path_1096" data-name="Path 1096" d="M939.924,686.406c-.442,0-.846,0-.489.093.566.124.776.147.178.186-.776.039-1.552.039-1.148.14s2.459.341,1.885.341H940.2a13,13,0,0,1-2.126-.124c-.341-.085-.054-.217-.7-.217h-.24c-.884,0-.776.233-1.226.233h-.458a8.983,8.983,0,0,0-1.179.093,11.464,11.464,0,0,0-2.467.225c-.38.179-.186.326.372.4a.88.88,0,0,0,.217,0c.365,0,.939-.085,1.334-.085a1.379,1.379,0,0,1,.341,0c.566.14.566.093.939.194a.436.436,0,0,0,.178,0c.419,0,1.389-.124,1.761-.124.124,0,.178,0,.14.047a2.131,2.131,0,0,1-.962.442c-.38.062-.939,0-.954.287.178.326-.574.465.171.6a4,4,0,0,0,.636.047c.613,0,1.319-.085,1.893-.085a2.721,2.721,0,0,1,.659.062,2.075,2.075,0,0,0,.559.054c.861,0,2.273-.194,2.451-.194h0c.341,0,1.443-.31,1.792-.31.093,0,.132,0,.085.07-.4.279-1.715.326-1.916.473h.248c.566,0,1.854-.062,2.661-.062a3.038,3.038,0,0,1,.667.039c.543.163.357.279-.714.279h-.085c-.776,0-1.668-.163-2.188-.163-.248,0-.411,0-.419.155a1.086,1.086,0,0,1-.923.465,1.172,1.172,0,0,1-.419-.077,16.732,16.732,0,0,0-3.15-.427c-.233,0-.38,0-.388.078,0,.256.341.776,2.025.776h.116a8.373,8.373,0,0,0,1.691-.209,1.1,1.1,0,0,1,.435.1,5,5,0,0,0,2.39.613h.357c1.21,0,2.839-.5,3.406-.5.132,0,.209,0,.2.093-.186.334-.1.528.458.528h.434c.776-.109,3.235-.388,3.3-.915a2.156,2.156,0,0,1,1.614-.9,1.115,1.115,0,0,1,.4.07c.721.3,1.078.45.1.652s-2.327.427-1.2.543c1.3.147,4.655.3,3.716.465a3.31,3.31,0,0,1-.528,0c-.977,0-2.583-.225-3.53-.225a1.676,1.676,0,0,0-.652.085c-.38.3,1.777.776.939.776h-.279c-.892,0-1.87-.124-2.521-.124a2.176,2.176,0,0,0-.659.07,1.2,1.2,0,0,1-.489.054h-1.373c-.434,0-.884,0-.59.233a25.846,25.846,0,0,0,2.467,1.334c.357.163.512.427,1.032.729s2.762.155,1.971.543-.528.512-.776.512a2.848,2.848,0,0,1-.551-.116c-1.078-.287-2.723-.419-3.227-.915a6.381,6.381,0,0,0-3.507-2.2,14.742,14.742,0,0,1-1.777-.31c-.116,0-.186.062-.256.217-.039.5-.946.256-.427.822.7.605.644,1.3,1.715,1.761a2.383,2.383,0,0,0,.861.163c.388,0,.683-.093.908-.093a.4.4,0,0,1,.4.264c.489.667-.24.706,1.552,1.458s3.057.372,3.367.869-.458.83-1.365.838h-.062c-.69,0-1.389.14-1.986.14a1.738,1.738,0,0,1-.846-.171,5.375,5.375,0,0,0-2.18-.59,2.981,2.981,0,0,0-.846.124c-1.1.349-4.034,1.3-3.344,1.66a6.718,6.718,0,0,0,2.25.287,7.551,7.551,0,0,0,1.125-.062,8.527,8.527,0,0,1,1.513-.357c.225,0,.357.078.279.3-.233.69-1.513,1.032-1.024,1.6s.892,1.42,1.552,1.42h.078c.729-.047,2.5-.776,3.165-.776.147,0,.24,0,.264.109.3.458-1.009,1.1-1.552,1.365a2.009,2.009,0,0,1-1.451.776,3.107,3.107,0,0,1-1.055-.217c-1.7-.621-3.747-1.365-3.545-1.738,0-.341.776-1.016-.256-1.016a3.45,3.45,0,0,0-.38,0h-.357a12.967,12.967,0,0,1-1.854-.31c-.217,0-.272.14-.1.613.628,1.334,1.327,1.3,2.172,1.769.667.458,1.552.613.993.892-.714.264-1.4.109-2.327.489-.714.388-2.459.83-2.995,1.195a3.018,3.018,0,0,1-1.668.846.6.6,0,0,1-.241-.047,6.7,6.7,0,0,0-1.676-.116c-1.024,0-2.149.047-2.374.054h0c.093,0,.279-.093-.551-.729a5.057,5.057,0,0,0-2.591-1.2c-.69,0-1.722-.1-1.722-.1h-.512a1.873,1.873,0,0,0-.349,0l-.683.24a.852.852,0,0,1-.388.085c-.271,0-.551-.085-.776-.085s-.2,0-.248.116c-.163.326.365.636.9,1.047.357.427,1.4.962,1.552,1.365s1.032.776,1.21,1.249.853.411.528,1.234c-.155.83-1.784,2.056-2.1,2.49s-1.327.07-1.109,1.319c0,1.28.691,1.272,1.846,2.056a1.87,1.87,0,0,0,1.1.318c.838,0,1.7-.4,2.366-.4h.217c1.04,0,1.474-.667,1.171-1.637s-3.452-1.691-2.638-2.863a1.761,1.761,0,0,0,.14-2.071.776.776,0,0,1,.675-.7c.574-.109,1.234-1,1.552-1,.171,0,.272.194.264.776.155,1.815,2.327,2.141,2.149,2.451-.334.31-1.342,1.094-1.342,1.474s-.194,2.568,1.257,3.258,2.265.186,2.894.706a.714.714,0,0,0,.411.124c.621,0,1.42-.574,2.11-.574a1,1,0,0,1,.566.163c1.086.652.923.776,3.964,1.133a8.971,8.971,0,0,0,1.04.07c1.7,0,2-.659,2.39-.659a.544.544,0,0,1,.334.14.938.938,0,0,0,.535.155c.675,0,1.482-.535,2.095-.535a.7.7,0,0,1,.489.171c.776.667,3.344.675,4.461.861h.194c1.032,0,2.894-1.047,2.188-1.552s-2.7-.776-1.614-1.358c.931-.6,1.947-.636.884-1.342s-3.452-2.444-4.345-2.444h0c-.659.047-1.691.776-2.4.776a.668.668,0,0,1-.528-.225c-.551-.512-.69-.815-.931-.815a.729.729,0,0,0-.349.14c-.706.326.039,1.3-1.823,1.474s-3.685.248-3.685.248-.163-.853-.776-.853a1.1,1.1,0,0,0-.481.132c-1.032.559-1.552.815-1.552.815s-.776-.551-2.428-1.474c-1.808-.9-1.792-1.459-1.117-1.552s-2.684-.388-1.831-.776a17.9,17.9,0,0,1,2.227-.908s.349-1.055.962-1.055a.846.846,0,0,1,.6.31,3.452,3.452,0,0,0,2.948,1.2h.4c1.055-.047,1.474-1.117,2.048-1.117a.776.776,0,0,1,.566.326,3.561,3.561,0,0,0,2.327.915c.427,0,.776-.093.83-.256.163-.326.14-.776.473-.776a.972.972,0,0,1,.442.155,3.2,3.2,0,0,0,1.637.776h.178a2.274,2.274,0,0,0,.776-.209,3.961,3.961,0,0,1,.892-.109,5.522,5.522,0,0,1,2.149.528,10.1,10.1,0,0,0,2.9,1.078,1.086,1.086,0,0,0,.776-.31c.815-.776,1-.83,1.241-1.249.411-.38,1.862-.628.714-1.14-.97-.473-2.7-.652-4.034-1.117a8.047,8.047,0,0,0-2.219-.652,1.158,1.158,0,0,0-.334.046,3.1,3.1,0,0,1-.9.109c-.659,0-1.3-.124-.776-.388.776-.318,1.358-1.04,1.808-1.04a.426.426,0,0,1,.248.078,2.537,2.537,0,0,0,1.5.659,3.819,3.819,0,0,0,.892.178c.248,0,.613-.047,1.552-.132,1.978-.14,2.118-1.009,1.288-1.412-.628-.365-1.932-.737-1.226-.737h.085c.737,0,2.056.178,2.909.178a4.188,4.188,0,0,0,.481,0c.915-.07-1.792-1.055-.551-1.055h0c.683,0,1.552.295,2.11.295.318,0,.5-.1.427-.435-.388-.892-2.739-1.009-1.645-1.047.931-.054,2.04-.124,2.071-.326-.14-.233.636-.419-.776-.884a13.135,13.135,0,0,0-2.933-.908.95.95,0,0,0-.225,0c-.279.147.2.574-.2.574a4.428,4.428,0,0,1-1.125-.287c-2.1-.683.985-.442.675-.776s-.481-.512-.264-.69,0-.559.419-.559a2.135,2.135,0,0,1,.776.21,6.317,6.317,0,0,0,2.2.83,2.326,2.326,0,0,0,.846-.178c1.195-.435,2.118-.357,1.621-.737-.279-.318-1.761-.954-1.319-.954h.178c.636.1,3.212,1.249,3.926,1.249.1,0,.163,0,.178-.085-.1-.458-2.242-1.055-1.606-1.443a2.482,2.482,0,0,1,1.373-.272h1.148c1.148,0,1.358-.132,1.435-.5s1.6-.295,2.219-.5,5.694-.256,4.236-.683-7.836-.473-7.975-.776c-.054-.1.442-.132,1.055-.132.97,0,2.242.078,2.242.078-1.466-.38-1.466-.38-2.94-.776,1.319.171,1.319.171,2.824.4a20.773,20.773,0,0,0,2.42.465c.3,0,.4-.093.59-.093h.21c.349.078,2.327.357,2.777.357h.124c.225,0,.923.085,1.226.085s.233-.047-.264-.194c-1.109-.31-1.288-.365-1.846-.5-.776-.194-2.033-.5-2.4-.605h0q-2.025-.465-4.073-.892h0l-.939-.186c-.776-.124-1.877-.31-2.25-.411l-.178-.047.776.116.566.109h0c-1.87-.372-3.755-.706-5.648-1.024h0l-.776-.132h-.054l-2.56-.4h0c.535.085,1.552.264,1.552.264h-.171a4.7,4.7,0,0,1-.776-.132c-1.319-.233-2.638-.45-3.01-.5h-.1c-1.063-.14-2.133-.271-3.2-.4h-.248c-.078,0,.776.116,1.094.163.566.07,3.018.458,3.01.5s.334.116.209.116a4.575,4.575,0,0,1-.6-.078c-1.319-.21-1.691-.264-2.258-.4-.776-.14-1.125-.225-1.5-.279l-1.893-.241s-1.715-.155-1.854-.155h.14c.7.085,1.715.194,1.552.194h-.062l-1.715-.093s.473.062.116.062h-.124c-.574,0-1.715-.093-1.715-.093a7.5,7.5,0,0,1-.908.078h-.07c-.334,0,.582.163.954.233a12.312,12.312,0,0,1,1.683.357c.256.093.326.256,0,.256a2.229,2.229,0,0,1-.613-.116c-.931-.248-1.5-.318-2.25-.458-.566-.109-1.893-.186-2.265-.334a8.647,8.647,0,0,0-1.691-.357h-.659Z" transform="translate(31.106 3576.493)"/>
    <path id="Path_1097" data-name="Path 1097" d="M861.7,718.142c.636.3,1.784-.628,2.5-.644l.977-.334s-1.024,1.327-.318,1.3c.869-.085,1.412-1.226,2.374-2.234a16.142,16.142,0,0,1,2.545-2.428c.877-.776.326,1.172.954,1.513.458.4,1.078-.644,2.133-1.373s.7-1.49.776-1.947,1.327-1.241,1.629-1.49a1.986,1.986,0,0,0,.5-1.738c0-.776-.334.147-1.552.512a28.257,28.257,0,0,0-3.739,1.784c-.776.427-7.758,4.655-8.262,4.826C861.576,716.094,861.095,717.855,861.7,718.142Z" transform="translate(44.768 3571.522)"/>
    <path id="Path_1098" data-name="Path 1098" d="M875.667,708.473a7.334,7.334,0,0,1-1.435.776,28.231,28.231,0,0,0-3.74,1.784c-.776.427-7.758,4.655-8.262,4.826-.659.209-1.179,1.97-.535,2.258a.613.613,0,0,0,.295.062c.652,0,1.59-.691,2.2-.706h0c.047,0,.977-.334.977-.334s-.993,1.3-.341,1.3h0c.869-.085,1.412-1.226,2.374-2.234a16.148,16.148,0,0,1,2.545-2.428.566.566,0,0,1,.326-.186c.4,0,.1,1.42.628,1.7a.317.317,0,0,0,.217.093c.434,0,1.016-.846,1.916-1.466,1.063-.729.7-1.49.776-1.947s1.327-1.241,1.629-1.489a1.987,1.987,0,0,0,.5-1.738c0-.2,0-.287-.085-.287Z" transform="translate(44.773 3571.525)"/>
    <path id="Path_1099" data-name="Path 1099" d="M938.43,696.977a2.611,2.611,0,0,0-.489-.054h-.124a1.923,1.923,0,0,0,0-.6,2.025,2.025,0,0,0-1.218-1.66.579.579,0,0,0-.054-.093,3.13,3.13,0,0,0-2.808-1.094h-.419a2.05,2.05,0,0,0-.318,0,.947.947,0,0,1,.38-.838c.582.582,1.66.846,3.235,1.164.295,1.187,1.6,1.552,2.971,1.909a2.226,2.226,0,0,0-.822.621,2.249,2.249,0,0,0-.334.644Z" transform="translate(28.721 3575.069)"/>
    <path id="Path_1100" data-name="Path 1100" d="M930.788,688.87h-.163c-.566.116-2.071,0-1.691.14.566.14,1.505.124,1.505.209s.186.233-.566.411-1.87.458-1.311.613c.38.155,2.056.714,1.311.776h-.07c-.528,0-1.66-.171-2.133-.171a.537.537,0,0,0-.194,0c0,.109-.558.14-.372.279a19.12,19.12,0,0,0,2.42,1.109s0,.233-.915.473a5.426,5.426,0,0,1-1.35.279c-.186,0-.31-.039-.31-.147a.82.82,0,0,0-.644-.481.481.481,0,0,0-.287.085.683.683,0,0,0-.349.706,3.988,3.988,0,0,0,1.66.6,15.429,15.429,0,0,0,2.754.512c1.272.163-2.2,0-2.374.318s1.21.636,1.862.636h.147c.543-.07,1.815-.628,2-.628h.411c.551,0,1.342.047,1.2.38-.194.465,1.257.566.884.776a10.467,10.467,0,0,1-2.537.186,17.255,17.255,0,0,0-3.1.644c-.178.124.908.124.908.124,2.149,1.218,5.206.853,3.576,1.637a2.862,2.862,0,0,1-1.427.341h-.7c-.109,0,0,.085.69.481a5.733,5.733,0,0,0,2.723.714c.776,0,1.358-.194,1.358-.4.163-.318.1-1.428.574-1.428a.636.636,0,0,1,.365.155c1.009.636.52,1.373,1.117,1.373h.078c.535-.062.59-1.179.776-1.412,0-.225-.419-1.49.31-1.49h.186a4.657,4.657,0,0,0,.667.047,8.179,8.179,0,0,0,2.064-.272,21.245,21.245,0,0,0,2.234-.714c.194-.163-1.039-.776-1.947-.9-1.094-.093-1.823-.062-1.994-.38s1.319-.566.24-.939-3.476-.675-3.46-1.063.225-.946-.512-1.133a15.786,15.786,0,0,1-3.15-.776c0-.178-.349-1.187-.729-1.226a9.1,9.1,0,0,0-1.715-.388Z" transform="translate(30.366 3575.914)"/>
    <path id="Path_1101" data-name="Path 1101" d="M884.1,707.349c-.225.644,2,1,2.746,1.148.915.116,3.173-2.25,3.173-2.25s2.576-.706,2-.908-1.164-.52-3.747.217-1.963,1.117-2.909.892c-.776-.248-4.065.559-3.879.535C882.07,707.194,884.335,706.743,884.1,707.349Z" transform="translate(40.271 3572.277)"/>
    <path id="Path_1102" data-name="Path 1102" d="M890.813,705.14a9.836,9.836,0,0,0-2.537.458c-2.056.613-2.079.962-2.49.962a1.89,1.89,0,0,1-.419-.07,1.551,1.551,0,0,0-.427-.047,19.154,19.154,0,0,0-3.46.582h0a2.156,2.156,0,0,0,.512.047h1.257c.543,0,.962.062.853.357-.225.644,2,1,2.746,1.148h.07c.954,0,3.1-2.25,3.1-2.25s2.576-.706,2-.908a3.1,3.1,0,0,0-1.21-.24Z" transform="translate(40.271 3572.267)"/>
    <path id="Path_1103" data-name="Path 1103" d="M855.95,742.033a6.441,6.441,0,0,0-2.281-1.3l-1.04-.434a1.436,1.436,0,0,0,0-.186,13.04,13.04,0,0,1,1.707-1.761,3.809,3.809,0,0,0,1.272-3.22l.124-.116a14.746,14.746,0,0,0,1.676-1.683,2.762,2.762,0,0,0,.69-2.017l.271-.054a4.141,4.141,0,0,0,.7-.217,7.871,7.871,0,0,1,1.776-.458h.116a1.374,1.374,0,0,1,.217.5l.357,1.66,1.7-.1a8.6,8.6,0,0,0,3.321-1.109c.31.147.683.31,1.171.489.295.1.543.2.776.287-.776.473-1.839,1.047-2.583,1.458a22.852,22.852,0,0,0-3.592,2.18,12.832,12.832,0,0,0-2.5,1.839,7.275,7.275,0,0,0-1.451,2.785l-1.009-.07-.636.714C856.462,741.49,856.206,741.769,855.95,742.033Z" transform="translate(46.739 3566.561)"/>
    <path id="Path_1104" data-name="Path 1104" d="M859.039,732.872l.256,1.427.582-.047A11.786,11.786,0,0,0,857.8,735.9a7.694,7.694,0,0,0-1.334,2.071h-.326a5.757,5.757,0,0,0,.776-2.475,15.093,15.093,0,0,0,1.373-1.443v-.047h0a5.064,5.064,0,0,0,.659-1.07m1.334-4.779a2.425,2.425,0,0,0-.458,0,13.481,13.481,0,0,0-2.576.7c-.659.155-3.313.194-3.483,1.156s2.552.186,1.474,1.552c-1.21,1.451-2.258,1.932-2.234,2.436-.124.574.279,1.552-.628,2.366s-2.614,2.49-2.382,3.041c.1.628-.465,1.311,1.071,2.095,1.684.776,2.979,1.047,2.909,1.7-.194.675.124,1.5.551,1.5h.07c.6-.155,2.878-2.731,2.878-2.731h.388c.5,0,1.342-.062,1.412-.465a7.456,7.456,0,0,1,1.257-2.925,13.977,13.977,0,0,1,2.258-1.614c.861-.915,7.1-3.786,7.5-4.655.264-.861.217-1.614-2.583-2.614a9.562,9.562,0,0,1-1.87-.915c-.1,0-.209.155-.776.5a6.906,6.906,0,0,1-2.63.931s-.365-2.064-2.118-2.064Z" transform="translate(47.335 3567.11)"/>
    <path id="Path_1105" data-name="Path 1105" d="M871.956,718.213c-.59.458-2.413,1.552-2.692,1.808s.186,1.234.186,1.234a6.119,6.119,0,0,1,.838-.163c.621-.279,1.738-.69,1.831-1.621C872.057,718.6,872.546,717.755,871.956,718.213Z" transform="translate(43.03 3569.365)"/>
    <path id="Path_1106" data-name="Path 1106" d="M872.189,718.076a.45.45,0,0,0-.233.132c-.59.458-2.413,1.552-2.692,1.808s.186,1.233.186,1.233.776-.178.846-.178h0c.628-.279,1.738-.691,1.831-1.622-.047-.706.256-1.389.07-1.389ZM870.288,721.117Z" transform="translate(43.03 3569.37)"/>
    <path id="Path_1107" data-name="Path 1107" d="M922.914,701.944c-.171.442-2.126.4-.318,1.327,1.97.962,2.483.326,3.01.116s2.995-.419,1.932-1.257c-.9-.776-.194-1.412-2.894-1.87-2.529-.419-3.057-.163-3.057-.163C921.253,700.78,922.9,701.556,922.914,701.944Z" transform="translate(31.289 3573.415)"/>
    <path id="Path_1108" data-name="Path 1108" d="M922.316,700a2.02,2.02,0,0,0-.729.078c-.334.706,1.311,1.427,1.327,1.846-.171.442-2.126.4-.318,1.327a4.253,4.253,0,0,0,1.777.52,2.639,2.639,0,0,0,1.234-.4c.527-.209,2.995-.419,1.932-1.257-.9-.776-.194-1.412-2.894-1.87A14.9,14.9,0,0,0,922.316,700Z" transform="translate(31.289 3573.421)"/>
    <path id="Path_1109" data-name="Path 1109" d="M919.718,695.332c.349-.543,1.427-1.109.861-1.435-.776-.3-.776-.38-1.311-.287a6.281,6.281,0,0,0-1.265.45C917.476,694.5,919.384,695.9,919.718,695.332Z" transform="translate(32.103 3574.86)"/>
    <path id="Path_1110" data-name="Path 1110" d="M919.617,693.559a2.364,2.364,0,0,0-.349,0,6.274,6.274,0,0,0-1.265.45c-.442.372.822,1.4,1.443,1.4a.287.287,0,0,0,.271-.132c.349-.543,1.427-1.109.861-1.435a2.729,2.729,0,0,0-.962-.326Z" transform="translate(32.103 3574.872)"/>
    <path id="Path_1111" data-name="Path 1111" d="M906.274,699.642c.582.349,2.731.163,1.171.776-1.381.621-2.677.334-2.265.776a4.87,4.87,0,0,0,2.583.69c.714.008,1.909-.706,2.459-.465.388.256,1.815.388,1.846.776s-.659.659.954.923c1.428.287,1.8.644,2.1-.186s-.264-1.552-.667-2.366c-.582-.776-3.336-1.4-5-1.831s-1.73-1.024-2.289-1.094a5.3,5.3,0,0,0-2.18.209c-.884.287-1.063.326-1.063.326C903.07,698.99,905.832,699.277,906.274,699.642Z" transform="translate(35.276 3573.956)"/>
    <path id="Path_1112" data-name="Path 1112" d="M906.484,697.61a5.005,5.005,0,0,0-1.552.24c-.884.287-1.063.326-1.063.326-.776.776,1.947,1.1,2.327,1.466.582.349,2.731.163,1.171.776-1.381.621-2.677.333-2.265.776a4.87,4.87,0,0,0,2.583.69h0c.605,0,1.552-.52,2.18-.52a.6.6,0,0,1,.272.054c.388.256,1.815.388,1.846.776s-.659.659.954.923a13.694,13.694,0,0,0,1.552.326c.264,0,.419-.124.559-.512.31-.815-.264-1.552-.667-2.366-.582-.776-3.336-1.4-5-1.831s-1.73-1.024-2.289-1.094h-.636Z" transform="translate(35.282 3573.955)"/>
    <path id="Path_1113" data-name="Path 1113" d="M889.049,704.009s2.933.2,3.2-.326c.1-.5-.272-1.668-1.195-1.715s-.489.357-1.87.822c-1.195.442-3.421,1.226-3.429,1.2C886.233,704.4,889.049,704.009,889.049,704.009Z" transform="translate(39.311 3572.979)"/>
    <path id="Path_1114" data-name="Path 1114" d="M891.015,699.61h0m0,1.823c-.776,0-.434.388-1.746.83-1.179.434-3.344,1.2-3.429,1.2h0a2.064,2.064,0,0,0,1.1.178,19.855,19.855,0,0,0,2.188-.163h1.187c.846,0,1.862-.062,2.017-.365.1-.5-.271-1.668-1.195-1.715ZM885.84,703.466Z" transform="translate(39.293 3573.507)"/>
    <path id="Path_1115" data-name="Path 1115" d="M906.217,708.576a20.94,20.94,0,0,0-2.327-1.963c-.2-.2-.993-.853-.993-.853-.512.155-.062,2.25.729,3S906.807,709.321,906.217,708.576Z" transform="translate(35.518 3572.128)"/>
    <path id="Path_1116" data-name="Path 1116" d="M902.937,705.76c-.512.155-.062,2.25.729,3a2.327,2.327,0,0,0,1.552.489c.776,0,1.365-.256,1.032-.675a20.946,20.946,0,0,0-2.327-1.963c-.2-.2-.993-.853-.993-.853Z" transform="translate(35.509 3572.128)"/>
    <path id="Path_1117" data-name="Path 1117" d="M938.621,706.556c-.171-.132-1.2-.659-1.21-.45s0,.535,0,.535c-.178.217-.372,1.055-.721,1.117-.178.062.326.7.846.551a3.787,3.787,0,0,0,1.552-.605C939.459,707.425,938.792,706.688,938.621,706.556Z" transform="translate(27.901 3572.061)"/>
    <path id="Path_1118" data-name="Path 1118" d="M937.489,706.06c-.047,0-.078,0-.078.047v.535c-.178.217-.372,1.055-.722,1.117-.155.054.225.574.683.574h.163a3.787,3.787,0,0,0,1.552-.605c.357-.279-.31-1.016-.481-1.148a3.662,3.662,0,0,0-1.133-.5Z" transform="translate(27.901 3572.061)"/>
    <path id="Path_1127" data-name="Path 1127" d="M686.63,856.971c8.045-83.88,84.128-170.631,188.614-170.631s184.642,83.624,188.42,170.631" transform="translate(83.955 3576.482)" fill="none" stroke="#fff" stroke-miterlimit="10" stroke-width="1"/>
  </g>
</svg>
