<?xml version="1.0" encoding="utf-8"?>
<!-- Generator: Adobe Illustrator 26.5.0, SVG Export Plug-In . SVG Version: 6.00 Build 0)  -->
<svg version="1.1" id="Layer_1" xmlns="http://www.w3.org/2000/svg" xmlns:xlink="http://www.w3.org/1999/xlink" x="0px" y="0px"
	 viewBox="0 0 189.1 147.9" enable-background="new 0 0 189.1 147.9" xml:space="preserve">
<g enable-background="new    ">
	<path fill="#FFFFFF" d="M36.5,136.1h-2.1v-6.5l-2.1,4.4h-1.4l-2.1-4.5v6.6h-2.1v-11h2.1l2.8,6.1l2.8-6.1h2.1V136.1z"/>
	<path fill="#FFFFFF" d="M38.2,129.3c0-2.9,1.3-4.4,4-4.4c1.2,0,2.2,0.3,2.9,1s1.1,1.8,1.1,3.4v2.5c0,1.6-0.4,2.7-1.1,3.4
		c-0.7,0.7-1.7,1-3,1c-2.6,0-4-1.5-4-4.4L38.2,129.3L38.2,129.3z M44.1,131.8v-2.4c0-0.9-0.2-1.6-0.5-2s-0.8-0.6-1.4-0.6
		c-0.7,0-1.2,0.2-1.5,0.6s-0.4,1.1-0.4,2.1v2.4c0,0.9,0.1,1.6,0.4,2s0.8,0.6,1.5,0.6c0.6,0,1.1-0.2,1.4-0.6
		C44,133.4,44.1,132.7,44.1,131.8z"/>
</g>
<g enable-background="new    ">
	<path fill="#FFFFFF" d="M47.8,129.3c0-2.9,1.3-4.4,4-4.4c1.2,0,2.2,0.3,2.9,1s1.1,1.8,1.1,3.4v2.5c0,1.6-0.4,2.7-1.1,3.4
		c-0.7,0.7-1.7,1-3,1c-2.6,0-4-1.5-4-4.4L47.8,129.3L47.8,129.3z M53.7,131.8v-2.4c0-0.9-0.2-1.6-0.5-2s-0.8-0.6-1.4-0.6
		c-0.7,0-1.2,0.2-1.5,0.6s-0.4,1.1-0.4,2.1v2.4c0,0.9,0.1,1.6,0.4,2s0.8,0.6,1.5,0.6c0.6,0,1.1-0.2,1.4-0.6
		C53.6,133.4,53.7,132.7,53.7,131.8z"/>
</g>
<g enable-background="new    ">
	<path fill="#FFFFFF" d="M65.7,136.1h-2.1l-4.1-6.9v6.9h-2.1v-11h2.1l4.1,6.9v-6.9h2.1V136.1L65.7,136.1z"/>
</g>
<path id="Path_1044" fill="none" stroke="#FFFFFF" stroke-miterlimit="10" d="M19.8,147.5h55.1L97,120.7"/>
<g>
	<ellipse id="Ellipse_9" stroke="#FFFFFF" stroke-width="1.01" stroke-miterlimit="10" cx="123.9" cy="53.4" rx="46.3" ry="46.9"/>
	<circle id="Ellipse_10" cx="132.7" cy="56.3" r="56.3"/>
	<path id="Path_1129" d="M82.6,68.1c0.3,0.7,0.6,1.4,0.9,2c0.1,0.3,0.2,0.5,0.2,0.8c-0.1,0.5-0.2,0.9-0.3,1.4L82.1,72
		c-0.2-0.7,0-1.5-0.7-2l0.2-1.3l-0.3-0.5C81.7,68.1,82.2,68.5,82.6,68.1z"/>
	<path id="Path_1130" d="M78.4,60.1c0.4,0.7,0,1.3-0.1,1.9C77.9,61.1,77.9,61.1,78.4,60.1z"/>
	<path id="Path_1131" d="M93.9,76.8l0.4,0.6c-0.1,0.3-0.2,0.5-0.6,0.4l-0.3-0.7L93.9,76.8L93.9,76.8z"/>
	<path id="Path_1132" d="M85.1,78.9h0.5l0.2,1.2c-0.3,0.2-0.4,0-0.5-0.2C85.2,79.6,85.2,79.3,85.1,78.9z"/>
	<path id="Path_1133" d="M86.4,79.9l0.5,0.9c-0.3,0.3-0.5,0.1-0.6-0.1C86.3,80.4,86.3,80.2,86.4,79.9L86.4,79.9z"/>
	<path id="Path_1134" fill="#FFFFFF" d="M85.3,32.2h0.6l0.2,0.7l0.9-0.8l0.7-0.1c0.4-0.4,0.5-0.9,0.4-1.4C88,30.3,88,30,87.9,29.5
		l0.9,0.6l0.4-0.1c0.1,0.2,0.3,0.4,0.4,0.7c0.2,0.3,0.1,0.6-0.2,0.8l-0.8,0.1c-0.6,0.5-0.5,1.4-0.9,2c-0.5-0.2,0.1-0.6-0.3-0.9
		l-1.2,0.5l0.4,0.5c-0.1,0.1-0.2,0.2-0.2,0.2c-0.5,0-0.9,0.3-1.1,0.7c-0.2,0.3-0.3,0.8-0.9,0.8v-1.3L85.3,32.2z"/>
	<path id="Path_1135" fill="#FFFFFF" d="M80.3,50.8l1-1.8v-0.1c-0.1,0.1-0.3,0.2-0.4,0.4c-0.1,0.1-0.3,0.3-0.3,0.4L80.2,51
		c-0.2-0.5-0.1-1.1,0.3-1.6c0.1-0.1,0.3-0.3,0.4-0.4c0.5-0.4,0.9-1.1,1-1.7c0.2-0.6,0.4-1.1,0.6-1.7l-0.3-0.2c0-0.6-0.1-1.2,0.6-1.6
		l0.2,0.6c0.7-0.5,0.8-1.4,1.7-1.9c-0.5,0.8-0.9,1.5-1.3,2.1s-0.7,1.4-1,2.2l0.4-0.1l-0.2,0.7l0.9-0.3c-0.2,0.3-0.2,0.4-0.3,0.5
		c-0.8,0.4-1.3,1.2-1.4,2c-0.2,0.5-0.4,1-0.8,1.4c0,0.1-0.2,0.1-0.3,0.1L80.3,50.8z"/>
	<path id="Path_1136" fill="#FFFFFF" d="M92.7,37.4l0.5,2.3c-0.2,0.6-0.8,0.2-1.2,0.4l-0.3,1L91.5,41l-0.7,0.9
		c-0.1-0.5,0-0.9,0.4-1.3c-0.2-0.3-0.7-0.3-0.7-0.9c0.2,0,0.3,0,0.4,0.1s0.3,0.3,0.4,0.4c0.4-0.3,0.3-0.9,0.8-0.9
		c0.3-0.6-0.1-0.9-0.4-1.3l-1,0.4c0.4-0.7,0.7-1.1,1-1.6c0-0.1,0.2,0,0.3-0.1l0.3,0.8L92.7,37.4z"/>
	<path id="Path_1137" fill="#FFFFFF" d="M81.9,38.7l-0.4-0.6c-0.3,0.4-0.5,0.8-0.7,1.3c-0.2,0.4-0.6,0.8-0.7,1.2
		c-0.2,0.4-0.4,0.9-0.6,1.3c0.4-1.4,1-2.8,1.7-4.2l-0.2-1l0.6,0.1l0.5-0.7l0.1,0.5c0.6-0.4,0.6-0.4,1.2-0.1c0.2,0.5,0.1,1.1-0.2,1.6
		l-0.6-0.2L82.5,37c-0.4,0.1-0.5,0.5-0.7,0.8l0.4,0.4L81.9,38.7z"/>
	<path id="Path_1138" fill="#FFFFFF" d="M93.3,41.5l-0.8,0.9h-1l-0.9,1c-0.1-0.2-0.1-0.3-0.1-0.4c0.1-0.3,0.2-0.6,0.4-0.7
		c0.6-0.4,1-0.9,1.3-1.6c0,0,0.1-0.1,0.2-0.1L93.3,41.5z"/>
	<path id="Path_1139" fill="#FFFFFF" d="M85.4,57.2l0.3-0.5l0.2,0.5L85,58.4c-0.6-0.2-0.4-0.7-0.4-1c0.1-0.3,0.4-0.4,0.7-0.3
		C85.3,57.2,85.3,57.2,85.4,57.2L85.4,57.2z"/>
	<path id="Path_1140" fill="#FFFFFF" d="M82.2,39.7c0.3-0.9,0.3-0.9,0.9-1c0.2,0.6,0,1.2-0.5,1.6L82.2,39.7z"/>
	<path id="Path_1141" fill="#FFFFFF" d="M86.3,57c-0.2-1.2,0.1-2.4,0.8-3.3c0,0.7-0.5,1.1-0.5,1.6S86.4,56.3,86.3,57z"/>
	<path id="Path_1142" fill="#FFFFFF" d="M84.2,44.8c0.2-0.7,0.8-1,1.5-1.6c-0.1,0.3-0.1,0.4-0.2,0.5C85.1,44.1,84.6,44.4,84.2,44.8z
		"/>
	<path id="Path_1143" fill="#FFFFFF" d="M85,30.7l0.7-1.4C85.9,30.1,85.8,30.4,85,30.7z"/>
	<path id="Path_1144" fill="#FFFFFF" d="M86.4,39.9c0.2-0.5,0.6-1,1-1.4C87.2,39,86.9,39.5,86.4,39.9C86.6,40,86.5,39.9,86.4,39.9z"
		/>
	<path id="Path_1145" fill="#FFFFFF" d="M83.5,60.1l0.3-0.9l0.4,1.3C83.9,60.5,83.7,60.4,83.5,60.1z"/>
	<path id="Path_1146" fill="#FFFFFF" d="M132.9,111.8h-1.6c-1.1,0-2.3-0.1-3.4-0.2c-4.9-0.4-9.7-1.5-14.2-3.2
		c-2.9-1.1-5.7-2.4-8.3-3.9c-5.2-3-10-6.8-14-11.3c-2.2-2.5-4.2-5.2-5.9-8c-1.6-2.6-3-5.4-4.1-8.2c-1.1-2.9-2.1-5.8-2.7-8.8
		c-0.3-1.3-0.5-2.6-0.7-3.9c-0.2-1.5-0.4-3-0.5-4.6c-0.1-0.8-0.1-1.6,0-2.4v-1.9l0,0v-1.3c0.1-1.1,0.2-2.2,0.3-3.4l0.1-0.7
		c0.1-0.6,0.1-1.2,0.2-1.9c0.3-2.5,0.9-4.9,1.6-7.3c1.8-6.4,4.8-12.5,8.8-17.8c0.8-1.1,1.6-2.1,2.5-3.1c1.2-1.4,2.7-2.9,4.2-4.4
		c2.6-2.4,5.4-4.6,8.4-6.5c1.8-1.1,3.7-2.2,5.7-3.1c2.9-1.4,5.8-2.5,8.9-3.3l1.4-0.3c1-0.2,1.9-0.5,2.9-0.7c0.6-0.1,1.2-0.2,1.9-0.3
		l1.2-0.2c1-0.2,2.1-0.2,3.1-0.3l1.5-0.1c1.1-0.1,2.3-0.1,3.4-0.1h1c0.5,0,0.9,0,1.4,0.1l0.6,0.1l2,0.2l0.8,0.1l1.1,0.1
		c1.5,0.2,3,0.4,4.5,0.8c2.2,0.5,4.3,1.1,6.5,1.8c3.5,1.2,6.9,2.8,10.1,4.7c1.9,1.1,3.7,2.4,5.4,3.7c2.5,1.9,4.8,4,6.9,6.4
		c2.5,2.7,4.7,5.6,6.5,8.7c0.6,1,1.3,2.2,1.9,3.4l-1.3-0.5l0.4,0.7l-1.7-0.3l-0.5-0.6c0-0.1,0.1-0.2,0.1-0.3l0.2-1.1l-1.2,0.1
		l-0.4-0.5c-0.3-0.4-0.5-0.6-0.9-0.7l-0.7-1.8l-0.5,0.4l-1.3-1l-0.2,1.4c0,0.2,0,0.4,0.1,0.7l-0.2-0.2l-0.9,0.5l-0.2-0.2l-0.3,0.4
		l-0.6,0.3l0.2,0.2l-0.3,0.4H172l-0.5,0.9l-1.1-1.6v0.5l-1.3-2.5l-0.2,2.7c-0.2-0.1-0.4-0.2-0.6-0.2l-2.6-0.7l1.8,1.9l-2.4-0.9
		l-0.1,0.1l-0.1-0.1l-1.3,1.1l0.1,0.5l-0.2-0.1l0.3,1.2c0.1,0.6,0.5,1,1,1.3l-1.7,0.5l1.3,0.9c0.3,0.2,0.6,0.3,1,0.3s0.7-0.2,1-0.4
		l0.2-0.2l0.4-1.6l-0.2-0.3c-0.1-0.2-0.1-0.4-0.1-0.8c0-0.1,0-0.3,0.1-0.4l1.1-0.8L168,30l-0.5,2.4l1.6-1.2c0.1,0.4,0.4,0.7,0.8,0.8
		l0,0c0.3,0.3,0.3,0.4,0.2,0.6c-0.1,0.3-0.2,0.6-0.1,0.8c0,0.1,0,0.1,0,0.2V34l0.9,0.8l-0.9,0.4l0,0l-1.1,0.5l1.4,0.3l1.4,2.9
		L172,39c0.1,0,0.3,0.1,0.4,0.1c0,0.1,0.1,0.1,0.1,0.2l0.3,0.5l0.6-0.2l0.2,0.1c0.1,0.1,0.3,0.2,0.5,0.3c0,0.1,0,0.3,0,0.4v1.8
		l1.1-1l0,0l2,0.9l1.5-0.3v-0.3c0.2,0.1,0.4,0.1,0.6,0.1c0.2,0,0.4,0,0.6-0.1l-0.5,1.9l1.2,0.7l1.4-1.6l-0.4,0.9l0.7,1.7v1.4h0.2
		l0,0l-0.8-0.1l0.8,4.3l0.6-0.2l0.3,0.5l1.7,0.5l0.8-1.4l-0.9-3.2l0,0l0.5,1.4l0.1-1.3h0.1l-0.1-0.1l0.3-4.2l-0.9-0.9l0,0
		c-0.2-0.6-0.5-1.2-1.1-1.6c-0.2-0.1-0.4-0.2-0.6-0.2h-1.2l0.1,0.4l0,0l-1.2-1v-0.2c0-0.1,0-0.3,0-0.4l0.4-0.3v-0.6l0.4,0.3
		l-0.3-1.8l0,0l0.6,0.4v-2.6l-0.8-0.3l-0.3-0.5l0.3-0.3l-0.4-0.6l-0.1-0.1l-0.2-0.3l1.1-1l3.4,6.7l0.2-0.7c0.2,0.7,0.5,1.3,0.7,2
		c0.7,2.3,1.3,4.6,1.7,7c0.2,1.4,0.4,2.9,0.6,4.1c0.4,3,0.5,6.1,0.3,9.1c-0.1,1.5-0.2,3-0.5,4.5c-0.3,2.3-0.8,4.5-1.4,6.8
		s-1.3,4.5-2.3,6.7c-0.7,1.7-1.4,3.2-2.1,4.6c-1.2,2.2-2.5,4.4-4,6.5l0.2-0.5l-1.9,1.4c-0.6,0.4-0.8,0.6-0.9,1.1
		c-0.1,0.4-0.3,0.8-0.6,1.1c-0.2,0.2-0.3,0.3-0.3,0.6v0.1l-0.1,0.3l-6.8,6.7l1.2-0.6c-1.1,0.9-2.2,1.8-3.4,2.6
		c-2.9,2.1-5.9,3.9-9.1,5.4c-2.6,1.2-5.2,2.1-8,2.9c-1.9,0.6-4,1-5.9,1.4h-0.1c-0.9,0.2-1.7,0.3-2.6,0.3l-1,0.1c-1,0.1-2,0.2-3,0.3
		l-0.6,0.1L132.9,111.8L132.9,111.8z M108,102.6c0.3,0.3,0.6,0.4,1,0.4l1.6,0.1c0,0-1.4-2.1-1.6-2.3c-0.2-0.4-0.6-0.6-1-0.6
		c-0.2,0-0.3,0-0.5,0.1l-0.9,0.4l0.9-1.7l-1,0.2V99l-2.2-0.4l1.2-0.8l1.2,0.9l-0.3-1.5l0.2-0.1l-0.2-0.1l0,0h0.8l0.5,0.2V97h0.4
		l1.2,0.9l0.3-0.9l2.3,0.9l-1.6-3h-0.4l0.5-0.6v0.1l0.2,0.4l0.2,0.4l2.2,1.1l0.3-0.7c0.5-1.1,0.4-1.5-0.5-2.2l-0.8-0.8l0,0l-0.9-0.8
		l0.2,0.9l-3.1,0.5l-0.5-0.5c-0.3-0.3-0.7-0.5-1.1-0.5c-0.3,0-0.5,0.1-0.8,0.1l-0.5-0.4l-3.2,0.2l2.1,1.8l0.2-0.1
		c-0.1,0.5,0,1,0.3,1.4c0,0.1,0,0.2,0,0.3l-0.3,0.4l-0.8-0.4l-0.9,1.1l1.3,1.8l-1.2-0.3l0.1,1c0.1,0.6,0.4,1.2,0.8,1.6
		c0.1,0.1,0.2,0.2,0.2,0.2l0.1,0.5l0.5,0.1L108,102.6z M118.1,97.3c0.4,0.2,0.8,0.3,1.2,0.5c0.2,0.1,0.3,0.1,0.5,0.1
		c0.1,0,0.3,0,0.4,0h0.1c0.3,0,0.6-0.2,0.7-0.5l0.7-0.9l-0.9-0.2v-0.1l-1.7-0.9l-0.2,0.1l-0.8-0.8l-0.5,0.7l-1.6-0.5l-0.3,2.8
		l2.1-0.3L118.1,97.3z M98.7,94.9h0.2c0.2,0,0.4-0.1,0.6-0.2h0.1l0.6-0.4l-0.9-1.8l-2.5,0.6l0.2,0.8c0.1,0.6,0.7,1,1.2,1
		c0.1,0,0.2,0,0.3,0H98.7L98.7,94.9z M99.2,88.5c0.1,0.2,0.1,0.4,0.1,0.6l0.1,0.7h3.9l-2.4-1.7l-0.3-1l-0.6-0.4
		c-0.2-0.2-0.4-0.3-0.6-0.4c-0.2-0.2-0.5-0.3-0.8-0.3s-0.6,0.1-0.8,0.3l-0.2,0.2v1.4L99.2,88.5z M92.4,81l2.7,2l-0.4-2
		c-0.1-0.6,0.1-1.2,0.6-1.6l0.5-0.5l-0.5-0.5l-0.1-0.1c-0.1-0.2-0.3-0.3-0.4-0.4c-0.5-0.4-1-0.7-1.6-1L93,76.8h-0.2
		c-0.2,0-0.4,0.1-0.6,0.2l-0.1,0.1l-0.7,0.5l1.1,1.3l-0.2,0.9l0.3,0.4L92.4,81z M173,76.4l0.9-2.9c0.2-0.1,0.4-0.2,0.7-0.3l0.5-0.2
		l0.6-0.3l-1.2-3.6l-0.4,0.8l-0.2-0.1l-0.4-0.2l-0.3,0.2v-0.2h0.2v-1.1c0-0.2,0-0.4,0-0.6s-0.1-0.4-0.2-0.5c0-0.1-0.1-0.1-0.1-0.2
		l-0.1-0.3c0.3,0.3,0.6,0.5,1,0.6l1.9,0.9l-0.6-1.4l3.3-0.9l-1.8-0.9c-0.1,0-0.1-0.1-0.2-0.2c-0.3-0.3-0.7-0.5-1.1-0.5h-0.1
		l-0.9,0.1l0.3,0.8l-0.1-0.3l-0.6-0.1h-0.3l-0.2,0.1l-0.4,0.1l0.5-2.2l0.6,0.2l0.2-1.9l-0.4-0.3c-0.2-0.2-0.5-0.2-0.8-0.2
		s-0.7,0.1-0.9,0.3l-0.3,0.2l-0.2-0.3c-0.1-0.1-0.1-0.2-0.2-0.4c-0.2-0.6-0.6-1-1.2-1.2l-0.6-0.2l-0.3,0.6c-0.3,0.5-0.2,1.1,0.2,1.5
		l-0.3,0.9h2.6l0.4,0.2c0.1,0.1,0.2,0.1,0.3,0.1s0.1,0.1,0.2,0.1l-1.1,1.3c-0.7,0.8-1,1.3-0.3,2.2l0.5,0.6l-0.3,0.7l-1.9-0.3
		l1.3,1.8l-0.6,0.8l0.6,0.4l-0.1,0.4l1.2,1.3v0.1l-0.4,0.2V73c-0.1,0-0.2,0-0.3,0.1l-0.5,0.2l0.2,1.9l0.9-0.3L173,76.4z M79.7,65.6
		c-0.1,0-0.3,0-0.4,0.1l-0.5,0.2v2.4l2.1,0.8v-1.5c0-0.3,0-0.6,0-0.9C80.8,66,80.3,65.6,79.7,65.6L79.7,65.6z M133.1,62.6l0.9-1.4
		l0.2,0.6l0.8-1.6l0.3,0.2l0.5-0.7c0.2-0.3,0.3-0.6,0.3-0.9l0,0c0.2,0,0.4,0,0.6,0.1h0.2c0.2,0,0.5-0.1,0.6-0.3l0.8-0.7l-0.8-0.6
		L137,57l-1.2-2.2l0.6,0.3v-1.3c0-0.6-0.4-1.1-0.9-1.3h-0.1l-0.1-0.2c-0.1-0.1-0.2-0.2-0.3-0.3l-0.6-0.7l-0.5,0.7
		c-0.3,0.5-0.5,1-0.4,1.6c0,0.1,0,0.2,0,0.4l-0.3,1.3l-0.3-0.1l-0.3,0.2c0-0.2,0-0.4-0.1-0.6l-0.3-0.7l-0.8,0.3l-1,0.5v1.7l-0.1,0.2
		l-0.4-0.4l-0.4,2.1l0.6,0.5l-0.8,1l0.5,0.5c0.3,0.4,0.9,0.7,1.4,0.8l0.2,0.6l1.3-0.1L133.1,62.6z M145.5,48.6
		c0.2,0.2,0.5,0.2,0.7,0.2s0.4-0.1,0.6-0.1l0.3-0.1l0.9-2.7h-2.8l-1,1.8l0.2,0.4C144.6,48.5,145,48.7,145.5,48.6L145.5,48.6z
		 M145.1,45.1h1.1l1.4-1.1l-0.3-1.6l-1-0.5H146l-1.8,0.3l-0.2,0.7c-0.1,0.3-0.2,0.6-0.2,0.8c-0.1,0.3,0,0.6,0.2,0.8l0.3,0.5l0.6-0.1
		L145.1,45.1z M162.2,13.4l-0.5,1.4l1.4-0.4h0.1c0.2,0.1,0.4,0.1,0.6,0.1c0.3,0,0.6-0.1,0.8-0.2l0.7-0.5l-0.8-0.9
		c-0.2-0.2-0.4-0.4-0.6-0.7c-0.1-0.1-0.3-0.2-0.4-0.3l-0.1-0.1l-1.6-0.8l0.4,1.7c0,0.1,0,0.1,0.1,0.2
		C162.4,13.1,162.3,13.3,162.2,13.4L162.2,13.4z M152.4,6.8c-0.5,0-0.9,0.2-1.2,0.6l-0.3,0.5l1.1,1.3l1.9,0.9l1.2-0.7L155,8.1
		l-2-1.3H152.4L152.4,6.8z M107.2,101.5l0.2,0.2c0.1,0.1,0.1,0.2,0.2,0.3l0,0L107.2,101.5z M135.2,55.4l-0.8-0.4l0.4-0.5l0.8,0.4
		l-0.2,0.6L135.2,55.4z M183.9,45.1L183.9,45.1L183.9,45.1L183.9,45.1z M180.4,41l0.1-0.1l0.8,0.1l0.3,1.1L180.4,41z M167.7,29.8
		L167.7,29.8L167.7,29.8L167.7,29.8L167.7,29.8z"/>
	<path id="Path_1147" d="M134.4,1.6c0.4,0,0.8,0,1.3,0.1l0.6,0.1l2,0.2l0.8,0.1c0.4,0,0.7,0.1,1.1,0.1c1.5,0.2,2.9,0.4,4.4,0.8
		c2.2,0.5,4.3,1.1,6.4,1.8c3.5,1.2,6.8,2.8,9.9,4.7c1,0.6,2,1.2,2.9,1.8l-3-1.6l0.9,3.4v0.1l-1,2.8l2.6-0.8c0.2,0.1,0.5,0.1,0.8,0.1
		c0.4,0,0.9-0.1,1.2-0.4l1.4-1l-1.1-1.3l-0.2-0.2c-0.2-0.2-0.3-0.4-0.5-0.6c0.5,0.4,1,0.8,1.6,1.1c2.5,1.9,4.7,4,6.8,6.3
		c2.4,2.6,4.6,5.5,6.4,8.5v0.1l-1,0.1l-0.1-0.1c-0.2-0.4-0.6-0.7-1-0.9v-0.1l-0.2-0.4l-0.8-2l-0.8,0.6l-1.9-1.6l-0.4,2.7l-0.2,0.1
		l-0.4-0.4l-0.6,1l-1,0.5l-1.3-1.8l-1.4-2.7l-0.3,4.4l-4.9-1.3l1.4,1.5l-0.1,0.2l-0.7,0.6l-0.4,0.4l0,0l-0.5,0.4l-0.5-0.1l0.5,2.3
		c0.1,0.3,0.2,0.5,0.3,0.8l-2,0.6l2.6,1.9c0.4,0.3,0.9,0.5,1.4,0.5c0.6,0,1.1-0.2,1.5-0.6l0.3-0.3l0.1-0.5l0.1-0.4l1.4-1.1
		c0.1,0.1,0.3,0.2,0.4,0.3c-0.1,0.3-0.1,0.5-0.1,0.8v0.1l-0.1,0.5l-0.8-0.3l0.5,1.1l-2.6,1.2l3.4,0.7l0.3,0.7l0.5,1l0.3,0.6l0.3,0.6
		l0.6,0.2h0.1l0.7,1l0.7-0.3v3.5l2-1.8l1.4,0.6l0.5,0.2l0.5-0.1h0.2l0.5-0.1l0.5-0.1v0.1l-0.3,1.1l1,0.6l0,0l0.1,0.1l1.1,0.7
		l0.5-0.5l0.3,0.7v0.4l-0.8-0.1l0.4,2.2l0.4,2.3v0.1l0.3,1.6l0.8-0.2l0.1,0.2l0.6,0.2l0.4,0.1l0.4,0.1l1.2,0.4l0.3-0.5l0.1,0.4
		l0.1-0.8l0.1-0.2L186,51l0.3-0.6l-0.2-0.6l-0.1-0.3l-0.2-0.9v-0.5l1,0.2l-0.9-1.4l0.1-2.2V44c0.2,0.9,0.4,1.7,0.5,2.5
		c0.2,1.3,0.4,2.6,0.6,4.1c0.4,3,0.4,6,0.3,9c-0.1,1.5-0.2,3-0.4,4.5c-0.3,2.3-0.8,4.5-1.3,6.7c-0.6,2.2-1.3,4.5-2.2,6.6
		c-0.7,1.7-1.4,3.1-2.1,4.6c-1,1.9-2.1,3.7-3.3,5.4l-2.2,1.6l0,0c-0.6,0.3-1,0.8-1.2,1.4c-0.1,0.3-0.2,0.5-0.4,0.8
		c-0.2,0.2-0.4,0.6-0.5,0.9v0.1l-0.1,0.2l-2,2l-0.8,0.8l-0.6,0.6l-4.9,4.9l-0.5,0.3c-2.8,2.1-5.8,3.8-9,5.3
		c-2.5,1.2-5.1,2.1-7.8,2.9c-1.9,0.6-3.9,1-5.8,1.4h-0.1c-0.8,0.2-1.7,0.3-2.5,0.3l-1,0.1c-1,0.1-2,0.2-3,0.3l-0.6,0.1h-3.7
		c-1.2,0-2.2-0.1-3.3-0.2c-4.8-0.4-9.5-1.5-14.1-3.2c-2.8-1.1-5.6-2.4-8.2-3.9c-2.4-1.4-4.7-2.9-6.9-4.7c-2.5-2-4.8-4.1-6.9-6.5
		c-2.2-2.4-4.1-5.1-5.8-7.9c-1.6-2.6-2.9-5.3-4.1-8.1c-1-2.4-1.8-4.9-2.4-7.4l2.1,0.8v-2.6c0-0.3,0-0.7,0-1c-0.1-1-0.9-1.7-1.9-1.7
		c-0.2,0-0.5,0-0.7,0.1l-0.3,0.1c0-0.3-0.1-0.5-0.1-0.8c-0.2-1.5-0.4-3-0.5-4.5c0-0.8,0-1.6,0-2.3v-2.7l0,0v-0.4
		c0.1-1.1,0.2-2.2,0.3-3.3l0.1-0.6c0.1-0.6,0.1-1.2,0.2-1.8c0.3-2.4,0.9-4.8,1.6-7.2c1-3.5,2.4-6.9,4.1-10.2c1.4-2.6,2.9-5,4.7-7.4
		c0.8-1.1,1.6-2.1,2.5-3.1c1.5-1.7,2.8-3,4.2-4.3c2.5-2.4,5.3-4.5,8.3-6.4c1.8-1.1,3.7-2.1,5.6-3.1c2.8-1.4,5.8-2.5,8.9-3.3l1.4-0.4
		c0.9-0.2,1.9-0.5,2.9-0.7c0.6-0.1,1.2-0.2,1.8-0.3c0.4-0.1,0.8-0.1,1.2-0.2c1-0.2,2-0.2,3-0.3l1.5-0.1c1.1-0.1,2.2-0.1,3.3-0.1
		L134.4,1.6 M152.9,5.9h-0.3c-0.7,0-1.4,0.3-1.8,1l-0.7,1l0.7,0.9l0.6,0.7v0.1l0.2,0.3l0.3,0.2l1.1,0.5l0.3,0.1L154,11l0.7-0.4
		l0.5-0.3l0.9-0.5l-0.1-1V8.4l-0.1-0.8l-0.6-0.4l-0.5-0.3l-1-0.7l-0.4-0.3L152.9,5.9 M143.6,44.8l0.6,1l0.3-0.1v0.1l-0.6,1l-0.4,0.8
		l0.4,0.8c0.3,0.6,1,1,1.7,1l0,0c0.3,0.1,0.6,0.2,0.9,0.2c0.3,0,0.7-0.1,0.9-0.2l0.6-0.3l0.2-0.6l0.4-1.2l0.1-0.2l0.7-2h-2l0.3-0.3
		l0.7-0.6l-0.2-0.9l-0.1-0.3v-0.4l-0.1-0.7l-0.7-0.3l-0.4-0.2l-0.4-0.2l-0.5,0.1l-1.3,0.2l-1,0.2l-0.3,1l-0.1,0.2
		c-0.1,0.3-0.2,0.6-0.2,0.9C143,44,143.2,44.5,143.6,44.8 M132.5,53.5l-0.2-0.5l-1.2,0.6l-0.3-0.1l0.1,0.2l0,0l-0.6,0.3l-0.9,0.4
		v0.8l-0.3-0.2l-0.5,2.5v0.1v0.3l-0.2,0.9l0.4,0.3L128,60l1.1,1c0.4,0.4,0.8,0.7,1.4,0.9l0.3,0.7l1.1-0.1h0.4l1.1,1.2l0.6-0.9
		l0.3,0.9l1.2-2.3l0.2,0.1l0.9-1.4c0.1-0.1,0.2-0.3,0.2-0.5h0.1c0.5,0,0.9-0.2,1.2-0.5l1.5-1.3l-1.7-1.1l-0.2-0.1l-0.1-0.1l-0.3-0.6
		l-0.1-0.2l-0.1-1.9c0-0.8-0.5-1.6-1.3-1.9l0,0c-0.1-0.1-0.2-0.2-0.3-0.3l-1.3-1.3l-1.1,1.5c-0.4,0.5-0.6,1.2-0.5,1.9 M169,61.6
		l-0.5,1.6h3.3l-0.5,0.5c-0.6,0.7-1.4,1.6-0.5,3l-2.8-0.5l2.2,3l-0.7,1l0.8,0.6l-0.1,0.3l0.6,0.6l0.3,0.3v0.8l-0.9,0.4l0.1,1.1v0.4
		l0.2,1.9l1.3-0.4l1.6,2l0.9-2.8l0.4-1.2l0.3-0.1c0.2-0.1,0.4-0.1,0.6-0.2l1.3-0.6l-0.4-1.3l-0.4-1.2l-0.5-1.7l2.3,1.1l-1.2-2.5
		l0.4-0.1l3.9-1.1l-3.6-1.7l0,0c-0.4-0.5-1-0.8-1.7-0.8h-0.2h-0.4l0.2-1.4v-0.5l0.1-1l-0.3-0.2l0.4-1.8l-1.2,1.4
		c-0.3-0.1-0.6-0.2-0.9-0.2c-0.3,0-0.6,0.1-0.9,0.2c-0.3-0.7-0.8-1.3-1.6-1.5l-1.2-0.4l-0.6,1.2C168.6,60.3,168.6,61,169,61.6
		 M91.7,78.9L91.7,78.9l-0.2,0.9l0.3,0.4l0,0l-0.3,1l0.9,0.7l0.3,0.2l0.4,0.3l3.3,2.4l-0.8-4c-0.1-0.3-0.1-0.4,0.4-0.9l1-1.1l-1-1.1
		l-0.1-0.1c-0.2-0.2-0.4-0.4-0.6-0.6c-0.5-0.4-1.1-0.7-1.6-1l-0.4-0.3h-0.5c-0.4,0-0.8,0.2-1.1,0.4l0,0l-1.3,1l1.1,1.2L91.7,78.9
		 M98.6,89.1L98.6,89.1l0.2,1.5h7l-3.9-2.8l-0.2-0.2l-0.2-0.5l-0.2-0.5l-0.4-0.3l-0.4-0.2c-0.2-0.1-0.4-0.3-0.6-0.4
		c-0.4-0.3-0.8-0.4-1.2-0.4c-0.5,0-1,0.2-1.3,0.6l-0.5,0.5v2.3l1,0.4H98H98.6 M110.5,91.9l-0.7,0.1l-0.6,0.1l-0.6,0.1l-0.2-0.2
		c-0.4-0.5-1.1-0.7-1.7-0.7c-0.2,0-0.4,0-0.6,0.1l-0.4-0.3h-0.6h-0.4h-0.6l-3.8,0.2l2.9,2.5l0.4,0.3l0.2-0.3l0,0l-0.2,0.3l0.2,0.2
		c0,0.1,0,0.2,0,0.2l-0.2-0.1l-0.8,1v0.1l-0.1,0.1l-0.7,0.9l0.5,0.7l-0.3-0.1l0.1,2c0.1,0.8,0.5,1.6,1.1,2.1l0,0l0.1,0.7l0.9,0.3
		l1,0.3l2.3,0.6c0.4,0.3,0.9,0.5,1.4,0.5h0.5l1,0.3l-0.2-0.3l1.9,0.1l-1.8-2.6l-0.2-0.3l-0.5-0.7c-0.3-0.5-0.9-0.8-1.5-0.9l0.6-1.1
		l1,0.7l0.4-1.1l3.4,1.3l-1.3-2.5l1.2,0.6l0.7-1.4c0.8-1.5,0.4-2.2-0.7-3.2l-0.2-0.2l1-1.1l-1.8,0.3l-2.3-2.1L110.5,91.9 M98.2,95.6
		h0.7c0.4,0,0.7-0.1,1-0.4l0,0l1.1-0.8l-0.6-1.2l-0.1-0.2l-0.2-0.3l-0.6-1.1l-1.2,0.3l-1.1,0.3l-1.6,0.4l0.5,1.6
		C96.4,95,97.2,95.7,98.2,95.6 M117.3,94.1L117.3,94.1l-1.9-0.5l-0.2,1.9v0.4l-0.1,0.6l-0.2,1.9l1.9-0.3l0.9-0.1l0,0
		c0.4,0.2,0.8,0.4,1.2,0.5c0.3,0.1,0.5,0.1,0.8,0.1c0.2,0,0.3,0,0.5,0h0.1c0.5-0.1,1-0.4,1.3-0.9l1.3-1.8l-1.6-0.4l-0.9-0.4
		l-0.9-0.4l-0.6-0.3l0,0l-1.2-1.1L117.3,94.1 M180,28.8l0.2,0.4l-0.3-0.1L180,28.8 M182.3,34.9L182.3,34.9l0.8,1.6l1.7,3.4l0.1-0.2
		c0.2,0.8,0.4,1.5,0.6,2.2l-0.2-0.2l-0.2-0.2c-0.2-0.7-0.7-1.4-1.3-1.9c-0.3-0.2-0.7-0.4-1.1-0.4h-0.6l-0.2-1.4l0.4,0.2V34.9
		 M107.5,97.8L108,98l-0.4,0.1L107.5,97.8 M134.3,0L134.3,0c-1.6,0-3,0-4.5,0.1s-3.1,0.2-4.7,0.4c-1,0.2-2.1,0.3-3.1,0.5
		c-1.5,0.3-2.9,0.7-4.3,1c-3.2,0.8-6.2,1.9-9.2,3.4c-2,0.9-3.9,2-5.8,3.1c-3.1,1.9-5.9,4.1-8.5,6.6c-1.5,1.4-2.9,2.9-4.2,4.4
		c-0.9,1-1.8,2.1-2.6,3.2c-1.8,2.4-3.4,4.9-4.8,7.6c-1.7,3.3-3.1,6.9-4.2,10.5c-0.7,2.4-1.2,4.9-1.6,7.4c-0.1,0.6-0.2,1.3-0.2,1.9
		c-0.1,1.4-0.3,2.7-0.3,4.1c0,0.7,0,1.4,0,2.1l0,0c0,1.2-0.1,2.3,0,3.5c0.1,1.6,0.3,3.1,0.5,4.6c0.2,1.3,0.4,2.6,0.7,3.9
		c0.7,3.1,1.6,6,2.8,9c1.2,2.9,2.6,5.7,4.2,8.3c1.7,2.9,3.8,5.6,6,8.1c2.2,2.4,4.5,4.7,7.1,6.7c2.3,1.8,4.6,3.4,7.1,4.8
		c2.8,1.6,5.6,2.9,8.6,4c4.7,1.7,9.5,2.8,14.5,3.2c1.4,0.1,2.8,0.2,4.2,0.2h3.2c1.2-0.1,2.4-0.2,3.6-0.3c1.2-0.1,2.5-0.2,3.7-0.5
		c2-0.4,4.1-0.8,6.1-1.4c2.7-0.8,5.4-1.8,8-3c3.3-1.5,6.4-3.3,9.3-5.4c1.9-1.3,3.7-2.8,5.4-4.4c1.5-1.5,2.9-2.9,4.3-4.5
		c0.9-1,1.8-2.1,2.6-3.2c1.8-2.4,3.3-4.9,4.7-7.5c0.8-1.5,1.5-3.1,2.1-4.7c0.9-2.2,1.7-4.5,2.3-6.8s1-4.5,1.4-6.9
		c0.2-1.5,0.4-3.1,0.5-4.6c0.2-3.1,0.1-6.2-0.3-9.2c-0.2-1.4-0.4-2.7-0.6-4.1c-0.4-2.4-1-4.7-1.8-7.1c-0.8-2.7-1.9-5.3-3.2-7.8
		c-0.7-1.4-1.6-2.8-2.4-4.2c-1.9-3.2-4.1-6.1-6.6-8.8c-2.2-2.3-4.5-4.5-7-6.5c-1.8-1.3-3.6-2.6-5.5-3.7c-3.2-1.9-6.7-3.5-10.2-4.8
		c-2.1-0.8-4.3-1.4-6.5-1.8c-1.5-0.4-3-0.6-4.6-0.8l-1.9-0.2c-0.7-0.1-1.3-0.1-2-0.2s-1.3-0.2-2-0.2L134.3,0z M153.9,9.1l-1.4-0.6
		l-0.6-0.8c0.1-0.2,0.3-0.3,0.6-0.3h0.4l1.5,1v0.4L153.9,9.1L153.9,9.1z M162.9,13.6c0.1-0.2,0.1-0.4,0.2-0.6c0-0.2-0.1-0.3-0.1-0.4
		c0.1,0,0.2,0.1,0.3,0.2c0.3,0.3,0.5,0.6,0.8,0.9c-0.1,0.1-0.2,0.1-0.3,0.1c-0.2,0-0.5-0.2-0.7-0.2H162.9L162.9,13.6z M175.8,27.9
		c-0.1-0.6-1.1-0.6-1-1.4l0.7,0.6l0.1-0.1L175.8,27.9L175.8,27.9z M173.8,29.1l0.3-0.4l-0.8-0.7l0.4-0.2l0.6,0.6l0.4-0.4
		c0.6,0.3,0,0.9,0.3,1.3l0.6,0.3c0.1,0.2,0.2,0.4,0.3,0.7l0.3-0.3c0-0.2-0.1-0.3-0.1-0.5c0.1,0,0.2,0,0.3,0.1c0.1,0,0.2,0.1,0.2,0.2
		c0.2,0.7,0.7,1.2,1.4,1.4c0.1,0,0.2,0.1,0.3,0.2c0.1-0.2,0.1-0.4,0.2-0.6l0.4,0.6l0.8,0.1l-0.5,0.4c0,0.4,0.2,0.8,0.5,1.1l-0.3,0.3
		l0.8,1.3l0.5,0.2v0.6l-0.6-0.4l0.2,0.9l0,0l0,0l0,0c-0.1,0-0.2-0.1-0.3-0.1c0,0.2,0,0.4,0.1,0.6l-0.6-0.5c0,0.3-0.1,0.5-0.1,0.7
		l0.6,0.6v0.9l-0.5,0.3c0,0.2,0.1,0.5,0.1,0.7s-0.2,0.5,0.2,0.8l-0.8-0.1c-0.1,0.2-0.1,0.4-0.2,0.6l0.6,0.2
		c-0.1,0.1-0.2,0.1-0.4,0.1c-0.4,0-0.8-0.4-1.2-0.4h-0.1c0,0.2,0,0.4-0.1,0.7l-0.8,0.2l-1.5-0.6l-0.2-0.9l-0.7,0.7v-0.3
		c0.1-0.2,0.2-0.4,0.4-0.5l-0.3-0.5l-0.5,0.1c-0.3-0.1-0.6-0.4-1-0.4c-0.1,0-0.2,0-0.3,0.1c-0.3-0.4-0.3-0.4-0.9-0.6l-0.8-1.6
		c0.2,0.1,0.4,0.1,0.4,0.2c0.1,0.2,0.2,0.3,0.3,0.5l0.8,0.3c0-0.2,0.1-0.2,0.1-0.3c-0.2-0.6-0.5-1.2-0.7-1.8l-1.1-0.2l0.6-0.3
		l0.8-1.2l-0.6-0.3l-0.6,0.6l-0.7-0.6c0-0.3,0-0.5,0.1-0.8c0.2-0.5,0.1-1.1-0.4-1.4l0.6,0.2c0.5-0.4,0.2-0.9,0.2-1.5l0.6,0.9
		l0.6-0.7l-0.1-0.3c0.1-0.2,0.2-0.4,0.3-0.6l0.9,0.2l-0.5-0.8c0.1-0.1,0.1-0.2,0.2-0.3L173.8,29.1L173.8,29.1z M177.5,29.9
		c-0.2-0.3-0.4-0.6-0.7-0.8l-0.6-0.8c0.4,0,0.4,0,0.8,0.5l0.6,0.9l0.6-0.1c-0.1,0.3-0.2,0.3-0.4,0.3H177.5L177.5,29.9z M169.2,29.5
		c0.1,0,0.2,0,0.2,0c0-0.2,0-0.5,0.1-1c0.2,0.4,0.3,0.6,0.5,0.9c-0.3,0.6-0.4,1.2-0.1,1.8c-0.6-0.2-0.3-0.7-0.5-1l-0.4-0.5
		c-0.1,0-0.1,0-0.2,0.1c-0.1,0.2-0.2,0.4-0.4,0.6c0.1-0.3,0.1-0.6,0.2-0.9l-0.6-0.6C168.5,29,168.8,29.5,169.2,29.5L169.2,29.5z
		 M164.9,30.2l0.4-0.8l0.9,0.3l-0.6,0.4c0,0.7-0.4,1.4,0.1,2.1c-0.1,0.3-0.2,0.7-0.2,1c-0.1,0.1-0.3,0.2-0.5,0.2s-0.4-0.1-0.5-0.2
		l0.8-0.2v-0.8c-0.4-0.4-1-0.6-1.2-1.2l0.8,0.1c0-0.6-0.6-0.7-0.8-1.3l0.5-0.4C165,29.7,164.5,30.1,164.9,30.2L164.9,30.2z
		 M184.5,35.8l-2.1-4.1c0.3,0.1,0.5,0.1,0.5,0.2c0.7,1.1,1.2,2.3,1.7,3.6C184.6,35.7,184.5,35.8,184.5,35.8L184.5,35.8z M183,42.2
		c0.1-0.6-0.4-0.8-0.5-1.3h0.3h0.1c0.4,0.3,0.7,0.7,0.8,1.1l-0.5,0.3c0.4,0.5,0.5,1.1,0.3,1.7c-0.1-0.4-0.1-0.7-0.2-1.2
		c-0.3,0.5-0.4,1.1-0.5,1.7l-0.5-1.2l0.4-0.9c-0.1-0.2-0.1-0.4-0.2-0.7L183,42.2L183,42.2z M180.1,43.1L180,43
		c0.1-0.3,0.2-0.6,0.3-1l0.5,0.4L180.1,43.1L180.1,43.1z M184.4,44.4l-0.6-1.8l0.1-0.1l0.6,0.6C184.5,43.5,184.4,43.9,184.4,44.4
		L184.4,44.4z M144.7,44c0-0.1-0.1-0.1-0.1-0.2c0.1-0.4,0.2-0.7,0.3-1.1l1.3-0.2l0.4,0.2c0.1,0.3,0.1,0.5,0.2,0.8l-0.8,0.7h-0.5
		l-0.3-0.3L144.7,44L144.7,44z M183.5,46l-0.8-0.1v-1C183,45.2,183.2,45.6,183.5,46L183.5,46z M146.9,46.6c-0.2,0.5-0.3,1-0.5,1.4
		c-0.1,0-0.2,0.1-0.2,0.1c-0.3,0-0.4-0.3-0.6-0.3l0,0c-0.1,0-0.2,0-0.3,0s-0.2-0.1-0.3-0.2c0.2-0.3,0.4-0.7,0.6-1H146.9z
		 M182.8,47.4c0-0.2,0-0.5,0.1-0.7l0.3,0.4c-0.1,0.3-0.2,0.6-0.2,0.9l0.6,0.4c0.2,0.4-0.1,1,0.2,1.6l0.4-1.1
		c0.2,0.5,0.3,0.9,0.4,1.2l-0.3,0.5l-0.8-0.2l-0.4-0.7l-0.4,0.1c-0.1-0.8-0.3-1.6-0.4-2.3L182.8,47.4L182.8,47.4z M134,54.2
		c0.1-0.5-0.2-1.1,0.2-1.7c0.3,0.3,0.4,0.6,0.7,0.7c0.2,0.1,0.5,0.2,0.5,0.6l-0.8-0.4C134.4,53.7,134.2,53.9,134,54.2L134,54.2z
		 M130.5,58.2c0-0.4,0-0.7,0.1-1.1l0.2-0.3v-1.4l0.6-0.3c0.1,0.1,0.1,0.2,0.1,0.2c-0.2,0.8-0.2,0.8,0.2,1.6c0.1-0.1,0.3-0.2,0.4-0.3
		c0.1-0.1,0.2-0.2,0.3-0.4c0.1-0.1,0.2-0.1,0.3-0.2l0.6,0.2l0,0c0.1-0.4,0.5-0.4,0.8-0.6l0.7,0.3c0,0.1,0,0.2-0.1,0.2l-0.8,0.3
		l-0.7-0.3l0,0c0.2,0.5,0.1,1,0.3,1.5c0.1-0.2,0.1-0.5,0.2-0.8l1.1-0.4c0.1,0.1,0.3,0.2,0.5,0.4l-0.8,0.5v0.1l1-0.3
		c0.1-0.2,0.1-0.4,0.2-0.7l0.5,1l0.6,0.4c-0.1,0.1-0.1,0.1-0.2,0.1l0,0c-0.2-0.1-0.5-0.1-0.7-0.1c-0.4,0-0.8,0.1-1.2,0.2
		c0.2,0.3,0.6,0.5,0.3,1l-0.4-0.3l-0.4,0.8l-0.2-0.6c-0.5,0.3-0.6,0.6-0.5,1.2l-0.6,0.9l-0.7-0.8l-0.3,0.6h-0.4l-0.2-0.5
		c-0.9-0.1-0.9-0.1-1.4-0.6l0.8-1l-0.8-0.8c0-0.1,0-0.2,0.1-0.4L130.5,58.2L130.5,58.2z M170.4,61.6c0.1-0.2,0.1-0.3,0.1-0.4
		c-0.3-0.2-0.7-0.3-0.4-0.9c0.6,0.2,0.6,0.8,0.9,1.3L170.4,61.6z M173.4,62.2c-0.2-0.1-0.3-0.1-0.4-0.2c-0.1-0.1-0.2-0.1-0.4-0.2
		c0.1-0.1,0.3-0.2,0.5-0.2c0.1,0,0.3,0,0.4,0.1C173.4,61.9,173.4,62.1,173.4,62.2L173.4,62.2z M172.3,64.7c-0.1,0.4-0.2,0.8-0.3,1.2
		C171.7,65.5,171.7,65.4,172.3,64.7L172.3,64.7z M175.6,66.2c-0.1-0.3-0.2-0.5-0.3-0.8h0.1c0.5,0,0.6,0.4,1,0.6L175.6,66.2
		L175.6,66.2z M174.4,66.9c-0.8-0.4-0.8-0.4-0.9-0.9c0.1,0,0.2-0.1,0.2-0.1h0.2L174.4,66.9L174.4,66.9z M80,67.8l-0.5-0.2v-1.3
		c0.1,0,0.1,0,0.2,0c0.2,0,0.3,0.1,0.3,0.3C80,67.1,80,67.5,80,67.8L80,67.8z M172,68.5l0.5-1c0.1,0.2,0.1,0.3,0.2,0.5
		c0,0.3,0,0.5,0,0.8l-0.6-0.1l0.5,0.8l-0.2,0.8l0.6,0.6l0.6-0.4c0.5,0.3-0.2,0.9,0.4,1.2l0.3-0.7c0.1,0.4,0.2,0.8,0.4,1.2
		c-0.6,0.2-1.1,0.4-1.6,0.8l-0.6,1.7l-0.3-0.5l-0.5,0.1v-0.4h0.1c0.1,0,0.3,0.1,0.4,0.1s0.2,0,0.3-0.2c0-0.3,0-0.7,0.1-1l0.6-0.2
		c-0.1-0.4-0.2-0.8-0.2-1l-1.1-1.1c0-0.2,0.1-0.3,0.1-0.5l-0.4-0.3l0.4-0.6l-0.5-0.7L172,68.5L172,68.5z M93.9,81.2l-0.6-0.5
		c0.1-0.3,0.2-0.6,0.2-0.8l-0.4-0.4c0.1-0.3,0.1-0.6,0.2-0.9l-0.9-1c0.1-0.1,0.1-0.1,0.2-0.1l0,0c0.5,0.3,1,0.7,1.6,1
		c0.2,0.1,0.3,0.3,0.4,0.5C94,79.5,93.7,80.3,93.9,81.2L93.9,81.2z M99.4,87.8l-1.1-0.4v-0.5c0.1-0.1,0.2-0.1,0.3-0.1
		s0.2,0.1,0.3,0.1c0.3,0.2,0.6,0.4,1,0.7c0.1,0.2,0.2,0.6,0.3,1l0.6,0.5H100c0-0.5-0.2-1.1-0.5-1.6C99.5,87.6,99.5,87.7,99.4,87.8
		L99.4,87.8z M176.7,90c-0.2,1-0.8,1.9-1.7,2.5c0.1-0.2,0.1-0.3,0.2-0.4c0.4-0.4,0.6-0.9,0.8-1.4C176.1,90.4,176.1,90.4,176.7,90
		L176.7,90z M104.5,93.1l-0.4-0.3l1-0.1l0.6,0.4c0.3-0.1,0.6-0.2,0.9-0.2c0.2,0,0.5,0.1,0.6,0.3l-0.2,0.2c0,0.2,0.1,0.5,0.1,0.7
		l0.6,0.4l0.6-0.5l1.7-0.3c-0.3,0.3-0.4,0.4-0.5,0.6l-0.6,0.1c0,0.1-0.1,0.2-0.1,0.3c0.1,0.4,0.2,0.8,0.2,1.2l1-0.1
		c0.1,0.2,0.2,0.4,0.4,0.8l-1.1-0.4c-0.1,0.2-0.2,0.4-0.2,0.7l-0.6-0.4h-1.1l0.5-0.4c-0.3-0.3-0.7-0.5-1.1-0.6
		c0,0.3,0.1,0.5,0.1,0.8c-0.5-0.2-0.4-0.5-0.4-0.8s0-0.6-0.5-0.7c0.1,0.5-0.3,1,0.2,1.6l-0.6,0.5l0.1,0.4l-0.6-0.4
		c0.1-0.2,0.3-0.4,0.5-0.6c0-0.3-0.1-0.6-0.2-0.9c-0.2-0.3-0.2-0.6-0.1-1c0-0.3-0.1-0.7-0.2-1L104.5,93.1L104.5,93.1z M98.2,94.2
		c-0.2,0-0.4-0.1-0.5-0.4l1.1-0.3l0.3,0.6c-0.1,0.1-0.2,0.1-0.2,0.1l0,0c-0.1,0-0.1,0-0.2,0C98.5,94.1,98.4,94.2,98.2,94.2
		L98.2,94.2z M112.6,94.8c-0.1-0.4-0.1-0.7-0.2-1c0.7,0.6,0.7,0.6,0.3,1.3l-1.2-0.6c-0.1-0.2-0.2-0.4-0.2-0.5v-0.1h0.1l0,0
		L112.6,94.8L112.6,94.8z M172.6,95.2c-0.3,0.6-0.8,1.1-1.4,1.4L172.6,95.2z M118,96l0.3-0.4l0.5,0.5l0.3-0.1l0.9,0.5v0.2l0.5,0.1
		c-0.1,0.1-0.1,0.2-0.2,0.2c-0.2,0-0.3,0-0.5,0c-0.1,0-0.2,0-0.3,0c-0.5-0.2-1-0.4-1.6-0.6l-1.3,0.2c0-0.4,0.1-0.6,0.1-0.9L118,96
		L118,96z M104.5,97.5c-0.2-0.3-0.4-0.6-0.6-0.9l0.1-0.1l1.2,0.6L104.5,97.5z M105.8,101.1l-1-0.3c-0.1-0.6-1-0.8-1.1-1.7l1.9,0.4
		c-0.1,0.2-0.1,0.4-0.1,0.6l0.6-0.1l-0.3,0.6l-0.7-0.4l-0.1,0.1L105.8,101.1L105.8,101.1z M109.1,102.2c-0.8,0-0.8-0.9-1.3-1.2
		c0.1,0,0.1,0,0.2,0c0.2,0,0.3,0.1,0.4,0.3L109.1,102.2L109.1,102.2z"/>
	<path id="Path_1148" d="M135.3,41.6H135l-0.3-0.7l-0.7-0.1l-0.1-0.8c-0.5-0.2-0.9-0.7-0.9-1.3c0.1,0.1,0.3,0.2,0.4,0.4
		c0.1,0.1,0.1,0.2,0.1,0.2l1.8,1.2c0.3-0.3,0.9,0,1-0.6l-0.8-0.4l0.1-1.6h-0.2l0.3-0.5l0.6-0.2l0.3-0.7l-0.7-0.9l0.7,0.1l-0.4-0.7
		l0.6-0.7l-0.6,0.1l-0.8-0.4l0.2-0.2l0.6,0.1l0.4-1l-0.9-0.4l0.1-0.3l-0.5-0.3c-0.4,0.1-0.4,0.4-0.4,0.7l-0.9-0.2l0.2-0.8l-1,0.8
		l0.5,0.4l-0.9,0.5l0.6,0.5l-0.3,0.4l-0.6-0.1l0.1,0.9l-0.5,0.4l-0.3-0.2v-0.7l-0.7,0.8c-0.4-0.5-0.7-1-1.2-1.3l0.4-0.4
		c0.7,0,0.3,0.9,0.9,0.9l0.4-1.4L132,34c0.1-0.3,0.2-0.5,0.3-0.8c0.1-0.2,0.3-0.3,0.5-0.4v-1.3l1.3-0.1l-0.1-0.2
		c-0.5,0.2-1.1,0-1.5-0.4c0.1-0.6,0.6-0.1,0.8-0.2c0.1-0.4-0.4-0.2-0.5-0.5l0.4-0.5l0.5,0.6c0.1-0.2,0-0.5-0.2-0.7c0,0,0,0-0.1,0
		c-0.3-0.2-0.5-0.3-0.8-0.5c-0.9,0-1.7-0.3-2.4-0.7l0.9-0.4l-0.2-1l-0.6,0.2c-0.2-0.4-0.3-1-1-0.9c-0.2,0.3-0.1,0.7-0.3,1
		c-0.2,0.2,0,0.6-0.5,0.8l0.7,0.2l0.2-0.8l0.5,0.3l-0.2,0.5c0.5,0.2,0.6,0.8,0.9,1.1l-0.5,0.8c-0.5,0.2-0.5-0.3-0.8-0.5h-0.9
		c-0.1,0.2-0.3,0.3-0.4,0.5c-0.1,0.1-0.4,0.1-0.2,0.4c-0.1,0.1-0.3,0.2-0.5,0.3c-0.2,0-0.4-0.1-0.6-0.2c-0.9,0.4-1.9,0.2-2.7,0.9
		l0.3,0.2l-0.4,1.1l0.8,0.2l0.3,0.4h1.2l0.1-0.2l0.3,0.4l-0.3,0.4l-1.3-0.1c-0.2-0.1-0.4-0.3-0.6-0.3c-0.2-0.1-0.5-0.1-0.7,0
		c-0.5,0.2-1,0.4-1.5,0.6c-0.4,0.1-0.8,0.5-0.8,0.9l0.5,0.2l0.7-0.6c0,0.1,0.1,0.2,0,0.3c-0.3,0.4-0.6,0.8-1.2,0.7l0.4,0.6h0.1
		l0.1,0.6l0.6-0.1l-0.2,0.7l0.9,0.5l0.4-0.1c0.8,0.1,1,1.3,1.9,0.8l0.3,0.2l1.5-0.8l0.5,0.5c-0.4,0.3-0.9,0.4-1.4,0.4l0.9,0.6
		l0.2-0.3l0.3,0.4c0.7,0,1.3-0.5,1.7-0.3L129,40l0.1,0.2l-0.5-0.2l-1.1,0.7l0.2,1c-0.2-0.1-0.3-0.1-0.4-0.2c-0.2-0.2-0.3-0.2-0.6,0
		l0.6,0.5l-0.2,0.2l-0.7-0.1c-0.1,0.1-0.1,0.1-0.2,0.2c-0.1,0.2-0.2,0.3-0.4,0.6l0.2,0.6c-0.2,0-0.3,0.1-0.4,0.1
		c-0.2-0.1-0.4-0.3-0.5-0.4l-0.6,0.6l0.9,0.2v0.4c-0.5,0.2-0.7-0.2-1.1-0.3c-0.3,0.3,0,0.6,0.1,1l1.1,0.4l0.3,0.5l-0.2,0.5
		c0.2,0.4,0.4,0.3,0.7,0.2l0.3,0.5l0.7-0.5l0.3,0.7l0.6-0.4c0.1,0.6,0.7,0.9,1,1.3l0.6,0.1c0,0.1,0.1,0.2,0,0.3
		c-0.1,0.2-0.2,0.4-0.3,0.6l0.8-0.2l0.9,1.4l-0.8-0.4l-0.7,0.3c-0.6,0-0.9-0.6-1.5-0.5l0.3,0.5c-0.3,0.4-0.7,0.3-1.1,0.1l-0.1,0.5
		l0.4-0.1c0.2,0.2,0.4,0.4,0.6,0.5s0.5,0.1,0.5,0.6l-1,0.1l-0.3-0.4l-1.2-0.2l-0.4,1.2l-0.5-0.4l0.2,0.8c0,0,0.1,0,0.1-0.1
		c0.1-0.2,0.3-0.5,0.4-0.7c0.5,0,0.3,0.4,0.5,0.6l0.6,0.2l0.6-0.6l0.7,0.5l-0.9,0.8l0.3,0.4l-0.7,0.3c0,0-0.1,0.1,0,0.2
		c0.3,0.3,0.3,0.8-0.1,1.1l-0.1,0.1l0.4,0.8l-0.3,0.1l-0.2,0.1c0.6,1,0.6,1,1.1,1.2l-0.4-0.7l0.5-1l0.6,0.2l0.6-0.4
		c0.1,0.1,0.2,0.1,0.2,0.1c0.1,0.2,0.2,0.5,0.3,0.8l-0.2,0.4l0.4,0.3l-0.6,0.7l0.1,0.3l-0.3,0.2l0.2,0.7c-0.3,0.2-0.5-0.1-0.7-0.2
		l0.2-0.5l-0.6-0.7l-0.4,0.4c-0.6,0-0.5-0.9-1.2-1l0.6,0.9c-0.2,0.5-0.4,1-1,1c-0.1-0.4-0.1-0.4,0.3-0.9l-0.5-0.6l-0.1,0.1l0.2,0.5
		l-0.4,0.8l0.6,0.8l-0.4,0.1l-0.5-0.8l-0.3,0.3l1,1.2l-0.7,0.2V62l0.3,0.2l0.2-0.5l0.6,0.4c0.5-0.1,0.9-0.4,1.4-0.1
		c0.2,0.4-0.1,0.6-0.2,0.9c-0.2,0.1-0.5,0.4-0.7,0.3c-0.5-0.1-0.9,0.2-1.3-0.1l-0.6,0.3l-0.4-0.3l-0.3,0.5c-0.3-0.1-0.6,0.4-1,0
		l0.5-1l-0.1-0.1l-0.7,0.3l-0.5-0.1l-0.4,0.5l-0.2-0.3l-0.5,0.7l0.6,0.3c0.1,0.8,0.2,0.9,1,1c0.3,0,0.5,0.1,0.8,0.1l-0.9,0.6
		c0.4,0.5,0.8,0.2,1.2,0c0.2-0.1,0.4-0.5,0.7-0.3c0.1,0.4,0.1,0.4-0.3,1.2l0.2,0.5l-0.4,0.6l0.7,0.7l0.5-0.4
		c0.5,0.1,0.9,0.4,1.2,0.8c0.2,0.3,0.4,0.5,0.7,0.7c-0.1,0.2-0.3,0.3-0.5,0.6s-0.3,0.4-0.5,0.7c0.2,0.3,0.6,0.6,0.4,1l1,0.7h0.7
		c0.3-0.5,1-0.3,1.3-1c0.2,0.8,0.9,1.1,1,1.8c-0.1,0.6-0.2,1.1-0.4,1.7c-0.2,0.5-0.4,1-0.7,1.6l-0.8,0.4l-0.4,0.8l-0.1,1.4h0.9
		c0.3,0.3,0.6,0.7,1,1s0,0.9,0.4,1.3c0.3,0,0.5-0.1,0.8-0.3c0.3,0.5,0.8,1,0.6,1.8l-0.5,0.5l0.3,0.4l-0.7,0.4l0.4,0.3l-0.8,1.9h-1.3
		c0.1-0.1,0.2-0.3,0.3-0.5c0-0.2,0-0.4-0.2-0.5c-0.2-0.2-0.5-0.1-0.7,0.1l-0.1,0.9l-0.5,0.3c-0.1-0.1-0.2-0.1-0.2-0.1
		c-0.1-0.4-0.3-0.7-0.7-0.9l-0.7,1c0.3,0.6,1,0.9,0.9,1.6l-0.9,0.8c-0.9,0-1.3-0.1-2.2-1.1v-0.4l-0.9-0.5c-0.1,0.1-0.2,0.1-0.4,0.1
		s-0.4,0-0.5,0.1l1.3,0.4c-0.1,0.6-0.1,0.6-1,0.8l1,0.1c0.2,0.4-0.1,0.6-0.2,0.9c-1.1-0.4-2.1-1.1-2.9-2c-0.2,0.3,0,0.5,0.2,0.7
		s0.4,0.4,0.3,0.7s-0.4,0.2-0.6,0c-0.5-0.5-1.1-0.8-1.7-0.9c-0.2-0.6-0.6-1.1-1.2-1.5c-0.3-0.2-0.4-0.6-0.7-0.9v0.9l0.8,0.7l0.3,1
		c-0.1,0.4-0.5,0.5-0.8,0.6c-0.4-0.1-0.9-0.2-1-0.8l-1,0.2l0.9,0.4c0.1,0.4,0.1,0.7-0.3,1l-0.6-0.2c-0.1-0.2-0.2-0.4-0.3-0.6
		c-0.1-0.2-0.3-0.4-0.3-0.6c0-0.4-0.3-0.6-0.7-0.8c-0.5-0.2-0.9-0.5-1.2-0.9c0.1-0.3,0.6-0.4,0.3-0.7l-1,0.1
		c-0.1-0.7-0.9-0.8-0.9-1.5l-0.8,0.2l-0.9-0.1c-0.1-0.1-0.2-0.2-0.3-0.1c-0.3,0.2-0.4,0-0.5-0.2c0.1-0.2,0.1-0.3,0.2-0.5
		c0.1-0.1,0.2-0.2,0.4-0.3v-0.8l0.6,0.4l0.4-1c-0.1,0-0.3,0-0.4,0s-0.2-0.1-0.3-0.1c0.4-0.6,0.8-1.1,1.4-1.5c0,0.2,0.1,0.5,0.2,0.7
		s0.3,0.4,0.4,0.7c0,0.3,0,0.5,0,0.8c0.2-0.1,0.5-0.2,0.7-0.3c0.3-0.2,0.8-0.2,1,0.1c0.4,0.2,0.8,0.4,1.2,0.6c0.1-0.5,0-1-0.1-1.5
		c-0.9-0.2-1.5-0.5-1.1-1.6l-0.5-0.1l0.1-0.9l0.4,0.2l0.4-0.5l0.9-0.1l-0.7-0.9c0.4-0.2,0.4-0.7,0.5-1l-0.6-0.8
		c0.2-0.4,0.6-0.7,0.6-1.1l-0.9,0.4l-0.3,0.7l-0.8-0.2l-0.2,0.3c-0.4,0.1-0.7-0.4-1,0l0.4,0.7l0.8-0.5l0.3,0.3l-0.1,1l-0.6,0.2
		c0.2,0.1,0.2,0.4,0,0.5c0,0-0.1,0.1-0.2,0.1c-0.5-0.2-0.7-0.8-1.3-1l0.6,1.1l-0.1,0.4c0.2,0.5,0.7,0.5,1,0.5l0.8,0.7v0.9l-0.7,0.5
		l-0.7-0.6l0.2-1.1l-1.6,0.2l-0.3-0.7c-0.8,0.6-1.5,0.9-1.8,1.8l-0.8,0.1l0.4,0.7h1.1l-0.2-0.7c0.6,0.2,0.6,0.2,0.5,0.9
		c-0.4,0.5-0.9,0.4-1.4,0.5c0,0.3,0.1,0.5,0.4,0.5l0,0c0.3,0,0.6,0.2,0.7,0.5l-0.5,1c0.1,0.3,0.4,0.4,0.7,0.4l0.5-0.4l0.6,0.9
		l0.6-0.4c0.2,0.5,0.4,0.9,0.6,1.3h0.1h0.6c0.3,0.4,0.4,0.7,0.6,0.8c0.4,0.3,0.7,0.7,0.8,1.2c0.6,0.3,1.3,0.3,1.8,0.8v0.3l-0.7,0.1
		l-0.3,0.6c0.1,0.1,0.1,0.1,0.2,0.1c0.4-0.1,0.7-0.2,1.1-0.3l0.8,0.5c0.5-0.5,0.5-0.5,1.9-0.4l0.6-0.4c0.5,0.1,0.8,0.5,1,0.9
		c-0.6,0.4-0.6,1.2-1.3,1.5l0.4,0.3l-0.4,0.5l-0.7-0.3l-0.7,0.6l-0.4-0.2l-0.5-0.9c0.2-0.5,0.7-0.1,1-0.4c-0.6,0.1-1.2-0.4-1.8-0.1
		c-0.1,0-0.2-0.1-0.3-0.1l-0.3-0.1v0.6l0.5,0.3l-0.5,0.4c1.9,0.8,1.9,0.8,2,1.6c-0.9,0.1-1.2-0.6-1.8-1c-0.2,0.2-0.5,0.3-0.7,0.4
		c-0.4,0.1-0.8,0.1-1.3,0.1l-0.1-0.7c-0.4-0.4-1.2-0.4-1.5-1.1l0.2-0.4l-0.5-0.7h-0.5l-0.2,0.5c-0.6,0.3-0.6-0.5-1-0.5
		c-0.1,0.5,0.5,0.8,0.1,1.2l0.4,0.5l-0.3,0.8l-0.2-0.6l-0.8-0.3l0.1-0.5l-0.3-0.4l0.2-0.6l-0.6-1.3c-0.1,0.2-0.2,0.4-0.3,0.5
		s-0.2,0.2-0.3,0.2c-0.2,0.3,0.3,0.6-0.1,0.9l-1.1-0.6l0.1,0.6c-0.7,0.1-0.8-0.9-1.6-0.7l0.4-0.3l-1.3-1c-0.1-0.1,0.2-0.6-0.2-0.9
		l-0.5,0.7l0.9,1.5l0.3-0.1c0.1,0.1,0.3,0.2,0.4,0.4c0.1,0.1,0.1,0.2,0.2,0.4l-0.9,1c-0.3-0.8-1.2-1.3-1-2.4l-1.8-0.5
		c-0.4-0.1-0.7-0.4-0.7-0.8l1.1,0.4l-0.6-1.1l-0.4,0.2c-0.1-0.4-0.6-0.7-0.3-1.2l-0.4-0.3v-0.9l-0.7,0.1c0-0.6-0.8-0.5-0.9-1.1
		l1.1-0.8c-0.2-0.4-0.9-0.4-0.9-1.1l0.6,0.2l0.9-1.6l1.3,0.7l0.6-0.7l0.6,0.4l0.1-0.1l-0.3-0.5l0.3-0.3l0.6,0.1l-0.4-0.4l-0.1-1.2
		l-0.7-0.4l-0.2-0.9c0.2-0.1,0.2-0.5,0.6-0.3c0-0.1,0-0.2,0-0.3c0-0.3-0.3-0.5-0.5-0.4c-0.4,0-0.7-0.2-0.9-0.6l-0.3,0.4l-0.6-0.3
		l0.5-0.9l-0.8-0.2c0-0.4,0-0.8-0.1-1.1h-0.7l-0.1,0.6l-0.5,0.3l0.5,0.2c-0.5,0.5-1.1,0.8-1.8,0.8l-0.7-0.7l-1.2,0.5l-0.2-0.3
		l0.3-0.5c-0.8-0.2-1.5-0.7-1.8-1.5c-0.2,0.5-0.1,1,0.2,1.5c0.8,0.5,0.9,0.6,1.1,1.3l0.9,0.7c-0.3,0.9-1.2,0.1-1.5,0.7
		c-0.4-0.1-0.6-0.6-1-0.6l0,0c-0.1-0.1-0.2-0.2-0.3-0.2c-0.3,0-0.6,0.1-0.9,0.1v-1.2l0.7-0.7l-0.6,0.2L92,75.1l0.6-0.5
		c-0.1-0.1-0.1-0.2-0.2-0.2s-0.3-0.2-0.5-0.3l-0.1,0.4l-0.4-0.3c0,0.1-0.1,0.1,0,0.2c0.2,0.3,0.4,0.5,0.5,0.8c0.1,0.1,0,0.3-0.2,0.5
		l-0.3-0.8l-0.3,1.2l0.8,1.4L91.7,78c-0.3-0.2-0.6-0.3-1-0.2L90.4,77l-0.3,0.1c-0.4-0.3-0.6-1-1.3-1.1c-0.1,0-0.2-0.3-0.2-0.5
		c0-0.1,0-0.3,0-0.4l-1,0.5c-0.5-0.6,0.6-0.7,0.2-1.2l0.8,0.1v-0.2c-0.3-0.2-0.6-0.4-0.9-0.6v-1.6L86.9,72l-0.3-0.7L86,70.9
		c0-0.1,0-0.2,0-0.3c0.1-0.2,0.1-0.5,0.2-0.8l-0.5,0.1l-0.9-0.8v-1.5L84,67.8c-0.4-0.2-0.2-0.6-0.4-0.9l-0.5-0.2l-0.4,0.4
		c-0.3-0.1-0.4-0.3-0.4-0.6s-0.2-0.6-0.1-0.8s0.2-0.5,0-0.7c-0.1-0.2-0.1-0.5,0.1-0.7l0,0l0.3,0.1l-0.1-0.5l0.3-0.4l-0.7-0.4
		l-0.3-1.2l0.9,0.8l0.6,0.1c0,0.6,0,1.1,0.6,1.6c0.4-0.6,0-1.1-0.2-1.6l0.2-0.7c-0.2-0.1-0.5-0.3-0.7-0.4c-0.2-0.2-0.4-0.4-0.6-0.6
		l-0.1-0.7l-0.8,0.2l-0.1-0.7L81.3,60l-0.5-0.6l-0.2-1c-0.7,0.5-0.4,1.4-1.2,1.7c0-0.1,0.1-0.3,0.1-0.4c0.1-0.3,0.2-0.6,0.2-0.9
		c0-0.4,0.3-0.8,0.8-0.9l0.9,0.4l0.5-0.6l-0.4-0.5l-1.3,0.1l0.5-0.6c0-0.3,0.2-0.7-0.3-1c-0.1,0.3-0.1,0.5-0.2,0.8l-0.1,0.1
		l-0.5-0.9c0.1-0.3,0.3-0.5,0.6-0.6s0.6-0.1,0.6-0.6L79.6,55l-0.2-0.3c-0.3,0.2-0.3,0.8-0.8,0.9c-0.2-0.2-0.2-0.5,0-0.8
		c0.1-0.2,0.3-0.5,0.4-0.8l0.4-0.3c-0.1-0.5,0.2-1.1-0.3-1.6c-0.2,0.5,0.1,1.2-0.5,1.6c-0.6,0-0.2-0.7-0.5-0.9l0.3-0.9l-0.3-0.5
		l0.4-0.5l-0.2-0.4c0.1-0.4,0.8-0.5,0.5-1.2l-0.4,0.3l0.2-2l0.3-0.4l-0.2-1.1l-0.4-0.3c0.5-0.5,0.9-1.1,1.2-1.7l-0.1,0.8l0.4,0.4
		c-0.1,0.3-0.5,0.4-0.2,0.9c0.7-0.6,0.5-1.4,0.7-2l0.8-1.4l0.4,0.9c0.1-0.5,0.1-1.1,0-1.6c0-0.3,0.5-0.6,0.1-1.1l-0.5,0.8H81
		l0.2-0.8c-0.4,0.1-0.6,0.3-0.5,0.7c0.1,0.3,0,0.7-0.2,0.9l-0.7,0.1c-0.2,1.1-0.3,1.2-1,1.2l0.2-0.5c-0.1-0.5-0.1-1,0-1.6
		c0.2-0.7,0.5-1.4,0.7-2c0.1-0.3,0.1-0.7,0.2-1c0.2-0.7,0.5-1.3,0.7-2l0.4-0.1l1-1.5L81.4,35c-0.1-0.8,0.8-0.8,1.1-1.4
		c0-0.2,0.1-0.4,0.2-0.6c0-0.1,0.1-0.1,0.2-0.1l0.2,0.6l0.3-0.8c0.1-0.6-0.7-0.6-0.4-1.2l0.5,0.1c0.2-0.3,0.4-0.7,0.6-1.1
		c0.2-0.3,0.4-0.6,0.7-1l-0.5-0.3l1.2-0.9l0.3,0.3c0.2-0.1,0.4-0.2,0.5-0.3c0.2-0.8,0.7-1.6,1.3-2.1c-0.3-0.1-0.4,0.1-0.6,0.2
		l-0.2-0.2V26c0.3-0.5,0.6-1,1-1.5c0.6-0.6,1.1-1.2,1.6-1.9l0.2,0.1c0.8-0.9,1.5-1.8,2.2-2.6c0.1-0.1,0.3-0.1,0.6-0.2
		c0.5-1.1,1.3-2,2.3-2.7c0.3-0.2,0.5-0.5,0.6-0.8c0.2-0.4,0.5-0.7,1-0.9l-0.1,0.8c0.1,0,0.2,0,0.3-0.1c0.1-0.2,0.2-0.5,0.5-0.4
		c0.2,0.3,0,0.5-0.2,0.7c-0.5,0.5-0.7,1.2-0.6,1.9l0.4,0.2c0.8-0.2,1.2-1,2-1.2l-0.2,0.9c0.1,0.2,0.4,0.2,0.5,0.1l0.1-0.1l1-1
		l0.8-0.1c0.1-0.1,0.2-0.2,0.3-0.3c0.6-0.6,1.3-1.2,2.1-1.6c0.4-0.3,0.8-0.6,1.4-1h0.6l0.6-0.5l0.8-0.1c0.4-0.6,1-1,1.7-1.2
		c1.1-0.2,2.2-0.5,3.3-0.6c0.2,0,0.3,0,0.5,0.1l1.2-0.5L113,11l0.9,0.1c0.3-0.2,0.7-0.4,1.1-0.6c0.1,0,0.2,0.1,0.3,0.1l0.6-0.4
		l0.7,0.4c0.7-0.1,1-0.7,1.6-1.1l1,0.2l0.6-0.6l0.8,1l-0.6,0.6l0.1,0.4l1.2-1.2h0.5l-0.1,0.7l0.6,0.3l0.6-0.8l0.5,0.2l0.4-0.6
		l0.9-0.1l1-0.9l0.5,0.2l0.1,0.4l0.9-0.7l1.5,1l-0.4,0.9c0.5,0.2,0.5-0.3,0.8-0.5l0.8,0.3l0.2,0.7l0.4-0.6l0.8,0.2l-0.1,1
		c0.4,0.1,0.9,0,1.2-0.3c-0.2-0.1-0.4-0.2-0.5-0.4s-0.3-0.2-0.4-0.4c0.8-1.2,1.8-1,2.8,0.4l0.9-0.5l-0.1-0.2l0.5-0.4l-0.2-0.7
		c0.5-0.4,1,0.2,1.6,0c0-0.1-0.1-0.2-0.1-0.3c-0.1-0.1-0.2-0.2-0.3-0.4l0.6-0.5l0.5,0.9c0.4-0.1,0.8-0.4,1-0.7
		c0.6-0.1,0.3,0.4,0.5,0.7l0.3-0.3l0.5,0.1l0.5-0.7l0.5,0.2l0.1,0.7l2.7,0.3c0.8,0.3,1.6,0.6,2.4,0.8l-0.6-1h0.9l0.4,1.3l0.2,0.1
		l0.2-0.5c0.5,0.7,0.5,0.7,0.2,1.2l-0.5-0.2l-0.5,1c0,0.7,0.7,0.4,0.9,0.8c0.2,0.2-0.1,0.4,0,0.7c0.3,1,0.3,1-0.2,2
		c0.2,0.4,0.2,0.8,0,1.2c0.6,0.4,1.2,0.7,1.3,1.4c0.4-0.2,0.8-0.2,1.2-0.1c0.6,0.1,1.3,0.1,1.9-0.2c0.6,0.5,1.6-0.1,2.1,0.7
		c0,0.5-0.5,0.4-0.8,0.6l0.5,0.6l1.1-0.8l0.6,0.2v1l0.5,0.2v1l1.2,1.1l0.4-0.8c0.6,0.3,0.9,0.9,1.4,1.2c0.1,0.8,0,0.9-0.6,1.1
		l-0.4,0.2c-0.1,0.1-0.2,0.1-0.3,0.2c-0.8-0.2-0.5-1.2-1.1-1.6l-0.8,0.5v0.4l0.5-0.3l0.6,0.6c0,0.5-0.4,0.5-0.7,0.6l-0.9,0.4
		l1.6,0.6v0.4c-0.2,0.2-0.5,0.2-0.8,0.1c-0.3,0-0.5-0.1-0.8-0.1c-0.2-0.1-0.5-0.2-0.7-0.2s-0.6,0-0.7-0.3l0.2-0.6l-1.9-0.2l-0.4,0.6
		c-0.2,0.2-0.7,0-0.8,0.6c0.2,0.6,0.5,1.2,1.1,1.6l0.4-0.5c0.5,0.2,0.1,0.9,0.6,1.2l0.3-0.5h0.6c0.1,0.1,0.1,0.2,0.1,0.3
		c0,0.3,0,0.6,0,0.9c0,0.4,0.1,0.7,0.4,1l0.5-0.2c0.8,0.3,0.8,0.3,0.8,1.4l-0.6,0.6l-0.6-0.1l-0.1,0.1l0.3,0.2V32l1.5,1.7l0.4-0.3
		c0.5,0.3,0.2,0.8,0.4,1.3l0.6,0.3l0.2,0.5l-0.3,0.3c0,0.3,0,0.6-0.1,0.8s-0.3,0.4-0.4,0.5h-0.5l-1-0.6c0.1,0.8,0.9,0.6,1.1,1.2
		l0.5-0.6c0.3,0,0.5,0.1,0.6,0.4c0.1,0.3,0.2,0.5,0.3,0.8l0.6,0.1l0.5-0.4c0.4,0.1,0.7,0.3,0.9,0.7c0.2,0.8,0.9,1.1,1.2,1.7h0.7
		v-0.3c-0.5-0.4-0.8-0.9-1.1-1.5c-0.1-0.3-0.5-0.4-0.8-0.7l0.5-0.5l-0.2-0.6l0.8-0.6c0.8,0.1,1.3,0.8,1.8,1.5c0-0.6-0.1-1.1-0.4-1.6
		c-0.1-0.2-0.3-0.2-0.7-0.4l-0.5-1.3c0.2-0.7-0.3-1.2-0.5-1.8c0.4-0.4,0.6,0.1,1,0.2l0.4-0.8l0.9,1.4v0.4l0.5,0.4l0.1,0.8l0.3-0.5
		l0.6,0.8l0.4-0.4c0.6,0.2,0.6,1,1.2,1.2l-0.2,1.1l-0.8,0.6c0.1,0.5,0.9,0.7,0.8,1.3c-0.1,0.6,0.5,1,0.2,1.5
		c0.2,0.1,0.3,0.3,0.5,0.4c0.4,0.6,1.1,0.8,1.7,0.6c0.4-0.1,0.8-0.1,1.2-0.1l-0.1,0.4l1.1,0.4l0.3-0.3l0.4,0.5l0.5,0.1l0.5,1.3
		l0.5-0.2l0.9,0.6l0.4-0.2l0.7,0.5l-0.4,0.5l0.6-0.2c0.1,0.1,0.2,0.1,0.2,0.3c0.1,0.4,0.1,0.9,0.5,1.2l0.5-0.2c0.3,0.4,0.6,0.7,1,1
		c0.4,0.2,0.4,0.9,1,0.9l-0.2-0.8l0.5-0.1l0.4,1.3l0.5,0.2v0.5c0,0.2,0.1,0.4,0.1,0.6c0.5-0.5,0.1-0.9,0.4-1.4h0.7l0.5,0.8l-0.4,0.7
		c0.2,0.7,0.6,1.3,1.1,1.8c0.1-0.1,0.1-0.2,0.1-0.3c0-0.6,0.1-1.1,0.1-1.6s-0.1-0.9-0.2-1.6l-0.6-0.6c0.6-0.3,0.9-0.1,1.2,0.3
		l0.1,1.6l0.3,0.2v1.2l0.7-0.2c0.5,0.3,0.3,0.7,0.2,1.2l-0.7-0.7c-0.4,0.2-0.2,0.5-0.1,0.7c-0.4,0.3-0.5,0.8-0.3,1.2
		c0.6-0.1,0-0.4,0.2-0.7l0.2-0.1l0.4,0.4l0.4-0.1c0,0.1,0.1,0.2,0,0.3c-0.1,0.2-0.3,0.5-0.5,0.8l0.5-0.1l0.1,0.4l0.5,0.2l-0.1,0.4
		l0.1,0.1l0.7-0.6c0.3,0.5,0,0.8-0.2,1.3c0.4,0.7,0,1.4-0.3,2.2l0.3,0.4c0,0.6-0.1,1.2-0.1,1.8l-0.3,0.3v1c-0.5,0.6-0.3,1.5-0.6,2.2
		c-0.1,0.3-0.2,0.5-0.3,0.9l0.8,0.6c0.1,1.6-0.3,2.3-1.7,2.8l-0.5-0.4c-0.1-0.6-0.1-1.2,0.2-1.7c0.3-0.7,0.5-1.5,0.5-2.3
		c0-0.7,0-1.4,0.2-2c0.1-0.4,0.3-0.9,0.5-1.3c0.2-0.2,0.3-0.6,0.2-0.9c-0.2-0.5-0.2-1,0.2-1.4c0-0.1,0.1-0.3,0.1-0.4l-0.5,0.1
		l-1-0.4l-0.9,0.6l0.1,1.3l-0.3,0.1c-0.1,0.3-0.3,0.5-0.5,0.8c-0.2,0.2-0.5,0.4-0.7,0.6c0.5,0.3,0.6-0.3,1-0.2c0,0.1,0,0.2-0.1,0.4
		s-0.3,0.3-0.5,0.4l0.1,0.8l0.6-0.8l0.1,0.9l0.6-0.4c0.1,0.1,0.2,0.2,0.2,0.3v1.1l-0.5,0.3l0.1,0.5c-0.8,0.9-0.7,2.1-1.4,3.2
		c0.1,0.3,0.3,0.5,0.4,0.8c0.3,0.5,0.2,1.2-0.2,1.6c-0.1,0.2-0.3,0.3-0.5,0.5c-0.7-0.3-0.3-0.9-0.4-1.3c0.1-0.4,0.5-0.7,0.3-1.1
		c-0.2,0.2-0.4,0.5-0.5,0.8l-0.6,0.2c0.4,0.9,0.2,1.8,0.5,2.7l-0.5,0.8l0.2,0.5l-0.2,0.3l-0.3-0.5l-1.3,0.8l0.1,0.3l-0.7,1.3
		c-0.1-0.1-0.2-0.2-0.2-0.3v-1l-0.5,0.1l-0.3-0.4l0.7-1.2l-0.6-0.7l-0.5,0.5c-0.2-0.5,0.2-0.7,0.3-1.1l-0.6-0.5h0.7l1.4-2.2
		c0.2,0.4,0.2,0.8,0,1.2l0.3,0.2l0.3-0.2l-0.3-1.7c0.8-0.2,0.5-1.2,1-1.6l0.2-1.6l-0.7-0.5l0.2,1.2c-0.4,0.2-0.4,0.8-1,1l0.3-0.8
		l-0.3-0.4l0.1-0.4l-0.1-0.1l-0.3,0.5l-0.5-0.3l0.2,0.7l-0.3,0.3c-0.3-0.9-1.1-1.6-2-1.8l0.4,0.7l-0.1,0.4l0.3,0.5l-0.7,0.4
		c-0.4-0.2-0.2-0.6-0.3-1l-0.7-0.6l-0.8-0.1l-0.5-0.9l0.6-0.6l0.3,0.7c0.4,0.1,0.7,0.1,1.1-0.1c0.3-0.1,0.7-0.1,1-0.1v-0.3l-0.5,0.1
		c-0.2-0.6-0.5-1.1-0.9-1.5l-0.9,0.9c-0.2-0.3-0.4-0.5-0.6-0.7c-0.2-0.2-0.7,0-0.7-0.6l0.5-0.2l-1.4-0.9l-0.2-1l0.2-0.7l0.8-0.1
		l0.3-0.5l-0.8-0.9l-0.1-1.1c-0.4,0-0.3,0.4-0.5,0.5l0.2,0.4c-0.5,0.4-0.5,1-0.2,1.5l0,0l-0.3,0.4l-0.4-0.6l0.1-2
		c0.2-0.2,0.4-0.5,0.4-0.9c0.1-0.2,0.1-0.5,0.3-0.7l-0.1-0.5l0.4-0.3v-1.1l-0.4,0.3l-0.5-0.1l-0.1,1.1l-0.6-0.5
		c-0.3,0-0.6,0.4-0.8,0.1l-1,0.4l-0.2-0.9l-1.1,1.2l-0.8-0.5c0-0.3,0.4-0.6,0-1.1l-1,0.2l-0.8-0.4c-0.3,0.3-0.1,0.6,0,1l-0.6,1.1
		l0.3,0.3c0,0.1,0,0.1,0,0.2c-0.5,0.3-0.9,0.7-1.1,1.3c0,0.3,0.2,0.5,0,0.9c-0.1,0.3-0.1,0.6,0.1,0.8c0.2,0.4,0.3,0.9,0.3,1.4
		c0,0.4,0.1,0.8,0.2,1.1c-0.1,0.3-0.2,0.6-0.3,0.9c0,0.1-0.1,0.2-0.1,0.3c0.2,0.6,0,1.3,0.3,2c0.1-0.2,0.2-0.4,0.2-0.6
		c0-0.3-0.1-0.7,0.3-0.8l0.9,0.8l-0.2,0.7c0,0.1,0,0.1,0.1,0.2c0.5,0.1,0.7,0.9,1.5,0.7c-0.4-0.2-0.8-0.4-0.6-0.9
		c0.6,0,0.9,0.6,1.6,0.7l-0.4-0.7l0.2-0.2c0.5,0,0.8,0.4,1.2,0.7l0.4-0.8c0.6,0.6,0.1,1.5,0.9,2l0.7-0.5l0.3,0.5l0.5-0.2
		c0.3,0.6,0.5,1.2,0.5,1.9l-0.6-0.8l-0.1,0.1l0.3,0.6l-0.3,0.8l0.1,0.1l0.5-0.4l0.4,0.4l-0.5,0.8l-0.6,0.1c-0.2,0.5,0.5,1-0.1,1.4
		l0.5,0.8l-0.4,0.6c0.3,0.3-0.1,1,0.4,1.4l0.3-0.3l1.1,0.8v0.9l-0.9,1L171,75l0.1,0.2c-0.1,0.4-0.6,0.5-1.3,0.3l-1,1.2
		c0-1.1,0.4-2.1,0.4-3l0.5-0.3c0.1-0.3-0.3-0.7-0.8-0.9l0.1,0.8l-0.7-0.6l-0.6,0.2l-0.2-0.8l-0.3,0.6l0.2,0.7l-0.5,0.3l-1.2-0.8
		l0.1-0.5h-1c0.3,0.6,0.6,1.1,0.9,1.7l-0.4,0.4l-2-0.3c-0.2-0.8,0.7-1.1,0.7-1.9l-0.8,0.4l-0.3-0.5l0.6-0.4l-0.5-0.9l0.8-0.2
		c-0.1-0.1-0.6-0.1-1.2,0c-0.3,0.3,0,0.6,0.1,1c-0.1,0-0.2,0.1-0.2,0.1c-0.2,0-0.3-0.1-0.4-0.2l0.1-0.5l-0.8-0.6l0.3-0.8l0.5,0.2
		l-0.1-0.7l0.3-0.3c0-0.1,0-0.2-0.1-0.2c-0.2-0.3-0.6-0.4-0.4-0.9l0.6,0.4l0.7-0.3c0-0.5,0.2-0.8,0.7-0.7l0.9-1.6l-0.3-0.3l-1.1,0.2
		l-1-1.6l-0.2,0.1v0.5l-0.4,0.5c0,0.3,0,0.5-0.1,0.8c-0.3,0.3,0.2,0.5,0,0.8c-0.4,0-0.3-0.6-0.7-0.8c-0.5,0.6-0.7,1.4-0.6,2.2
		l-0.3,0.4c-0.2-0.1-0.3-0.1-0.3-0.2c-0.1-0.3-0.1-0.5-0.2-0.6l1-1.9l-0.4-0.5l0.2-0.4c-0.2-0.3-0.6-0.4-0.4-0.8
		c-0.5-0.5-1.3-0.7-2-0.5l-0.1,0.6l-0.8-0.1l-0.3,0.6c-0.4,0-0.9-0.2-1.1-0.5c0.2-0.7,1.1-0.2,1.3-0.9l-0.1-0.3
		c0.1-0.1,0.1-0.1,0.2-0.1c0.4-0.1,0.6-0.2,0.5-0.6l-1.4-0.9l-0.4,0.2v1.8l-0.2,0.2L155,63l0.3-0.2c-0.1-0.3-0.1-0.5-0.1-0.8
		c0-0.2,0-0.5,0.1-0.7c0.7-0.4,0.8-1.4,1.5-1.9l1.1,0.2c0-0.3,0-0.5-0.1-0.6c-0.7-0.4-0.7-1-0.7-1.6v-0.3l-0.9,0.2l-0.6-0.4
		c-0.4,0-0.5,0.1-0.7,0.9L154,58l0.1-0.9l-0.4-0.6l-1.2,0.4l-0.5-0.6l-0.3,0.6l-1,0.3c0.1-0.2,0.1-0.3,0.1-0.5s-0.1-0.4-0.1-0.6
		l0.5-0.2v-0.6l-0.8,0.1l-0.6-1.4l-0.9-0.6l0.7-1.2l-0.6-0.7l0.5-0.2c0-0.6-0.1-1.1-0.2-1.7l-0.4-0.1l-0.5-1l0.6-0.2
		c-0.5-0.1-1-0.3-0.9-1l0.9,0.1v-0.1l-1.3-0.8l-0.8-1l-1.2-0.1c0.2-0.2,0.2-0.3,0.3-0.3c0.5-0.1,0.9-0.2,1.4-0.2l0.4-0.6
		c0.6-0.3,1,0,1.6,0.2l-0.3-0.7c0-0.3,0-0.7,0.1-0.8c0.4-0.2,0.1-0.6,0.3-0.8h0.3l0.2,0.6c0.1,0,0.2-0.1,0.2-0.1
		c0.1-0.5,0.1-0.5,0.4-0.8l-0.2-0.5l0.4-0.3l-1-0.3l-0.9,0.8h-0.7l-0.7,0.6l-0.5-0.4l0.5-0.3l-1.3-0.3l-0.3,0.4
		c-0.7,0.2-1.2-0.6-1.9-0.5c0.1,0.5,0.6,0.4,1,0.7l0.2,1l-0.4,0.7c-0.1,0-0.2,0-0.2,0c-0.3,0-0.6-0.1-0.8-0.2
		c-0.4-0.8-1.3-0.7-1.8-1.1c-0.5,0.3-0.2,0.7-0.2,1.1l-0.9-0.2l-0.7,0.2l-0.8-1h-0.1l0.2,0.8l-0.5,0.4c0.2,0.5,0,1.2,0.6,1.6
		l1.2-0.4l0.8,0.8l0.4-0.3l0.7,0.1l-0.4-1.1l-0.6,0.1l-0.4-0.6l0.8-1c0.4,0.3,1,0.5,1.5,0.4c0,0.2,0.4,0.4,0,0.7l0.4,0.3l-0.5,0.5
		l0.5,0.1l0.3-0.7l0.6,0.8l-0.5,0.6l0.9,1V47c-0.6,0.1-0.5-0.6-0.9-0.7l-0.4,0.4c-0.4-0.5-0.1-0.8,0.2-1.1h-0.4l-0.6,1.4l-0.5-0.4
		l-0.5,0.7l0.2,0.5l0.4-0.1c0.4,0.3,0.3,0.7,0.2,1.1l-1.3-0.5l-0.2-0.6l-0.8-0.4l0.2,0.5l-0.3,0.4c0.1,0.4,0.1,0.8,0.1,1.1
		s0,0.6,0,0.9l-0.7,1.1l0.7,0.6l-0.9,1.2h-0.5l0.1-0.8l-1.5-0.7l0.3-0.6c-0.6,0-0.9-0.5-1.1-1.1l-0.5,0.9l-0.7-0.3L136,50l-2.2-1.2
		l-0.3,0.4l-1.1,0.2c-0.5-0.6-0.6-1.4-1-2.1c-0.3-0.5-0.8-0.9-1.2-1.4v-0.8c0.5-0.2,0.8-0.8,0.8-1.4l0.8-0.1c0.3-0.7,0.6-1.4,0-2.1
		l0.4-1l0.5,0.8l0.8,0.2l0.2,0.8l0.7,0.1l0.3,0.4c0.2-0.2,0.4-0.3,0.6-0.5c0.1-0.1,0.1-0.2,0.1-0.3l0.6-0.1l0.7,0.4v-0.7l-0.6-0.3
		c-0.1,0.1-0.2,0.3-0.3,0.4L135.3,41.6z M122.6,40.8L122.6,40.8c0-0.4-0.6-0.5-0.5-0.9l-1,2.7l0.3,0.2c0,0.1,0,0.2,0,0.4
		s0.1,0.3,0.2,0.4l2.1-3.9c-0.3,0.2-0.6,0.4-0.8,0.7C122.8,40.6,122.7,40.7,122.6,40.8L122.6,40.8z M110.6,89.8V89
		c-0.5,0.1-0.6,0.3-0.4,0.8H110.6c0,0.2,0.2,0.4,0.4,0.4l0,0c0.5,0,1.1,0.2,1.4,0.6c0.1,0.1,0.2,0.1,0.3,0.1c0.1-0.6,0.3-1,0-1.6
		l0.7-0.3l-1-0.4l0.7-0.3c-0.3-0.3-0.5-0.5-0.6-0.6h-0.1l-0.1,0.6l-1-0.7l0.2-0.6l-0.7-0.1c0.2,0.3,0.2,0.6-0.1,0.7l-1.1-0.6
		l0.3,0.6l0.7,0.3l-0.1,0.7l0.4-0.1l0.5,0.7l-0.3,0.5L110.6,89.8z M136.4,38.3l0.3-0.8c-0.5-0.3-0.5-0.3-0.9,0.2L136.4,38.3v0.3
		l-0.6-0.1l0.3,0.6l1.3,0.2c0.3-0.1,0.6-0.4,1-0.3l-0.4,0.9c-0.5,0-1-0.4-1.5,0l0.8,0.4l-0.3,0.5l0.6,0.2l0.4-0.8h0.9
		c0.1,0.3,0.4,0.5,0.7,0.6s0.5,0.4,0.7,0.6l1.7-0.8l-1.3-0.8h-0.5l-0.5-0.4l-0.2,0.4l0.3,0.3c0.3,0,0.6,0,1,0.1c0,0,0.1,0.1,0.1,0.2
		l-0.5,0.3l-0.8-0.3c-0.1-0.2-0.2-0.3-0.3-0.5c-0.2-0.1-0.3-0.3-0.5-0.4l0.4-0.6l-0.5-0.3l0.1-0.4c-0.2-0.1-0.5-0.3-0.7-0.4
		c-0.1,0-0.2,0-0.2,0.1l0.3,0.4l-0.3,0.3c-0.1-0.3-0.2-0.5-0.3-0.8c0-0.1-0.1-0.1-0.2-0.2l-0.4,0.5L136.4,38.3z M133,21.1
		c0.3-0.6-0.1-0.9-0.2-1.2l0.9-1.3l1.4-0.9l0.4,0.2l0.3,0.8l-0.6,0.4l0.1,0.4l1.3-0.4l0.2,0.2l-0.3,1.1c-0.3,0.2-0.7,0.2-1,0
		c-0.9,0.2-1.1,0.9-1.3,1.6c0.3,0,0.5,0.1,0.8,0.1c0.1,0,0.1,0.1,0.2,0.3l-0.8,0.4l-0.4,1.3l0.4,2.2c0.4,0.3,0.8,0.6,1.1,1.1
		l-0.4,0.5l0.5,0.2l0.8-0.3c-0.4-0.4-0.7-1-0.7-1.6l0.7,0.1l0.3-0.4l-0.9-0.3l0.4-0.4l0.1-0.6l0.9-0.1c0-0.3-0.4-0.5-0.1-0.8
		l0.2,0.1l0.3-0.7h1.1l0.6-0.4l0.6,0.3l1.1-0.1l0.3,0.4l0.9-0.5l0.4,0.2l-0.1,0.3h1.6l0.5,0.6l-0.2,0.7c0.6,0.1,1,0.1,1.4-0.3
		l0.7-1.1c-0.6-0.4-1.2-0.7-1.9-0.8l-0.6-1.1l-1.1,0.2l0.5-0.4l-0.3-0.5l0.8-0.8l0.2-0.8c0.8-0.4,1.8-0.4,2.7-0.1
		c0.3,0.2,0.3,0.9,1,0.6l-0.2-1c0.2-0.7,0.7-0.2,1.1-0.4l-0.2-0.5l-0.6,0.3c-0.4-0.1-0.2-0.8-0.9-0.6l0.4,0.7
		c-0.3,0.3-0.5,0.7-1,0.4l0.1-0.7c-0.2-0.1-0.3-0.1-0.5-0.1c-0.4,0-0.7,0-1.1,0c-1.4,0.1-1.8,0-2.3-1.6c0-0.1,0-0.2,0-0.2l0.8,0.1
		l0.1-0.7c0.5-0.3,1.1-0.5,1.7-0.6c-0.2-0.2-0.4-0.3-0.7-0.5c0-0.1,0-0.1-0.1-0.2l0.3-0.3V13l0.6-0.4L145,12l-2.2,0.8l0.1,0.6
		c-0.5,0.3-0.6-0.3-1-0.2l-0.6,0.1l0.1-0.5l-0.6-0.2l0.4-0.9l-0.7-0.3l-2.8,1.4h-1.3l-1,1.5v0.2c0.1,0.7-0.2,1.4-0.7,1.9l-0.7,0.1v1
		l-0.8,0.3l-0.5-0.7l-1.1-0.6c0-0.1,0-0.2,0-0.2c0.1-0.2,0.1-0.5,0.2-0.8l-2.7-1.5l-0.6,0.5c-0.5-0.4-1.1-0.4-1.6-0.9l0.7-0.6
		c-0.1-0.1-0.2-0.2-0.3-0.2c-0.8-0.1-1.7-0.2-2.5-0.2c-0.3,0-0.6,0-0.8-0.1c-0.7-0.1-1.4-0.2-2.1-0.3c-0.2,0-0.3,0-0.5,0.1l-0.8,0.2
		l-1.3,1.1l-0.5,0.1l-0.2,0.7c-0.6-0.1-0.9,0.7-1.6,0.4v-0.5l-1.6,0.2l-0.8,0.8v0.4l-0.7,0.1c-0.2,0.2-0.3,0.5-0.4,0.5
		c-0.4,0.1-0.5,0.3-0.7,0.6h-0.2v-0.5l1.3-1.3l-0.3-0.4l-0.2,0.4l-0.6-0.2l0.2,0.6l-1,0.5c0.1-0.2,0.1-0.4,0.2-0.6
		c0-0.2,0-0.3-0.1-0.5l1.3-0.6l-1.1,0.1l-0.1-0.8c-0.3,1.1-1.1,0.4-1.6,0.6l-0.1-0.7l-0.5,0.4l-0.5-0.1l0.5,0.8
		c-0.2,0.3-0.4,0.7-0.7,0.8c-0.7,0.3-1.2,0.8-1.7,1l-0.6,0.9l-0.4-0.2c-0.6,0.5-1.3,0.9-2.1,1l-0.6,0.7l-0.9,0.1l-0.3,0.6l0.1,0.4
		c-0.3,0.5-0.7,0.2-1,0.3c-0.3,0.3-0.6,0.5-1,0.6c-0.5,0.1-0.9,0.7-1.4,1c-0.3,0.2-0.5,0.5-1,0.3c-0.2-0.1-0.5,0.2-0.8,0.3
		c0.5,0.1,0.8,0.2,0.8,0.5l-0.9,0.7l0.6,0.6l-0.2,0.7l-1,1.1l0.1,0.6l-0.5,0.5l0.3,0.4c-0.1,0.2-0.1,0.3-0.2,0.5
		c-0.4,0.5-0.3,1.3,0.2,1.7c0.2,0.2,0.4,0.5,0.7,0.8l-0.1,0.4l0.8-0.3l1-0.9l0.3-1.9l0.8,0.1c-0.1,0.4-0.2,0.7-0.3,1
		c0,0.1,0,0.2,0.1,0.3l0.6-0.5l0.6,0.4l0.3-0.3l-0.4-0.2l1.5-2.5l0.4,0.1l0.1-0.6c0.6-0.2,0.7,0.4,1.1,0.5l0.4-0.3
		c-0.6,0-0.9-0.4-1.2-0.8c0.1-0.5,0.1-0.9,0.1-1.4c-0.1-0.2,0-0.5,0.1-0.7c0.3-0.5,0.6-1.1,0.9-1.5c0.6-0.3,1-0.6,1.5-0.8
		c0.3-0.2,0.6-0.3,0.9-0.3c0.4,0,0.8,0,1.1,0c0.5-0.1,0.9-0.9,1.6-0.4l-0.1,0.7l0.5,0.2l0.2,0.6l0.8-1.2l-0.7-0.1l0.1-0.5l1.3,0.2
		c-0.1-0.7,0.5-0.9,1-1.1c0.3-0.1,0.6-0.3,1-0.4c0.3-0.1,0.8-0.1,1-0.3c0.6-0.6,1.4-0.8,2-1.3l0.9,0.5l0.3-0.4l0.6,0.8h0.9l0.7,0.8
		l0.8-0.5l1.7,0.4c0.7-0.1,1.3-0.6,2-0.5l0.8,0.7h0.7l0.5-0.4l1.5,0.3c-0.3,0.4-0.8,0.2-0.8,0.7l0.4,0.8l-0.4,0.5l1,0.3l0.7,1.2
		l0.6-0.3l0.3-0.8h1l0.4,0.7l0.2-0.5c0.4-0.1,0.6,0.3,0.8,0.4S132.7,20.9,133,21.1L133,21.1z M173.1,45.9l-1.2-0.5l-0.1,0.7
		l-0.7,0.3v0.8l0.6,0.4l-0.6,0.3l-0.5-0.6l-0.5,0.8l0.8,0.9v0.7l-0.2-0.4h-0.6c-0.1,0.6,0,1.3,0.2,1.9c0.5-0.2,1-0.2,1.5-0.1
		l-0.5-0.8l0.4-0.7l-0.2-0.7c0.3-0.8,1.1-0.9,1.7-1.2L173.1,45.9C173.2,45.9,173.1,45.9,173.1,45.9z M85.3,32.2l-1,1.7v1.3
		c0.6-0.1,0.7-0.5,0.9-0.8c0.2-0.4,0.7-0.7,1.1-0.7c0.1,0,0.1-0.1,0.2-0.2L86.1,33l1.2-0.5c0.4,0.2-0.3,0.7,0.3,0.9
		c0.4-0.6,0.3-1.5,0.9-2l0.8-0.1c0.3-0.2,0.3-0.5,0.2-0.8c-0.1-0.2-0.2-0.5-0.4-0.7l-0.4,0.1l-0.9-0.6c0.1,0.5,0.1,0.8,0.2,1.1
		c0.1,0.5,0,1-0.4,1.4l-0.7,0.1L86,32.7L85.8,32L85.3,32.2z M80.3,50.8l0.1,0.2c0.1,0,0.2-0.1,0.3-0.1c0.3-0.4,0.6-0.9,0.8-1.4
		c0.2-0.8,0.7-1.6,1.5-2c0.1-0.1,0.2-0.2,0.3-0.5l-0.9,0.3l0.2-0.7l-0.4,0.1c0.4-0.8,0.7-1.5,1-2.2c0.4-0.7,0.8-1.4,1.3-2.1
		c-0.9,0.4-1,1.4-1.7,1.9l-0.2-0.6c-0.7,0.4-0.7,1-0.6,1.6l0.3,0.2c-0.3,0.5-0.5,1.1-0.6,1.7c-0.1,0.7-0.5,1.3-1,1.7
		c-0.1,0.1-0.3,0.3-0.4,0.4c-0.4,0.4-0.5,1-0.3,1.6l0.4-1.3c0.1-0.1,0.2-0.2,0.3-0.4c0.1-0.1,0.3-0.2,0.4-0.4v0.1L80.3,50.8z
		 M92.7,37.5l-0.5,0.3L91.9,37c-0.2,0-0.3,0-0.3,0.1c-0.3,0.5-0.6,0.9-1,1.6l1-0.4c0.2,0.4,0.6,0.7,0.4,1.3c-0.5,0-0.4,0.7-0.8,0.9
		c-0.1-0.2-0.2-0.3-0.4-0.4C90.7,40,90.6,40,90.4,40c0,0.5,0.5,0.6,0.7,0.9c-0.3,0.3-0.5,0.8-0.4,1.3l0.7-0.9l0.2,0.1l0.3-1
		c0.4-0.2,1,0.2,1.2-0.4L92.7,37.5z M169.8,45.2c-0.4-0.4,0.2-0.6,0.1-0.9l-0.4-0.3l-0.4-0.9l-1,0.1l0.6,0.7
		c0.2,0.6-0.3,0.9-0.4,1.4l-0.1-0.8h-0.5l0.2,0.6l-0.2,0.4l0.2,1.4l0.6-0.6l0.2,0.5c0.5-0.5,0.5-0.5,0.3-1.3l0.5-0.5l0.3,1.1
		l1.6-1.2l-0.2-0.3L169.8,45.2z M81.9,38.8l0.3-0.4l-0.4-0.5c0.2-0.3,0.2-0.7,0.7-0.8l0.1,0.9l0.6,0.2c0.3-0.5,0.4-1,0.2-1.6
		c-0.6-0.2-0.6-0.2-1.2,0.1l-0.1-0.5l-0.5,0.7L81,36.8l0.2,1c-0.7,1.3-1.3,2.7-1.7,4.2c0.2-0.4,0.5-0.9,0.6-1.3
		c0.2-0.4,0.5-0.8,0.7-1.2c0.1-0.5,0.4-0.9,0.7-1.3L81.9,38.8z M105.8,16.2c0.8,0,0.9,0,0.9-0.7l-1.1,0.2l0.4-0.5
		c-0.6-0.2-1.2,0.2-1.4,0.8v0.1l-0.4-0.1c-0.4,0.2-0.8,0.4-1.1,0.6s-0.5,0.5-0.3,1.1c0.5-0.2,0.7-0.7,1.2-1l0.5,0.2l0.8-0.2l0.3,0.3
		L105.8,16.2z M93.4,41.5l-0.9-0.9c-0.1,0.1-0.2,0.1-0.2,0.1c-0.3,0.6-0.7,1.2-1.3,1.6c-0.2,0.1-0.3,0.5-0.4,0.7
		c0,0.1,0.1,0.3,0.1,0.4l0.9-1h1L93.4,41.5z M118.5,34.7c-0.5,0.3-0.8,0.7-0.9,1.2c0.4,0.4,0.9,0.6,1.5,0.4c0.2-0.3,0.6-0.4,0.6-0.9
		C119.5,34.9,119,34.9,118.5,34.7L118.5,34.7z M93.7,24.7l0.2,0.1c0.3-0.6,1-0.9,1.4-1.6c0-0.1,0-0.1,0-0.2
		c-0.5,0.1-0.6,0.7-1.2,0.7c0-0.7,0.6-1.2,0.2-1.9C94.2,21.9,94,21.9,94,22c-0.1,0.4-0.3,0.8-0.3,1.2C93.7,23.7,93.7,24.2,93.7,24.7
		L93.7,24.7z M97.1,21.4L97,21.3l-0.5,0.5l-0.6-0.2l-0.5,0.6c0.2,0,0.4,0,0.6-0.1c0.2,0,0.3,0,0.5,0.1l-0.8,0.9l0.4,0.1l-0.2-0.3
		l0.8-0.6l0.1,0.1L97.1,21.4z M85.4,57.2c-0.2-0.2-0.6-0.1-0.7,0.1v0.1c0,0.3-0.2,0.8,0.4,1l0.9-1.2l-0.2-0.5L85.4,57.2z
		 M117.8,18.6l0.9,0.5c0.3-0.3,0.5-0.1,0.7-0.1c0.1,0,0.2-0.1,0.3-0.1l-0.6-0.5l0.1-0.3l-0.3-0.2L117.8,18.6z M82.3,39.7l0.4,0.6
		c0.5-0.4,0.7-1,0.5-1.6C82.5,38.8,82.5,38.8,82.3,39.7L82.3,39.7z M152.6,40.8c-0.5,0-0.3-0.7-0.8-0.4c0.1,0.2,0.2,0.3,0.3,0.5
		s0.1,0.4,0.2,0.5h0.7l0.4-0.9H153L152.6,40.8z M141.8,40.2l0.9,0.5l0.7-0.3C142.6,39.7,142.4,39.7,141.8,40.2L141.8,40.2z
		 M152.6,55c0.1-1,0.1-1-0.6-1l0.3,0.9l-0.5,0.4c0.2,0,0.3,0,0.5-0.1C152.4,55.1,152.5,55,152.6,55L152.6,55z M86.3,57
		c0.1-0.7,0.2-1.2,0.3-1.7s0.6-0.8,0.5-1.6C86.4,54.7,86.1,55.8,86.3,57L86.3,57z M169,50.2l0.6,0.7v0.5c0,0.2,0,0.3,0.1,0.5
		c0.5-0.7,0.4-1-0.1-1.7c-0.1-0.1-0.2-0.1-0.2-0.2L169,50.2z M131.6,20.9l-0.5,1.2c0.3,0.1,0.6,0.2,0.9-0.2L131.6,20.9z M84.2,44.8
		c0.4-0.4,0.9-0.7,1.3-1.1c0.1-0.1,0.1-0.2,0.2-0.5C85,43.8,84.4,44,84.2,44.8L84.2,44.8z M168.6,51.1h-0.2c-0.1,0.3-0.1,0.7,0,1.1
		l0.8-0.3L168.6,51.1z M85,30.7c0.8-0.3,0.9-0.6,0.7-1.4L85,30.7z M152.3,22.7c-0.2-0.2-0.5-0.3-0.7-0.4c-0.1,0-0.2,0.1-0.3,0.1
		l0.1,0.8L152.3,22.7z M99.1,49.4L99,48.5c-0.5,0.3-0.7,0.7-0.4,1L99.1,49.4z M137.1,36.5l-0.4,0.6l0.5,0.6l0.2-0.2L137.1,36.5z
		 M86.5,39.9c0.1,0,0.2,0.1,0.2,0c0.4-0.4,0.7-0.9,0.9-1.4C87,38.9,86.6,39.4,86.5,39.9L86.5,39.9z M124.5,28.5c0-0.3,0-0.5,0.1-0.8
		c0.1-0.2,0.3-0.4,0.1-0.7c-0.3,0.3-0.5,0.7-0.5,1.1C124.2,28.2,124.3,28.3,124.5,28.5L124.5,28.5z M83.5,60.1
		c0.1,0.3,0.4,0.4,0.7,0.5l-0.4-1.3L83.5,60.1z M119.1,42.2l1.4-1.1l-0.1-0.1l-0.9,0.3L119.1,42.2z M133.3,24.9
		c0.1-0.5,0.1-0.8-0.3-0.9c-0.3,0.2-0.5,0.3-0.3,0.7l0.2-0.3L133.3,24.9z M139.5,50.7c-0.4-0.7-0.5-0.8-1.1-0.8
		c0.3,0.3,0.6,0.6,0.9,0.8C139.2,50.8,139.3,50.7,139.5,50.7L139.5,50.7z M170.7,51.8c0.2-0.1,0.3-0.1,0.4-0.2l0.5-0.1
		c-0.6-0.4-0.6-0.4-1.1,0L170.7,51.8z M158.2,55.6c-0.4,0.6-0.4,0.6-0.1,1.2C158.2,56.4,158.3,56,158.2,55.6L158.2,55.6z M138,42.1
		l-0.8-0.2l-0.1,0.1l0.9,0.7c0-0.1,0-0.2,0.1-0.3C138.1,42.3,138.1,42.3,138,42.1L138,42.1z M155.7,34.4c-0.2-0.7-0.2-0.7-0.7-0.7
		C155,34,155.3,34.2,155.7,34.4L155.7,34.4z M115.3,84.7c0.4,0,0.5-0.4,0.8-0.6l-0.5-0.3L115.3,84.7z M161.3,59.3
		c0.2-0.5,0.1-0.7-0.3-0.8l-0.3,0.3L161.3,59.3z M111.9,42.5c0.4-0.3,0.7-0.5,0.4-1l-0.7,0.7L111.9,42.5z"/>
	<path id="Path_1149" d="M172.7,37.6c0-0.2,0.1-0.2,0.1-0.3c-0.2-0.6-0.4-1.2-0.7-1.8l-1.1-0.2l0.6-0.3l0.8-1.2l-0.7-0.3l-0.6,0.6
		l-0.7-0.6c0-0.3,0-0.5,0.1-0.8c0.2-0.5,0.1-1.1-0.4-1.4l0.6,0.2c0.5-0.4,0.2-0.9,0.2-1.5l0.6,0.9l0.6-0.7l-0.1-0.3l0.3-0.6l0.9,0.2
		l-0.4-0.8l0.2-0.3l0.8,0.8l0.3-0.4l-0.8-0.7l0.4-0.2l0.6,0.6l0.4-0.4c0.6,0.3,0,0.9,0.3,1.3l0.6,0.3l0.3,0.7l0.3-0.3l-0.1-0.5
		c0.1,0,0.2,0,0.3,0.1c0.1,0,0.2,0.1,0.2,0.2c0.2,0.7,0.7,1.2,1.4,1.4c0.1,0,0.2,0.1,0.3,0.2l0.2-0.6l0.4,0.6l0.8,0.1l-0.5,0.4
		c0,0.4,0.2,0.8,0.5,1.1l-0.3,0.3l0.8,1.3l0.5,0.2v0.6l-0.6-0.4l0.2,0.9l0,0l0,0c-0.1,0-0.2-0.1-0.3-0.1l0.1,0.6l-0.6-0.5l-0.1,0.7
		l0.6,0.6v0.9l-0.4,0.3c0,0.2,0.1,0.5,0.1,0.7s-0.2,0.5,0.2,0.8l-0.8-0.1l-0.2,0.6l0.6,0.2c-0.6,0.4-1-0.3-1.6-0.3l-0.1,0.7
		l-0.8,0.2l-1.5-0.6l-0.2-0.9l-0.7,0.7v-0.3c0.1-0.2,0.2-0.4,0.4-0.5l-0.3-0.5l-0.5,0.1c-0.4-0.1-0.7-0.6-1.3-0.4
		c-0.3-0.4-0.3-0.4-0.9-0.6l-0.8-1.6c0.2,0.1,0.4,0.1,0.4,0.2c0.1,0.2,0.2,0.3,0.3,0.5L172.7,37.6z"/>
	<path id="Path_1150" d="M133.3,56.3c0.2,0.5,0.1,1,0.3,1.6l0.2-0.8l1.1-0.4l0.5,0.4l-0.8,0.4v0.1l1-0.3l0.2-0.7l0.5,1l0.6,0.4
		c-0.1,0.1-0.1,0.1-0.2,0.1c-0.6-0.2-1.3-0.1-1.9,0.1c0.2,0.3,0.6,0.5,0.3,1l-0.4-0.3l-0.4,0.8l-0.2-0.6c-0.5,0.3-0.6,0.6-0.5,1.2
		l-0.6,0.9l-0.7-0.8L132,61h-0.4l-0.2-0.5c-0.9-0.1-0.9-0.1-1.4-0.6l0.8-1l-0.8-0.8l0.1-0.4l0.5,0.4l0.1-1.1l0.2-0.3v-1.5l0.6-0.3
		c0.1,0.1,0.1,0.2,0.1,0.2c-0.2,0.8-0.2,0.8,0.2,1.6c0.1-0.1,0.3-0.2,0.4-0.3c0.1-0.1,0.2-0.2,0.3-0.4c0.1-0.1,0.2-0.1,0.3-0.2
		L133.3,56.3L133.3,56.3z"/>
	<path id="Path_1151" d="M107.4,96.1l0.5-0.4c-0.3-0.3-0.7-0.5-1.1-0.6l0.1,0.8c-0.5-0.2-0.4-0.5-0.4-0.8s0-0.6-0.5-0.7
		c0.1,0.5-0.3,1,0.2,1.6l-0.6,0.5l0.1,0.4l-0.6-0.4l0.5-0.6c0-0.3-0.1-0.6-0.2-0.9c-0.2-0.3-0.2-0.6-0.1-1c0-0.3-0.1-0.7-0.2-1
		l-0.6,0.2l-0.4-0.3l1-0.1l0.6,0.4c0.5-0.1,1-0.5,1.5,0l-0.2,0.2l0.1,0.7l0.6,0.4l0.6-0.5l1.7-0.3l-0.5,0.6l-0.6,0.1
		c0,0.1-0.1,0.2-0.1,0.3c0.1,0.4,0.2,0.8,0.2,1.2l1-0.1l0.4,0.8l-1.1-0.4l-0.2,0.7l-0.6-0.4L107.4,96.1z"/>
	<path id="Path_1152" fill="#FFFFFF" d="M174.8,72.4c-0.6,0.2-1.1,0.4-1.6,0.8l-0.6,1.7l-0.4-0.6l-0.5,0.1V74
		c0.2-0.1,0.6,0.3,0.8-0.2l0.1-1l0.6-0.2l-0.2-1l-1.1-1.1L172,70l-0.4-0.3l0.4-0.6l-0.5-0.7l0.5,0.1l0.5-1c0.1,0.2,0.1,0.3,0.2,0.5
		c0,0.3,0,0.5,0,0.8l-0.6-0.1l0.5,0.8l-0.2,0.8l0.6,0.6l0.6-0.4c0.5,0.3-0.2,0.9,0.4,1.2l0.3-0.7L174.8,72.4z"/>
	<path id="Path_1153" fill="#FFFFFF" d="M166.3,29.8l-0.6,0.4c0,0.7-0.4,1.4,0.1,2.1l-0.2,1c-0.3,0.3-0.7,0.3-0.9,0l0,0l0.8-0.2
		v-0.8c-0.4-0.4-1-0.6-1.2-1.2l0.8,0.1c0-0.6-0.6-0.7-0.8-1.3l0.5-0.4c0.2,0.2-0.2,0.5,0.2,0.7l0.4-0.8L166.3,29.8z"/>
	<path id="Path_1154" fill="#FFFFFF" d="M93.5,79.8l-0.4-0.4l0.2-0.9l-0.9-1c0.1-0.1,0.2-0.2,0.2-0.1c0.5,0.3,1,0.7,1.6,1
		c0.2,0.1,0.3,0.3,0.4,0.5c-0.7,0.6-0.9,1.4-0.8,2.2l-0.6-0.5L93.5,79.8z"/>
	<path id="Path_1155" fill="#FFFFFF" d="M144.9,42.8l1.3-0.2l0.4,0.2l0.2,0.8l-0.8,0.7h-0.5l-0.3-0.3l-0.5,0.1
		c0-0.1-0.1-0.1-0.1-0.2C144.7,43.5,144.8,43.2,144.9,42.8z"/>
	<path id="Path_1156" d="M118,96.4l-1.3,0.2l0.1-0.9l1.2,0.4l0.3-0.4l0.5,0.5l0.3-0.1l0.9,0.4v0.2l0.5,0.1c-0.1,0.1-0.1,0.2-0.2,0.2
		c-0.2,0-0.5,0-0.7,0C119,96.8,118.5,96.6,118,96.4z"/>
	<path id="Path_1157" d="M103.8,99.1l1.9,0.4l-0.1,0.6l0.6-0.1l-0.3,0.6l-0.7-0.4l-0.1,0.1l0.8,0.9l-1-0.3
		C104.8,100.3,103.9,100.1,103.8,99.1z"/>
	<path id="Path_1158" fill="#FFFFFF" d="M151.9,7.8c0.3-0.4,0.6-0.3,0.9-0.3l1.5,1v0.4l-0.5,0.3l-1.4-0.6L151.9,7.8z"/>
	<path id="Path_1159" fill="#FFFFFF" d="M145.1,47.7l0.6-1h1.3l-0.5,1.4c-0.4,0.2-0.6-0.2-0.8-0.2S145.2,48,145.1,47.7z"/>
	<path id="Path_1160" fill="#FFFFFF" d="M169.4,30.2l-0.4-0.5c-0.1,0-0.1,0-0.2,0.1c-0.1,0.2-0.2,0.4-0.4,0.6l0.2-0.9l-0.6-0.6
		c0.6,0.2,0.9,0.7,1.5,0.5l0.1-1l0.5,0.9c-0.3,0.6-0.4,1.2-0.1,1.8C169.3,31,169.6,30.5,169.4,30.2z"/>
	<path id="Path_1161" fill="#FFFFFF" d="M100.9,89h-0.8c0-0.5-0.2-1.1-0.5-1.6l-0.2,0.3l-1.1-0.4v-0.5c0.2-0.2,0.4-0.1,0.6,0
		s0.6,0.4,1,0.7l0.3,1L100.9,89z"/>
	<path id="Path_1162" fill="#FFFFFF" d="M111.6,94.5c-0.1-0.2-0.2-0.4-0.2-0.5v-0.1c0,0,0.1-0.1,0.2,0l1.1,1l-0.2-1
		c0.7,0.6,0.7,0.6,0.3,1.3L111.6,94.5z"/>
	<path id="Path_1163" fill="#FFFFFF" d="M134.3,52.6c0.3,0.3,0.4,0.6,0.7,0.7c0.2,0.1,0.5,0.2,0.5,0.6l-0.8-0.4l-0.6,0.8
		C134.1,53.7,133.8,53.1,134.3,52.6z"/>
	<path id="Path_1164" fill="#FFFFFF" d="M177.7,29.6l0.6-0.1c-0.1,0.5-0.4,0.3-0.7,0.3c-0.2-0.3-0.4-0.6-0.7-0.8l-0.6-0.8
		c0.4,0,0.4,0,0.8,0.5L177.7,29.6z"/>
	<path id="Path_1165" fill="#FFFFFF" d="M133.3,56.3c0.1-0.4,0.5-0.4,0.8-0.6l0.7,0.3c0,0.1,0,0.2-0.1,0.2l-0.8,0.3L133.3,56.3
		L133.3,56.3z"/>
	<path id="Path_1166" fill="#FFFFFF" d="M97.7,93.8l1.1-0.3l0.3,0.6c-0.1,0.1-0.2,0.2-0.2,0.1C98.6,94,98,94.5,97.7,93.8z"/>
	<path id="Path_1167" d="M164.2,13.7c-0.4,0.3-0.7-0.2-1.2-0.1c0.1-0.2,0.1-0.4,0.2-0.6c0-0.2-0.1-0.3-0.1-0.4
		c0.1,0,0.2,0.1,0.3,0.2C163.7,13.1,163.9,13.4,164.2,13.7z"/>
	<path id="Path_1168" fill="#FFFFFF" d="M170.5,61.6l0.1-0.4c-0.3-0.2-0.7-0.3-0.4-0.9c0.6,0.2,0.6,0.8,0.9,1.3L170.5,61.6z"/>
	<path id="Path_1169" fill="#FFFFFF" d="M175.9,28c-0.1-0.6-1.1-0.6-1-1.4l0.7,0.6l0.1-0.1L175.9,28L175.9,28z"/>
	<path id="Path_1170" fill="#FFFFFF" d="M104,96.5l1.2,0.6l-0.7,0.4L104,96.5L104,96.5z"/>
	<path id="Path_1171" fill="#FFFFFF" d="M174.5,66.9c-0.8-0.4-0.8-0.4-0.9-0.9c0.1,0,0.2-0.1,0.2-0.1c0.1,0,0.1,0,0.2,0L174.5,66.9z
		"/>
	<path id="Path_1172" fill="#FFFFFF" d="M109.1,102.2c-0.8,0-0.8-0.9-1.3-1.2c0.3-0.1,0.4,0.1,0.6,0.2L109.1,102.2z"/>
	<path id="Path_1173" fill="#FFFFFF" d="M176.5,66l-0.8,0.2l-0.3-0.8C176,65.3,176.1,65.8,176.5,66z"/>
	<path id="Path_1174" fill="#FFFFFF" d="M180,43l0.3-1l0.4,0.4l-0.6,0.7L180,43z"/>
	<path id="Path_1175" fill="#FFFFFF" d="M174.9,69.3c-0.4-0.5-0.4-0.5-0.2-1.2c0.1,0.2,0.2,0.3,0.2,0.4
		C174.9,68.8,174.9,69.1,174.9,69.3L174.9,69.3z"/>
	<path id="Path_1176" fill="#FFFFFF" d="M172.1,66c-0.3-0.5-0.3-0.5,0.3-1.2L172.1,66z"/>
	<path id="Path_1177" fill="#FFFFFF" d="M173.5,61.8v0.5c-0.2-0.1-0.3-0.1-0.4-0.2c-0.1-0.1-0.2-0.1-0.4-0.2
		C172.9,61.7,173.3,61.6,173.5,61.8L173.5,61.8z"/>
	<path id="Path_1178" fill="#FFFFFF" d="M133,21.1c-0.3-0.2-0.6-0.3-0.8-0.5s-0.4-0.5-0.8-0.4l-0.2,0.5l-0.4-0.7h-1l-0.3,0.8
		l-0.6,0.3l-0.7-1.2l-1-0.3l0.4-0.5l-0.4-0.8c0-0.5,0.6-0.3,0.8-0.7l-1.5-0.3l-0.5,0.4h-0.7l-0.8-0.7c-0.7-0.1-1.3,0.4-2,0.5
		l-1.7-0.4l-0.8,0.5l-0.7-0.8h-0.9l-0.6-0.8l-0.3,0.4l-0.9-0.4c-0.6,0.6-1.4,0.7-2,1.3c-0.2,0.2-0.6,0.2-1,0.3
		c-0.3,0.1-0.6,0.2-1,0.4c-0.5,0.2-1,0.4-1,1.1l-1.3-0.2l-0.1,0.5l0.7,0.1l-0.8,1.2l-0.2-0.6l-0.5-0.2l0.1-0.7
		c-0.7-0.5-1.1,0.3-1.6,0.4c-0.4,0-0.8,0-1.1,0c-0.3,0.1-0.6,0.2-0.9,0.3c-0.5,0.2-0.9,0.5-1.5,0.8c-0.3,0.4-0.6,1-0.9,1.5
		c-0.1,0.2-0.1,0.5-0.1,0.7c0,0.5-0.1,0.9-0.1,1.4c0.3,0.4,0.6,0.8,1.2,0.8l-0.4,0.3c-0.4-0.1-0.6-0.7-1.1-0.5l-0.1,0.6l-0.4-0.1
		l-1.5,2.5l0.4,0.2l-0.3,0.3l-0.6-0.4l-0.6,0.5c0-0.1-0.1-0.2-0.1-0.3c0.1-0.3,0.2-0.6,0.3-1l-0.8-0.1L99,29l-1,0.9l-0.8,0.3
		l0.1-0.4c-0.2-0.3-0.4-0.5-0.7-0.8c-0.5-0.4-0.6-1.2-0.2-1.7c0.1-0.2,0.2-0.3,0.2-0.5l-0.3-0.4l0.5-0.5l-0.1-0.6l1-1.1l0.2-0.7
		l-0.6-0.6l0.9-0.7c-0.1-0.3-0.4-0.4-0.8-0.5c0.4-0.1,0.7-0.4,0.8-0.3c0.5,0.2,0.7-0.1,1-0.3c0.5-0.3,0.9-0.9,1.4-1
		c0.4-0.1,0.7-0.4,1-0.6c0.3-0.1,0.8,0.1,1-0.3l-0.1-0.4l0.3-0.6l0.9-0.1l0.6-0.7c0.8-0.1,1.6-0.4,2.1-1l0.4,0.2l0.6-0.9
		c0.5-0.2,1-0.7,1.7-1c0.3-0.1,0.5-0.5,0.7-0.8l-0.5-0.8l0.5,0.1l0.5-0.4l0.1,0.7c0.5-0.2,1.3,0.5,1.6-0.6l0.1,0.8l1.1-0.1l-1.3,0.6
		c0,0.2,0.1,0.3,0.1,0.5s-0.1,0.4-0.2,0.6l1-0.5l-0.2-0.6l0.6,0.2l0.2-0.4l0.3,0.4l-1.3,1.3v0.6c0.1,0,0.2,0,0.2,0
		c0.2-0.3,0.3-0.5,0.7-0.6c0.2,0,0.3-0.3,0.4-0.5l0.7-0.1v-0.4l0.8-0.8l1.6-0.2v0.5c0.7,0.3,1-0.5,1.6-0.4l0.2-0.7l0.5-0.1l1.3-1.1
		l0.8-0.2c0.1,0,0.3-0.1,0.5-0.1c0.7,0.1,1.4,0.2,2.1,0.3c0.3,0.1,0.5,0.1,0.8,0.1c0.9,0,1.7,0.1,2.5,0.2c0.1,0,0.1,0.1,0.3,0.2
		l-0.7,0.6c0.4,0.5,1.1,0.6,1.6,0.9l0.6-0.5l2.7,1.5c-0.1,0.3-0.1,0.5-0.2,0.8c0,0.1,0,0.2,0,0.2l1.1,0.6l0.5,0.7l0.8-0.3v-1
		l0.7-0.1c0.5-0.5,0.7-1.2,0.7-1.9c0-0.1,0-0.1,0-0.2l1-1.5h1.5l2.8-1.4l0.7,0.3l-0.4,0.9l0.6,0.2l-0.1,0.5l0.6-0.1
		c0.3-0.1,0.5,0.5,1,0.2l-0.1-0.6l2.2-0.8l0.3,0.6l-0.6,0.4V13l-0.3,0.3c0,0.1,0,0.2,0.1,0.2c0.2,0.1,0.5,0.3,0.7,0.5
		c-0.6,0.1-1.2,0.3-1.7,0.6l-0.1,0.7l-0.8-0.1c0,0.1-0.1,0.2,0,0.2c0.6,1.6,1,1.7,2.3,1.6c0.4,0,0.7,0,1.1,0c0.2,0,0.4,0.1,0.5,0.1
		l-0.1,0.7c0.5,0.3,0.7-0.1,1-0.4l-0.4-0.7c0.7-0.2,0.5,0.5,0.9,0.6l0.6-0.3l0.2,0.5c-0.4,0.2-0.9-0.3-1.1,0.4l0.2,1
		c-0.7,0.4-0.7-0.4-1-0.6c-0.9-0.4-1.9-0.4-2.7,0.1l-0.2,0.8l-0.8,0.8l0.3,0.5l-0.5,0.4l1.1-0.2l0.6,1.1c0.7,0.1,1.4,0.3,1.9,0.8
		l-0.7,1.1c-0.3,0.4-0.8,0.4-1.4,0.3l0.2-0.7l-0.5-0.6h-1.6l0.1-0.3l-0.4-0.2l-0.9,0.5l-0.3-0.4l-1.1,0.1l-0.6-0.3l-0.6,0.4h-1.1
		l-0.3,0.7l-0.2-0.1c-0.3,0.3,0.1,0.5,0.1,0.8l-0.9,0.1l-0.1,0.6l-0.4,0.4l0.9,0.3l-0.3,0.4l-0.7-0.1c0,0.6,0.3,1.1,0.7,1.6
		l-0.8,0.3l-0.5-0.2l0.4-0.5c-0.3-0.4-0.7-0.8-1.1-1.1l-0.4-2.2l0.4-1.3l0.8-0.4c-0.1-0.1-0.1-0.3-0.2-0.3c-0.3-0.1-0.5-0.1-0.8-0.1
		c0.3-0.7,0.5-1.4,1.3-1.6c0.3,0.2,0.7,0.2,1,0l0.3-1.1l-0.2-0.2l-1.3,0.4l-0.1-0.4l0.6-0.4l-0.3-0.8l-0.4-0.2l-1.4,0.9l-0.9,1.3
		C132.9,20.2,133.3,20.5,133,21.1z M119.6,16.2c0.7,0.5,1.6,0.4,2.2-0.2c0.2-0.2,0.3-0.5,0.4-0.8c0-0.2-0.1-0.4-0.2-0.5
		c-0.9-0.3-1.9,0-2.5,0.8L119.6,16.2L119.6,16.2z"/>
	<path id="Path_1179" fill="#B7B7B7" d="M110,84.3l-0.5,0.4c-0.3,0-0.6-0.1-0.7-0.4l0.5-1c-0.1-0.3-0.4-0.5-0.7-0.5
		s-0.5-0.2-0.4-0.5l0,0c0.5-0.1,1.1,0,1.4-0.5c0.1-0.7,0.1-0.7-0.5-0.9l0.2,0.7h-1.1l-0.4-0.7l0.8-0.1c0.3-0.9,1.1-1.3,1.8-1.8
		l0.3,0.7l1.6-0.2l-0.2,1.1l0.7,0.6l0.7-0.5v-0.9l-0.8-0.7c-0.4-0.1-0.8,0-1-0.5l0.1-0.4l-0.6-1.1c0.6,0.1,0.8,0.7,1.3,1
		c0.2-0.1,0.3-0.3,0.2-0.5c0-0.1-0.1-0.1-0.1-0.2l0.6-0.2l0.1-1l-0.3-0.3l-0.8,0.5l-0.4-0.7c0.4-0.4,0.6,0.1,1,0l0.2-0.3l0.8,0.2
		l0.3-0.7l0.9-0.4c0,0.5-0.3,0.8-0.6,1.1l0.6,0.8c-0.1,0.3,0,0.7-0.5,1l0.7,0.9l-0.9,0.1l-0.4,0.5l-0.4-0.2l-0.1,0.9l0.5,0.1
		c-0.4,1,0.2,1.4,1.1,1.6c0.1,0.5,0.2,1,0.1,1.5c-0.4-0.2-0.8-0.4-1.2-0.6c-0.3-0.3-0.7-0.3-1-0.1c-0.2,0.1-0.5,0.2-0.7,0.3
		c0-0.3,0-0.5,0-0.8c-0.1-0.2-0.3-0.4-0.4-0.7c-0.1-0.2-0.1-0.5-0.2-0.7c-0.5,0.4-1,0.9-1.4,1.5c0.1,0.1,0.2,0.1,0.3,0.1
		s0.3,0,0.4,0l-0.4,1l-0.6-0.4v0.8c-0.1,0.1-0.3,0.2-0.4,0.3c-0.1,0.2-0.2,0.3-0.2,0.5c0.1,0.3,0.2,0.4,0.5,0.2
		C109.8,84.2,109.9,84.2,110,84.3L110,84.3z"/>
	<path id="Path_1180" fill="#FFFFFF" d="M173.1,45.9v1.6c-0.6,0.4-1.4,0.4-1.7,1.2l0.2,0.7l-0.4,0.7l0.5,0.8c-0.5-0.1-1-0.1-1.5,0.1
		c-0.3-0.6-0.3-1.3-0.2-1.9h0.6l0.2,0.4v-0.7l-0.8-0.9l0.5-0.8l0.5,0.6l0.6-0.3L171,47v-0.7l0.7-0.3l0.1-0.7L173.1,45.9z"/>
	<path id="Path_1181" fill="#FFFFFF" d="M143.5,42.9c-0.5,0.1-1.1,0-1.5-0.4l-0.8,1l0.4,0.6l0.6-0.1l0.4,1.1l-0.7-0.1l-0.4,0.3
		l-0.8-0.8l-1.2,0.4c-0.6-0.4-0.4-1.1-0.6-1.6l0.5-0.4l-0.2-0.8h0.1l0.8,1l0.7-0.2l0.9,0.2c-0.1-0.4-0.3-0.8,0.2-1.1
		C142.3,42.2,143.2,42.1,143.5,42.9L143.5,42.9z"/>
	<path id="Path_1182" fill="#FFFFFF" d="M136.4,38.3l0.5,0.2l0.4-0.5c0.1,0,0.2,0.1,0.2,0.2c0.1,0.3,0.2,0.5,0.3,0.8l0.3-0.3
		l-0.3-0.4c0.1,0,0.2-0.1,0.2-0.1c0.2,0.1,0.5,0.3,0.7,0.4l-0.1,0.4l0.5,0.3l-0.4,0.6c0.2,0.1,0.4,0.2,0.5,0.4
		c0.1,0.1,0.2,0.3,0.3,0.4l0.8,0.3l0.5-0.3c-0.1-0.1-0.1-0.2-0.1-0.2c-0.3,0-0.6,0-1-0.1l-0.3-0.3l0.2-0.4l0.5,0.4h0.5l1.3,0.8
		l-1.7,0.8c-0.2-0.1-0.4-0.5-0.7-0.6s-0.6-0.3-0.7-0.6h-0.9l-0.4,0.8l-0.6-0.2l0.3-0.5l-0.8-0.4c0.5-0.4,1,0,1.5,0l0.4-0.9
		c-0.5-0.1-0.8,0.2-1,0.3l-1.3-0.2l-0.3-0.6l0.6,0.1L136.4,38.3L136.4,38.3z"/>
	<path id="Path_1183" fill="#FFFFFF" d="M110.6,89.8h0.5l0.3-0.5l-0.5-0.7l-0.4,0.1l0.1-0.7l-0.7-0.3l-0.3-0.6l1.1,0.6
		c0.3-0.2,0.3-0.4,0.1-0.7l0.7,0.1l-0.2,0.6l1,0.7l0.1-0.6h0.1c0.2,0.2,0.3,0.3,0.6,0.6l-0.7,0.3l1,0.4l-0.7,0.3
		c0.3,0.5,0.1,1,0,1.6c-0.1,0-0.2-0.1-0.3-0.1c-0.3-0.4-0.9-0.7-1.4-0.6C110.8,90.2,110.6,90.1,110.6,89.8
		C110.6,89.9,110.6,89.9,110.6,89.8L110.6,89.8z"/>
	<path id="Path_1184" fill="#FFFFFF" d="M110,84.3l0.9,0.1l0.8-0.2c0,0.7,0.8,0.8,0.9,1.5l1-0.1c0.3,0.3-0.2,0.4-0.3,0.7
		c0.3,0.4,0.7,0.7,1.2,0.9c0.4,0.2,0.6,0.3,0.7,0.8c0,0.2,0.2,0.4,0.3,0.6s0.2,0.4,0.3,0.6l0,0c-0.6-0.4-1.2-0.6-1.8-0.8
		c-0.1-0.5-0.3-0.9-0.8-1.2c-0.2-0.1-0.4-0.5-0.6-0.8H112h-0.1c-0.2-0.4-0.4-0.8-0.6-1.3l-0.6,0.4L110,84.3L110,84.3z"/>
	<path id="Path_1185" fill="#FFFFFF" d="M169.8,45.2l1-0.8l0.2,0.3l-1.6,1.2l-0.3-1.1l-0.5,0.5c0.2,0.8,0.2,0.8-0.3,1.3l-0.2-0.5
		l-0.6,0.6l-0.2-1.4l0.2-0.4l-0.2-0.6h0.5l0.1,0.8c0.2-0.5,0.7-0.8,0.4-1.4l-0.6-0.7l1-0.1l0.4,0.9l0.4,0.3
		C169.9,44.6,169.4,44.8,169.8,45.2z"/>
	<path id="Path_1186" fill="#FFFFFF" d="M105.8,16.2l-0.5,0.8l-0.3-0.3l-0.8,0.2l-0.5-0.2c-0.5,0.2-0.7,0.8-1.2,1
		c-0.2-0.7-0.1-0.9,0.3-1.1s0.7-0.4,1.1-0.6l0.4,0.1c0.1-0.6,0.7-1,1.3-0.9h0.1l-0.4,0.5l1.1-0.2C106.7,16.2,106.6,16.2,105.8,16.2z
		"/>
	<path id="Path_1187" fill="#FFFFFF" d="M122.6,40.8c0.1-0.1,0.3-0.2,0.4-0.4c0.2-0.3,0.5-0.5,0.8-0.7l-2.1,3.9
		c-0.1-0.1-0.1-0.3-0.2-0.4c0-0.1,0-0.2,0-0.4l-0.3-0.2l1-2.7C122.1,40.4,122.7,40.4,122.6,40.8c-0.5,0-0.5,0.4-0.7,0.8l0.4,0.2
		L122.6,40.8z"/>
	<path id="Path_1188" fill="#FFFFFF" d="M118.5,34.7c0.5,0.2,1,0.2,1.2,0.8c0,0.5-0.4,0.6-0.6,0.9c-0.5,0.1-1.1,0-1.5-0.4
		C117.7,35.5,118.1,35,118.5,34.7z"/>
	<path id="Path_1189" fill="#FFFFFF" d="M93.7,24.6c0-0.5,0-1,0-1.5c0.1-0.4,0.2-0.8,0.3-1.2c0-0.1,0.1-0.1,0.3-0.2
		c0.4,0.7-0.2,1.2-0.2,1.9c0.6,0,0.7-0.7,1.2-0.7c0,0.1,0,0.1,0,0.2c-0.3,0.6-1,0.9-1.4,1.6L93.7,24.6z"/>
	<path id="Path_1190" fill="#FFFFFF" d="M97.1,21.4l-0.4,1.1l-0.1-0.1L95.8,23l0.2,0.3l-0.4-0.1l0.8-0.9c-0.1-0.1-0.3-0.1-0.5-0.1
		c-0.2,0.1-0.4,0.1-0.6,0.1l0.5-0.6l0.6,0.2l0.5-0.5H97.1z"/>
	<path id="Path_1191" fill="#FFFFFF" d="M117.7,18.5l1.1-0.7l0.3,0.2l-0.1,0.3l0.6,0.5c-0.1,0.1-0.2,0.2-0.3,0.1
		c-0.2-0.1-0.5-0.2-0.7,0.1L117.7,18.5z"/>
	<path id="Path_1192" fill="#FFFFFF" d="M152.5,40.8l0.3-0.3h0.4l-0.4,0.9h-0.7c-0.1-0.2-0.1-0.4-0.2-0.5c-0.1-0.2-0.2-0.3-0.3-0.5
		C152.2,40.2,152.1,40.8,152.5,40.8z"/>
	<path id="Path_1193" fill="#FFFFFF" d="M141.8,40.2c0.6-0.4,0.8-0.4,1.6,0.2l-0.7,0.3L141.8,40.2z"/>
	<path id="Path_1194" fill="#FFFFFF" d="M152.6,55c-0.1,0.1-0.2,0.2-0.4,0.2c-0.1,0.1-0.3,0.1-0.5,0.1l0.5-0.4l-0.3-0.9
		C152.7,53.9,152.7,53.9,152.6,55z"/>
	<path id="Path_1195" fill="#FFFFFF" d="M169,50.2l0.3-0.2c0.1,0.1,0.2,0.1,0.2,0.2c0.6,0.7,0.6,1,0.1,1.7c0-0.2,0-0.3-0.1-0.5
		c0-0.1,0-0.3,0-0.5L169,50.2z"/>
	<path id="Path_1196" fill="#FFFFFF" d="M135.3,41.6l0.4-0.4c0.1-0.1,0.2-0.3,0.3-0.4l0.6,0.3v0.7l-0.7-0.4L135.3,41.6L135.3,41.6z"
		/>
	<path id="Path_1197" fill="#FFFFFF" d="M131.6,20.9l0.4,1c-0.3,0.4-0.6,0.3-0.9,0.2L131.6,20.9z"/>
	<path id="Path_1198" fill="#FFFFFF" d="M168.6,51.2l0.5,0.8l-0.8,0.3c-0.1-0.3-0.1-0.7,0-1.1H168.6z"/>
	<path id="Path_1199" fill="#FFFFFF" d="M156.7,36.6l-0.5,0.6c-0.2-0.6-0.9-0.5-1.1-1.2l1,0.6L156.7,36.6L156.7,36.6z"/>
	<path id="Path_1200" fill="#FFFFFF" d="M136.4,38.3l-0.6-0.5c0.5-0.5,0.5-0.5,0.9-0.2L136.4,38.3L136.4,38.3z"/>
	<path id="Path_1201" fill="#FFFFFF" d="M152.3,22.7l-0.9,0.5l-0.1-0.8c0.1,0,0.2-0.1,0.3-0.1C151.9,22.4,152.1,22.5,152.3,22.7
		L152.3,22.7z"/>
	<path id="Path_1202" fill="#FFFFFF" d="M99.1,49.4l-0.5,0.1c-0.3-0.3-0.2-0.6,0.4-1L99.1,49.4z"/>
	<path id="Path_1203" fill="#FFFFFF" d="M137.1,36.5l0.4,1l-0.2,0.2l-0.5-0.6L137.1,36.5z"/>
	<path id="Path_1204" fill="#FFFFFF" d="M124.4,28.5c-0.2-0.2-0.3-0.3-0.3-0.4c0-0.4,0.2-0.8,0.5-1.1c0.3,0.3,0,0.5-0.1,0.7
		C124.5,28,124.4,28.3,124.4,28.5z"/>
	<path id="Path_1205" fill="#FFFFFF" d="M119.1,42.2l0.4-0.9l0.9-0.3l0.1,0.1L119.1,42.2z"/>
	<path id="Path_1206" fill="#FFFFFF" d="M133.3,24.9l-0.4-0.5l-0.2,0.3c-0.2-0.3,0-0.5,0.3-0.7C133.4,24.1,133.4,24.5,133.3,24.9z"
		/>
	<path id="Path_1207" fill="#FFFFFF" d="M139.5,50.7c-0.2,0-0.2,0.1-0.3,0c-0.3-0.2-0.6-0.5-0.9-0.8C139,50,139.1,50,139.5,50.7z"/>
	<path id="Path_1208" fill="#FFFFFF" d="M170.8,51.8l-0.3-0.3c0.6-0.5,0.6-0.5,1.1,0l-0.5,0.1C171,51.7,170.9,51.7,170.8,51.8z"/>
	<path id="Path_1209" fill="#FFFFFF" d="M110.6,89.8h-0.5c-0.2-0.4,0-0.6,0.4-0.8L110.6,89.8z"/>
	<path id="Path_1210" fill="#FFFFFF" d="M158.2,55.6c0,0.4,0.2,0.8-0.1,1.2C157.7,56.1,157.7,56.1,158.2,55.6z"/>
	<path id="Path_1211" fill="#FFFFFF" d="M138,42.1c0,0.1,0,0.2,0.1,0.3c0,0.1,0,0.2-0.1,0.3l-0.9-0.7l0.1-0.1L138,42.1z"/>
	<path id="Path_1212" fill="#FFFFFF" d="M155.7,34.4c-0.4-0.2-0.7-0.4-0.7-0.7C155.5,33.7,155.5,33.7,155.7,34.4z"/>
	<path id="Path_1213" fill="#FFFFFF" d="M115.4,84.7l0.3-0.9l0.5,0.3C115.8,84.4,115.7,84.7,115.4,84.7z"/>
	<path id="Path_1214" fill="#FFFFFF" d="M161.4,59.3l-0.6-0.6l0.3-0.3C161.4,58.6,161.6,58.8,161.4,59.3z"/>
	<path id="Path_1215" fill="#FFFFFF" d="M111.9,42.5l-0.3-0.3l0.7-0.7C112.6,42.1,112.3,42.3,111.9,42.5z"/>
	<path id="Path_1216" fill="#FFFFFF" d="M119.6,16.2v-0.7c0.5-0.8,1.5-1.2,2.5-0.8c0.1,0.1,0.2,0.4,0.2,0.5
		c-0.1,0.3-0.2,0.6-0.4,0.8C121.2,16.6,120.3,16.7,119.6,16.2z"/>
	<path id="Path_1217" fill="#FFFFFF" d="M122.6,40.8l-0.3,1l-0.4-0.2C122.1,41.2,122.1,40.8,122.6,40.8L122.6,40.8z"/>
	
		<ellipse id="Ellipse_11" fill="none" stroke="#FFFFFF" stroke-width="1.01" stroke-miterlimit="10" cx="132.5" cy="56.2" rx="54.5" ry="54.8"/>
</g>
</svg>
