<?xml version="1.0" encoding="utf-8"?>
<!-- Generator: Adobe Illustrator 26.5.0, SVG Export Plug-In . SVG Version: 6.00 Build 0)  -->
<svg version="1.1" id="Layer_1" xmlns="http://www.w3.org/2000/svg" xmlns:xlink="http://www.w3.org/1999/xlink" x="0px" y="0px"
	 viewBox="0 0 360.5 220.1" enable-background="new 0 0 360.5 220.1" xml:space="preserve">
<path fill="#3390FF" d="M69.9,206.7h-2.1v-6.5l-2.1,4.4h-1.4l-2.1-4.5v6.6h-2.1v-11h2.1l2.8,6.1l2.8-6.1h2.1
	C69.9,195.7,69.9,206.7,69.9,206.7z"/>
<path fill="#3390FF" d="M73.8,204.6l-0.7,2.1h-2.2l3.9-11h1.7l3.9,11h-2.2l-0.7-2.1H73.8z M75.7,198.6l-1.3,4.2H77L75.7,198.6z"/>
<path fill="#3390FF" d="M83.6,202.3v4.5h-2.1v-11h4.2c1.1,0,1.9,0.3,2.6,0.9c0.6,0.6,1,1.4,1,2.4c0,0.7-0.2,1.3-0.5,1.8
	c-0.3,0.5-0.8,0.9-1.4,1.1l2.4,4.8h-2.4l-2.1-4.5H83.6z M85.6,200.5c0.5,0,0.9-0.1,1.1-0.4c0.3-0.3,0.4-0.6,0.4-1.1
	c0-0.4-0.1-0.8-0.4-1.1s-0.7-0.4-1.1-0.4h-2v3H85.6z"/>
<path fill="#3390FF" d="M90.6,203.4h2c0.1,0.6,0.3,1,0.6,1.3s0.8,0.4,1.4,0.4c1.2,0,1.8-0.5,1.8-1.5c0-0.4-0.1-0.8-0.4-1
	s-0.6-0.4-1.1-0.5l-1-0.2c-2-0.3-3-1.4-3-3.1c0-1,0.3-1.8,1-2.4c0.7-0.6,1.6-0.9,2.7-0.9s2,0.3,2.6,0.9c0.6,0.6,1,1.4,1.1,2.4h-2
	c0-0.5-0.2-0.9-0.5-1.2c-0.3-0.2-0.7-0.4-1.2-0.4s-1,0.1-1.2,0.4s-0.4,0.6-0.4,1s0.1,0.7,0.4,0.9c0.2,0.2,0.6,0.4,1.2,0.5l1.2,0.2
	c1.9,0.3,2.8,1.4,2.8,3.1c0,1.1-0.4,2-1.1,2.5s-1.7,0.9-2.9,0.9c-1.2,0-2.1-0.3-2.8-0.9C91,205.4,90.6,204.5,90.6,203.4z"/>
<path id="Path_1043" fill="none" stroke="#3390FF" stroke-miterlimit="10" d="M60.1,219.6h78.3l29.7-24"/>
<g id="Group_38_1_" transform="translate(2.743 -1.133)">
	<ellipse id="Ellipse_7_1_" cx="254.1" cy="106.4" rx="103" ry="104.2"/>
	<path id="Ellipse_7_-_Outline" fill="#FFFFFF" d="M254.1,1.6c20.7,0,40.8,6.2,57.9,17.9c22.5,15.4,38.1,39,43.5,65.7
		c2.8,13.9,2.8,28.3,0,42.2c-5.4,26.7-21,50.3-43.5,65.7c-34.9,23.9-80.9,23.9-115.8,0c-22.5-15.4-38.1-39-43.5-65.7
		c-2.8-13.9-2.8-28.3,0-42.2c5.4-26.7,21-50.3,43.5-65.7C213.3,7.8,233.4,1.6,254.1,1.6z M254.1,210.1c20.5,0,40.4-6.2,57.3-17.7
		c22.3-15.3,37.8-38.6,43.1-65.1c2.8-13.8,2.8-28,0-41.8c-5.4-26.5-20.8-49.8-43.1-65.1c-5.5-3.7-11.3-6.9-17.4-9.6
		c-25.5-10.9-54.3-10.9-79.8,0c-6.1,2.6-11.9,5.8-17.4,9.6C174.5,35.7,159,59,153.7,85.5c-2.8,13.8-2.8,28,0,41.8
		c5.4,26.5,20.8,49.8,43.1,65.1c5.5,3.7,11.3,6.9,17.4,9.6C226.8,207.3,240.4,210.1,254.1,210.1L254.1,210.1z"/>
	<circle id="Ellipse_8_1_" fill="#FFFFFF" cx="252.6" cy="106.4" r="104.2"/>
	<path id="Ellipse_8_-_Outline" fill="#231F20" d="M252.6,1.1c7.1,0,14.2,0.7,21.2,2.1C287.3,6,300,11.3,311.4,19
		c16.9,11.4,30.2,27.5,38.1,46.3c2.7,6.4,4.7,13,6.1,19.8c2.9,14,2.9,28.4,0,42.4c-2.8,13.5-8.1,26.2-15.8,37.6
		c-11.4,16.9-27.5,30.2-46.3,38.1c-6.4,2.7-13,4.7-19.8,6.1c-14,2.9-28.4,2.9-42.4,0c-13.5-2.8-26.2-8.1-37.6-15.8
		c-16.9-11.4-30.2-27.5-38.1-46.3c-2.7-6.4-4.7-13-6.1-19.8c-2.9-14-2.9-28.4,0-42.4c2.8-13.5,8.1-26.2,15.8-37.6
		c11.4-16.9,27.5-30.2,46.3-38.1c6.4-2.7,13-4.7,19.8-6.1C238.4,1.8,245.5,1.1,252.6,1.1z M252.6,209.6c7,0,14-0.7,20.8-2.1
		c13.2-2.7,25.7-8,36.9-15.5c16.6-11.2,29.6-27,37.4-45.4c2.6-6.2,4.7-12.7,6-19.4c2.8-13.7,2.8-27.9,0-41.6
		c-2.7-13.2-8-25.7-15.5-36.9c-11.2-16.6-27-29.6-45.4-37.4c-6.2-2.6-12.7-4.7-19.4-6c-13.7-2.8-27.9-2.8-41.6,0
		c-13.2,2.7-25.7,8-36.9,15.5c-16.6,11.2-29.6,26.9-37.4,45.4c-2.6,6.2-4.7,12.7-6,19.4c-2.8,13.7-2.8,27.9,0,41.6
		c2.7,13.2,8,25.7,15.5,36.9c11.2,16.6,27,29.6,45.4,37.4c6.2,2.6,12.7,4.7,19.4,6C238.7,208.9,245.6,209.6,252.6,209.6L252.6,209.6
		z"/>
	<path id="Path_1128_1_" d="M152.4,106.7c0.5,1.8,1.7,2.9,0.6,4.5c-0.8,1.2-0.6,2.8-0.3,4.2c1,5.2,2.4,10.3,4.2,15.2
		c1,2.6,2.1,5.4,1.5,8.1c-0.2,0.3-0.2,0.7,0,1.1c0.2,0.3,0.7,0.3,1.1,0.4c2.6,0.3,3.8,3.4,4.7,5.9c2,5.8,5.5,11,10.2,15
		c-2.1-2.3-3.7-5.2-4.6-8.2c1.8,0.8,3.9-1.6,2.9-3.3c-0.4-0.6-0.9-1.1-1.5-1.4l-3-2.1c-1.4-0.9-2.6-1.9-3.8-3.1
		c-1.6-2-2.6-4.3-3.1-6.8c-0.5-2-0.5-5.1-2-6.7c4.2,4.7,12.1,2.7,17.8,5.5c0.9,0.4,1.7,1.1,2.2,1.9c1.5,2.7-1.3,5.7-1.6,8.7
		c-0.2,1.4,0.7,2.6,2.1,2.8c0.3,0,0.6,0,1,0c1.1-0.2,2.1-0.5,3.1-0.9c4-1.3,8.3-1,12.1,0.9c1,0.7,2.2,1.2,3.4,1.4
		c1.4,0.2,2.8-0.4,4.1,0c1.4,0.5,2.4,1.7,2.6,3.2c0.2,1.5-0.1,3-0.7,4.3c-0.3,0.7-0.5,1.4-0.5,2.1c0.2,0.7,0.5,1.3,1,1.8
		c4.5,5.1,11,8.5,14.5,14.4c1.1,1.9,2.3,4.2,4.5,4.2c1.4,0,2.8-1.1,4.1-0.8c1.1,0.2,1.9,1.3,3,1.6c1.6,0.3,3.2-1,4.7-0.3
		c1.6,0.8,1.1,3.3,2.2,4.7c1.6,2,4.9,0.6,7.1,1.9s2.5,4.9,4.9,5.9c1.2,0.3,2.3,0.4,3.5,0.3c1.2,0.1,2.5,0.7,2.7,1.9
		c-11.4,2.9-23.8,5.1-34.6,0.4c0.4,0.1,0.6-0.5,0.5-0.8c-0.2-0.3-0.5-0.6-0.9-0.7c-2.1-1-3.9-2.5-5.1-4.4c-0.2-0.3-0.4-0.7-0.3-1
		c0.1-0.7,1-0.9,1.7-0.9c5.6,0.1,10.3,4.6,15.9,5.2c1,0.1,2.1,0,2.5-0.9c0.3-0.8,0-1.7-0.8-2.1c-0.7-0.4-1.5-0.7-2.3-0.7l1-1.7
		c-5.7-3.8-12.4-5.7-19.1-5.4l4.9,1.6c-4.3-0.1-8.4-1-12.4-2.7c-1.4-0.6-3-1.3-4.4-0.6c-0.8,0.4-1.3,1.1-2.2,1.3
		c-0.6,0.1-1.2,0-1.7-0.2l-10.3-3.1c0.9-0.5,1.7-1.2,2.2-2.1c0.5-0.9,0.3-2.1-0.5-2.8c-0.8-0.3-1.6-0.4-2.4-0.3
		c-3.1,0-5.6-2.1-8-3.8c-2.7-1.8-5.7-3.2-8.8-4.2c-0.2,2.6,1.3,4.9,3.2,6.7s4.1,3.1,6,4.8c1.7,1.6,3.1,3.6,4.8,5.2
		c1.6,1.8,3.8,2.8,6.2,3c-0.9,0.9,0.3,2.2,1.3,2.9l4,2.7c0.7,0.6,1.5,0.9,2.4,0.8c0.8-0.2,1.3-1.6,0.5-1.9c1.3,0.6,3.3,2.2,3.3,3.8
		c0,2.2-2.9,1.9-4.7,2.5c9,5.8,18.9,10,29.3,12.4c27.9,6.6,58.6,1.3,82.4-14.7C358.9,161.2,372,96,339.8,47.8
		c-0.9-1.4-1.9-2.8-2.9-4.1c-4.5-5.9-9.6-11.5-15.1-16.5c-0.4-0.4-0.8-0.7-1.4-0.9c-0.6-0.1-1.2-0.1-1.8,0c-2.1,0.1-4-1-5.8-2
		c-2.2-1.3-4.4-2.9-6.7-3.8c0.2,0.3,0.4,0.6,0.7,0.8c5.9,4.6,9,11,13.5,16.8c3,3.9,6.3,7.6,9.8,11c3,2.8,8.1,5.9,7.8,10.7
		c-0.1,1.6-1,3.1-1.4,4.7c-1,4.4,0.9,10.9,2.3,15.1c1.3,3.8,1.1,7.8,3.3,11.3l-1.8-0.3c-0.2-0.1-0.4,0-0.6,0.1
		c-0.1,0.1-0.1,0.3-0.1,0.5c-0.2,4.1-0.4,8.2-0.6,12.2c0,0.3,0,0.6,0.1,0.8c0.4,0.5,1.2,0.2,1.8,0.4c0.7,0.3,1.1,1,1,1.7
		s-0.4,1.4-0.8,2l-1.7,2.8c-0.7,1.2-1.8,3-3.5,2.8l1.7-2.8l-2.2,0.4l-0.7-5.3c-0.1-0.6-0.4-1.5-1-1.4c-0.2,0-0.4,0.1-0.6,0.3
		c-1.8,1.4-3.6,2.3-3.9,4.7c-0.2,1.3,0,2.6-0.2,3.9c-0.1,1.3-0.8,2.5-1.9,3.2c-0.4,0.2-0.9,0.2-1.3,0.1c-0.2-0.1-0.5-0.3-0.6-0.6
		c-3.6-4.5-6.3-9.6-7.9-15.1c-0.2-0.6-0.2-1.2-0.3-1.9c-0.1-1.2,0.6-2.4,1.8-2.8c0.4-0.2,0.9-0.4,1.4-0.5c1.3-0.4,2.2-1.6,2.2-3
		c0.1-1.1,0.2-2.2,0.2-3.2c0-0.8,0.3-1.6,0.9-2.2c1.2-1.2,2-2.8,2.2-4.6c0.2-1.3,0.3-2.6,0.3-3.9c0.1-1.3-0.5-2.5-1.5-3.4
		c0.1-0.2,0.1-0.4,0.3-0.5c1.3-1.6,1.5-3.7,0.6-5.5c-0.9-2.1-3.5-2.5-5.4-3.4c-2.7-1.2-5.2-2.7-7.5-4.4c2.3-0.2,4.6,0,6.9,0.4
		c-1-0.5-1.6-1.5-1.6-2.6c1.8,1,3.4,2.1,5,3.3c0-1.6-0.2-3.2-0.6-4.7c-0.4-1.6-1.5-2.9-2.9-3.6l-1.5,4.1c0.3-1-2.2-4.6-2.7-5.4
		c-1-1.8-2.3-3.4-3.7-4.9c-0.8-0.7-1.7-1.3-2.7-1.7c-2.1-1.2-4.3-2.2-6.5-3.1c-2.8-0.9-2.6-0.8-4,1.8c-1.1,2-3.8,2.1-6,2.8
		c-2.1,0.7-3.9,2.3-6.1,3.1c-1.4,0.4-2.9,0.7-4.3,0.8c-10.8,1-21.6,2.4-32.5,2.3c2.5-1.8,8.3-1.3,11.4-1.1c0.8,0.1,1.6,0,2.3-0.5
		c0.3-0.2,0.4-0.5,0.7-0.7c0.3-0.3,0.7-0.5,1.1-0.7c2.2-1.1,4.6-1.7,7.1-1.8s3-0.8,4-2.8l-0.2-0.2c-4.7,1.3-9.5,2.2-14.2,4
		c0.2,0.5-0.3,1.1-0.9,1.1s-1.1-0.2-1.6-0.4c-2.5-0.7-5,1-7.5,1.5c-2.4,0.4-4.9-0.5-7.3-0.2s-4.2,1.3-6.9,0.9
		c-3.8-0.6-7.7-1.4-11.4-2.4c-1.9-0.4-3.8-1-5.6-1.6c-0.8-0.3-3.2-2.2-3.7-2.1c2.5-0.5,5.2,0,7.6-0.7c-2.2-1.7-5.5-1.6-8-2.7
		c-3.7-1.7-7-4.2-9.6-7.3c-0.3-0.4-0.5-0.8-0.6-1.2c0.3-0.5,1-0.7,1.6-0.6c1.7,0.2,3.3,0.9,4.6,1.9c0.3,0.2,0.6,0.5,0.9,0.7
		c0.1,0,0.3,0,0.4-0.1c2.2-1.8,5.9,0.3,7.4,2.1c0.3,0.5,0.8,0.8,1.3,1.1c0.5,0.2,1.1,0.3,1.6,0.3c2.2,0,22.7-0.7,22.4,1.4
		c6.1-2.2,12.3-0.5,18.5-2.5c2.7-1,5.4-2.3,7.9-3.6l0.3,0.2c0.7-0.6,1.2-1.5,1.4-2.5c-0.6,0.3-1.2,0.7-1.8,1c-0.5,0.3-1,0.5-1.6,0.6
		c-1.6,0.2-3.1,0.3-4.7,0.5c-0.6,0.1-1.2,0.2-1.9,0.3c0.2,0.4,0.2,0.6,0.4,1c-0.6,0.2-1.2,0.3-1.8,0.3c-0.7,0-1.4-0.1-2.1-0.2
		c-1.3-0.2-1.3-0.2-2.2,1c-0.5,0-1.1,0-1.7,0c-5.9-0.6-11.8-0.2-17.7,0c-0.3,0.1-0.7,0-0.9-0.2s-0.2-0.7,0.2-0.8
		c-1.7,0.3-3.4,0.4-5.2,0.3c-4.7-0.4-9.3-2.3-14-3c-4.8-0.6-9.6-1.5-14.3-2.6c-1-0.3-1.9-0.6-2.9-1c-0.6-0.2-1-0.8-1.1-1.4
		c-0.4-1.1-0.4-2.3-0.2-3.4c0.1-0.2,0.1-0.3,0.2-0.5l0.8,0.2c0.4-1.4,1.5-2.5,1.4-4c-0.1-2.8,4.7-4.7,6.7-5.8
		c4.7-2.5,10.3-4.5,14.6-7.7c-0.4,0.3-2.7,0-3.4,0.1c-1.7,0.4-3.4,0.9-5,1.6c-3.7,1.3-7.2,2.8-10.7,4.5c-0.6,0.2-1,0.6-1.3,1.1
		c-0.2,0.5-0.1,1-0.2,1.4c-0.3,0.5-0.7,0.9-1.2,1.1c-4.5,2.5-9.6,3.4-13.5,6.8c-1.9,1.7-3.9,3.4-5.7,5.1c-0.3,0.2-0.5,0.5-0.6,0.8
		c-0.4,0.8-1,1.4-1.7,1.9c-1,0.8-2,1.8-2.9,2.7c-0.4,0.4-0.6,0.8-1,1.2c-0.5,0.5-1.2,1-1.8,1.3c-2.6,1.3-0.8,3-1.6,5.1
		c-0.5,1-0.8,2.1-0.9,3.3c0.1,1.5,1.2,2.7,2.1,3.9c2.6,3.5,4.4,7.7,6.3,11.6l-1.3,0.7c0.3,1,1.7,1,2.7,0.6s2.3-0.7,2.9,0.1
		c0.2,0.4,0.4,0.9,0.5,1.4c0.5,1.3,2.2,1.6,3.6,1.3s2.9-0.6,4.1,0.1c0.2,0.1,0.3,0.2,0.4,0.4c0,0.2,0,0.4-0.1,0.5
		c-0.6,1.6,0.7,3.4,2.3,3.9c2.3,0.7,5-0.3,7.5,0.1c1.3,0.2,6.7,3.1,7.3,2.9c-1,0.4-1.7,1.4-1.6,2.5c-0.1-2,13.6,0.3,14.7,0.5
		c8.5,1.3,16.8,3.1,25.4,3.5c-0.9,1.6-2.6,2.7-4.4,2.9c-1.8,0.2-3.7-0.3-5.6-0.2c-0.7,0-1.5,0.2-2.1,0.5c-0.5,0.3-1,0.6-1.5,0.9
		c-2.6,1.4-6.2,0.9-9,0.7c-1.5,0-3-0.5-4.2-1.5c-1-0.9-0.9-2.4-1.6-3.4c-2,0.9-3,3-5,3.8c-1.2,0.5-2.5,0.2-3.3-0.8
		c-0.8-1.4-1.6-2.7-3.4-1.2c-0.7,0.8-1.3,1.6-1.9,2.5c-4.3,5-11.3-0.6-16-1.7c-0.6-0.2-1.2-0.2-1.8,0c-1.4,0.5-1.5,2.4-2.4,3.6
		c-1.3,1.6-3.6,1.4-5.5,2c-3.6,1.2-7.3,13.1-12.3,7.8c0.6,0.6,0.9-6.6,0.8-7.3c-0.1-0.3-0.2-0.8-0.6-0.9s-0.9,0.3-1.2,0.7
		c-0.7,0.9-1.7,0.2-1.8,1.6v2.9c-0.1,0.9,0.1,1.7,0.3,2.6c0.3,0.8,1.1,1.4,2,1.4c-1.8,1.6-3.9,2.8-6.2,3.7c-4,1.5-2.1-3.3-1.4-5.1
		c-0.5,1.4-5.5,1-6.3,0.2c-2-2,0.8-5.6-1.4-7.6c-1.4,4-2.3,8.2-2.6,12.4c-0.1,2.1,0,4.2,0.5,6.3L152.4,106.7z M166.3,147.1
		c0.4,0.8,0.9,1.6,1.3,2.5l-0.3,0.2l-1.3-2.4L166.3,147.1z M187.3,181.8l-1.9-0.9l0.9-0.8l1.3,1.5L187.3,181.8z M213.4,194.1
		l1.7,0.3c-0.3,0.4-0.4,0.7-0.6,0.9c0.5,1.4,2.3,1.1,3.1,2.3c-2.1,0.3-3.9-1.2-4.2-3.2C213.4,194.3,213.4,194.2,213.4,194.1
		L213.4,194.1z M243.1,204.2l-2-0.2c0.8-0.8,1.4-0.8,2.1-0.1L243.1,204.2z M325.5,171.6l0.3,0.2l-0.6,1l-0.3-0.2L325.5,171.6z
		 M321.7,176.9c-0.2,1-0.4,1.3-1.4,1.2L321.7,176.9z M318.4,87.6l1.5,0.5c-0.2,1.1-1,1.9-2,2.3C317.6,89.5,317.8,88.4,318.4,87.6
		L318.4,87.6z M213.5,68.3v0.3c0.4,0,0.9,0.1,1.4,0.1s1.1-0.1,1.7-0.1s0.9,0.2,0.9,1c-0.3,0.1-0.5,0.1-0.8,0.2
		c-2.4,0-4.9-0.2-7.3-0.1c-2.4,0.1-4.7-0.8-6.5-2.3c-0.3-0.2-0.5-0.4-0.8-0.6c-0.8-0.7-1.8-1.1-2.8-1c-0.8,0.2-1.6-0.1-2.1-0.8
		c0.6-0.5,1.1-1,1.7-1.5c0.8-0.8,1.9-1.1,2.9-0.8c1.1,0.2,2.1,0.3,3.3,0.5c0.1,0.5,0.2,0.8,0.2,1.2c1.6,0.2,3.2-0.5,4.9-0.7
		l-0.6,2.3c0.9,0,1.6-0.1,2.3-0.1c1.7-0.1,3.4-0.3,5.1-0.3c0.8,0,1.6,0.2,2.3,0.5C217.5,67.2,215.1,66.6,213.5,68.3L213.5,68.3z
		 M255.3,179.7c0.9-1.1,2.5-1.2,3.6-0.3c0.1,0.1,0.2,0.2,0.3,0.4C258.1,180.8,256.4,180.8,255.3,179.7L255.3,179.7L255.3,179.7z
		 M253.3,173.6c-1.6,0-3.1,0.3-4.7-0.1c-0.3,0-0.6,0-0.9,0.1c-1.1,0.3-2.2,0.7-3.3,1.1c-1.5,0.6-3.1,0.8-4.7,0.8c-2-0.1-4-0.1-6-0.2
		c-0.9-0.1-1.8-0.3-2.7-0.6c-1.9-0.5-3.8-1.1-5.6-1.6c-0.2,0-0.3-0.2-0.4-0.3c1.2,0.1,2.5,0.3,3.7,0.3c3,0.1,6,0.2,9,0.2
		c0.8,0,1.6,0,2.3,0c1,0.1,1.9-0.2,2.6-0.9c0.4-0.3,0.9-0.6,1.4-0.7c3.2-0.9,6.4-1.8,9.8-2.7c-1.2,1.4-2.5,2.6-4,3.6
		c1.6,0,3.2,0.1,4.8,0c2.3-0.1,4.6-0.5,6.8-1.3c0.2-0.1,0.4-0.1,0.6-0.1c-0.6,0.3-1.2,0.7-1.8,0.9
		C258,172.9,255.7,173.4,253.3,173.6L253.3,173.6z M267.2,197.8c-0.7,0.7-0.1,1.6-0.1,2.7c-1.9-0.7-3.8-1.6-5.5-2.6
		c2.6-0.1,5.2-0.7,7.7-1.8C268.6,196.6,267.8,197.1,267.2,197.8L267.2,197.8z M268.2,194.6c-3.1,0.5-5.6,0.2-6.8-0.9
		c0.4,0,0.8,0,1.2,0c1.4,0.2,2.8,0,4.1-0.4c0.6-0.2,1.2-0.3,1.8-0.4c0.6-0.1,1.2,0.2,1.5,0.8C269.7,194.4,268.9,194.4,268.2,194.6
		L268.2,194.6z M275,163.5c-0.5,0.3-0.9,0.6-1.3,0.9c-3.2,2.6-6.7,4.7-10.5,6.3c-0.4,0.1-0.8,0.3-1.2,0.3c0.4-0.3,0.7-0.6,1.1-0.8
		c1.9-1.2,3.3-3.1,4-5.2c0-0.2,0-0.3,0-0.5l-2.1-0.7l-0.1-0.2c0.7-0.3,1.3-0.6,2-0.8s1.4-0.6,1.8-1.2c0.6-0.8,1.6-1.4,2.6-1.6
		c2.2-0.4,4.5-0.6,6.8-0.4c0.1,0,0.2,0.1,0.3,0.2l-1,1.4c0.9,0.4,1.9,0.5,2.9,0.3c0.4-0.1,0.9-0.1,1.4-0.1l0.5,0.9l1.9,0.6
		c-1.3,1.3-2.5,2.5-3.9,3.9L275,163.5z M281.6,192.9v-0.2l1.1-0.1l0.1,0.2L281.6,192.9z M311.6,159.8c-2.6,3.8-5.5,7.4-8.6,10.7
		c-0.2,0.2-0.5,0.5-0.5,0.8c-0.2,1.4-1.2,2.5-2.5,2.9c-2.8,1.3-4.8,3.7-7.4,5.3c-1.3,0.8-2.5,1.6-3.8,2.5l-0.2-0.2
		c0.5-0.8,0.9-1.6,1.4-2.4c2-3,4.1-5.8,6.5-8.5c1-1.2,1.9-2.4,2.8-3.7c0.2-0.5,0.5-0.9,0.6-1.4c-0.4,0-0.9,0-1.3,0.1
		c-3.5,1.4-6.6,3.8-8.7,7c-1.1,1.7-2.2,3.5-3.4,5.4c0,0.3,0.1,0.8,0.2,1.4c0.2,1.6,0,1.9-1.5,2.3c-1.1,0.3-1.7,0.1-2.2-0.6
		c-0.5-0.8-0.6-1.8-0.1-2.6c0.4-0.6,0.8-1.1,1.2-1.6c0.7-0.8,1.5-1.6,2.2-2.4c1.2-1.4,1.2-2.4-0.1-3.6c-1.3-1.2-2.6-2.1-3.9-3.1
		c-0.3-0.3-0.7-0.5-1.2-0.9c0.4-0.3,0.7-0.5,0.9-0.7c1.4-0.9,2.7-1.7,4.1-2.6c0.6-0.4,1.4-0.5,2.1-0.4c2.2,0.3,4.4,0.7,6.6,1
		c1.5,0.2,3.1,0.1,4.6-0.4l2.2-0.6l0.3,0.8c1.2-0.2,2.2-0.8,3-1.7c0.4-0.5,0.9-0.8,1.4-1.3c1.2-0.9,2.2-2,3-3.2
		c0.5-0.9,1.3-1.6,2.3-2c-0.1,0.4-0.2,0.6-0.2,1c1.1,0.1,1.9-0.7,2.9-0.9C313.3,157.3,312.4,158.5,311.6,159.8L311.6,159.8z
		 M290.8,110.3l0.9,0.3l-0.1,0.3C291.1,111.2,290.9,111.1,290.8,110.3L290.8,110.3z M304,80.9c-0.1,0.3-0.3,0.5-0.5,0.5
		c-0.7,0.2-1.4-0.1-1.6-0.8l0,0l1.3-0.9C303.8,80,304,80.4,304,80.9L304,80.9z M304.4,155.5c0.4,0.8,0.1,1.2-1.5,1.6
		C303.1,156.3,303.7,155.8,304.4,155.5L304.4,155.5z M307.6,147.1c-0.2-1,0.5-2,1.5-2.2c0.1,0,0.1,0,0.2,0c1.1,2.1,1,3.1-0.6,3.9
		c-0.7-0.4-0.5-1-0.3-1.6L307.6,147.1z M308,152.6c-0.3,1.2-1.2,2.2-2.3,2.5c0-0.5-0.1-1,0.1-1.2c0.6-0.7,1.1-1.6,1.3-2.5
		c0-0.1,0.2-0.3,0.3-0.4C308.1,151.4,308.1,152,308,152.6L308,152.6z M312.7,71.1c0.5-0.7,1.5-0.9,2.3-0.5c-0.4,1-1.1,1.8-2,2.3
		C312.4,72.6,312.3,71.7,312.7,71.1L312.7,71.1z M310,107.6c1.1,0.2,2.1,0.4,3.2,0.7c0.3,0.1,0.7,0.3,1,0.6c-0.5,1.1-1.7,1.5-2.8,1
		c-0.1-0.1-0.2-0.1-0.3-0.2c-0.8,0.2-1.7,0-2.3-0.7C308.5,107.9,308.9,107.4,310,107.6L310,107.6z M289.4,53.3
		c-0.2,1.3-0.4,2.5-0.7,3.9c-0.7,0.5-1.6,0.7-2.5,0.6C285.4,55.9,287.3,53.3,289.4,53.3L289.4,53.3z M272.4,85.7
		c0.2-1,0.9-1.8,1.9-2.1c0.7-0.2,1.3-0.3,2-0.4c1.1,0.3,2.3,0.6,3.5,1c0.7,0.2,0.8,0.8,0.3,1.3c-0.2,0.3-0.5,0.5-0.8,0.7
		c-1.5,1-3.3,1.5-5.2,1.6c-0.8,0.2-1.7-0.4-1.8-1.2C272.2,86.3,272.2,86,272.4,85.7L272.4,85.7z M271,87.6c0.1,0.2,0.1,0.5,0,0.8
		c-0.4,0.4-0.7,0.1-1-0.3C270.2,87.5,270.6,87.3,271,87.6L271,87.6z M266.6,65.1c-0.1,0.9-0.1,0.9-0.8,1.3
		C265.5,65.5,265.6,65.3,266.6,65.1L266.6,65.1z M265.6,89c-0.5,0.2-0.8,0.1-0.8-0.6C265.4,88.4,265.4,88.4,265.6,89L265.6,89z
		 M240.5,61.1c0.5-0.7,1.3-1.2,2.2-1c1.8,0,3.7-0.5,5.4,0.9C246.7,62.6,241.8,62.6,240.5,61.1L240.5,61.1z M248.8,78
		c0.5-0.8,1.4-1.4,2.4-1.5c0.1,0,0.1,0,0.2,0c2.7,0.1,5.4,0.3,8.1,0.4c0.1,0,0.2,0.1,0.2,0.2C258.7,78,250.4,78.7,248.8,78L248.8,78
		z M251.4,104.8c-0.9,1.7-4.3,2.2-6.1,0.8C246.1,103.9,249.9,103.3,251.4,104.8L251.4,104.8z M249.8,112.6c0.5,0,1-0.1,1.5-0.2
		c1.1-0.1,2.2-0.6,3-1.3c1-0.9,2.1-1.6,3.1-2.4c1.2-0.9,2.2-2.2,2.7-3.7c0.3-0.9,0.3-1.9,0-2.9c-0.6-1.5-1-3.1-1-4.7
		c-0.2-1.3,0.7-2.6,2-2.9c0.8-0.3,1.7-0.6,2.5-0.8c0.8-0.1,1.4-0.7,1.6-1.5c0.1-0.7,0.8-1.2,1.5-1l0,0c1,0.1,2,0.2,3,0.5
		c1.3,0.3,2.6,0.3,3.8,0c1.4-0.4,2.9-0.7,4.3-1.1c0.8-0.3,1.6-0.7,2.2-1.4c1.5-1.6,2.6-3.6,3.1-5.8c0.1-0.7,0-1.3-0.3-1.9
		c-0.3-0.9-0.9-1.7-1.2-2.6c-0.3-0.7-0.1-1.5,0.6-1.8c0.1,0,0.2-0.1,0.3-0.1c0.2-0.1,0.4-0.2,0.6-0.2c2-0.6,2-2,1.1-3.7
		c-0.5-0.9-1.1-1.6-1.6-2.5c-0.7-1.2-0.3-1.9,1.1-2.1c0.8-0.1,1.6,0,2.4-0.1c1.4-0.2,1.9-0.8,1.7-2.2c-0.2-1.5-0.8-2.9-1.8-4.1
		c-0.4-0.5-0.9-1-0.5-1.8c0.6-0.5,1.3-0.3,1.9-0.2c0.8,0.1,1.6,0.1,2.4,0.1c1.1-0.1,1.7-0.7,1.6-1.7c-0.3-2.2,1.1-3.8,2.1-5.4
		c0.3-0.5,0.9-0.7,1.5-0.5c1.2,0.3,2.4,0.6,3.6,0.9c0.8,0.2,1.5,0.6,2.2,1c0.8,0.5,1.1,1.4,0.8,2.3c-0.2,0.9-0.7,1.7-1.4,2.3
		c-0.6,0.5-1.2,1-1.8,1.4c-1.1,0.9-1.8,2.1-2,3.4c-0.1,0.4,0,0.8,0.1,1.1c0.7,1.3,2.1,2.1,3.6,1.9c1.2-0.2,2.3-0.4,3.5-0.7
		c1.3-0.4,2.6-0.1,3.7,0.6c1.6,0.9,2.3,2.1,1.8,4c-0.4,1.3-0.3,2.7,0.3,3.9c0.4,0.8,0.1,1.9-0.7,2.3c-0.1,0.1-0.3,0.1-0.5,0.2
		c-0.7,0.2-1.4,0.3-2.1,0.4c-1.1,0.1-2.2,0.1-3.2,0.3c-0.8,0.1-1.5,0.6-1.9,1.4c-0.8,1.6-1.6,3.3-2.3,4.9s-0.5,2.3,1,3.2
		c0.4,0.3,0.8,0.6,1.3,0.9c-0.5,1.7-1.6,3.1-3.1,4.1c-0.3,0.1-0.6,0.2-0.9,0.2c-0.9,0.2-1.7,0.4-2.5,0.6s-1.2,1-1,1.8
		c0,0.1,0.1,0.2,0.1,0.3c0.1,0.2,0.2,0.4,0.3,0.6c0.9,1.6,0.3,3.7-1.3,4.6c-0.3,0.2-0.6,0.3-0.9,0.3c-1.7,0.4-3.5,0.6-5.3,0.9
		c-0.6,0.1-1.2-0.1-1.6-0.7c-0.9-1-2.3-1.4-3.6-0.9c-1.4,0.5-2.8,0.8-4.3,0.9c-1.9,0.1-3.8,0.1-5.7,0c-1.1,0-2.1,0.4-2.7,1.3
		c-0.6,0.7-1.3,1.4-1.9,2.1c-0.9,0.7-1,2-0.3,2.9l0,0c0.7,0.9,0.6,2.3-0.3,3.1c-1.5,1.7-3.6,2.9-5.8,3.4c-1.3,0.3-2.6,0.4-3.9,0.5
		c-2.9,0.2-5.7,0.4-8.6,0.6c-0.7,0-1.4,0-2.3,0C246.6,113.5,248.1,112.8,249.8,112.6L249.8,112.6z M284.9,113.4
		c-0.8,0.8-1,0.8-1.7,0.4C283.9,112.9,284.1,112.8,284.9,113.4L284.9,113.4z M282.8,102.1c-0.2,1.1-0.9,1.7-2.4,1.9
		c-0.4-0.4-0.4-1.1,0-1.5l0,0C280.9,101.9,281.7,101.8,282.8,102.1L282.8,102.1z M246,143.7c0.6,0.3,0.8,1,0.5,1.6
		c-0.1,0.2-0.2,0.3-0.4,0.4c-1,0.8-2.4,0.8-3.4,0.1c-0.6-0.4-0.8-1.2-0.5-1.8c0.2-0.3,0.5-0.5,0.8-0.6c0.5-0.1,1-0.2,1.5-0.3
		C245,143.3,245.5,143.5,246,143.7L246,143.7z M235.7,93.1c0.9-0.6,2-0.8,3.1-0.6c0.4,0.1,0.7,0.4,1,0.7c0.5,0.6,0.9,1.1,1.5,1.6
		c1.6,1.3,1.8,3,1.8,4.8c0,0.1,0,0.1,0,0.2c-0.9,1.2-1.6,2.7-3,3.4c-1.1,0.5-2.1,1.2-3.5,1c-0.4-0.1-0.9,0-1-0.6
		c1.3-0.7,3,0.1,4.2-1.2l-1-0.4c0.1-0.6,0.4-1.1,0.9-1.6c1.3-1.7,1.4-2.6,0.1-4.4c-0.3-0.4-0.6-0.7-0.8-1.1
		c-0.3-0.5-0.9-0.8-1.5-0.8c-0.6-0.1-1.1-0.1-1.7-0.3c-0.2-0.1-0.3-0.1-0.5-0.2C235.3,93.4,235.5,93.2,235.7,93.1L235.7,93.1z
		 M234.3,115.1c1.3-0.5,2.6-1,3.9-1.5c1.1-0.5,2.3-0.5,3.4,0.1c-0.1,1-0.3,1.4-1.2,1.6c-1,0.2-2.1,0.3-3.1,0.5s-1.9,0.2-2.9,0.3
		c-0.3,0-0.5,0-0.8-0.1l-0.1-0.3C233.8,115.5,234.1,115.3,234.3,115.1L234.3,115.1z M233.5,150.4c0-0.6,0.4-1.2,1-1.3
		c0.6-0.2,1.1-0.4,1.7-0.7c1.1,0.6,1.8,1.7,2,2.9c0,0.3,0,0.6-0.2,0.8c-0.7,1.1-1.9,1.9-3.3,2.1c-0.8,0.1-1.1-0.1-1.2-0.9
		C233.5,152.3,233.5,151.4,233.5,150.4L233.5,150.4z M229.5,139.4c0.5,0.2,0.9,0.4,1.6,0.8c-0.2,0.6-0.4,1.2-0.7,1.8
		s-1.1,0.7-1.6,0.4c-0.1-0.1-0.2-0.2-0.3-0.3c-0.3-0.4-0.5-0.9-0.6-1.4C227.7,139.4,228.4,138.9,229.5,139.4L229.5,139.4z
		 M232.2,158.4c1.4-0.2,2.8-0.5,4.2-0.8c8.9-1.9,17.4-4.6,26.1-7.3c0.4,1-0.5,2-1.5,2.5s-2.1,1-2.3,2.1c1.1,0.1,2.2-0.2,3-0.9
		c2.1-1.3,4.1-2.6,6.1-4c2.1-1.6,4.1-1.8,6.4-2.8c2-0.8,4.1-1.7,6.1-2.7c0.7-0.4,1.5-0.5,2.3-0.3c-0.3,0.4-0.6,0.9-0.8,1.4
		c1.2-0.3,2.3-1,3.1-1.8c0.2,1.6,0,3.3-0.5,4.9c-0.5,1.6-1.9,2.8-3.6,3l2.2,0.2c-0.1,1.4-0.9,2.6-2.1,3.3s-2.5,1.1-3.8,1.4
		c-4.4,0-10,2.5-14.3,3.5c-7.6,1.9-14.8,4.8-22.1,7.6c0.9,0,1.7,0.4,2.1,1.2c-4,1.1-8,0.9-12.1,1.2s-14.8,3.2-15.3-3.7
		c5.2,0.9,14.6,2.1,19.1-1.2c0.3-0.2,0.6-0.5,0.8-0.9c-6.6,0.2-13.3,0.6-20.1,0.3c0.2-0.3,0.4-0.5,0.6-0.8c1.5-1.3,3.2-2.3,5.1-2.8
		C224.6,159.8,228.4,158.9,232.2,158.4L232.2,158.4z M217.1,146.6c0.4-0.2,0.8-0.4,1.3-0.5c0.5,0.1,0.9,0.3,1.3,0.5
		c0.6,0.4,0.8,1.2,0.5,1.8c-0.1,0.2-0.3,0.4-0.6,0.5c-0.8,0.5-1.8,0.5-2.6,0c-0.7-0.3-0.9-1.1-0.7-1.7
		C216.5,147,216.8,146.8,217.1,146.6L217.1,146.6z M221.6,138.3c0.1,0.7-0.4,1.3-1.1,1.4h-0.1c-0.6,0-1-0.5-1.1-1.3s0.4-1.4,1.1-1.4
		C221,137,221.6,137.6,221.6,138.3L221.6,138.3L221.6,138.3z M221,92.7c-0.6,0.8-1.2,1.5-2.1,1.2c-0.9-0.2-1.7-1-2-1.9
		c1.1-1,2.8-0.9,3.8,0.2C220.8,92.3,220.9,92.5,221,92.7L221,92.7z M214.8,125.8c0.5,0,1.1,0.1,1.6,0.4s0.7,1,0.4,1.5
		c-0.1,0.2-0.4,0.4-0.6,0.5c-0.3,0.1-0.6,0.2-1,0.3h-0.4c-1,0-1.8-0.7-1.8-1.4S213.8,125.9,214.8,125.8L214.8,125.8z M208.9,158.8
		c0.9-0.4,1.8,0.1,2.8,0.3c1.6,0.3,1.8,1.7,0.6,2.3C210.5,162.3,208.8,160.5,208.9,158.8L208.9,158.8z M206.2,116.7
		c0.1,0.2,0,0.4-0.1,0.5c-0.4,0.2-0.7,0-0.8-0.5C205.6,116.4,205.9,116.2,206.2,116.7L206.2,116.7z M183.3,126.1
		c0.2,0,0.4,0.3,0.7,0.6c-0.7,0.4-1.1,0.4-1.6-0.3C182.7,126.3,183,126.1,183.3,126.1L183.3,126.1z M165.1,117.7
		c1.1-0.1,2.1,0.8,2.2,1.9v0.1c0.1,1.2-0.2,1.8-1.4,2.1c-2.1,0.5-4.2,0.9-6.2,1.3c-0.2,0-0.3,0-0.5-0.1c-0.4-1.3,1.1-2.6-0.1-3.9
		c0.4-0.3,0.7-0.7,1-0.7C161.8,118.1,163.4,117.9,165.1,117.7L165.1,117.7z M158.3,110.6c1,0,1.8,0.3,1.9,0.8c0.1,0.9-0.7,1-1.2,1.4
		s-1.1,0.7-1.7,1c-0.8,0.4-1.4,0.1-1.4-0.9C155.9,111.6,156.9,110.6,158.3,110.6C158.2,110.6,158.2,110.6,158.3,110.6L158.3,110.6z
		 M154.3,104.7c1.2-0.4,2.1,0.2,2,1.3c-0.1,0.8-0.4,1.5-1,2C154.5,107.1,154.1,105.9,154.3,104.7L154.3,104.7z"/>
	<path id="Path_1128_-_Outline" fill="#FFFFFF" d="M224.8,7.5l0.3,0.4c-3.1,2.1-6.3,3.9-9.7,5.3c-1.6,0.8-3.3,1.6-4.9,2.4
		c-0.3,0.1-0.6,0.3-1,0.5c-2.1,1.1-5.7,2.8-5.6,5.1c0,1-0.3,1.9-0.8,2.8c-0.2,0.4-0.4,0.9-0.6,1.4l-0.1,0.2l-0.8-0.2l0,0
		c0,0.1-0.1,0.2-0.1,0.3c-0.2,1.1-0.2,2.2,0.2,3.2l0,0l0,0c0.1,0.5,0.4,1,0.9,1.2c0.9,0.4,1.9,0.7,2.8,1c4.7,1.1,9.4,2,14.2,2.6
		c2.1,0.4,4.2,0.8,6.3,1.4c2.5,0.8,5.1,1.3,7.7,1.6c0.4,0,0.8,0,1.1,0c1.3,0,2.7-0.1,4-0.3l0,0l0.1,0.5l0,0l-0.1,0.1
		c0,0.1,0,0.2,0,0.2c0.2,0.1,0.5,0.2,0.7,0.2l0,0c1.3,0,2.5-0.1,3.8-0.1c2.4-0.1,4.8-0.2,7.2-0.2c2.5,0,4.7,0.1,6.8,0.3
		c0.2,0,0.3,0,0.6,0c0.3,0,0.4,0,0.6,0c0.1,0,0.3,0,0.4,0c0.6-0.8,0.8-1.1,1.5-1.1c0.3,0,0.6,0,0.9,0.1l0,0c0.7,0.1,1.3,0.2,2,0.2
		c0.5,0,1-0.1,1.4-0.2c-0.1-0.2-0.2-0.4-0.2-0.6l-0.2-0.5l0.3-0.1c0.2,0,0.4-0.1,0.6-0.1c0.4-0.1,0.9-0.2,1.3-0.2
		c0.6-0.1,1.2-0.1,1.8-0.2c0.9-0.1,1.9-0.2,2.9-0.3c0.5-0.1,1-0.3,1.5-0.6l0,0c0.4-0.2,0.7-0.4,1.1-0.6c0.2-0.1,0.4-0.2,0.6-0.4
		l0.4-0.2V33c-0.1,1.1-0.7,2.1-1.6,2.7H273l-0.3-0.2c-0.7,0.4-1.5,0.7-2.2,1.1c-1.8,1-3.7,1.8-5.6,2.5c-3,0.8-6,1.2-9.1,1.2
		c-3.2-0.1-6.3,0.4-9.3,1.3l-0.4,0.1l0.1-0.4c0,0,0,0,0-0.1c-0.2-0.2-1.1-0.6-4.7-0.9c-2.2-0.1-5.1-0.2-8.6-0.2
		c-2.9,0-5.5,0-7.2,0.1c-0.8,0-1.3,0-1.6,0c-0.1,0-0.2,0-0.3,0c-0.5,0-1-0.1-1.5-0.3l0,0l0,0c-0.5-0.3-1-0.7-1.3-1.2
		c-1.4-1.5-3.2-2.4-5.2-2.6c-0.7,0-1.3,0.2-1.9,0.6l0,0l0,0c-0.1,0.1-0.3,0.1-0.4,0.1h-0.1l-0.1-0.1c-0.1-0.1-0.2-0.2-0.3-0.2
		c-0.2-0.1-0.4-0.3-0.5-0.4l0,0c-1.3-1-2.9-1.6-4.5-1.8l0,0c-0.4-0.1-0.9,0-1.2,0.4c0.1,0.3,0.3,0.7,0.5,1c2.6,3,5.9,5.5,9.5,7.2
		c1.1,0.4,2.2,0.8,3.4,1c1.7,0.2,3.3,0.8,4.7,1.7l0.4,0.3l-0.5,0.1c-1.4,0.3-2.8,0.5-4.3,0.4c-0.8,0-1.6,0-2.5,0.1
		c0.3,0.2,0.8,0.5,1.3,0.8s1,0.7,1.5,0.9c1.8,0.6,3.7,1.2,5.6,1.6l0,0c3.7,1,7.6,1.8,11.4,2.4c0.4,0.1,0.8,0.1,1.2,0.1
		c1,0,2.1-0.2,3.1-0.5c0.8-0.2,1.7-0.4,2.5-0.5c0.3,0,0.6,0,0.9,0c0.9,0,1.7,0.1,2.5,0.2c0.8,0.1,1.7,0.2,2.5,0.2
		c0.5,0,0.9,0,1.4-0.1c0.9-0.2,1.8-0.4,2.7-0.8c1.2-0.5,2.4-0.8,3.7-0.9c0.4,0,0.9,0.1,1.3,0.2l0,0c0.5,0.2,1,0.3,1.5,0.4
		c0.3,0,0.5-0.2,0.6-0.4c0.1-0.1,0.1-0.3,0-0.4l-0.1-0.2l0.2-0.1c3.3-1.2,6.7-2.2,10.2-3c1.3-0.3,2.7-0.7,4-1h0.2l0.4,0.5l-0.1,0.1
		c-1,2.1-1.6,2.9-4.2,3c-2.4,0.1-4.8,0.7-7,1.8l0,0c-0.4,0.2-0.7,0.4-1,0.6c-0.1,0.1-0.2,0.2-0.3,0.3c-0.1,0.2-0.3,0.3-0.4,0.5l0,0
		c-0.7,0.5-1.6,0.6-2.5,0.5c-0.3,0-0.6,0-0.9,0c-1.1-0.1-2.4-0.1-3.8-0.1c-2-0.1-4,0.2-5.8,0.8h0.6c8.1,0,16.3-0.8,24.2-1.6
		c2.2-0.2,4.5-0.4,6.7-0.7l0,0c1.5-0.1,2.9-0.3,4.3-0.8c1-0.4,2-0.9,3-1.5s2-1.1,3.1-1.6c0.6-0.2,1.2-0.3,1.7-0.5
		c1.7-0.4,3.3-0.8,4.1-2.2c0.1-0.2,0.2-0.4,0.3-0.6c0.7-1.3,1-1.8,1.8-1.8c0.7,0.1,1.4,0.3,2.1,0.5c1.6,0.6,3.1,1.3,4.5,2.1
		c0.7,0.4,1.4,0.7,2.1,1.1c1,0.4,1.9,1,2.8,1.7l0,0c1.4,1.5,2.7,3.2,3.7,5c0.1,0.1,0.2,0.3,0.4,0.6c0.9,1.2,1.6,2.5,2.2,3.9l1.1-3
		l0.3,0.1c1.5,0.8,2.6,2.2,3,3.8s0.6,3.2,0.6,4.8v0.5l-0.4-0.3c-1.4-1.2-3-2.2-4.6-3.1c0.1,0.9,0.6,1.6,1.4,2l1.9,0.9l-2-0.4
		c-1.6-0.3-3.2-0.5-4.8-0.5c-0.4,0-0.9,0-1.3,0c2.2,1.6,4.5,2.9,6.9,4c0.4,0.2,0.9,0.3,1.3,0.5c1.7,0.6,3.4,1.2,4.1,3
		c1,1.9,0.7,4.2-0.6,5.8c-0.1,0.1-0.1,0.2-0.2,0.3c1,0.9,1.5,2.1,1.5,3.4s-0.1,2.6-0.3,3.9c-0.2,1.8-1,3.4-2.2,4.7
		c-0.5,0.5-0.8,1.2-0.8,2l0,0c0,0.4-0.1,0.7-0.1,1.1c-0.1,0.7-0.1,1.5-0.2,2.2c0,1.5-1,2.8-2.4,3.2c-0.4,0.1-0.8,0.3-1.4,0.5l0,0
		c-1.1,0.3-1.8,1.4-1.7,2.5l0,0c0,0.6,0.1,1.2,0.2,1.8c1.6,5.5,4.3,10.6,7.8,15l0,0c0.1,0.2,0.3,0.4,0.5,0.5
		c0.3,0.1,0.7,0.1,1.1-0.1c1.1-0.6,1.7-1.8,1.8-3l0,0c0.1-0.6,0.1-1.3,0.1-2c0-0.6,0-1.3,0.1-1.9c0.3-2.2,1.7-3.2,3.2-4.3
		c0.3-0.2,0.5-0.4,0.8-0.6c0.2-0.2,0.4-0.3,0.7-0.3l0,0h0.1c0.7,0,1.1,0.8,1.2,1.6l0.6,5l2.5-0.4l-1.8,2.9c1.3-0.1,2.3-1.8,2.8-2.7
		l1.7-2.8c0.4-0.6,0.6-1.2,0.7-1.9c0.1-0.6-0.3-1.2-0.8-1.4c-0.2,0-0.3,0-0.5,0h-0.3c-0.4,0.1-0.9-0.1-1.2-0.4l0,0
		c-0.2-0.3-0.2-0.6-0.2-1c0-0.7,0.1-1.5,0.1-2.2c0.2-3.3,0.3-6.7,0.5-10c0-0.2,0.1-0.4,0.2-0.6l0,0l0,0c0.2-0.2,0.5-0.2,0.8-0.2
		l1.3,0.2c-1-2.1-1.7-4.3-2-6.6c-0.2-1.5-0.6-2.9-1-4.3c-0.9-2.4-1.5-4.9-2.1-7.5c-0.6-2.5-0.7-5.2-0.3-7.7c0.2-0.7,0.4-1.3,0.6-2
		c0.4-0.9,0.6-1.8,0.7-2.7c0.3-3.7-2.9-6.4-5.7-8.8c-0.7-0.6-1.4-1.2-2-1.7c-3.6-3.4-6.9-7.1-9.9-11c-1.4-1.8-2.6-3.6-3.9-5.4
		c-2.9-4.2-5.6-8.1-9.6-11.3c-0.3-0.2-0.6-0.5-0.8-0.9l-0.3-0.6l0.6,0.2c1.7,0.7,3.3,1.6,4.8,2.6c0.7,0.4,1.3,0.8,2,1.2
		c1.5,0.9,3.4,2,5.4,2c0.1,0,0.2,0,0.2,0c0.6-0.1,1.3-0.1,1.9,0l0,0l0,0c0.6,0.2,1,0.6,1.4,1c5.5,5,10.6,10.5,15.1,16.5
		c34.5,46.8,24.5,112.6-22.2,147.1c-1.3,1-2.7,2-4.1,2.9c-8.6,5.8-18,10.2-27.9,13.1c-9.9,3-20.2,4.4-30.6,4.4
		c-8.1,0-16.2-0.9-24.1-2.8c-10.4-2.4-20.4-6.6-29.4-12.4l-0.4-0.3l0.5-0.2c0.5-0.2,1.1-0.3,1.6-0.3c1.8-0.3,2.9-0.6,2.9-1.9
		c0-1.1-1.2-2.4-2.4-3.1c0,0.1,0,0.1,0,0.2c-0.1,0.6-0.5,1.1-1.1,1.3l0,0l0,0c-0.1,0-0.2,0-0.3,0c-0.8,0-1.6-0.3-2.2-0.8l-4-2.7
		c-0.8-0.5-1.4-1.3-1.7-2.3c0-0.2,0-0.4,0.1-0.6c-2.3-0.3-4.4-1.3-5.9-3c-0.8-0.8-1.5-1.6-2.2-2.5c-0.8-1-1.6-1.9-2.5-2.7
		s-1.9-1.6-2.9-2.4c-1.1-0.8-2.1-1.6-3.1-2.5c-1.3-1.2-3.5-3.8-3.3-6.9v-0.3l0.3,0.1c3.1,1,6.1,2.4,8.9,4.3l0,0
		c0.3,0.2,0.6,0.4,0.8,0.6c2.2,1.6,4.4,3.2,7.1,3.2c0.2,0,0.3,0,0.5,0s0.3,0,0.5,0c0.6,0,1.1,0.1,1.6,0.4l0,0
		c0.9,0.8,1.1,2.1,0.5,3.1l0,0c-0.5,0.8-1.1,1.4-1.8,1.9l9.8,2.9c0.5,0.2,1,0.3,1.6,0.2c0.4-0.1,0.8-0.4,1.2-0.7
		c0.3-0.2,0.6-0.4,0.9-0.6c0.4-0.2,0.9-0.3,1.4-0.3c1.1,0.1,2.2,0.4,3.2,0.9l0,0c3.3,1.4,6.8,2.2,10.3,2.5l-4.4-1.4l1.4-0.1
		c0.4,0,0.9,0,1.3,0c6.4,0,12.6,1.9,18,5.4l0.2,0.1l-0.9,1.5c0.7,0.1,1.4,0.3,2,0.7c0.8,0.5,1.2,1.5,0.9,2.4l0,0
		c-0.5,0.8-1.4,1.2-2.3,1.1c-0.2,0-0.3,0-0.5,0c-2.7-0.4-5.3-1.3-7.6-2.6c-2.6-1.2-5.4-2.5-8.2-2.6c-0.6,0-1.4,0.2-1.5,0.7
		c0,0.3,0.1,0.6,0.3,0.8l0,0c1.2,1.9,3,3.4,5,4.3c0.4,0.1,0.8,0.4,1,0.8l0,0c0.1,0.3,0.1,0.6-0.1,0.8c0,0,0,0,0,0.1
		c4.4,1.8,9,2.6,13.7,2.5c7,0,14-1.5,20-3.1c-0.4-0.9-1.4-1.5-2.4-1.5c-0.3,0-0.6,0-0.8,0h-0.6c-0.8,0-1.5-0.1-2.2-0.3
		c-1.3-0.6-2.1-1.9-2.8-3.2c-0.5-1.1-1.2-2.1-2.2-2.7c-1-0.4-2.1-0.6-3.1-0.6c-1.5-0.1-3-0.1-4-1.3c-0.5-0.7-0.8-1.5-0.9-2.3
		c-0.2-1-0.5-1.9-1.2-2.3c-0.2-0.1-0.5-0.2-0.8-0.2c-0.5,0-1,0.1-1.5,0.3s-1.1,0.3-1.7,0.3c-0.2,0-0.4,0-0.6-0.1
		c-0.6-0.2-1.1-0.4-1.6-0.8c-0.4-0.3-0.9-0.6-1.4-0.7c-0.1,0-0.3,0-0.4,0c-0.6,0-1.2,0.2-1.7,0.4c-0.6,0.2-1.3,0.4-1.9,0.4
		c-2.2,0-3.4-2.1-4.5-4c-0.1-0.1-0.2-0.3-0.2-0.4c-2.1-3.4-5.2-6.1-8.3-8.6c-2.2-1.7-4.3-3.6-6.2-5.7c-0.5-0.5-0.9-1.2-1.1-1.9l0,0
		l0,0c0-0.8,0.1-1.6,0.5-2.3c0.6-1.3,0.8-2.7,0.7-4.2c-0.2-1.4-1.1-2.6-2.4-3c-0.3-0.1-0.6-0.1-0.9-0.1c-0.4,0-0.8,0-1.2,0.1
		s-0.9,0.1-1.3,0.1c-0.2,0-0.4,0-0.6,0l0,0c-1.2-0.3-2.4-0.8-3.4-1.4c-3.7-1.9-7.9-2.2-11.8-0.9c-1,0.4-2.1,0.7-3.1,0.9
		c-1.5,0.3-2.9-0.6-3.3-2c-0.1-0.3-0.1-0.7,0-1c0.2-1.2,0.5-2.4,1-3.5c0.7-1.8,1.4-3.5,0.6-5.1c-0.5-0.8-1.2-1.4-2.1-1.8l0,0
		c-2.5-1-5.1-1.6-7.7-1.8c-1.9-0.2-3.7-0.5-5.5-1c-1.2-0.3-2.3-0.9-3.4-1.6c0.4,1.2,0.7,2.4,0.8,3.6c0.1,0.6,0.2,1.2,0.3,1.8l0,0
		c0.5,2.4,1.5,4.7,3,6.7c1.1,1.2,2.4,2.2,3.7,3.1l0,0l3,2.1c0.6,0.4,1.2,0.9,1.6,1.5l0,0c0.4,0.8,0.3,1.7-0.1,2.4
		c-0.5,0.9-1.3,1.4-2.3,1.5c-0.1,0-0.2,0-0.4,0c0.9,2.9,2.4,5.5,4.4,7.7l-0.3,0.4c-4.7-4-8.2-9.2-10.2-15.1c-0.4-1.3-1-2.6-1.6-3.7
		c-0.6-1.1-1.6-1.8-2.8-2h-0.2c-0.4,0-0.8-0.1-1.1-0.4l0,0l0,0c-0.2-0.4-0.2-0.9,0-1.3c0.6-2.5-0.4-5.1-1.3-7.7l-0.1-0.3
		c-1.8-5-3.2-10.1-4.2-15.3c-0.3-1.5-0.4-3.1,0.4-4.4c0.7-1.1,0.4-1.8-0.1-2.9c-0.2-0.5-0.4-0.9-0.5-1.4l0,0v-0.1
		c-0.5-2.1-0.7-4.2-0.5-6.4c0.3-4.3,1.2-8.5,2.6-12.5l0.1-0.4l0.3,0.3c1.2,1.1,1,2.6,0.8,4.1c-0.2,1.3-0.3,2.6,0.6,3.5
		c1,0.5,2.2,0.7,3.3,0.7c1.4,0,2.4-0.3,2.6-0.8l0,0l0.5,0.2l0,0c0,0.1-0.1,0.3-0.2,0.4c-0.4,1.2-1.2,3.5-0.6,4.3
		c0.2,0.2,0.4,0.3,0.7,0.3c0.4,0,0.8-0.1,1.2-0.3c2-0.8,3.9-1.9,5.6-3.3c-0.8-0.2-1.4-0.7-1.6-1.5l0,0c-0.3-0.9-0.4-1.8-0.4-2.7
		v-2.8c-0.1-0.6,0.4-1.2,1-1.2l0,0c0.3-0.1,0.6-0.2,0.8-0.5c0.3-0.4,0.7-0.7,1.3-0.8c0.1,0,0.1,0,0.2,0c0.5,0.1,0.7,0.8,0.7,1.1
		c0.1,1.2,0,2.5-0.1,3.7c0,1.2-0.2,2.5-0.5,3.7c0.6,0.6,1.3,1,2.2,1.1c2,0,3.8-2.5,5.5-4.9c1.4-1.9,2.7-3.8,4.1-4.2
		c0.6-0.2,1.3-0.3,1.9-0.4c1.4-0.2,2.7-0.5,3.5-1.5c0.3-0.5,0.6-0.9,0.8-1.5c0.3-0.9,0.9-1.7,1.7-2.2l0,0c0.6-0.2,1.3-0.2,2,0
		c1.5,0.4,2.9,0.9,4.2,1.6c2.4,1,4.9,2.1,7.2,2.1c1.7,0,3.2-0.7,4.3-1.9c0.6-0.9,1.2-1.7,1.9-2.5l0,0c0.4-0.4,1-0.7,1.5-0.7
		c1,0,1.6,1,2.2,1.9l0,0c0.4,0.6,1.2,0.9,1.9,0.9c0.4,0,0.8-0.1,1.1-0.2c0.9-0.4,1.8-1.1,2.5-1.8c0.7-0.8,1.6-1.4,2.5-1.9l0.2-0.1
		l0.1,0.2c0.3,0.5,0.5,1,0.6,1.5c0.1,0.7,0.4,1.3,0.9,1.8c1.1,0.9,2.6,1.4,4,1.4l0,0c0.3,0,0.7,0,1,0.1c1,0.1,2.1,0.2,3.2,0.2
		c1.6,0.1,3.2-0.2,4.6-0.9c0.2-0.1,0.4-0.3,0.6-0.4c0.3-0.2,0.5-0.4,0.8-0.5c0.7-0.3,1.4-0.5,2.2-0.6c0.2,0,0.4,0,0.6,0
		c0.7,0,1.3,0.1,2,0.1s1.3,0.1,1.9,0.1c0.4,0,0.7,0,1.1-0.1l0,0c1.6-0.1,3.1-1,4-2.4c-6.2-0.4-12.4-1.2-18.5-2.4
		c-2.1-0.4-4.3-0.7-6.5-1.1h-0.2c-3.8-0.7-7.7-1.1-11.6-1.2c-1.9,0-2.4,0.3-2.6,0.4v0.1l0,0h-0.5l0,0l0,0l0,0l0,0
		c-0.1-0.9,0.4-1.8,1.1-2.4c-0.7-0.2-1.7-0.7-3.1-1.3c-1.1-0.6-2.3-1.1-3.5-1.4c-0.4-0.1-0.8-0.1-1.2-0.1c-0.7,0-1.4,0.1-2.1,0.1
		s-1.4,0.1-2.1,0.1c-0.7,0-1.4-0.1-2.1-0.3c-1-0.3-1.9-1.1-2.4-2.1c-0.3-0.7-0.4-1.4-0.1-2.1l0,0c0.1-0.1,0.1-0.2,0.1-0.4
		c0-0.1-0.1-0.2-0.2-0.3l0,0c-0.5-0.3-1-0.4-1.5-0.4c-0.6,0-1.2,0.1-1.9,0.2c-0.2,0-0.3,0.1-0.5,0.1c-0.3,0-0.6,0.1-0.9,0.1
		c-1.5,0-2.6-0.6-3-1.6l0,0l0,0c-0.1-0.5-0.2-0.9-0.4-1.3c-0.2-0.3-0.6-0.4-1-0.4c-0.6,0-1.1,0.2-1.6,0.4c-0.4,0.1-0.9,0.2-1.3,0.2
		c-0.9,0-1.5-0.4-1.7-1v-0.2l1.3-0.7c-0.3-0.6-0.6-1.2-0.8-1.8c-1.4-3.4-3.2-6.6-5.3-9.6c-0.1-0.2-0.3-0.3-0.4-0.5
		c-1.8-1.5-2.3-4-1.2-6.1c0.1-0.3,0.2-0.5,0.3-0.8c0.2-0.7,0.2-1.4,0.1-2.1c-0.1-1.2-0.2-2.3,1.5-3.1c0.6-0.4,1.2-0.8,1.8-1.3l0,0
		c0.2-0.2,0.4-0.4,0.5-0.6c0.1-0.2,0.3-0.4,0.5-0.6c0.9-1,1.9-1.9,2.9-2.7l0,0l0,0c0.7-0.4,1.3-1,1.6-1.7c0.2-0.3,0.4-0.6,0.7-0.9
		c1.8-1.6,3.7-3.3,5.7-5.1c2.5-1.9,5.3-3.5,8.3-4.5c1.8-0.7,3.5-1.5,5.2-2.3l0,0c0.5-0.2,0.9-0.6,1.1-1c0.1-0.2,0.1-0.4,0.1-0.6
		c0-0.3,0-0.6,0.1-0.8l0,0c0.3-0.6,0.8-1,1.4-1.2c3.5-1.7,7.1-3.2,10.7-4.5c1.6-0.7,3.3-1.2,5-1.6l0,0c0.1,0,0.3,0,0.4,0
		c0.3,0,0.6,0,0.9,0c0.4,0,0.8,0,1.1,0C224.6,7.6,224.8,7.5,224.8,7.5z M224,8.1c-0.4,0-0.8,0-1.1,0s-0.7,0-0.9,0
		c-0.1,0-0.2,0-0.3,0c-1.7,0.4-3.3,0.9-4.9,1.5l0,0c-3.6,1.3-7.2,2.8-10.7,4.5l0,0c-0.5,0.2-0.9,0.5-1.1,1c-0.1,0.2-0.1,0.4-0.1,0.6
		c0,0.3,0,0.5-0.1,0.8l0,0c-0.3,0.6-0.8,1-1.3,1.3c-1.7,0.9-3.5,1.7-5.3,2.4c-3,1.2-5.8,2.3-8.2,4.4c-2,1.8-4,3.5-5.7,5.1l0,0
		c-0.2,0.2-0.4,0.4-0.6,0.7c-0.4,0.8-1,1.5-1.8,2c-1,0.8-2,1.7-2.9,2.7l0,0c-0.2,0.2-0.3,0.3-0.4,0.5c-0.2,0.2-0.4,0.5-0.6,0.7
		c-0.6,0.5-1.2,1-1.9,1.4l0,0c-1.5,0.7-1.4,1.5-1.3,2.7c0.1,0.8,0.1,1.6-0.2,2.3c-0.1,0.3-0.2,0.6-0.3,0.8c-1.1,1.9-0.6,4.2,1.1,5.6
		c0.1,0.2,0.3,0.3,0.4,0.5c2.1,3,3.9,6.3,5.4,9.7c0.3,0.7,0.6,1.3,0.9,2l0.1,0.2l-1.3,0.7c0.3,0.3,0.7,0.5,1.1,0.5
		c0.4,0,0.8-0.1,1.1-0.2c0.6-0.2,1.2-0.4,1.8-0.4c0.5,0,1.1,0.2,1.4,0.6l0,0l0,0c0.2,0.5,0.4,0.9,0.5,1.4c0.4,1.1,1.9,1.2,2.5,1.2
		c0.3,0,0.6,0,0.8-0.1c0.2,0,0.3-0.1,0.5-0.1c0.6-0.1,1.3-0.2,1.9-0.2c0.6,0,1.2,0.1,1.8,0.4c0.2,0.1,0.4,0.3,0.5,0.6l0,0l0,0
		c0,0.2,0,0.4-0.1,0.6c-0.2,0.6-0.2,1.2,0.1,1.7c0.4,0.9,1.2,1.5,2.1,1.8c0.6,0.2,1.3,0.3,1.9,0.3c0.7,0,1.4-0.1,2.1-0.1
		c0.7-0.1,1.4-0.1,2.1-0.1c0.4,0,0.9,0,1.3,0.1c1.3,0.4,2.5,0.9,3.7,1.5c1.1,0.6,2.3,1,3.5,1.4l0,0l0,0l0.2,0.5l0,0
		c-0.7,0.3-1.2,0.8-1.4,1.5c0.8-0.3,1.7-0.4,2.6-0.3c3.9,0.1,7.8,0.6,11.7,1.2h0.2c2.2,0.3,4.4,0.7,6.5,1.1c6.2,1.2,12.5,2,18.8,2.4
		h0.4l-0.2,0.4c-0.9,1.7-2.7,2.9-4.6,3c-0.4,0-0.7,0.1-1.1,0.1c-0.7,0-1.3-0.1-2-0.1s-1.3-0.1-1.9-0.1c-0.2,0-0.4,0-0.6,0l0,0
		c-0.7,0-1.4,0.2-2,0.5c-0.3,0.1-0.5,0.3-0.8,0.5c-0.2,0.1-0.4,0.3-0.7,0.4c-1.5,0.7-3.2,1.1-4.8,1c-1.1,0-2.2-0.1-3.3-0.2
		c-0.4,0-0.7-0.1-1-0.1c-1.6,0-3.1-0.6-4.3-1.5l0,0c-0.5-0.6-0.9-1.3-1-2.1c-0.1-0.4-0.2-0.8-0.4-1.2c-0.8,0.5-1.5,1-2.2,1.7
		c-0.7,0.8-1.6,1.5-2.6,2c-0.4,0.2-0.9,0.2-1.3,0.2c-0.9,0.1-1.8-0.4-2.3-1.1l0,0c-0.5-0.9-1-1.7-1.7-1.7c-0.5,0.1-0.9,0.3-1.2,0.6
		c-0.7,0.8-1.3,1.6-1.9,2.4l0,0c-1.2,1.4-2.9,2.2-4.7,2.1c-2.4,0-4.9-1.1-7.4-2.2c-1.3-0.6-2.7-1.1-4.2-1.5l0,0
		c-0.5-0.2-1.1-0.2-1.7,0c-0.7,0.3-1.1,1.1-1.5,1.9c-0.2,0.6-0.5,1.1-0.9,1.6c-0.9,1.1-2.4,1.4-3.8,1.6c-0.6,0.1-1.2,0.2-1.9,0.4
		c-1.2,0.4-2.5,2.2-3.9,4c-1.8,2.5-3.7,5.1-5.9,5.1c-0.8,0-1.7-0.4-2.3-1l-0.5,0.4c-1.9,1.6-4,2.8-6.2,3.7c-0.4,0.2-0.9,0.3-1.4,0.3
		c-0.4,0-0.9-0.2-1.1-0.5c-0.7-0.9-0.1-2.8,0.4-4.3c-0.7,0.3-1.5,0.4-2.3,0.4c-1.4,0-3.1-0.3-3.6-0.8c-1.1-1-0.9-2.5-0.7-3.9
		c0.2-1.3,0.3-2.5-0.4-3.4c-1.4,3.9-2.2,7.9-2.5,12c-0.1,2.1,0,4.2,0.5,6.2l0,0v0.1c0.1,0.5,0.3,0.9,0.5,1.3
		c0.5,1.1,0.9,2.1,0.1,3.4c-0.7,1.1-0.6,2.6-0.3,4c1,5.2,2.4,10.2,4.2,15.2l0.1,0.3c1,2.6,2,5.3,1.4,8l0,0l0,0
		c-0.1,0.3-0.1,0.6,0,0.8c0.2,0.2,0.5,0.2,0.8,0.2h0.2c2.8,0.3,4,3.6,4.9,6c1.6,4.7,4.3,9,7.7,12.6c-1.2-1.8-2-3.7-2.6-5.7l-0.1-0.5
		l0.5,0.2c0.2,0.1,0.4,0.1,0.6,0.1c0.8-0.1,1.5-0.5,1.9-1.2c0.4-0.6,0.4-1.3,0.1-1.9c-0.4-0.5-0.9-1-1.4-1.4l0,0l-3-2.1
		c-1.4-0.9-2.7-2-3.8-3.2l0,0c-1.6-2-2.7-4.4-3.2-6.9c-0.1-0.5-0.2-1.1-0.3-1.8c-0.3-1.7-0.6-3.7-1.6-4.8l0.4-0.3
		c2.4,2.7,6,3.1,9.8,3.6c2.7,0.2,5.4,0.8,7.9,1.9c1,0.4,1.8,1.1,2.3,2l0,0c1,1.7,0.2,3.6-0.5,5.5c-0.5,1.1-0.8,2.2-1,3.4l0,0
		c-0.2,1.2,0.7,2.4,1.9,2.6c0.3,0,0.6,0,0.9,0l0,0c1-0.2,2.1-0.5,3-0.9l0,0c4-1.4,8.5-1,12.2,0.9l0,0c1,0.7,2.1,1.1,3.3,1.4
		c0.2,0,0.3,0,0.5,0c0.4,0,0.8,0,1.3-0.1c0.4-0.1,0.9-0.1,1.3-0.1c0.4,0,0.7,0,1.1,0.1l0,0c1.5,0.5,2.6,1.9,2.8,3.5
		c0.2,1.5-0.1,3-0.7,4.4l0,0c-0.3,0.6-0.5,1.3-0.5,2c0.2,0.6,0.5,1.2,1,1.7l0,0c1.9,2,3.9,3.9,6.1,5.6c3.1,2.6,6.3,5.2,8.4,8.8
		c0.1,0.1,0.2,0.3,0.2,0.4c1,1.7,2.2,3.7,4,3.7c0.6,0,1.2-0.2,1.8-0.4s1.2-0.4,1.9-0.4c0.2,0,0.4,0,0.6,0.1c0.6,0.2,1.1,0.4,1.6,0.8
		c0.4,0.3,0.9,0.6,1.4,0.7c0.2,0,0.3,0.1,0.5,0.1c0.5,0,1.1-0.1,1.6-0.3s1.1-0.3,1.6-0.3c0.4,0,0.7,0.1,1,0.2c1,0.5,1.3,1.6,1.5,2.7
		c0.1,0.7,0.4,1.4,0.8,2.1c0.8,1,2.2,1.1,3.6,1.1c1.2,0,2.3,0.2,3.4,0.7c1.1,0.7,1.9,1.8,2.4,2.9c0.7,1.3,1.3,2.4,2.5,2.9
		c0.6,0.2,1.3,0.3,2,0.3h0.6c0.2,0,0.5,0,0.8,0c1.3,0.1,2.8,0.8,2.9,2.1v0.2l-0.2,0.1c-6.1,1.5-13.2,3.1-20.4,3.1
		c-4.9,0.1-9.9-0.9-14.4-2.8l0.2-0.5l0,0c0.1,0,0.1-0.1,0.1-0.1c0.1-0.1,0.1-0.2,0-0.3c-0.2-0.3-0.5-0.5-0.8-0.6l0,0
		c-2.1-1-3.9-2.6-5.2-4.5c-0.3-0.3-0.4-0.8-0.4-1.2l0,0c0.1-0.8,1.1-1.1,1.9-1.1h0.1c3,0.1,5.8,1.4,8.4,2.6c2.3,1.3,4.9,2.1,7.5,2.5
		c0.2,0,0.3,0,0.5,0c0.7,0.1,1.4-0.2,1.8-0.8c0.2-0.7,0-1.5-0.7-1.8c-0.7-0.4-1.4-0.6-2.2-0.7h-0.4l1-1.8
		c-5.1-3.4-11.1-5.2-17.3-5.2l5.1,1.6h-1.8c-4.3-0.1-8.5-1-12.4-2.7l0,0c-1-0.5-2-0.8-3-0.9c-0.4,0-0.8,0.1-1.2,0.3
		c-0.3,0.2-0.6,0.3-0.8,0.6c-0.4,0.4-0.9,0.6-1.4,0.8l0,0c-0.6,0.1-1.2,0-1.8-0.2l-10.9-3.3l0.5-0.3c0.9-0.5,1.6-1.2,2.1-2
		s0.3-1.8-0.4-2.4c-0.4-0.2-0.9-0.3-1.3-0.3c-0.2,0-0.3,0-0.5,0s-0.3,0-0.5,0c-2.8,0-5.1-1.7-7.4-3.3c-0.3-0.2-0.5-0.4-0.8-0.6
		c-2.6-1.7-5.5-3.1-8.4-4.1c0,2.7,1.9,5,3.1,6.2c1,0.9,2,1.7,3,2.4s2,1.5,2.9,2.4s1.8,1.8,2.6,2.8c0.5,0.6,1,1.2,1.5,1.7l1.1-1
		l1.6,1.9l-0.5,0.5l-1.5-0.8l0.1,0.1c1.1,1.1,3.3,2.9,6,2.9h0.1h0.6l-0.4,0.4c-0.2,0.2-0.3,0.4-0.2,0.6c0.2,0.8,0.8,1.5,1.5,1.9
		l4,2.7c0.5,0.5,1.2,0.7,1.9,0.7c0.1,0,0.2,0,0.2,0c0.4-0.1,0.6-0.5,0.7-0.9c0-0.2-0.1-0.4-0.3-0.5l0,0l0.2-0.5l0,0l0,0
		c0.8,0.4,1.6,0.9,2.2,1.6c0.7,0.6,1.1,1.5,1.2,2.5c0,1.9-1.7,2.2-3.3,2.4c-0.3,0.1-0.7,0.1-1,0.2c8.8,5.6,18.5,9.7,28.7,12.1
		c7.9,1.9,15.9,2.8,24,2.8c10.3,0,20.5-1.5,30.4-4.4s19.3-7.3,27.8-13.1c48.1-32.1,61.1-97.1,29.1-145.2c-0.9-1.4-1.9-2.8-2.9-4.1
		c-4.5-5.9-9.5-11.4-15.1-16.4l0,0c-0.3-0.4-0.8-0.7-1.2-0.9c-0.6-0.1-1.2-0.1-1.7,0l0,0c-0.1,0-0.2,0-0.3,0c-2.1,0-4.1-1.2-5.7-2.1
		c-0.7-0.4-1.3-0.8-2-1.2c-1.1-0.7-2.3-1.4-3.5-2c4,3.2,6.6,7.1,9.5,11.2c1.2,1.8,2.5,3.6,3.9,5.4c3,3.9,6.3,7.6,9.8,11
		c0.6,0.6,1.3,1.1,2,1.7c2.9,2.5,6.2,5.2,5.9,9.2c-0.1,1-0.4,1.9-0.8,2.8c-0.2,0.6-0.5,1.3-0.6,1.9c-0.7,3.2,0.1,8.3,2.3,14.9
		c0.5,1.4,0.8,2.9,1,4.4c0.3,2.4,1,4.7,2.2,6.8l0.3,0.5l-2.4-0.3c-0.1,0-0.3,0-0.4,0c0,0.1-0.1,0.2-0.1,0.3l0,0
		c-0.1,3.3-0.3,6.7-0.5,10c0,0.7-0.1,1.5-0.1,2.2l0,0c0,0.2,0,0.4,0.1,0.6s0.4,0.2,0.7,0.2h0.3c0.2,0,0.4,0,0.7,0.1l0,0
		c0.8,0.3,1.3,1.1,1.2,1.9l0,0c-0.1,0.7-0.4,1.4-0.8,2.1l-1.6,2.8c-0.6,1-1.7,2.9-3.4,2.9c-0.1,0-0.2,0-0.4,0l-0.4-0.1l1.6-2.7
		l-1.9,0.3l-0.7-5.6c-0.1-0.6-0.3-1.2-0.7-1.2l0,0c-0.2,0-0.3,0.1-0.5,0.2l0,0c-0.3,0.2-0.5,0.4-0.8,0.6c-1.5,1.1-2.7,2-3,4
		c-0.1,0.6-0.1,1.2-0.1,1.9c0,0.7,0,1.3-0.1,2c-0.1,1.4-0.8,2.7-2,3.4l0,0c-0.5,0.2-1,0.3-1.5,0.1l0,0l0,0c-0.3-0.2-0.5-0.4-0.7-0.6
		c-3.6-4.5-6.3-9.6-7.9-15.2l0,0c-0.2-0.6-0.2-1.3-0.3-1.9c-0.1-1.4,0.7-2.6,2-3c0.5-0.2,1-0.4,1.4-0.5l0,0c1.2-0.4,2.1-1.5,2.1-2.7
		l0,0c0-0.7,0.1-1.5,0.2-2.2c0-0.3,0.1-0.7,0.1-1c0-0.9,0.3-1.7,1-2.3c1.2-1.2,1.9-2.7,2.1-4.4l0,0c0.2-1.3,0.3-2.6,0.3-3.8l0,0
		c0.1-1.2-0.5-2.4-1.4-3.2l-0.1-0.1l0.1-0.2c0.1-0.2,0.2-0.4,0.3-0.6l0,0c1.2-1.5,1.5-3.5,0.6-5.2l0,0c-0.7-1.5-2.3-2.1-3.9-2.7
		c-0.5-0.2-0.9-0.3-1.4-0.5c-2.7-1.2-5.2-2.7-7.6-4.4l-0.5-0.4l0.7-0.1c0.7-0.1,1.3-0.1,2-0.1c1.3,0,2.6,0.1,3.9,0.3
		c-0.5-0.6-0.8-1.4-0.8-2.2v-0.4l0.3,0.2c1.6,0.9,3.2,1.9,4.6,3c0-1.4-0.2-2.8-0.6-4.2s-1.3-2.6-2.5-3.3l-1.4,3.9l-0.5-0.2l0,0
		c0-0.1,0.1-0.6-0.7-2c-0.5-0.9-1.2-1.9-1.6-2.6c-0.2-0.3-0.3-0.5-0.4-0.6l0,0c-1-1.8-2.3-3.4-3.7-4.9c-0.8-0.7-1.6-1.3-2.6-1.6l0,0
		c-0.7-0.3-1.4-0.7-2.1-1.1c-1.4-0.8-2.9-1.5-4.4-2c-0.6-0.3-1.3-0.4-2-0.5c-0.5,0-0.7,0.3-1.4,1.6c-0.1,0.2-0.2,0.4-0.3,0.6
		c-0.9,1.6-2.7,2-4.4,2.4c-0.6,0.1-1.2,0.3-1.7,0.5c-1,0.4-2.1,0.9-3,1.5c-1,0.6-2,1.1-3.1,1.5l0,0c-1.4,0.4-2.9,0.7-4.4,0.8
		c-2.2,0.2-4.5,0.4-6.7,0.7c-7.9,0.8-16.2,1.6-24.3,1.6c-0.5,0-1,0-1.5,0h-0.8l0.6-0.4c1.3-0.9,3.5-1.3,6.9-1.3
		c1.4,0,2.7,0.1,3.8,0.1c0.3,0,0.6,0,0.9,0l0,0c0.7,0.1,1.5,0,2.1-0.4c0.1-0.1,0.3-0.2,0.4-0.4c0.1-0.1,0.2-0.2,0.3-0.3l0,0
		c0.3-0.3,0.7-0.6,1.1-0.7c2.3-1.1,4.7-1.7,7.2-1.9c2.3-0.1,2.8-0.7,3.7-2.5c-1.3,0.3-2.6,0.7-3.8,1c-3.4,0.8-6.7,1.7-9.9,2.9
		c0,0.2,0,0.4-0.1,0.6c-0.2,0.4-0.6,0.6-1.1,0.6l0,0c-0.6,0-1.2-0.2-1.7-0.4c-0.4-0.1-0.8-0.2-1.2-0.2c-1.2,0.1-2.4,0.4-3.5,0.8
		c-0.9,0.3-1.8,0.6-2.7,0.8c-0.5,0.1-1,0.1-1.4,0.1c-0.9,0-1.7-0.1-2.5-0.2c-0.8-0.1-1.7-0.2-2.5-0.2c-0.3,0-0.6,0-0.8,0
		c-0.8,0.1-1.6,0.3-2.5,0.5c-1,0.3-2.1,0.5-3.2,0.5c-0.4,0-0.9,0-1.3-0.1c-3.8-0.6-7.7-1.4-11.4-2.4c-1.9-0.4-3.8-1-5.6-1.6l0,0
		c-0.6-0.3-1.1-0.6-1.6-1c-0.6-0.4-1.2-0.8-1.9-1.1l0,0l-0.1-0.5l0,0c1.1-0.2,2.3-0.3,3.4-0.2c1.2,0,2.4-0.1,3.6-0.3
		c-1.3-0.7-2.6-1.1-4-1.3c-1.2-0.2-2.4-0.6-3.5-1c-3.7-1.7-7-4.2-9.7-7.3l0,0c-0.3-0.4-0.5-0.8-0.7-1.2v-0.1l0.1-0.1
		c0.4-0.6,1.1-0.8,1.8-0.7c1.7,0.2,3.3,0.9,4.7,1.9c0.2,0.1,0.4,0.3,0.6,0.4l0.3,0.2c0.1,0,0.1,0,0.2,0c0.6-0.5,1.4-0.7,2.1-0.7
		c2.2,0.2,4.2,1.2,5.6,2.8l0,0c0.3,0.4,0.7,0.8,1.2,1.1c0.4,0.2,0.8,0.2,1.3,0.2c0.1,0,0.2,0,0.3,0l0,0c0.3,0,0.8,0,1.6,0
		c1.7,0,4.3-0.1,7.2-0.1c3.6,0,6.5,0.1,8.7,0.2c3.9,0.3,4.8,0.7,5,1.1l0.1,0.1c3-0.9,6.1-1.3,9.2-1.2c3,0,6.1-0.4,9-1.2
		c1.9-0.7,3.8-1.5,5.6-2.5c0.8-0.4,1.5-0.8,2.3-1.1L273,35l0.3,0.2c0.4-0.5,0.8-1.1,1-1.7l-0.1,0.1c-0.4,0.2-0.8,0.4-1.2,0.6
		c-0.5,0.3-1,0.5-1.6,0.6l0,0c-1,0.1-1.9,0.2-2.9,0.3c-0.6,0.1-1.2,0.1-1.8,0.2c-0.4,0.1-0.8,0.1-1.3,0.2l-0.3,0.1
		c0.1,0.2,0.2,0.4,0.3,0.7l0.1,0.3l-0.3,0.1c-0.6,0.2-1.2,0.3-1.8,0.3l0,0c-0.7,0-1.4-0.1-2.1-0.2l0,0c-0.3,0-0.5-0.1-0.8-0.1
		c-0.4,0-0.5,0.1-1.2,1l-0.1,0.1h-0.1c-0.2,0-0.3,0-0.5,0s-0.4,0-0.6,0s-0.4,0-0.6,0c-2-0.2-4.2-0.3-6.7-0.3c-2.4,0-4.9,0.1-7.2,0.2
		c-1.2,0-2.5,0.1-3.7,0.1c-0.4,0.1-0.8,0-1.1-0.3l0,0c-0.2-0.2-0.3-0.4-0.2-0.6c-1.2,0.2-2.3,0.2-3.5,0.2c-0.4,0-0.8,0-1.2,0l0,0
		c-2.6-0.3-5.2-0.8-7.8-1.6c-2-0.6-4.1-1.1-6.2-1.4c-4.8-0.6-9.6-1.5-14.3-2.6l0,0c-1-0.3-2-0.6-2.9-1c-0.7-0.3-1.1-0.9-1.2-1.6
		c-0.4-1.1-0.4-2.3-0.2-3.5l0,0c0-0.1,0.1-0.2,0.1-0.3c0-0.1,0.1-0.1,0.1-0.2l0.1-0.2l0.8,0.2c0.2-0.4,0.4-0.8,0.6-1.2
		c0.5-0.7,0.7-1.6,0.8-2.5c-0.1-2.6,3.5-4.4,5.9-5.5c0.4-0.2,0.7-0.3,1-0.5c1.6-0.8,3.3-1.6,4.9-2.4C218.2,11.4,221.2,9.9,224,8.1
		L224,8.1z M170,95.5c0.3-1.1,0.5-2.3,0.5-3.5c0.1-1.2,0.1-2.4,0.1-3.6c-0.1-0.4-0.2-0.6-0.4-0.7l0,0c-0.4,0.1-0.7,0.3-0.9,0.6
		c-0.3,0.3-0.7,0.6-1.1,0.6c-0.4,0.1-0.6,0.2-0.6,0.8v2.9c-0.1,0.8,0.1,1.7,0.3,2.5c0.3,0.7,1,1.2,1.8,1.2h0.6
		c-0.2-0.2-0.3-0.3-0.5-0.5l0.4-0.4h-0.1C170.1,95.4,170,95.4,170,95.5z M187,181.4l-0.8-0.9l-0.4,0.4L187,181.4z M294.5,52.2
		c0.2,0,0.4,0,0.6,0.1c0.4,0.1,0.9,0.2,1.3,0.3c0.8,0.2,1.6,0.4,2.3,0.6c0.8,0.3,1.5,0.6,2.2,1c0.9,0.5,1.3,1.6,0.9,2.6
		c-0.2,1-0.7,1.8-1.5,2.4c-0.2,0.2-0.4,0.3-0.6,0.5c-0.4,0.3-0.8,0.6-1.2,0.9c-1,0.8-1.7,2-1.9,3.3c-0.1,0.3,0,0.7,0.1,1
		c0.6,1.2,2,2,3.4,1.8c1.2-0.2,2.3-0.4,3.5-0.7c1.3-0.4,2.7-0.2,3.9,0.6c1.8,1.1,2.4,2.4,1.9,4.2c-0.4,1.2-0.3,2.5,0.2,3.7
		c0.5,1,0.1,2.2-0.8,2.7c-0.2,0.1-0.3,0.1-0.5,0.2c-0.7,0.2-1.4,0.3-2.2,0.4c-0.5,0.1-1.1,0.1-1.6,0.1s-1.2,0.1-1.7,0.1
		c-0.7,0.1-1.4,0.5-1.7,1.2l0,0l-0.8,1.6c-0.5,1.1-1,2.2-1.6,3.3c-0.7,1.5-0.5,2,0.9,2.8l0,0c0.3,0.2,0.6,0.4,0.9,0.6
		c0.1,0.1,0.3,0.2,0.4,0.3l0.2,0.1l-0.1,0.2c-0.6,1.7-1.7,3.2-3.2,4.3l0,0l0,0c-0.3,0.1-0.6,0.2-1,0.2c-0.8,0.2-1.7,0.4-2.5,0.6l0,0
		c-0.6,0.2-1,0.8-0.8,1.4c0,0.1,0.1,0.2,0.1,0.2l0,0c0.1,0.2,0.2,0.4,0.3,0.5l0,0c1,1.8,0.3,4-1.4,4.9c-0.3,0.2-0.6,0.3-0.9,0.4
		c-1.3,0.3-2.6,0.5-3.9,0.6c-0.5,0.1-0.9,0.1-1.4,0.2c-0.7,0.2-1.4-0.1-1.8-0.8c-0.8-1-2.1-1.3-3.3-0.8l0,0
		c-1.4,0.5-2.9,0.8-4.3,0.9c-0.7,0.1-1.4,0.1-2.3,0.1s-1.8,0-2.6-0.1h-0.8h-0.1c-1,0-1.9,0.4-2.4,1.2l0,0c-0.3,0.4-0.7,0.8-1,1.1
		c-0.3,0.3-0.6,0.6-0.9,1c-0.8,0.6-1,1.7-0.3,2.5c0,0,0,0.1,0.1,0.1c0.8,1,0.7,2.5-0.3,3.4c-1.6,1.7-3.6,3-5.9,3.5l0,0
		c-1.3,0.3-2.6,0.4-4,0.5c-2.9,0.2-5.9,0.4-8.6,0.6c-0.2,0-0.4,0-0.7,0c-0.2,0-0.5,0-0.7,0c-0.3,0-0.6,0-0.9,0h-0.6l0.5-0.4
		c1.3-1.2,2.9-1.9,4.6-2.1l0,0c0.3,0,0.7-0.1,1-0.1l0.4-0.1c1.1-0.1,2.1-0.6,2.9-1.3c0.6-0.5,1.2-1,1.9-1.5c0.4-0.3,0.8-0.6,1.2-0.9
		c1.2-0.9,2.1-2.2,2.6-3.6c0.3-0.9,0.3-1.8,0-2.7c-0.6-1.5-1-3.1-1-4.8l0,0c0.1-1.8,0.6-2.5,2.2-3.2c0.8-0.3,1.5-0.5,2.3-0.7
		l0.2-0.1c0.7-0.1,1.2-0.6,1.4-1.3c0.2-0.8,1-1.4,1.8-1.2c1,0.1,2,0.2,3,0.5l0,0c1.2,0.3,2.5,0.3,3.7,0c0.6-0.2,1.2-0.3,1.8-0.4
		c0.9-0.2,1.7-0.4,2.6-0.7c0.8-0.3,1.5-0.7,2.1-1.3c1.5-1.6,2.5-3.5,3-5.6c0.1-0.6,0-1.2-0.3-1.8l0,0c-0.2-0.4-0.4-0.9-0.6-1.3
		s-0.4-0.8-0.6-1.3c-0.4-0.8-0.1-1.8,0.7-2.1c0.1,0,0.2-0.1,0.3-0.1c0.2-0.1,0.4-0.2,0.6-0.2c0.6-0.1,1.1-0.5,1.4-1.1
		c0.2-0.8,0-1.6-0.4-2.2c-0.2-0.4-0.5-0.8-0.8-1.2c-0.3-0.4-0.6-0.8-0.8-1.3c-0.4-0.5-0.5-1.1-0.3-1.7c0.2-0.4,0.7-0.7,1.5-0.8
		c0.4,0,0.8-0.1,1.2,0c0.4,0,0.8,0,1.2,0c1.3-0.2,1.6-0.7,1.5-1.9c-0.2-1.4-0.8-2.8-1.7-4l0,0c-0.1-0.1-0.1-0.2-0.2-0.3
		c-0.5-0.5-0.6-1.2-0.4-1.8l0,0l0,0c0.3-0.2,0.7-0.4,1.1-0.4c0.2,0,0.4,0,0.6,0c0.1,0,0.2,0,0.4,0l0,0c0.8,0.1,1.6,0.1,2.4,0.1
		c0.4,0,0.8-0.2,1.1-0.5c0.2-0.3,0.3-0.6,0.2-1c-0.3-1.9,0.6-3.3,1.5-4.6c0.2-0.3,0.4-0.6,0.6-1l0,0C293.6,52.4,294,52.2,294.5,52.2
		L294.5,52.2z M299.7,67.2c-1.5,0-2.8-0.8-3.4-2.1l0,0c-0.2-0.4-0.2-0.8-0.2-1.3c0.2-1.4,1-2.7,2.1-3.6l0,0c0.4-0.3,0.8-0.6,1.2-0.9
		c0.2-0.2,0.4-0.3,0.6-0.5c0.7-0.5,1.1-1.3,1.3-2.1l0,0l0,0c0.3-0.8,0-1.6-0.7-2s-1.4-0.7-2.1-1c-0.8-0.2-1.5-0.4-2.3-0.6
		c-0.4-0.1-0.9-0.2-1.3-0.3l0,0l0,0c-0.4-0.2-0.9,0-1.2,0.4c-0.2,0.3-0.4,0.7-0.6,1c-0.8,1.3-1.6,2.6-1.4,4.3l0,0
		c0.1,0.5,0,1-0.3,1.4c-0.4,0.4-0.9,0.7-1.4,0.7l0,0c-0.3,0-0.5,0-0.8,0c-0.5,0-1.1,0-1.6-0.1c-0.1,0-0.3,0-0.4,0
		c-0.2,0-0.4,0-0.5,0c-0.3,0-0.5,0.1-0.8,0.2c-0.2,0.5,0,0.8,0.3,1.2c0.1,0.1,0.1,0.2,0.2,0.3c1,1.2,1.6,2.7,1.8,4.2l0,0
		c0.1,1.6-0.4,2.3-2,2.5c-0.4,0-0.8,0.1-1.2,0c-0.4,0-0.8,0-1.2,0c-0.6,0.1-1,0.2-1.2,0.5s0,0.7,0.3,1.2c0.2,0.4,0.5,0.8,0.8,1.2
		c0.3,0.4,0.5,0.8,0.8,1.3c0.5,0.8,0.7,1.8,0.4,2.7c-0.3,0.7-1,1.2-1.7,1.3c-0.2,0.1-0.4,0.1-0.6,0.2c-0.8,0.4-1,0.8-0.7,1.6
		c0.2,0.4,0.4,0.8,0.6,1.2c0.2,0.4,0.4,0.9,0.6,1.3c0.3,0.6,0.4,1.3,0.3,2l0,0c-0.5,2.2-1.6,4.3-3.1,5.9c-0.6,0.7-1.4,1.1-2.3,1.4
		s-1.7,0.5-2.6,0.7c-0.6,0.1-1.2,0.3-1.8,0.4c-1.3,0.4-2.7,0.4-4,0c-1-0.2-2-0.4-3-0.5l0,0c-0.6-0.1-1.1,0.2-1.3,0.8l0,0l0,0
		c-0.2,0.9-0.9,1.5-1.8,1.7l-0.2,0.1c-0.8,0.2-1.5,0.4-2.2,0.7c-1.2,0.3-2,1.5-1.9,2.7c0,1.6,0.4,3.1,1,4.6l0,0c0.3,1,0.3,2.1,0,3
		c-0.5,1.5-1.5,2.8-2.7,3.8c-0.4,0.3-0.8,0.6-1.3,0.9c-0.6,0.4-1.3,0.9-1.8,1.4c-0.9,0.8-2,1.3-3.1,1.4l-0.4,0.1
		c-0.3,0.1-0.7,0.1-1,0.1l0,0c-1.4,0.2-2.7,0.7-3.8,1.5h0.3c0.2,0,0.5,0,0.7,0c0.3,0,0.5,0,0.7,0c2.7-0.2,5.7-0.3,8.6-0.6l0,0
		c1.3-0.1,2.6-0.2,3.9-0.5c2.2-0.5,4.2-1.7,5.7-3.3l0,0c0.8-0.7,0.9-1.9,0.2-2.7l0,0l0,0c-0.8-1-0.7-2.4,0.3-3.2
		c0.3-0.3,0.6-0.7,0.9-1c0.3-0.4,0.7-0.7,1-1.1c0.7-0.9,1.7-1.4,2.8-1.4h0.1h0.8c0.9,0,1.8,0.1,2.6,0.1c0.8,0,1.6,0,2.2-0.1
		c1.4-0.1,2.8-0.4,4.2-0.9c1.4-0.6,2.9-0.2,3.9,0.9l0,0l0,0c0.3,0.4,0.8,0.7,1.3,0.5l0,0c0.5-0.1,0.9-0.1,1.4-0.2
		c1.3-0.2,2.6-0.4,3.9-0.6c1.7-0.4,2.7-2.1,2.3-3.7c-0.1-0.3-0.2-0.6-0.3-0.8c-0.1-0.2-0.2-0.4-0.3-0.6c-0.4-0.8-0.1-1.8,0.7-2.3
		c0.1-0.1,0.2-0.1,0.3-0.1c0.8-0.3,1.7-0.5,2.5-0.6l0,0c0.3,0,0.6-0.1,0.8-0.2c1.4-0.9,2.4-2.3,2.9-3.8l-0.2,0.1
		c-0.3-0.2-0.6-0.4-0.9-0.6c-0.9-0.5-1.3-0.9-1.5-1.4c-0.2-0.7,0-1.5,0.4-2.1c0.5-1.1,1-2.2,1.6-3.3l0.8-1.6
		c0.4-0.8,1.2-1.4,2.1-1.5c0.5-0.1,1.1-0.1,1.6-0.1s1.1-0.1,1.6-0.1l0,0c0.7,0,1.4-0.2,2.1-0.4l0,0c0.8-0.2,1.3-0.9,1.2-1.7
		c0-0.1-0.1-0.3-0.1-0.4l0,0c-0.6-1.3-0.7-2.7-0.3-4.1c0.5-1.6,0-2.7-1.7-3.7l0,0c-1-0.7-2.3-0.9-3.5-0.5c-1.2,0.3-2.3,0.6-3.5,0.7
		l0,0C300,67.2,299.9,67.2,299.7,67.2L299.7,67.2z M289.3,53.1h0.1h0.3v0.3c-0.2,1.3-0.4,2.5-0.7,3.9v0.1l-0.1,0.1
		c-0.8,0.5-1.7,0.8-2.7,0.6h-0.1L286,58c-0.4-1.1-0.2-2.2,0.5-3.1C287.1,53.8,288.2,53.2,289.3,53.1L289.3,53.1z M288.5,57.1
		c0.2-1.3,0.4-2.3,0.6-3.5c-0.9,0.1-1.8,0.7-2.3,1.5c-0.5,0.7-0.7,1.6-0.5,2.5c0.1,0,0.2,0,0.3,0C287.3,57.6,288,57.4,288.5,57.1
		L288.5,57.1z M245,59.7c1.2-0.1,2.3,0.3,3.2,1l0.2,0.2l-0.2,0.2c-0.8,1-2.7,1.4-4.2,1.4c-1.4,0-3.1-0.3-3.9-1.2l-0.2-0.2l0.2-0.2
		c0.5-0.8,1.5-1.2,2.4-1.1c0.4,0,0.8,0,1.1,0C244.2,59.7,244.6,59.7,245,59.7L245,59.7z M247.7,61c-0.8-0.5-1.7-0.8-2.7-0.8
		c-0.4,0-0.8,0-1.2,0s-0.8,0-1.2,0l0,0c-0.1,0-0.2,0-0.3,0c-0.6,0-1.2,0.3-1.6,0.8c1,0.6,2.2,0.9,3.3,0.9
		C245.4,62.1,246.7,61.7,247.7,61L247.7,61z M200.9,62.3c0.3,0,0.6,0,0.8,0.1c0.7,0.1,1.4,0.2,2.2,0.3c0.3,0,0.7,0.1,1.1,0.1h0.2V63
		c0,0.2,0.1,0.4,0.1,0.6c0,0.1,0,0.2,0.1,0.4c0.1,0,0.3,0,0.4,0c0.8,0,1.6-0.2,2.4-0.4c0.6-0.2,1.3-0.3,1.9-0.4h0.4l-0.6,2.4h0.5
		c0.5,0,1,0,1.5-0.1s1-0.1,1.5-0.1c1.2-0.1,2.4-0.2,3.6-0.2l0,0c0.8,0,1.6,0.2,2.4,0.5l0.4,0.2l-0.4,0.3c-0.8,0.4-1.7,0.7-2.7,0.9
		c-1.1,0.1-2.2,0.5-3,1.2c0.1,0,0.2,0,0.3,0c0.2,0,0.5,0,0.7,0s0.4,0,0.6-0.1c0.3,0,0.7-0.1,1-0.1s0.6,0.1,0.9,0.3
		c0.2,0.3,0.3,0.6,0.3,1v0.2l-0.2,0.1c-0.3,0.1-0.5,0.1-0.8,0.2l0,0c-1,0-1.9,0-2.9-0.1s-1.9-0.1-2.9-0.1c-0.6,0-1.1,0-1.5,0l0,0
		c-2.4,0.1-4.8-0.8-6.6-2.4c-0.3-0.2-0.5-0.4-0.8-0.6l0,0c-0.6-0.6-1.4-0.9-2.3-0.9c-0.1,0-0.2,0-0.3,0c-0.9,0.2-1.8-0.1-2.3-0.9
		l-0.1-0.2l0.2-0.2c0.2-0.1,0.3-0.3,0.5-0.4c0.4-0.4,0.8-0.7,1.2-1.1C199.2,62.6,200.1,62.3,200.9,62.3L200.9,62.3z M204.7,63.3
		c-0.3,0-0.6-0.1-0.9-0.1c-0.8-0.1-1.5-0.2-2.2-0.3l0,0c-0.9-0.3-2,0-2.7,0.7c-0.4,0.4-0.8,0.8-1.2,1.1l-0.3,0.2
		c0.4,0.5,1.1,0.6,1.7,0.5l0,0c0.1,0,0.2,0,0.3,0c1,0,1.9,0.4,2.6,1c0.2,0.2,0.5,0.4,0.8,0.6l0,0c1.7,1.5,4,2.3,6.3,2.3
		c0.5,0,1,0,1.6,0c1,0,2,0,2.9,0.1s1.9,0.1,2.9,0.1c0.2,0,0.4-0.1,0.5-0.1c0-0.1,0-0.3-0.1-0.4s-0.3-0.2-0.5-0.2c-0.3,0-0.6,0-1,0.1
		c-0.2,0-0.5,0-0.7,0.1c-0.3,0-0.5,0-0.8,0c-0.2,0-0.4,0-0.6,0l0,0v-0.7l0.1-0.1c0.9-0.8,2.1-1.4,3.4-1.5c0.7-0.1,1.4-0.3,2-0.6
		c-0.6-0.2-1.1-0.3-1.7-0.3c-1.2,0-2.4,0.1-3.6,0.2c-0.5,0-1,0.1-1.5,0.1s-1,0.1-1.5,0.1h-0.9h-0.3l0.6-2.3c-0.5,0.1-1,0.2-1.5,0.3
		c-0.8,0.2-1.6,0.4-2.5,0.4c-0.2,0-0.5,0-0.7,0H205v-0.2c0-0.2-0.1-0.4-0.1-0.5C204.8,63.7,204.8,63.5,204.7,63.3L204.7,63.3z
		 M266.8,64.9v0.3c-0.1,1-0.1,1.1-0.9,1.5l-0.2,0.1l-0.1-0.3c-0.2-0.3-0.2-0.7-0.1-1.1c0.2-0.3,0.5-0.4,1-0.6l0,0L266.8,64.9z
		 M265.9,66c0.1,0,0.2-0.1,0.3-0.2s0.1-0.3,0.1-0.4c-0.1,0-0.3,0.1-0.4,0.2C265.9,65.8,265.9,65.9,265.9,66L265.9,66z M314,70.2
		c0.4,0,0.8,0.1,1.1,0.2l0.2,0.1l-0.1,0.2c-0.4,1-1.2,1.9-2.1,2.5l-0.2,0.1l-0.1-0.1c-0.7-0.5-0.8-1.5-0.3-2.1l0,0
		C312.8,70.5,313.4,70.2,314,70.2L314,70.2z M314.7,70.8c-0.2-0.1-0.5-0.1-0.7-0.1c-0.4,0-0.9,0.2-1.1,0.6c-0.4,0.4-0.3,1,0.1,1.4
		l0,0C313.8,72.2,314.4,71.6,314.7,70.8L314.7,70.8z M251.3,76.3h0.1l0,0c2.7,0.1,5.4,0.3,8.1,0.4c0.1,0,0.3,0.1,0.3,0.2
		c0,0,0,0,0.1,0.1l0.2,0.2l-0.2,0.2c-1,0.7-5.8,1.2-8.6,1.2c-0.9,0.1-1.8,0-2.6-0.3l-0.3-0.1l0.3-0.3
		C249.3,77,250.2,76.4,251.3,76.3C251.2,76.3,251.3,76.3,251.3,76.3L251.3,76.3z M259.1,77.2c-2.6-0.1-5.2-0.3-7.7-0.4h-0.1h-0.1
		l0,0c-0.8,0.1-1.5,0.5-2,1.1c0.7,0.1,1.4,0.2,2.1,0.1C254,78.1,256.6,77.8,259.1,77.2L259.1,77.2z M304.2,79.4v1.1
		c0,0.1,0,0.3,0,0.5h-0.1h0.1c-0.1,0.3-0.4,0.6-0.7,0.7l0,0c-0.8,0.3-1.7-0.2-2-1l0,0l-0.1-0.2l1.5-1.1h0.1c0.3,0.1,0.6,0.3,0.8,0.5
		L304.2,79.4z M303.7,80.9c0-0.3,0-0.6-0.6-0.8l-1,0.7c0.2,0.4,0.8,0.7,1.2,0.5C303.5,81.2,303.7,81,303.7,80.9L303.7,80.9z
		 M276.3,83L276.3,83c0.4,0.1,0.7,0.2,1.1,0.3c0.8,0.2,1.7,0.5,2.5,0.7c0.3,0.1,0.6,0.3,0.7,0.7c0.1,0.4,0,0.8-0.3,1
		c-0.2,0.3-0.5,0.5-0.8,0.7c-1.6,1-3.4,1.5-5.3,1.6c-1,0.2-1.9-0.4-2.1-1.4c-0.1-0.3,0-0.7,0.1-1l0.1-0.2l0,0c0.3-1,1-1.8,2-2.1l0,0
		C274.8,83.2,275.5,83.1,276.3,83L276.3,83z M273.8,87.6c0.1,0,0.2,0,0.3,0l0,0l0,0c1.8,0,3.5-0.6,5-1.5c0.3-0.2,0.5-0.4,0.7-0.6
		s0.2-0.4,0.2-0.6c-0.1-0.2-0.2-0.3-0.4-0.3c-0.8-0.3-1.6-0.5-2.4-0.7c-0.3-0.1-0.7-0.2-1-0.3c-0.6,0.1-1.3,0.2-1.9,0.4
		c-0.9,0.3-1.5,1-1.7,1.9v0.2h-0.1c-0.2,0.7,0.3,1.4,1,1.6C273.6,87.6,273.7,87.6,273.8,87.6L273.8,87.6z M318.7,86.8v0.6l1.5,0.5
		v0.2c-0.2,1.1-1,2.1-2.1,2.5l-0.3,0.1l-0.1-0.3c-0.3-1-0.1-2.2,0.5-3.1L318.7,86.8z M319.6,88.3l-1.1-0.4c-0.4,0.7-0.5,1.4-0.4,2.2
		C318.8,89.7,319.4,89.1,319.6,88.3L319.6,88.3z M270.6,87.2c0.2,0,0.3,0.1,0.5,0.2h0.1l0.1,0.1c0.2,0.3,0.2,0.7,0,1l0,0l0,0
		c-0.1,0.1-0.3,0.2-0.6,0.2c-0.3,0-0.6-0.2-0.8-0.6l-0.1-0.1v-0.1C270,87.5,270.3,87.2,270.6,87.2L270.6,87.2z M270.8,87.9
		L270.8,87.9c-0.1-0.1-0.1-0.1-0.2-0.1s-0.2,0.1-0.3,0.3c0.1,0.2,0.2,0.3,0.3,0.3s0.1,0,0.2-0.1C270.9,88.1,270.9,88,270.8,87.9
		L270.8,87.9z M264.5,88.2h0.3c0.7,0,0.8,0.1,1,0.6h1.1l-1.2,0.5c-0.1,0.1-0.3,0.1-0.5,0.1c-0.4,0-0.7-0.3-0.7-0.9L264.5,88.2z
		 M218.7,91c1.1,0,2.1,0.6,2.6,1.5l0.2,0.4h-0.3c-0.4,0.7-1.1,1.2-1.9,1.3c-0.2,0-0.3,0-0.5-0.1c-1-0.3-1.9-1-2.2-2.1v-0.2l0.1-0.1
		C217.2,91.3,217.9,91,218.7,91L218.7,91z M220.7,92.6c-0.7-1.1-2.2-1.5-3.4-0.7c-0.1,0-0.1,0.1-0.2,0.1c0.3,0.8,1,1.4,1.8,1.6l0,0
		c0.1,0,0.2,0,0.3,0C219.8,93.6,220.4,93.2,220.7,92.6L220.7,92.6z M237.9,92.2c0.3,0,0.6,0,0.9,0.1l0,0c0.4,0.1,0.8,0.4,1.1,0.8
		c0.4,0.6,0.9,1.1,1.4,1.6c1.8,1.4,1.9,3.3,1.9,5c0,0.1,0,0.2-0.1,0.3l0,0l0,0c-0.2,0.3-0.4,0.6-0.6,0.9c-0.6,1.1-1.4,1.9-2.5,2.5
		c-0.2,0.1-0.4,0.2-0.6,0.3c-0.8,0.5-1.6,0.7-2.5,0.8c-0.2,0-0.3,0-0.5,0c0,0-0.1,0-0.2,0c-0.5,0-1-0.3-1.1-0.8v-0.2l0.2-0.1
		c0.6-0.3,1.3-0.4,1.9-0.4c0.7,0,1.4-0.1,2-0.5l-0.8-0.4v-0.2c0.1-0.6,0.5-1.2,0.9-1.7c0.5-0.6,0.9-1.3,1-2
		c-0.1-0.8-0.3-1.5-0.9-2.1c-0.2-0.2-0.3-0.5-0.5-0.7c-0.1-0.1-0.2-0.3-0.3-0.4l0,0c-0.3-0.4-0.8-0.7-1.3-0.7l0,0
		c-0.6-0.1-1.1-0.1-1.7-0.3l0,0c-0.2-0.1-0.4-0.1-0.5-0.3l-0.2-0.1l0.2-0.2c0.1-0.2,0.3-0.4,0.5-0.6l0,0
		C236.3,92.4,237.1,92.2,237.9,92.2L237.9,92.2z M238.7,92.7c-1-0.2-2,0-2.9,0.5c-0.1,0.1-0.2,0.2-0.3,0.2c0.1,0,0.1,0,0.2,0.1
		c0.5,0.1,1.1,0.2,1.6,0.2c0.7,0,1.3,0.4,1.7,0.9c0.1,0.1,0.2,0.3,0.3,0.4c0.2,0.2,0.3,0.5,0.5,0.7c1.3,1.9,1.3,2.9-0.1,4.7l0,0l0,0
		c-0.4,0.3-0.6,0.8-0.8,1.2l1.1,0.5l-0.2,0.3c-0.7,0.6-1.6,1-2.6,0.9c-0.5,0-1,0.1-1.5,0.2c0.1,0.2,0.3,0.2,0.6,0.2
		c0.1,0,0.1,0,0.2,0c0.1,0,0.3,0,0.4,0c0.8-0.1,1.6-0.3,2.3-0.7c0.2-0.1,0.4-0.2,0.6-0.3c1-0.6,1.7-1.4,2.3-2.3
		c0.2-0.3,0.4-0.6,0.6-0.9v-0.1l0,0c0-2-0.2-3.5-1.7-4.6l0,0c-0.5-0.5-1-1.1-1.5-1.6C239.4,93.1,239.1,92.9,238.7,92.7L238.7,92.7z
		 M281.7,101.7c0.4,0,0.8,0.1,1.1,0.2l0,0l0.2,0.1v0.2c-0.2,1.2-1,1.9-2.6,2.1h-0.1l-0.1-0.1c-0.5-0.5-0.5-1.3,0-1.8
		C280.6,102,281.1,101.7,281.7,101.7L281.7,101.7z M282.5,102.3c-0.3-0.1-0.5-0.1-0.8-0.1c-0.4,0-0.9,0.2-1.1,0.5l0,0l0,0
		c-0.3,0.3-0.3,0.7-0.1,1C281.7,103.6,282.3,103.1,282.5,102.3L282.5,102.3z M248.8,103.7c1,0,2,0.3,2.8,1l-0.1,0.1l0.2,0.1
		c0,0,0,0.1-0.1,0.1l-0.1,0.2l0,0c-0.9,1-2.2,1.5-3.5,1.4c-1,0-2-0.3-2.8-0.8l-0.2-0.1l0.1-0.2C245.7,104.3,247.4,103.7,248.8,103.7
		L248.8,103.7z M251.1,104.9c-0.7-0.5-1.5-0.7-2.3-0.7c-1.2-0.1-2.4,0.4-3.1,1.4c0.7,0.4,1.5,0.6,2.3,0.6
		C249.2,106.3,250.3,105.8,251.1,104.9L251.1,104.9z M155,104.3c0.4,0,0.9,0.2,1.2,0.5s0.4,0.8,0.4,1.3l0,0
		c-0.1,0.8-0.5,1.6-1.1,2.2l-0.2,0.2l-0.2-0.2c-0.8-1-1.2-2.3-1.1-3.5v-0.2h0.2C154.5,104.4,154.7,104.3,155,104.3L155,104.3z
		 M156,106c0-0.3-0.1-0.6-0.3-0.9c-0.2-0.2-0.5-0.3-0.8-0.3c-0.2,0-0.4,0-0.5,0.1c-0.1,1,0.2,2,0.8,2.8
		C155.7,107.2,156,106.6,156,106L156,106z M309.5,107.3c0.2,0,0.3,0,0.5,0l0,0c1,0.2,2,0.4,3.2,0.7l0,0l0,0c0.4,0.2,0.7,0.4,1,0.6
		l0.2,0.1l-0.1,0.3c-0.5,1.2-1.9,1.7-3.1,1.2c-0.1,0-0.2-0.1-0.3-0.1c-0.9,0.2-1.8-0.1-2.4-0.8v-0.1v-0.1c-0.2-0.5-0.1-1,0.2-1.4
		C308.9,107.4,309.2,107.3,309.5,107.3L309.5,107.3z M309.9,107.9c-0.1,0-0.3,0-0.4,0c-0.2,0-0.4,0-0.5,0.2c-0.2,0.3-0.2,0.6-0.1,1
		c0.5,0.5,1.3,0.7,2,0.5h0.1l0.1,0.1c0.8,0.6,2,0.4,2.6-0.5c0,0,0-0.1,0.1-0.1c-0.2-0.2-0.5-0.3-0.7-0.4
		C311.9,108.2,310.9,108,309.9,107.9L309.9,107.9z M290.5,110l1.5,0.5l-0.2,0.6h-0.1c-0.1,0.1-0.3,0.2-0.5,0.2c-0.5,0-0.6-0.7-0.7-1
		L290.5,110L290.5,110z M158.2,110.3L158.2,110.3c1.3,0,2.1,0.4,2.2,1c0.1,0.9-0.5,1.2-1,1.4c-0.1,0.1-0.2,0.1-0.4,0.2
		c-0.6,0.4-1.1,0.7-1.7,1c-0.2,0.1-0.5,0.2-0.7,0.2c-0.6,0-1-0.5-1-1.3l0,0c0-0.7,0.3-1.4,0.8-1.9
		C156.9,110.6,157.6,110.3,158.2,110.3L158.2,110.3z M158.3,110.8L158.3,110.8c-0.6,0-1.1,0.2-1.5,0.6s-0.6,0.9-0.6,1.5
		c0,0.2,0.1,0.8,0.6,0.8c0.2,0,0.3-0.1,0.5-0.1c0.6-0.3,1.1-0.6,1.7-1c0.1-0.1,0.3-0.2,0.4-0.2c0.5-0.3,0.8-0.4,0.7-0.9
		C159.9,111.1,159.2,110.8,158.3,110.8L158.3,110.8z M284.1,112.8c0.3,0,0.6,0.2,0.9,0.4l0.3,0.2l-0.2,0.2c-0.5,0.5-0.8,0.7-1.2,0.7
		c-0.3,0-0.6-0.2-0.9-0.4l-0.2-0.2l0.2-0.2C283.4,113,283.8,112.8,284.1,112.8L284.1,112.8z M284.5,113.4c-0.1-0.1-0.2-0.1-0.4-0.1
		c-0.1,0-0.3,0.1-0.6,0.4c0.1,0.1,0.2,0.1,0.3,0.1C284.1,113.8,284.2,113.7,284.5,113.4L284.5,113.4z M240,113
		c0.6,0,1.2,0.2,1.7,0.5l0.1,0.1v0.1c-0.1,1-0.3,1.6-1.4,1.8c-0.9,0.2-1.7,0.3-2.6,0.4l-0.5,0.1c-1,0.1-1.9,0.2-2.9,0.3l0,0
		c-0.3,0-0.5,0-0.8-0.1h-0.1l-0.2-0.6l0.1-0.1l0.1-0.1h-0.4l1.2-0.5c1.2-0.5,2.5-1,3.9-1.5C238.7,113.1,239.4,113,240,113z
		 M241.3,113.8c-0.4-0.2-0.9-0.4-1.3-0.4c-0.6,0-1.1,0.1-1.7,0.4c-1.3,0.5-2.5,0.9-3.7,1.4l-0.2,0.1c-0.2,0.1-0.4,0.2-0.6,0.4
		c0.2,0,0.3,0,0.5,0l0,0c1-0.1,1.9-0.1,2.9-0.3l0.5-0.1c0.8-0.1,1.7-0.2,2.6-0.4C241,114.9,241.2,114.7,241.3,113.8L241.3,113.8z
		 M205.8,116.1c0.3,0,0.5,0.2,0.6,0.4l0,0l0,0c0.1,0.3,0,0.6-0.2,0.8l0,0l0,0c-0.1,0.1-0.3,0.1-0.4,0.1c-0.2,0-0.6-0.1-0.7-0.8v-0.1
		l0.1-0.1C205.2,116.3,205.5,116.2,205.8,116.1L205.8,116.1z M206,116.8c-0.1-0.1-0.1-0.1-0.2-0.1s-0.1,0-0.2,0.1
		c0,0.1,0.1,0.2,0.2,0.2c0.1,0,0.1,0,0.2,0C206,116.9,206,116.9,206,116.8L206,116.8z M165.2,117.4c1.3,0,2.3,1,2.3,2.3
		c0.2,1.4-0.3,2.1-1.6,2.4c-1.4,0.3-2.8,0.6-4.2,0.9c-0.7,0.1-1.3,0.3-2,0.4l0,0l0,0c-0.2,0-0.4,0-0.5-0.1h-0.1v-0.1
		c-0.1-0.6-0.1-1.2,0.2-1.8c0.2-0.7,0.4-1.4-0.2-2l-0.2-0.2l0.2-0.2c0.1-0.1,0.2-0.2,0.3-0.3c0.2-0.2,0.5-0.4,0.7-0.5
		c1.6-0.4,3.3-0.7,4.9-0.8l0,0C165.1,117.4,165.2,117.4,165.2,117.4L165.2,117.4z M159.7,122.9c0.7-0.1,1.3-0.3,2-0.4
		c1.4-0.3,2.8-0.6,4.2-0.9c1-0.2,1.3-0.7,1.2-1.8l0,0c0-1-0.8-1.8-1.8-1.8h-0.1l0,0c-1.6,0.2-3.2,0.5-4.8,0.8l0,0
		c-0.2,0.1-0.4,0.2-0.5,0.3c-0.1,0-0.1,0.1-0.2,0.2c0.4,0.7,0.5,1.6,0.1,2.3c-0.2,0.4-0.2,0.9-0.2,1.3
		C159.5,122.9,159.6,122.9,159.7,122.9L159.7,122.9z M214.9,125.6c0.6,0,1.1,0.1,1.6,0.4c0.7,0.4,0.9,1.2,0.5,1.9
		c-0.2,0.3-0.4,0.5-0.7,0.6s-0.7,0.2-1,0.3l0,0h-0.4c-1.2-0.1-2.1-0.8-2.1-1.6C212.8,126.3,213.7,125.6,214.9,125.6L214.9,125.6z
		 M215.2,128.3c0.3-0.1,0.6-0.2,0.9-0.3l0,0c0.4-0.2,0.7-0.6,0.5-1.1c-0.1-0.2-0.2-0.4-0.4-0.5c-0.4-0.2-0.9-0.4-1.3-0.4h-0.1
		c-0.9,0-1.5,0.5-1.5,1.1s0.7,1.1,1.6,1.1L215.2,128.3z M183.2,125.9L183.2,125.9L183.2,125.9c0.3,0,0.5,0.2,0.7,0.4
		c0.1,0.1,0.2,0.2,0.2,0.3l0.2,0.2L184,127c-0.3,0.2-0.6,0.3-0.9,0.3c-0.4,0-0.8-0.3-1-0.7l-0.2-0.3l0.3-0.1c0.1,0,0.2-0.1,0.3-0.1
		C182.8,125.9,183,125.9,183.2,125.9L183.2,125.9z M183.3,126.4L183.3,126.4c-0.2,0-0.3,0.1-0.5,0.2l0,0c0.1,0.1,0.2,0.2,0.4,0.2
		c0.1,0,0.2,0,0.4-0.1l-0.1-0.1C183.4,126.5,183.3,126.4,183.3,126.4L183.3,126.4z M220.4,136.8L220.4,136.8c0.8,0,1.5,0.7,1.5,1.5
		c0,0,0,0,0,0.1v0.1c0,0.8-0.6,1.5-1.5,1.5l0,0c-0.8,0-1.3-0.6-1.3-1.5c0-0.5,0.1-0.9,0.4-1.3C219.7,136.9,220,136.8,220.4,136.8
		L220.4,136.8z M221.3,138.1c-0.1-0.5-0.5-0.8-0.9-0.8c-0.2,0-0.4,0.1-0.5,0.2c-0.2,0.3-0.3,0.6-0.3,0.9c0,0.7,0.3,1.1,0.8,1.1
		c0.6,0,1-0.5,1-1v-0.1L221.3,138.1L221.3,138.1z M228.8,139c0.3,0,0.5,0.1,0.8,0.2c0.4,0.2,0.8,0.4,1.2,0.6l0.4,0.2l0.2,0.1
		l-0.1,0.2c-0.2,0.6-0.4,1.2-0.7,1.8l0,0c-0.4,0.7-1.3,0.9-2,0.5c-0.2-0.1-0.3-0.2-0.4-0.4c-0.3-0.4-0.5-1-0.6-1.5s0-0.9,0.3-1.3
		C228.2,139.1,228.5,139,228.8,139L228.8,139z M230.8,140.3l-0.3-0.1c-0.4-0.2-0.8-0.4-1.2-0.5c-0.2-0.1-0.4-0.1-0.6-0.1
		c-0.2,0-0.4,0.1-0.5,0.2c-0.2,0.3-0.2,0.6-0.2,0.9c0.1,0.5,0.2,0.9,0.5,1.3c0.3,0.4,0.9,0.5,1.3,0.2c0.1-0.1,0.2-0.2,0.2-0.2
		C230.5,141.3,230.7,140.8,230.8,140.3L230.8,140.3z M244.5,143L244.5,143c0.6,0.1,1.1,0.3,1.5,0.5l0,0c0.7,0.4,1,1.2,0.6,2
		c-0.1,0.2-0.2,0.4-0.4,0.5c-1.1,0.8-2.6,0.9-3.7,0.2c-0.7-0.4-1-1.4-0.5-2.2c0.2-0.3,0.5-0.6,0.9-0.7
		C243.5,143.1,244,143,244.5,143L244.5,143z M244.3,146.2c0.6,0,1.2-0.2,1.7-0.6l0,0c0.4-0.3,0.5-0.9,0.2-1.3
		c-0.1-0.1-0.2-0.2-0.3-0.3l0,0c-0.4-0.2-0.9-0.4-1.3-0.5c-0.5,0.1-0.9,0.2-1.4,0.3l0,0c-0.6,0.2-0.9,0.7-0.8,1.3
		c0.1,0.3,0.2,0.5,0.5,0.6l0,0C243.3,146,243.8,146.2,244.3,146.2L244.3,146.2z M285.2,143.3l0.1,0.5c0.2,1.7,0,3.4-0.5,5l0,0
		c-0.4,1.2-1.3,2.2-2.4,2.8l1.1,0.1v0.3c-0.2,1.4-1,2.7-2.3,3.4c-1.2,0.7-2.5,1.2-3.9,1.4l0,0l0,0c-3,0-6.4,1.1-9.7,2.2
		c-1.6,0.5-3.1,1-4.5,1.4c-6.2,1.7-12.4,3.7-18.4,6.1c-0.9,0.4-1.9,0.7-2.9,1.1c0.6,0.2,1.1,0.6,1.4,1.2l0.1,0.3l-0.3,0.1
		c-2.8,0.7-5.6,1-8.5,1c-1.2,0-2.4,0.1-3.7,0.2c-0.6,0.1-1.5,0.2-2.4,0.3c-2,0.3-4,0.5-6.1,0.6c-1.6,0.1-3.3-0.2-4.8-0.9
		c-1.4-0.8-2.3-2.2-2.4-3.9v-0.3l0.3,0.1c3.2,0.6,6.5,0.9,9.8,1c4.1,0,7.2-0.7,9.1-2.1c0.2-0.1,0.3-0.3,0.4-0.4l-1.5,0.1
		c-4.1,0.2-8.3,0.3-12.6,0.3c-2,0-3.8,0-5.6-0.1h-0.5l0.3-0.4c0.2-0.3,0.4-0.5,0.6-0.8l0,0c1.5-1.3,3.3-2.3,5.2-2.9
		c3.6-1.2,7.4-2.1,11.2-2.6l0,0h0.2c1.3-0.2,2.8-0.4,4.2-0.8c8.8-1.9,17.2-4.5,26-7.3l0.3-0.1l0.1,0.2c0.5,1.1-0.5,2.2-1.6,2.9
		c-0.1,0.1-0.2,0.1-0.4,0.2c-0.7,0.3-1.4,0.8-1.8,1.5c0.1,0,0.2,0,0.3,0c0.8-0.1,1.6-0.4,2.3-0.9l0,0c2.1-1.2,4.1-2.6,6.1-4
		c1.4-0.9,2.8-1.6,4.4-2.1c0.7-0.2,1.3-0.4,2-0.7c2.2-0.9,4.4-1.9,6-2.6c0.7-0.4,1.6-0.6,2.5-0.3l0.4,0.1l-0.2,0.3
		c-0.2,0.3-0.4,0.5-0.5,0.8c0.9-0.3,1.8-0.9,2.5-1.6L285.2,143.3z M284.2,148.7c0.4-1.4,0.6-2.8,0.5-4.2c-0.8,0.7-1.8,1.3-2.8,1.5
		l-0.5,0.1l0.2-0.5c0.1-0.4,0.3-0.8,0.6-1.1c-0.6-0.1-1.2,0-1.7,0.3l0,0c-1.6,0.8-3.8,1.7-6.1,2.7c-0.7,0.3-1.4,0.5-2.1,0.7
		c-1.5,0.4-3,1.1-4.3,2c-2,1.4-4.1,2.8-6.1,4l0,0c-0.7,0.5-1.6,0.9-2.5,1c-0.2,0-0.4,0-0.7-0.1l-0.2-0.1l0.1-0.2
		c0.3-1.1,1.2-1.6,2.1-2.1c0.1-0.1,0.2-0.1,0.4-0.2c0.7-0.4,1.6-1.2,1.4-2c-8.8,2.8-17.1,5.4-25.9,7.3c-1.4,0.3-2.7,0.6-4,0.7l0,0
		h-0.2c-3.8,0.5-7.6,1.3-11.3,2.6l0,0c-1.9,0.5-3.6,1.5-5,2.7c-0.1,0.1-0.2,0.2-0.3,0.4c1.6,0.1,3.3,0.1,5.1,0.1
		c4.2,0,8.5-0.2,12.5-0.3l1.9-0.1h0.4l-0.2,0.4c-0.2,0.4-0.5,0.7-0.8,1c-2,1.5-5.2,2.2-9.4,2.2c-3.2-0.1-6.4-0.4-9.6-0.9
		c0.1,1.3,0.9,2.5,2.1,3.1c1.4,0.7,3,1,4.5,0.9c2-0.1,4-0.2,6-0.6c0.9-0.1,1.8-0.3,2.4-0.3c1.2-0.1,2.5-0.1,3.7-0.2
		c2.7,0,5.4-0.3,8-0.9c-0.4-0.5-1-0.8-1.7-0.8h-0.1h-1.5l1.4-0.5c1.2-0.5,2.5-0.9,3.7-1.4c6-2.4,12.2-4.5,18.4-6.2
		c1.4-0.3,2.9-0.8,4.5-1.3c3.4-1.1,6.8-2.2,9.9-2.2c1.3-0.3,2.5-0.7,3.7-1.4c1-0.6,1.8-1.6,2-2.8l-2-0.2v-0.5
		C282.5,151.3,283.8,150.2,284.2,148.7L284.2,148.7z M309.4,144.7l0.1,0.1c0.5,0.8,0.8,1.7,0.7,2.6c-0.2,0.8-0.7,1.4-1.4,1.7
		l-0.1,0.1l-0.1-0.1c-0.8-0.4-0.6-1.1-0.5-1.6l-0.7-0.1v-0.2c-0.2-1.2,0.5-2.3,1.7-2.5C309.2,144.7,309.2,144.7,309.4,144.7
		L309.4,144.7z M308.7,148.6c0.5-0.2,0.9-0.7,1-1.2c0-0.8-0.2-1.5-0.6-2.1c-0.8,0.2-1.4,0.9-1.3,1.7l0.9,0.2l-0.1,0.3
		c0,0,0,0.1,0,0.2C308.4,148.1,308.4,148.4,308.7,148.6L308.7,148.6z M218.4,145.9L218.4,145.9c0.6,0.2,1,0.3,1.5,0.6l0,0
		c0.7,0.4,1,1.4,0.6,2.1c-0.2,0.3-0.4,0.5-0.7,0.6c-0.9,0.5-2,0.5-2.8,0c-0.8-0.4-1.1-1.3-0.8-2c0.2-0.4,0.5-0.6,0.8-0.8
		C217.4,146.2,217.8,146.1,218.4,145.9L218.4,145.9z M219.6,146.9c-0.4-0.2-0.8-0.4-1.2-0.5c-0.4,0.1-0.8,0.3-1.2,0.4h-0.1
		c-0.5,0.2-0.8,0.9-0.5,1.4c0.1,0.2,0.3,0.4,0.5,0.5l0,0l0,0c0.7,0.5,1.6,0.5,2.3,0l0,0l0,0c0.5-0.2,0.8-0.9,0.5-1.4
		C219.9,147.2,219.8,147,219.6,146.9L219.6,146.9z M166.4,146.7l0.1,0.2c0.4,0.8,0.9,1.6,1.3,2.5l0.1,0.2l-0.7,0.4l-1.6-2.8
		L166.4,146.7z M236.2,148.1l0.1,0.1c1.1,0.7,1.9,1.8,2.1,3.1c0.1,0.3,0,0.7-0.2,1c-0.8,1.2-2,2-3.4,2.2l0,0c-0.1,0-0.2,0-0.3,0
		c-0.7,0-1-0.3-1.1-1.1l0,0c-0.1-0.9-0.1-1.8-0.1-2.7l0,0v-0.3c0-0.7,0.5-1.4,1.2-1.5c0.6-0.2,1.1-0.4,1.6-0.7L236.2,148.1z
		 M234.7,153.9c1.3-0.2,2.4-0.9,3.1-1.9l0,0c0.1-0.2,0.2-0.4,0.1-0.6c-0.2-1.1-0.8-2.1-1.8-2.7c-0.5,0.2-1,0.5-1.6,0.7l0,0
		c-0.4,0.1-0.7,0.4-0.8,0.8l0,0v0.3c-0.1,1,0,1.9,0,2.9c0.1,0.6,0.2,0.7,0.6,0.7C234.5,153.9,234.6,153.9,234.7,153.9L234.7,153.9z
		 M307.3,150.7l0.2,0.1c0.7,0.3,1,1.1,0.8,1.8l0,0l0,0c-0.3,1.3-1.2,2.3-2.5,2.7l-0.3,0.1v-0.3c0-0.1,0-0.2,0-0.4c0-0.4,0-0.8,0.2-1
		c0.6-0.7,1-1.5,1.2-2.3c0-0.2,0.1-0.3,0.3-0.4l0.1-0.1L307.3,150.7z M307.8,152.5L307.8,152.5L307.8,152.5c0.1-0.6,0.1-1-0.3-1.2
		l0,0l-0.1,0.1l0,0l0,0c-0.2,1-0.7,1.9-1.4,2.6l0,0c-0.1,0.2-0.1,0.4,0,0.6l0,0C306.8,154.3,307.5,153.5,307.8,152.5L307.8,152.5z
		 M304.1,154.5l0.5,0.8c0.2,0.3,0.3,0.6,0.1,1c-0.2,0.4-0.7,0.7-1.8,1l-0.4,0.1l0.1-0.4c0.2-0.7,0.8-1.3,1.5-1.6L304.1,154.5z
		 M303.3,156.7c0.6-0.2,0.9-0.3,0.9-0.5c0-0.1,0-0.2,0-0.3C303.9,156,303.6,156.3,303.3,156.7L303.3,156.7z M311.7,155.6l-0.1,0.4
		c-0.1,0.2-0.1,0.4-0.1,0.6v0.1c0.5-0.1,0.9-0.2,1.4-0.4c0.4-0.2,0.8-0.3,1.2-0.4l0.6-0.1l-0.3,0.5c-0.4,0.6-0.8,1.2-1.2,1.8
		c-0.4,0.6-0.8,1.2-1.2,1.8l0,0v0.1c-2.6,3.8-5.5,7.4-8.6,10.7l-0.1,0.1c-0.2,0.2-0.4,0.4-0.4,0.5l0,0c-0.2,1.4-1.3,2.6-2.6,3.1
		c-1.5,0.8-2.9,1.7-4.2,2.9c-1,0.9-2.1,1.7-3.2,2.4c-0.9,0.5-1.7,1.1-2.6,1.7c-0.4,0.3-0.8,0.5-1.2,0.8l-0.2,0.1l-0.5-0.5l0.1-0.2
		c0.1-0.2,0.3-0.5,0.4-0.7c0.3-0.6,0.7-1.1,1-1.7l0,0c2-3,4.1-5.8,6.5-8.6c1-1.2,1.9-2.5,2.7-3.7c0.2-0.3,0.3-0.7,0.5-1
		c-0.3,0-0.6,0.1-0.9,0.1c-3.5,1.4-6.5,3.8-8.6,6.9c-0.6,0.9-1.2,1.8-1.8,2.8c-0.5,0.8-1,1.7-1.6,2.5c0,0.1,0,0.2,0,0.3
		c0,0.3,0.1,0.7,0.1,1c0.3,1.7,0,2.1-1.7,2.6c-0.3,0.1-0.6,0.1-1,0.2c-0.6,0-1.2-0.3-1.5-0.9c-0.6-0.8-0.6-2-0.1-2.9
		c0.4-0.6,0.8-1.1,1.2-1.6c0.3-0.4,0.7-0.8,1-1.1c0.4-0.4,0.8-0.8,1.2-1.3c1.1-1.3,1.1-2.1-0.1-3.2c-0.9-0.8-1.8-1.5-2.7-2.2
		c-0.4-0.3-0.8-0.6-1.2-0.9c-0.3-0.2-0.5-0.4-0.8-0.6l-0.4-0.3l-0.3-0.2l0.3-0.2l0.3-0.2c0.2-0.2,0.4-0.3,0.6-0.4
		c0.4-0.3,0.9-0.5,1.3-0.8c0.9-0.6,1.9-1.2,2.8-1.8c0.7-0.4,1.5-0.6,2.3-0.4c1.1,0.2,2.2,0.3,3.3,0.5s2.2,0.3,3.3,0.5
		c1.5,0.2,3,0.1,4.4-0.4l0,0l2.4-0.7l0.4,0.8c1-0.2,2-0.8,2.6-1.6l0,0c0.4-0.4,0.8-0.8,1.2-1.1l0.2-0.2l0,0c1.2-0.9,2.1-1.9,2.9-3.1
		c0.5-1,1.4-1.7,2.4-2.1L311.7,155.6z M311.4,157.2c-0.1,0-0.2,0-0.2,0h-0.3l0.1-0.3c0-0.1,0.1-0.3,0.1-0.4v-0.1
		c-0.7,0.4-1.3,0.9-1.7,1.6l0,0c-0.8,1.3-1.8,2.4-3,3.3l-0.2,0.2c-0.4,0.4-0.8,0.7-1.1,1.1c-0.8,1-1.9,1.6-3.1,1.8h-0.2l-0.3-0.7
		l-2,0.6c-1.5,0.5-3.1,0.7-4.7,0.4c-1.1-0.2-2.2-0.3-3.3-0.5c-1.1-0.2-2.2-0.3-3.3-0.5l0,0c-0.7-0.2-1.3,0-1.9,0.3
		c-0.9,0.6-1.9,1.2-2.8,1.8c-0.4,0.3-0.9,0.5-1.3,0.8c-0.2,0.1-0.4,0.3-0.6,0.4l0,0h0.1c0.3,0.2,0.6,0.4,0.8,0.6
		c0.4,0.3,0.8,0.6,1.2,0.9c0.9,0.7,1.9,1.4,2.8,2.3c1.4,1.3,1.4,2.4,0.1,3.9c-0.4,0.4-0.8,0.9-1.2,1.3c-0.3,0.4-0.7,0.7-1,1.1l0,0
		c-0.4,0.5-0.8,1-1.2,1.5c-0.4,0.7-0.4,1.6,0.1,2.3c0.2,0.4,0.7,0.7,1.1,0.7c0.3,0,0.6-0.1,0.8-0.1c1.4-0.4,1.6-0.6,1.3-2
		c-0.1-0.4-0.1-0.7-0.1-1c0-0.1,0-0.2,0-0.3v-0.1l0.1-0.1c0.6-0.9,1.1-1.8,1.6-2.6c0.6-1,1.2-1.9,1.8-2.8c2.1-3.2,5.2-5.7,8.8-7.1
		l0,0l0,0c0.4-0.1,0.9-0.2,1.3-0.2h0.4l-0.1,0.3c-0.2,0.5-0.4,1-0.6,1.5l0,0c-0.9,1.2-1.8,2.5-2.8,3.7l0,0c-2.3,2.7-4.5,5.5-6.4,8.5
		c-0.3,0.5-0.7,1.1-1,1.7l-0.2,0.4c0.3-0.2,0.6-0.4,0.8-0.6c0.8-0.6,1.7-1.2,2.6-1.7c1.1-0.7,2.1-1.5,3.1-2.3
		c1.3-1.2,2.7-2.2,4.3-2.9l0,0c1.2-0.4,2.1-1.4,2.3-2.7c0.1-0.3,0.3-0.6,0.5-0.8l0.1-0.1c3.1-3.3,6-6.9,8.5-10.6l0,0v-0.1
		c0.4-0.6,0.8-1.3,1.2-1.9c0.3-0.4,0.5-0.8,0.8-1.2c-0.1,0.1-0.3,0.1-0.4,0.2C312.5,157,311.9,157.2,311.4,157.2L311.4,157.2z
		 M209.7,158.4c0.5,0,1,0.1,1.4,0.3c0.2,0.1,0.4,0.1,0.6,0.2c0.8,0.1,1.4,0.6,1.5,1.4c0,0.6-0.3,1.2-0.9,1.4c-0.3,0.1-0.6,0.2-1,0.2
		c-0.7,0-1.4-0.3-1.9-0.9c-0.6-0.6-0.8-1.4-0.8-2.2v-0.2l0.2-0.1C209.1,158.5,209.4,158.4,209.7,158.4L209.7,158.4z M211.4,161.4
		c0.3,0,0.5-0.1,0.8-0.2c0.4-0.1,0.7-0.5,0.6-0.9c-0.1-0.4-0.5-0.8-1.1-0.9c-0.2,0-0.5-0.1-0.7-0.2c-0.4-0.1-0.8-0.2-1.3-0.2
		c-0.2,0-0.3,0-0.5,0.1c0,0.6,0.3,1.2,0.7,1.7C210.3,161.1,210.8,161.4,211.4,161.4L211.4,161.4z M276.4,159.2c0.6,0,1.2,0,1.7,0.1
		c0.1,0,0.2,0.1,0.3,0.1c0,0,0.1,0,0.1,0.1l0.3,0.1l-1,1.3c0.8,0.3,1.6,0.4,2.5,0.2c0.5-0.1,0.9-0.1,1.4-0.2h0.1l0.5,0.9l2.2,0.7
		l-0.3,0.3c-0.9,0.9-1.7,1.7-2.5,2.5l-1.3,1.4l-0.1,0.1l-5.3-3l-0.3,0.2c-0.3,0.2-0.6,0.4-0.8,0.6c-3.2,2.6-6.7,4.7-10.5,6.3l0,0
		c-0.4,0.1-0.7,0.2-1.1,0.3l-0.2,0.1c-0.6,0.4-1.2,0.7-1.8,0.9l0,0l-0.7,0.2c-1.9,0.7-4,1.2-6,1.3l0,0h-0.3c-0.5,0-1,0-1.4,0.1
		s-1,0.1-1.5,0.1c-0.6,0-1.2-0.1-1.8-0.2c-0.3,0-0.5,0-0.8,0.1l0,0c-1.1,0.3-2.2,0.7-3.3,1.1c-1.4,0.5-3,0.8-4.5,0.8
		c-0.1,0-0.2,0-0.3,0h-1.2c-1.6,0-3.2-0.1-4.8-0.2l0,0c-0.9-0.1-1.8-0.3-2.7-0.6c-1.3-0.4-2.7-0.8-4-1.2c-0.5-0.2-1.1-0.3-1.6-0.5
		c-0.2-0.1-0.5-0.2-0.6-0.5l-0.2-0.4h0.5c0.4,0,0.7,0.1,1.1,0.1c0.9,0.1,1.7,0.2,2.6,0.2c2.6,0.1,5.3,0.1,7.9,0.2h1.1
		c0.3,0,0.5,0,0.8,0s0.5,0,0.8,0s0.6,0,0.8,0l0,0c0.1,0,0.2,0,0.3,0c0.8,0,1.5-0.3,2.1-0.8l0,0c0.4-0.4,0.9-0.6,1.5-0.7
		c2.6-0.8,5.3-1.5,8-2.2l1.8-0.5l0.8-0.2l-0.5,0.6c-1,1.2-2.2,2.3-3.4,3.2h0.8c0.5,0,1.1,0,1.6,0c0.6,0,1.1,0,1.6,0l0,0
		c2.3-0.1,4.5-0.5,6.7-1.3l0,0c0.2,0,0.3-0.1,0.5-0.1l0,0c0.4-0.3,0.7-0.6,1.1-0.9l0,0c1.9-1.1,3.2-3,3.8-5.1c0-0.1,0-0.2,0-0.2
		l-2-0.7l-0.2-0.6l0.2-0.1c0.2-0.1,0.4-0.2,0.6-0.2c0.5-0.2,0.9-0.4,1.4-0.5l0,0c0.7-0.2,1.2-0.5,1.7-1.1c0.7-0.9,1.7-1.5,2.8-1.7
		C273,159.4,274.7,159.2,276.4,159.2L276.4,159.2z M278.1,159.8c-0.6,0-1.1-0.1-1.7-0.1c-1.7,0-3.4,0.2-5,0.5
		c-1,0.2-1.9,0.8-2.5,1.6c-0.5,0.6-1.2,1.1-1.9,1.2c-0.5,0.2-0.9,0.3-1.4,0.5l-0.2,0.1l1.9,0.7v0.2c0,0.2,0,0.4,0,0.5l0,0l0,0
		c-0.6,2.2-2.1,4.2-4.1,5.4l-0.1,0.1h0.1c3.8-1.6,7.3-3.7,10.4-6.2c0.3-0.2,0.5-0.4,0.8-0.6c0.1-0.1,0.3-0.2,0.4-0.3l0.1-0.1l5.3,3
		l1.2-1.2c0.8-0.8,1.5-1.5,2.2-2.2l-1.6-0.5l-0.5-0.8c-0.4,0-0.8,0.1-1.2,0.1c-1,0.2-2.1,0.1-3.1-0.3l-0.3-0.1L278.1,159.8z
		 M253.1,172.8c-0.5,0-1.1,0-1.6,0s-1,0-1.6,0h-0.8l0.7-0.5c1.2-0.9,2.4-1.8,3.4-2.9l-0.9,0.3c-2.8,0.8-5.4,1.5-8,2.2l0,0
		c-0.5,0.1-0.9,0.3-1.3,0.6c-0.7,0.6-1.5,1-2.4,1c-0.1,0-0.2,0-0.3,0c-0.2,0-0.5,0-0.8,0s-0.5,0-0.8,0s-0.5,0-0.8,0l0,0h-1.1
		c-2.6-0.1-5.3-0.1-7.9-0.2c-0.7,0-1.4-0.1-2.1-0.2l0.5,0.1c1.3,0.4,2.7,0.8,4,1.2l0,0c0.8,0.3,1.7,0.5,2.6,0.6
		c1.6,0.1,3.2,0.2,4.7,0.2h1.2c0.1,0,0.2,0,0.3,0c1.5,0,2.9-0.3,4.3-0.8c1.1-0.4,2.2-0.7,3.3-1.1c0.3-0.1,0.7-0.2,1-0.1l0,0
		c0.6,0.1,1.1,0.2,1.7,0.2c0.5,0,1,0,1.4-0.1c0.4,0,0.8-0.1,1.2-0.1l0,0h0.3c1.9-0.1,3.8-0.5,5.6-1.1c-1.4,0.3-2.8,0.5-4.3,0.5
		C254.2,172.8,253.7,172.8,253.1,172.8L253.1,172.8z M325.4,171.3l0.7,0.4l-0.9,1.4l-0.7-0.4L325.4,171.3z M322.1,176.3L322,177
		c-0.2,0.9-0.4,1.4-1.3,1.4c-0.1,0-0.3,0-0.4,0l-0.6-0.1L322.1,176.3z M257.2,178.5c0.9-0.1,1.7,0.4,2.2,1.1l0.1,0.2l-0.1,0.1
		c-1.1,1.1-2.9,1.2-4.1,0.2l-0.3,0.5V179l0.2,0.3C255.8,178.8,256.5,178.5,257.2,178.5L257.2,178.5z M258.9,179.7
		c-0.9-0.9-2.3-0.9-3.3,0c0.4,0.4,1,0.6,1.6,0.6l0,0C257.8,180.3,258.4,180.1,258.9,179.7L258.9,179.7z M282.8,192.2l0.2,0.7
		l-1.7,0.3v-0.7L282.8,192.2z M268.9,192.6c0.6,0,1.2,0.4,1.4,1v0.1l-0.1,0.1c-0.4,0.6-1.1,1-1.8,1h-0.2l0,0l0,0
		c-0.9,0.1-1.8,0.2-2.7,0.2c-2,0-3.4-0.4-4.2-1.2l-0.4-0.4h0.6c0.4,0,0.8,0,1.2,0l0,0c1.4,0.2,2.7,0,4-0.4l0,0
		c0.6-0.2,1.2-0.3,1.9-0.4C268.7,192.6,268.8,192.6,268.9,192.6L268.9,192.6z M269.8,193.6c-0.2-0.4-0.7-0.6-1.1-0.5l0,0
		c-0.6,0.1-1.2,0.2-1.8,0.4c-1.4,0.4-2.8,0.6-4.2,0.4c-0.2,0-0.3,0-0.5,0c1,0.5,2.2,0.7,3.3,0.7c0.9,0,1.8-0.1,2.6-0.2l0,0l0,0h0.2
		C269,194.3,269.5,194,269.8,193.6L269.8,193.6z M213.1,193.8l2.4,0.4l-0.4,0.6c-0.1,0.2-0.3,0.4-0.4,0.6c0.3,0.5,0.8,0.9,1.4,1
		c0.6,0.2,1.2,0.6,1.6,1.1l0.2,0.3l-0.4,0.1c-2.2,0.3-4.2-1.3-4.5-3.5c0-0.1,0-0.2,0-0.3L213.1,193.8z M214.7,194.6l-1-0.2
		c0.2,1.7,1.7,3,3.4,3c-0.3-0.2-0.7-0.4-1.1-0.6c-0.8-0.2-1.4-0.7-1.7-1.4v-0.1l0.1-0.1C214.4,195,214.6,194.8,214.7,194.6
		L214.7,194.6z M270.7,195.3l-1.2,1c-0.2,0.2-0.5,0.4-0.7,0.5c-0.5,0.3-0.9,0.7-1.3,1.1l0,0l-0.1,0.1c-0.4,0.4-0.3,0.7-0.2,1.4
		c0.1,0.4,0.2,0.7,0.2,1.1v0.4l-0.3-0.1c-1.9-0.7-3.8-1.6-5.5-2.6l-0.8-0.5h0.9c2.6-0.1,5.2-0.7,7.6-1.8L270.7,195.3z M266.9,197.7
		L266.9,197.7L266.9,197.7c0.4-0.4,0.6-0.6,1-0.8c-1.7,0.6-3.5,1.1-5.4,1.2c1.4,0.8,2.8,1.5,4.3,2c0-0.2-0.1-0.4-0.1-0.6
		C266.5,198.8,266.5,198.2,266.9,197.7L266.9,197.7z M242.2,203.2c0.4,0,0.9,0.2,1.1,0.6l0.1,0.1l-0.1,0.7l-2.8-0.3l0.4-0.4
		C241.2,203.4,241.7,203.2,242.2,203.2L242.2,203.2z M242.8,203.9c-0.2-0.2-0.4-0.2-0.6-0.3c-0.2,0-0.3,0.1-0.5,0.2L242.8,203.9z"/>
</g>
</svg>
